<?xml version="1.0" encoding="UTF-8" standalone="no"?>
<svg
   xmlns:dc="http://purl.org/dc/elements/1.1/"
   xmlns:cc="http://creativecommons.org/ns#"
   xmlns:rdf="http://www.w3.org/1999/02/22-rdf-syntax-ns#"
   xmlns:svg="http://www.w3.org/2000/svg"
   xmlns="http://www.w3.org/2000/svg"
   viewBox="0 0 220 62.666668"
   height="62.666668"
   width="220"
   xml:space="preserve"
   id="svg2"
   version="1.1"><metadata
     id="metadata8"><rdf:RDF><cc:Work
         rdf:about=""><dc:format>image/svg+xml</dc:format><dc:type
           rdf:resource="http://purl.org/dc/dcmitype/StillImage" /></cc:Work></rdf:RDF></metadata><defs
     id="defs6" /><g
     transform="matrix(1.3333333,0,0,-1.3333333,0,62.666667)"
     id="g10"><g
       transform="scale(0.1)"
       id="g12"><path
         id="path14"
         style="fill:none;stroke:#808080;stroke-width:3.75;stroke-linecap:butt;stroke-linejoin:miter;stroke-miterlimit:4;stroke-dasharray:none;stroke-opacity:1"
         d="m 341.84,374.379 h 7.031" /><path
         id="path16"
         style="fill:none;stroke:#808080;stroke-width:3.75;stroke-linecap:butt;stroke-linejoin:miter;stroke-miterlimit:4;stroke-dasharray:none;stroke-opacity:1"
         d="m 391.602,396.879 c -16.723,0 -22.973,-45 -10.43,-45" /><path
         id="path18"
         style="fill:none;stroke:#808080;stroke-width:3.75;stroke-linecap:butt;stroke-linejoin:miter;stroke-miterlimit:4;stroke-dasharray:none;stroke-opacity:1"
         d="m 370.391,396.879 c 16.718,0 22.968,-45 10.429,-45" /><path
         id="path20"
         style="fill:none;stroke:#808080;stroke-width:3.75;stroke-linecap:butt;stroke-linejoin:miter;stroke-miterlimit:4;stroke-dasharray:none;stroke-opacity:1"
         d="m 412.461,396.879 c -16.723,0 -22.973,-45 -10.43,-45" /><path
         id="path22"
         style="fill:none;stroke:#808080;stroke-width:3.75;stroke-linecap:butt;stroke-linejoin:miter;stroke-miterlimit:4;stroke-dasharray:none;stroke-opacity:1"
         d="m 391.25,396.879 c 16.68,0 22.969,-45 10.391,-45" /><path
         id="path24"
         style="fill:none;stroke:#808080;stroke-width:3.75;stroke-linecap:butt;stroke-linejoin:miter;stroke-miterlimit:4;stroke-dasharray:none;stroke-opacity:1"
         d="m 433.32,396.879 c -16.718,0 -23.011,-45 -10.429,-45" /><path
         id="path26"
         style="fill:none;stroke:#808080;stroke-width:3.75;stroke-linecap:butt;stroke-linejoin:miter;stroke-miterlimit:4;stroke-dasharray:none;stroke-opacity:1"
         d="m 412.07,396.879 c 16.719,0 23.008,-45 10.43,-45" /><path
         id="path28"
         style="fill:none;stroke:#808080;stroke-width:3.75;stroke-linecap:butt;stroke-linejoin:miter;stroke-miterlimit:4;stroke-dasharray:none;stroke-opacity:1"
         d="m 370.391,396.879 c -16.719,0 -6.911,-22.5 -21.52,-22.5" /><path
         id="path30"
         style="fill:none;stroke:#808080;stroke-width:3.75;stroke-linecap:butt;stroke-linejoin:miter;stroke-miterlimit:4;stroke-dasharray:none;stroke-opacity:1"
         d="m 461.84,374.379 h -7.039" /><path
         id="path32"
         style="fill:none;stroke:#808080;stroke-width:3.75;stroke-linecap:butt;stroke-linejoin:miter;stroke-miterlimit:4;stroke-dasharray:none;stroke-opacity:1"
         d="m 433.32,396.879 c 16.719,0 6.91,-22.5 21.481,-22.5" /><path
         id="path34"
         style="fill:none;stroke:#808080;stroke-width:3.75;stroke-linecap:round;stroke-linejoin:miter;stroke-miterlimit:4;stroke-dasharray:none;stroke-opacity:1"
         d="m 530.98,402.5 11.719,-45 11.68,45" /><path
         id="path36"
         style="fill:none;stroke:#808080;stroke-width:3.75;stroke-linecap:round;stroke-linejoin:miter;stroke-miterlimit:4;stroke-dasharray:none;stroke-opacity:1"
         d="m 601.211,402.5 5.859,-22.5 1.481,-5.621" /><path
         id="path38"
         style="fill:none;stroke:#808080;stroke-width:3.75;stroke-linecap:round;stroke-linejoin:miter;stroke-miterlimit:4;stroke-dasharray:none;stroke-opacity:1"
         d="m 530.98,402.5 -5.859,-22.5 -1.449,-5.621" /><path
         id="path40"
         style="fill:none;stroke:#808080;stroke-width:3.75;stroke-linecap:round;stroke-linejoin:miter;stroke-miterlimit:4;stroke-dasharray:none;stroke-opacity:1"
         d="M 523.672,374.379 H 506.09" /><path
         id="path42"
         style="fill:none;stroke:#808080;stroke-width:3.75;stroke-linecap:round;stroke-linejoin:miter;stroke-miterlimit:4;stroke-dasharray:none;stroke-opacity:1"
         d="M 626.09,374.379 H 608.551" /><path
         id="path44"
         style="fill:none;stroke:#808080;stroke-width:3.75;stroke-linecap:round;stroke-linejoin:miter;stroke-miterlimit:4;stroke-dasharray:none;stroke-opacity:1"
         d="m 577.809,402.5 11.722,-45 11.68,45" /><path
         id="path46"
         style="fill:none;stroke:#808080;stroke-width:3.75;stroke-linecap:round;stroke-linejoin:miter;stroke-miterlimit:4;stroke-dasharray:none;stroke-opacity:1"
         d="m 554.379,402.5 11.711,-45 11.719,45" /><path
         id="path48"
         style="fill:none;stroke:#808080;stroke-width:3.75;stroke-linecap:butt;stroke-linejoin:miter;stroke-miterlimit:4;stroke-dasharray:none;stroke-opacity:1"
         d="m 671.84,174.879 v 48.75" /><path
         id="path50"
         style="fill:none;stroke:#808080;stroke-width:3.75;stroke-linecap:butt;stroke-linejoin:miter;stroke-miterlimit:4;stroke-dasharray:none;stroke-opacity:1"
         d="m 701.84,223.629 h -60" /><path
         id="path52"
         style="fill:none;stroke:#808080;stroke-width:3.75;stroke-linecap:butt;stroke-linejoin:miter;stroke-miterlimit:4;stroke-dasharray:none;stroke-opacity:1"
         d="m 701.84,246.129 h -60" /><path
         id="path54"
         style="fill:none;stroke:#808080;stroke-width:3.75;stroke-linecap:butt;stroke-linejoin:miter;stroke-miterlimit:4;stroke-dasharray:none;stroke-opacity:1"
         d="m 671.84,294.879 v -48.75" /><path
         id="path56"
         style="fill:none;stroke:#808080;stroke-width:3.75;stroke-linecap:butt;stroke-linejoin:miter;stroke-miterlimit:4;stroke-dasharray:none;stroke-opacity:1"
         d="m 1176.48,230 50.35,50.391 50.39,-50.391 -50.39,-50.391 z" /><path
         id="path58"
         style="fill:#808080;fill-opacity:1;fill-rule:nonzero;stroke:none"
         d="m 1225.51,206.172 c 0.74,-0.742 1.95,-0.742 2.65,0 l 11.96,11.949 c 0.7,0.707 0.7,1.918 0,2.617 -0.74,0.742 -1.96,0.742 -2.66,0 l -10.62,-10.578 -10.59,10.578 c -0.74,0.742 -1.91,0.742 -2.66,0 -0.74,-0.699 -0.74,-1.91 0,-2.617 z m -0.55,1.328 h 3.75 v 45 h -3.75 z" /><path
         id="path60"
         style="fill:none;stroke:#808080;stroke-width:3.75;stroke-linecap:butt;stroke-linejoin:miter;stroke-miterlimit:4;stroke-dasharray:none;stroke-opacity:1"
         d="m 1226.84,293.75 v -15" /><path
         id="path62"
         style="fill:none;stroke:#808080;stroke-width:3.75;stroke-linecap:butt;stroke-linejoin:miter;stroke-miterlimit:4;stroke-dasharray:none;stroke-opacity:1"
         d="m 1226.84,181.25 v -15" /><path
         id="path64"
         style="fill:#808080;fill-opacity:1;fill-rule:nonzero;stroke:none"
         d="m 292.109,92.3789 c 0,-5.5391 4.45,-10 10,-10 5.512,0 10,4.4609 10,10 0,5.5117 -4.488,10.0001 -10,10.0001 -5.55,0 -10,-4.4884 -10,-10.0001 z M 24.6094,90.5117 h 277.5 v 3.75 h -277.5 z" /><path
         id="path66"
         style="fill:#808080;fill-opacity:1;fill-rule:nonzero;stroke:none"
         d="m 661.84,92.3789 c 0,-5.5391 4.488,-10 10,-10 5.539,0 10,4.4609 10,10 0,5.5117 -4.461,10.0001 -10,10.0001 -5.512,0 -10,-4.4884 -10,-10.0001 z m -357.5,-1.8672 h 367.5 v 3.75 h -367.5 z" /><path
         id="path68"
         style="fill:#808080;fill-opacity:1;fill-rule:nonzero;stroke:none"
         d="m 939.34,92.3789 c 0,-5.5391 4.488,-10 10,-10 5.539,0 10,4.4609 10,10 0,5.5117 -4.461,10.0001 -10,10.0001 -5.512,0 -10,-4.4884 -10,-10.0001 z m -267.5,-1.8672 h 277.5 v 3.75 h -277.5 z" /><path
         id="path70"
         style="fill:#808080;fill-opacity:1;fill-rule:nonzero;stroke:none"
         d="m 1216.84,92.3789 c 0,-5.5391 4.49,-10 10,-10 5.54,0 10,4.4609 10,10 0,5.5117 -4.46,10.0001 -10,10.0001 -5.51,0 -10,-4.4884 -10,-10.0001 z m -267.5,-1.8672 h 277.5 v 3.75 h -277.5 z" /><path
         id="path72"
         style="fill:none;stroke:#808080;stroke-width:3.75;stroke-linecap:butt;stroke-linejoin:miter;stroke-miterlimit:4;stroke-dasharray:none;stroke-opacity:1"
         d="m 323.871,216.371 h -45" /><path
         id="path74"
         style="fill:none;stroke:#808080;stroke-width:3.75;stroke-linecap:butt;stroke-linejoin:miter;stroke-miterlimit:4;stroke-dasharray:none;stroke-opacity:1"
         d="m 323.871,253.789 h -45" /><path
         id="path76"
         style="fill:none;stroke:#808080;stroke-width:3.75;stroke-linecap:butt;stroke-linejoin:miter;stroke-miterlimit:4;stroke-dasharray:none;stroke-opacity:1"
         d="m 323.871,216.289 -22.5,38.941" /><path
         id="path78"
         style="fill:none;stroke:#808080;stroke-width:3.75;stroke-linecap:butt;stroke-linejoin:miter;stroke-miterlimit:4;stroke-dasharray:none;stroke-opacity:1"
         d="m 278.871,216.289 22.5,38.941" /><path
         id="path80"
         style="fill:none;stroke:#808080;stroke-width:3.75;stroke-linecap:butt;stroke-linejoin:miter;stroke-miterlimit:4;stroke-dasharray:none;stroke-opacity:1"
         d="m 301.371,215.98 v -15" /><path
         id="path82"
         style="fill:none;stroke:#808080;stroke-width:3.75;stroke-linecap:butt;stroke-linejoin:miter;stroke-miterlimit:4;stroke-dasharray:none;stroke-opacity:1"
         d="m 301.371,268.789 v -15" /><path
         id="path84"
         style="fill:none;stroke:#808080;stroke-width:3.75;stroke-linecap:butt;stroke-linejoin:miter;stroke-miterlimit:4;stroke-dasharray:none;stroke-opacity:1"
         d="M 301.371,92.3789 V 204.879" /><path
         id="path86"
         style="fill:none;stroke:#808080;stroke-width:3.75;stroke-linecap:butt;stroke-linejoin:miter;stroke-miterlimit:4;stroke-dasharray:none;stroke-opacity:1"
         d="m 301.371,264.879 v 112.5" /><path
         id="path88"
         style="fill:none;stroke:#808080;stroke-width:3.75;stroke-linecap:butt;stroke-linejoin:miter;stroke-miterlimit:4;stroke-dasharray:none;stroke-opacity:1"
         d="m 323.871,216.371 h -45" /><path
         id="path90"
         style="fill:none;stroke:#808080;stroke-width:3.75;stroke-linecap:butt;stroke-linejoin:miter;stroke-miterlimit:4;stroke-dasharray:none;stroke-opacity:1"
         d="m 323.871,253.789 h -45" /><path
         id="path92"
         style="fill:none;stroke:#808080;stroke-width:3.75;stroke-linecap:butt;stroke-linejoin:miter;stroke-miterlimit:4;stroke-dasharray:none;stroke-opacity:1"
         d="m 323.871,216.289 -22.5,38.941" /><path
         id="path94"
         style="fill:none;stroke:#808080;stroke-width:3.75;stroke-linecap:butt;stroke-linejoin:miter;stroke-miterlimit:4;stroke-dasharray:none;stroke-opacity:1"
         d="m 278.871,216.289 22.5,38.941" /><path
         id="path96"
         style="fill:none;stroke:#808080;stroke-width:3.75;stroke-linecap:butt;stroke-linejoin:miter;stroke-miterlimit:4;stroke-dasharray:none;stroke-opacity:1"
         d="m 301.371,215.98 v -15" /><path
         id="path98"
         style="fill:none;stroke:#808080;stroke-width:3.75;stroke-linecap:butt;stroke-linejoin:miter;stroke-miterlimit:4;stroke-dasharray:none;stroke-opacity:1"
         d="m 301.371,268.789 v -15" /><path
         id="path100"
         style="fill:none;stroke:#808080;stroke-width:3.75;stroke-linecap:butt;stroke-linejoin:miter;stroke-miterlimit:4;stroke-dasharray:none;stroke-opacity:1"
         d="M 301.371,92.3789 V 204.879" /><path
         id="path102"
         style="fill:none;stroke:#808080;stroke-width:3.75;stroke-linecap:butt;stroke-linejoin:miter;stroke-miterlimit:4;stroke-dasharray:none;stroke-opacity:1"
         d="m 301.371,264.879 v 112.5" /><path
         id="path104"
         style="fill:none;stroke:#808080;stroke-width:3.75;stroke-linecap:butt;stroke-linejoin:miter;stroke-miterlimit:4;stroke-dasharray:none;stroke-opacity:1"
         d="M 671.84,92.3789 V 204.879" /><path
         id="path106"
         style="fill:none;stroke:#808080;stroke-width:3.75;stroke-linecap:butt;stroke-linejoin:miter;stroke-miterlimit:4;stroke-dasharray:none;stroke-opacity:1"
         d="m 671.84,264.879 v 112.5" /><path
         id="path108"
         style="fill:none;stroke:#808080;stroke-width:3.75;stroke-linecap:round;stroke-linejoin:miter;stroke-miterlimit:4;stroke-dasharray:none;stroke-opacity:1"
         d="m 921.211,199.77 45,11.679 -45,11.711" /><path
         id="path110"
         style="fill:none;stroke:#808080;stroke-width:3.75;stroke-linecap:round;stroke-linejoin:miter;stroke-miterlimit:4;stroke-dasharray:none;stroke-opacity:1"
         d="m 921.211,270 22.5,5.859 5.629,1.442" /><path
         id="path112"
         style="fill:none;stroke:#808080;stroke-width:3.75;stroke-linecap:round;stroke-linejoin:miter;stroke-miterlimit:4;stroke-dasharray:none;stroke-opacity:1"
         d="m 921.211,199.77 22.5,-5.86 5.629,-1.488" /><path
         id="path114"
         style="fill:none;stroke:#808080;stroke-width:3.75;stroke-linecap:round;stroke-linejoin:miter;stroke-miterlimit:4;stroke-dasharray:none;stroke-opacity:1"
         d="M 949.34,192.422 V 174.879" /><path
         id="path116"
         style="fill:none;stroke:#808080;stroke-width:3.75;stroke-linecap:round;stroke-linejoin:miter;stroke-miterlimit:4;stroke-dasharray:none;stroke-opacity:1"
         d="M 949.34,294.879 V 277.301" /><path
         id="path118"
         style="fill:none;stroke:#808080;stroke-width:3.75;stroke-linecap:round;stroke-linejoin:miter;stroke-miterlimit:4;stroke-dasharray:none;stroke-opacity:1"
         d="m 921.211,246.602 45,11.679 -45,11.719" /><path
         id="path120"
         style="fill:none;stroke:#808080;stroke-width:3.75;stroke-linecap:round;stroke-linejoin:miter;stroke-miterlimit:4;stroke-dasharray:none;stroke-opacity:1"
         d="m 921.211,223.16 45,11.719 -45,11.723" /><path
         id="path122"
         style="fill:none;stroke:#808080;stroke-width:3.75;stroke-linecap:butt;stroke-linejoin:miter;stroke-miterlimit:4;stroke-dasharray:none;stroke-opacity:1"
         d="M 949.34,92.3789 V 182.379" /><path
         id="path124"
         style="fill:none;stroke:#808080;stroke-width:3.75;stroke-linecap:butt;stroke-linejoin:miter;stroke-miterlimit:4;stroke-dasharray:none;stroke-opacity:1"
         d="m 949.34,279.879 v 97.5" /><path
         id="path126"
         style="fill:none;stroke:#808080;stroke-width:3.75;stroke-linecap:butt;stroke-linejoin:miter;stroke-miterlimit:4;stroke-dasharray:none;stroke-opacity:1"
         d="m 1226.84,282.5 v 90" /><path
         id="path128"
         style="fill:none;stroke:#808080;stroke-width:3.75;stroke-linecap:butt;stroke-linejoin:miter;stroke-miterlimit:4;stroke-dasharray:none;stroke-opacity:1"
         d="m 1226.84,87.5 v 90" /><path
         id="path130"
         style="fill:#808080;fill-opacity:1;fill-rule:nonzero;stroke:none"
         d="m 939.34,374.059 c 0,-5.508 4.488,-10 10,-10 5.539,0 10,4.492 10,10 0,5.55 -4.461,10 -10,10 -5.512,0 -10,-4.45 -10,-10 z m -267.5,-1.868 h 277.5 v 3.75 h -277.5 z" /><path
         id="path132"
         style="fill:#808080;fill-opacity:1;fill-rule:nonzero;stroke:none"
         d="m 1216.84,374.02 c 0,-5.5 4.49,-10 10,-10 5.54,0 10,4.5 10,10 0,5.511 -4.46,10 -10,10 -5.51,0 -10,-4.489 -10,-10 z m -267.5,-1.872 h 277.5 v 3.75 h -277.5 z" /><path
         id="path134"
         style="fill:none;stroke:#808080;stroke-width:3.75;stroke-linecap:butt;stroke-linejoin:miter;stroke-miterlimit:4;stroke-dasharray:none;stroke-opacity:1"
         d="m 1226.84,374.02 h 375" /><path
         id="path136"
         style="fill:none;stroke:#808080;stroke-width:3.75;stroke-linecap:butt;stroke-linejoin:miter;stroke-miterlimit:4;stroke-dasharray:none;stroke-opacity:1"
         d="m 301.371,374.379 h 45" /><path
         id="path138"
         style="fill:none;stroke:#808080;stroke-width:3.75;stroke-linecap:butt;stroke-linejoin:miter;stroke-miterlimit:4;stroke-dasharray:none;stroke-opacity:1"
         d="m 461.84,374.379 h 45" /><path
         id="path140"
         style="fill:#808080;fill-opacity:1;fill-rule:nonzero;stroke:none"
         d="m 661.84,374.379 c 0,-5.508 4.488,-10 10,-10 5.539,0 10,4.492 10,10 0,5.5 -4.461,10 -10,10 -5.512,0 -10,-4.5 -10,-10 z m -35,-1.879 h 45 v 3.75 h -45 z" /><path
         id="path142"
         style="fill:none;stroke:#808080;stroke-width:3.75;stroke-linecap:butt;stroke-linejoin:miter;stroke-miterlimit:4;stroke-dasharray:none;stroke-opacity:1"
         d="m 25.1211,373.629 c 0,-5.188 -4.1797,-9.367 -9.3828,-9.367 -5.1485,0 -9.36721,4.179 -9.36721,9.367 0,5.16 4.21871,9.383 9.36721,9.383 5.2031,0 9.3828,-4.223 9.3828,-9.383 z" /><path
         id="path144"
         style="fill:none;stroke:#808080;stroke-width:3.75;stroke-linecap:butt;stroke-linejoin:miter;stroke-miterlimit:4;stroke-dasharray:none;stroke-opacity:1"
         d="m 24.9609,92.3789 c 0,-5.1875 -4.1796,-9.3672 -9.3711,-9.3672 -5.1601,0 -9.37886,4.1797 -9.37886,9.3672 0,5.1602 4.21876,9.3831 9.37886,9.3831 5.1915,0 9.3711,-4.2229 9.3711,-9.3831 z" /><path
         id="path146"
         style="fill:none;stroke:#808080;stroke-width:3.75;stroke-linecap:butt;stroke-linejoin:miter;stroke-miterlimit:4;stroke-dasharray:none;stroke-opacity:1"
         d="m 1622.46,374.379 c 0,-5.199 -4.18,-9.379 -9.37,-9.379 -5.16,0 -9.38,4.18 -9.38,9.379 0,5.191 4.22,9.371 9.38,9.371 5.19,0 9.37,-4.18 9.37,-9.371 z" /><path
         id="path148"
         style="fill:none;stroke:#808080;stroke-width:3.75;stroke-linecap:butt;stroke-linejoin:miter;stroke-miterlimit:4;stroke-dasharray:none;stroke-opacity:1"
         d="m 1226.84,92.3789 h 375" /><path
         id="path150"
         style="fill:none;stroke:#808080;stroke-width:3.75;stroke-linecap:butt;stroke-linejoin:miter;stroke-miterlimit:4;stroke-dasharray:none;stroke-opacity:1"
         d="m 1622.46,93.1211 c 0,-5.1914 -4.18,-9.3711 -9.37,-9.3711 -5.16,0 -9.38,4.1797 -9.38,9.3711 0,5.1992 4.22,9.3789 9.38,9.3789 5.19,0 9.37,-4.1797 9.37,-9.3789 z" /><path
         id="path152"
         style="fill:#808080;fill-opacity:1;fill-rule:nonzero;stroke:none"
         d="m 16.2891,239.77 c 1.0117,0.191 1.8007,-0.282 2.3007,-1.411 0.0821,-0.199 0.1602,-0.39 0.2383,-0.629 0.043,-0.269 0.0821,-0.742 0.0821,-1.48 0,-1.211 -0.2813,-2.852 -0.8204,-5 -0.8203,-3.441 -1.9179,-6.211 -3.25,-8.32 -0.7382,-1.09 -1.5195,-1.91 -2.3007,-2.5 -0.6289,-0.469 -1.25,-0.782 -1.8789,-0.899 -0.2696,-0.082 -0.69926,-0.121 -1.28129,-0.121 -0.89844,0 -1.75782,0.121 -2.5,0.32 -2.5,0.891 -3.67969,2.848 -3.51953,5.86 0.12109,1.441 0.85937,4.019 2.23046,7.769 0.53907,1.602 0.82032,2.621 0.89063,3.09 0.16016,0.66 0.07812,1.051 -0.23047,1.172 C 5.89844,237.73 5.46875,237.66 5,237.379 4.37891,236.988 3.87109,236.371 3.51953,235.551 3.19922,235 2.89063,234.059 2.53906,232.77 2.42188,232.621 2.37891,232.5 2.33984,232.461 2.26953,232.422 1.91016,232.379 1.25,232.379 H 0.269531 l -0.148437,0.16 C 0.0390625,232.621 0,232.73 0,232.891 c 0.078125,0.468 0.308594,1.211 0.78125,2.23 0.50781,1.168 1.20703,2.149 1.98828,3.039 0.62891,0.551 1.21094,0.981 1.83985,1.25 0.46875,0.199 1.05078,0.32 1.71875,0.32 0.78125,0 1.40234,-0.16 1.95312,-0.429 0.39063,-0.199 0.69922,-0.43 0.89844,-0.672 0.23047,-0.188 0.46875,-0.508 0.66015,-0.899 0.28126,-0.539 0.39066,-1.171 0.39066,-1.789 0,-0.589 -0.1914,-1.41 -0.58206,-2.461 -0.03906,-0.16 -0.11719,-0.359 -0.19922,-0.55 -0.5,-1.45 -0.82031,-2.309 -0.92969,-2.621 -1.14062,-3.399 -1.48828,-5.821 -0.9414,-7.219 0.3125,-1.102 1.09375,-1.61 2.26171,-1.61 0.16016,0 0.32036,0.04 0.46876,0.04 0.5898,0.121 1.1719,0.429 1.7617,1.019 1.168,1.172 2.2695,3.789 3.2813,7.813 0.2695,1.168 0.3476,2.027 0.3086,2.578 -0.1094,1.05 -0.5391,1.91 -1.211,2.621 -0.2304,0.23 -0.4297,0.469 -0.5,0.66 -0.0781,0.199 -0.1211,0.43 -0.1211,0.82 0,0.348 0,0.629 0.0821,0.778 0.3086,0.781 0.8203,1.293 1.4804,1.64 0.2305,0.16 0.5508,0.242 0.8985,0.321 z m 8.75,-9.731 c 0.6601,0.16 1.1328,0 1.4101,-0.508 0.1094,-0.152 0.1524,-0.312 0.1524,-0.511 0,-0.27 -0.043,-0.54 -0.1524,-0.782 -0.4297,-0.578 -0.9375,-0.937 -1.5703,-1.008 -0.2305,0 -0.4297,0.04 -0.6172,0.149 -0.2031,0.082 -0.3515,0.281 -0.4336,0.512 -0.0781,0.039 -0.1172,0.199 -0.1172,0.429 0,0.27 0.0391,0.508 0.1602,0.739 0.2305,0.511 0.6602,0.82 1.168,0.98 z m -2.3086,-5.777 c 0.1211,0.039 0.3203,0.039 0.5898,0.039 0.4297,0 0.7813,-0.082 1.0899,-0.281 0.2382,-0.11 0.3906,-0.231 0.5507,-0.391 0.1172,-0.109 0.2696,-0.309 0.3907,-0.539 0.1601,-0.36 0.2382,-0.711 0.2382,-1.059 0,-0.312 -0.039,-0.551 -0.0781,-0.66 0,-0.043 -0.4336,-1.172 -1.2109,-3.359 -0.75,-2.032 -1.1797,-3.172 -1.211,-3.364 -0.1992,-0.589 -0.1992,-0.976 -0.0781,-1.207 0.0781,-0.082 0.2696,-0.121 0.5391,-0.043 0.7109,0.153 1.289,1.051 1.7187,2.622 0.0821,0.269 0.1993,0.429 0.2813,0.46 0.039,0 0.2305,0.04 0.539,0.04 0.3907,0 0.629,-0.04 0.6719,-0.071 0.1172,-0.078 0.1172,-0.277 0,-0.551 -0.2031,-0.699 -0.5117,-1.367 -0.9023,-1.988 -0.6992,-1.058 -1.5196,-1.68 -2.461,-1.801 -0.3086,-0.078 -0.6679,-0.039 -0.9765,0.039 -0.3906,0.122 -0.6602,0.231 -0.9024,0.43 -0.3906,0.313 -0.6601,0.781 -0.7812,1.371 -0.0781,0.352 -0.0781,0.699 0.043,1.09 0.039,0.121 0.4296,1.25 1.207,3.32 0.6328,1.719 1.0625,2.852 1.2109,3.403 0.1992,0.539 0.2422,0.937 0.0821,1.129 -0.043,0.16 -0.2305,0.199 -0.5508,0.078 -0.5391,-0.117 -1.0117,-0.668 -1.4414,-1.68 -0.2383,-0.82 -0.3477,-1.211 -0.3477,-1.168 -0.043,-0.121 -0.082,-0.16 -0.082,-0.199 -0.0391,-0.043 -0.2696,-0.043 -0.6602,-0.043 h -0.5898 l -0.0781,0.082 c -0.0821,0.039 -0.0821,0.117 -0.0821,0.238 0.0391,0.27 0.1602,0.699 0.4297,1.321 0.2422,0.468 0.4727,0.859 0.7109,1.179 0.2305,0.313 0.5,0.621 0.8594,0.973 0.4297,0.308 0.8203,0.508 1.2813,0.59 z m 8.4804,0 c 0.3086,0.078 0.6993,0.078 1.168,-0.043 0.4297,-0.117 0.8203,-0.309 1.1016,-0.59 0.2695,-0.27 0.4687,-0.539 0.539,-0.777 l 0.1211,-0.231 0.2383,0.188 c 0.7422,0.781 1.6406,1.25 2.6094,1.41 0.6719,0.121 1.25,0.121 1.8008,0 0.6992,-0.16 1.25,-0.469 1.6015,-0.938 0.1992,-0.23 0.3477,-0.582 0.4688,-1.011 0.039,-0.161 0.082,-0.43 0.082,-0.86 0,-0.469 -0.043,-0.789 -0.043,-0.898 -0.1992,-1.024 -0.6992,-2.621 -1.4492,-4.774 -0.3086,-0.777 -0.4687,-1.328 -0.539,-1.597 -0.0391,-0.469 0,-0.7 0.1914,-0.782 0.1992,-0.039 0.4687,0 0.7382,0.161 0.5508,0.351 1.0196,1.171 1.4102,2.5 0.0781,0.269 0.1602,0.429 0.2695,0.46 0.0391,0 0.2422,0.04 0.5508,0.04 0.3906,0 0.6289,-0.04 0.6602,-0.071 0.1211,-0.078 0.1211,-0.277 0,-0.551 -0.1914,-0.699 -0.5,-1.367 -0.8907,-1.988 -0.7109,-1.058 -1.5312,-1.68 -2.4609,-1.801 -0.3203,-0.078 -0.668,-0.039 -0.9805,0.039 -0.5468,0.122 -0.9375,0.352 -1.207,0.743 -0.3516,0.429 -0.5117,0.898 -0.5117,1.449 0,0.351 0.1601,0.89 0.3906,1.68 0.8985,2.378 1.4102,4.058 1.4805,5.031 0.0781,0.429 0.0781,0.859 0,1.219 -0.1094,0.39 -0.3125,0.582 -0.5391,0.699 -0.2031,0.082 -0.4726,0.121 -0.8633,0.043 -1.1679,-0.16 -2.1875,-1.102 -3.0468,-2.703 l -0.2305,-0.387 -0.8594,-3.402 c -0.5898,-2.34 -0.9023,-3.551 -0.9414,-3.629 -0.2305,-0.469 -0.6211,-0.743 -1.1719,-0.821 -0.1601,0 -0.2773,0 -0.3867,0.039 -0.4726,0.121 -0.7109,0.391 -0.7422,0.821 0,0.16 0.3516,1.64 1.0118,4.371 0.6992,2.738 1.0976,4.219 1.1289,4.461 0.039,0.468 0.039,0.816 -0.0704,1.047 -0.0781,0.121 -0.1992,0.203 -0.3593,0.242 -0.0703,0 -0.1914,-0.039 -0.2696,-0.082 -0.2304,-0.16 -0.5117,-0.629 -0.7421,-1.328 -0.0782,-0.27 -0.2383,-0.743 -0.4297,-1.52 C 30,220 29.9609,219.961 29.9219,219.922 c -0.043,-0.043 -0.2305,-0.043 -0.6211,-0.043 h -0.6289 l -0.0821,0.082 c -0.039,0.039 -0.0703,0.117 -0.0703,0.238 l 0.1524,0.582 c 0.4687,1.598 1.0586,2.617 1.7578,3.129 0.2695,0.192 0.5508,0.309 0.7812,0.352 z" /><path
         id="path154"
         style="fill:#808080;fill-opacity:1;fill-rule:nonzero;stroke:none"
         d="m 231.762,250.469 0.117,0.152 h 8 c 5.43,0 8.281,-0.031 8.48,-0.07 3.051,-0.281 5.352,-1.84 6.871,-4.61 0.821,-1.492 1.29,-3.171 1.45,-5.043 0.082,-0.937 0.082,-2.027 -0.039,-3.32 -0.59,-4.808 -2.582,-8.906 -5.981,-12.379 -0.39,-0.429 -0.82,-0.82 -1.211,-1.179 -2.5,-2.219 -5.23,-3.59 -8.16,-4.059 -0.269,-0.039 -3.168,-0.039 -8.629,-0.082 -5.512,0 -8.281,0.043 -8.359,0.121 -0.039,0 -0.082,0.078 -0.121,0.199 -0.039,0.071 0,0.422 0.16,1.012 0.148,0.629 0.269,0.98 0.351,1.059 l 0.11,0.109 h 1.449 c 1.41,0.043 2.191,0.121 2.34,0.199 0.16,0.082 0.281,0.274 0.359,0.543 0.231,0.59 1.25,4.649 3.121,12.149 2.071,8.281 3.09,12.46 3.09,12.5 0,0.082 0,0.121 -0.082,0.121 -0.199,0.078 -0.898,0.16 -2.109,0.199 -1.059,0 -1.641,0.109 -1.758,0.308 -0.039,0.082 0,0.43 0.117,1.051 0.152,0.551 0.313,0.903 0.434,1.02 z m 14.566,-2.418 h -5.707 c -0.422,-0.039 -0.66,-0.121 -0.699,-0.242 l -6.332,-25.231 c 0,-0.078 0.121,-0.156 0.359,-0.156 0.11,0 1.172,-0.043 3.199,-0.043 1.954,0.043 3.122,0.082 3.473,0.16 2.859,0.512 5.16,1.91 6.957,4.262 1.094,1.398 1.992,3.398 2.774,5.929 0.668,2.469 1.128,4.418 1.328,5.821 0.59,3.168 0.269,5.551 -0.942,7.148 -1.008,1.332 -2.5,2.11 -4.41,2.352 z" /><path
         id="path156"
         style="fill:#808080;fill-opacity:1;fill-rule:nonzero;stroke:none"
         d="m 31.6016,286.641 h -7.8907 v -7.969 h -2.1523 v 7.969 h -7.8477 v 2.031 h 7.8477 v 7.93 h 2.1523 v -7.93 h 7.8907 z" /><path
         id="path158"
         style="fill:none;stroke:#808080;stroke-width:2.25;stroke-linecap:butt;stroke-linejoin:miter;stroke-miterlimit:4;stroke-dasharray:none;stroke-opacity:1"
         d="m 11.8398,168.52 h 22.5" /><path
         id="path160"
         style="fill:#808080;fill-opacity:1;fill-rule:nonzero;stroke:none"
         d="m 554.262,460.469 0.117,0.152 h 7.262 l 7.269,-0.07 0.621,-0.082 c 1.989,-0.309 3.59,-0.981 4.809,-2.028 1.172,-0.941 1.91,-2.191 2.18,-3.671 0.121,-0.821 0.082,-1.649 -0.071,-2.43 -0.508,-2.141 -2,-4.02 -4.379,-5.621 -0.98,-0.629 -2.031,-1.168 -3.09,-1.559 -0.269,-0.121 -0.39,-0.16 -0.429,-0.16 l 0.359,-0.352 c 0.621,-0.507 1.168,-1.207 1.641,-2.027 0.308,-0.781 0.5,-1.57 0.539,-2.351 0,-0.622 -0.11,-1.68 -0.27,-3.2 -0.16,-1.48 -0.23,-2.66 -0.23,-3.519 0,-0.699 0.031,-1.172 0.07,-1.36 0.199,-0.671 0.668,-1.062 1.41,-1.171 0.391,0 0.7,0.07 0.942,0.308 0.468,0.274 0.859,1.094 1.25,2.461 0.148,0.473 0.308,0.699 0.508,0.781 0.109,0 0.429,0.039 0.89,0.039 0.629,0 1.02,-0.078 1.141,-0.23 0.109,-0.16 0.078,-0.469 -0.082,-0.981 -0.778,-2.226 -1.949,-3.668 -3.52,-4.296 -0.23,-0.082 -0.429,-0.153 -0.621,-0.153 -0.238,-0.039 -0.59,-0.078 -1.129,-0.078 -3.09,0.149 -5.078,1.129 -5.937,2.93 -0.242,0.469 -0.391,1.051 -0.434,1.75 0,0.59 0.043,0.937 0.082,1.097 0.11,0.704 0.352,1.602 0.621,2.774 0.508,2.066 0.739,3.359 0.668,3.867 -0.121,1.441 -0.75,2.34 -1.879,2.77 l -0.308,0.121 h -5.282 l -0.031,-0.16 c 0,0.039 -0.508,-1.872 -1.449,-5.782 -0.941,-3.75 -1.41,-5.617 -1.371,-5.617 0.16,-0.16 1.062,-0.242 2.742,-0.242 h 0.899 l 0.191,-0.109 c 0.078,-0.122 0.16,-0.239 0.16,-0.36 0,-0.5 -0.16,-1.09 -0.473,-1.75 -0.078,-0.199 -0.386,-0.281 -0.898,-0.238 -0.121,0 -0.391,0 -0.781,0 -4.489,0.117 -8.008,0.117 -10.508,-0.043 h -0.512 L 546.84,430 c -0.121,0.121 -0.199,0.23 -0.199,0.352 0,0.507 0.16,1.097 0.468,1.757 0.352,0.192 0.903,0.27 1.68,0.27 1.371,0.043 2.152,0.121 2.301,0.199 0.16,0.082 0.281,0.274 0.359,0.543 0.231,0.59 1.25,4.649 3.121,12.149 2.071,8.281 3.09,12.46 3.09,12.5 0,0.082 0,0.121 -0.082,0.121 -0.199,0.078 -0.898,0.16 -2.109,0.199 -1.059,0 -1.641,0.109 -1.758,0.308 -0.039,0.082 0,0.43 0.117,1.051 0.152,0.551 0.313,0.903 0.434,1.02 z m 13.976,-2.457 c -0.187,0.039 -1.09,0.039 -2.726,0.078 -1.602,0 -2.543,-0.039 -2.813,-0.078 -0.121,-0.082 -0.238,-0.121 -0.277,-0.203 l -2.891,-11.52 h 2.578 c 2.071,0.039 3.403,0.121 4.02,0.27 1.723,0.39 3.012,1.25 3.832,2.582 0.391,0.66 0.738,1.718 1.129,3.238 0.281,1.101 0.39,1.961 0.39,2.543 0,0.816 -0.23,1.488 -0.699,1.957 -0.312,0.312 -0.582,0.5 -0.82,0.582 -0.391,0.199 -0.981,0.391 -1.723,0.551 z m 14.852,-17.274 0.07,0.082 h 0.391 c 1.879,-0.082 4.148,-0.121 6.879,-0.039 0.66,0.039 1.019,-0.043 1.09,-0.16 0,-0.031 0,-0.269 -0.071,-0.621 -0.121,-0.352 -0.199,-0.551 -0.238,-0.621 l -0.082,-0.078 h -1.051 c -1.168,0 -1.84,-0.082 -1.988,-0.242 -0.078,-0.039 -0.711,-2.539 -1.961,-7.579 -1.25,-4.96 -1.867,-7.46 -1.867,-7.5 0,-0.031 0.039,-0.07 0.148,-0.07 h 2.891 c 0.937,0.11 1.801,0.43 2.539,0.969 0.43,0.281 0.75,0.633 1.019,0.98 0.551,0.743 1.09,1.84 1.602,3.36 0.16,0.472 0.269,0.703 0.348,0.742 0.043,0.039 0.242,0.039 0.589,0.039 0.391,0 0.582,0 0.622,-0.039 0.082,-0.039 0.16,-0.121 0.16,-0.231 l -2.5,-7.23 c -0.039,-0.078 -0.27,-0.121 -0.782,-0.121 -0.507,0 -2.457,0 -5.777,0 h -6.41 l -0.121,0.082 c -0.039,0.078 -0.07,0.16 -0.07,0.199 0,0.309 0.07,0.66 0.269,1.051 0.191,0.117 0.551,0.199 1.012,0.199 0.82,0 1.289,0.039 1.371,0.07 0.117,0.079 0.156,0.161 0.238,0.36 0.11,0.351 0.738,2.769 1.871,7.262 1.207,4.957 1.84,7.457 1.84,7.5 0,0.078 0,0.078 -0.043,0.078 -0.117,0.039 -0.547,0.082 -1.289,0.121 -0.629,0 -0.98,0.078 -1.059,0.187 0,0.043 0.04,0.282 0.079,0.633 0.121,0.348 0.203,0.539 0.281,0.617 z" /><path
         id="path162"
         style="fill:#808080;fill-opacity:1;fill-rule:nonzero;stroke:none"
         d="m 396.762,452.969 0.117,0.152 h 0.699 c 3.082,-0.152 6.91,-0.191 11.442,-0.07 1.101,0.039 1.679,-0.039 1.8,-0.242 0.039,-0.11 0,-0.469 -0.121,-1.047 -0.187,-0.59 -0.308,-0.942 -0.347,-1.024 l -0.153,-0.148 h -1.801 c -1.949,-0.039 -3.046,-0.16 -3.32,-0.391 -0.078,-0.078 -1.168,-4.258 -3.238,-12.621 -2.07,-8.277 -3.129,-12.457 -3.129,-12.539 0,-0.078 0.117,-0.117 0.269,-0.117 h 4.809 c 1.563,0.199 3.012,0.738 4.262,1.637 0.699,0.472 1.25,1.019 1.679,1.601 0.891,1.25 1.79,3.129 2.649,5.59 0.281,0.781 0.473,1.211 0.59,1.289 0.082,0.039 0.429,0.082 1.011,0.082 0.59,0 0.942,-0.043 0.981,-0.082 0.199,-0.078 0.269,-0.199 0.269,-0.43 l -4.14,-11.988 c -0.039,-0.16 -0.469,-0.199 -1.289,-0.199 -0.852,-0.043 -4.102,-0.043 -9.68,-0.043 h -10.672 l -0.148,0.121 c -0.121,0.16 -0.16,0.27 -0.16,0.352 0,0.507 0.16,1.097 0.468,1.757 0.352,0.192 0.903,0.27 1.68,0.27 1.371,0.043 2.152,0.121 2.301,0.199 0.16,0.082 0.281,0.274 0.359,0.543 0.231,0.59 1.25,4.649 3.121,12.149 2.071,8.281 3.09,12.46 3.09,12.5 0,0.082 0,0.121 -0.082,0.121 -0.199,0.078 -0.898,0.16 -2.109,0.199 -1.059,0 -1.641,0.109 -1.758,0.308 -0.039,0.082 0,0.43 0.117,1.051 0.152,0.551 0.313,0.903 0.434,1.02 z" /><path
         id="path164"
         style="fill:#808080;fill-opacity:1;fill-rule:nonzero;stroke:none"
         d="m 996.762,245.59 0.117,0.148 h 7.261 l 7.27,-0.039 0.62,-0.109 c 1.99,-0.281 3.59,-0.981 4.81,-2 1.17,-0.969 1.91,-2.219 2.18,-3.711 0.12,-0.82 0.08,-1.598 -0.07,-2.418 -0.51,-2.152 -2,-4.02 -4.38,-5.621 -0.98,-0.629 -2.03,-1.141 -3.09,-1.531 -0.27,-0.11 -0.39,-0.188 -0.43,-0.188 l 0.36,-0.351 c 0.62,-0.508 1.17,-1.18 1.64,-2.04 0.31,-0.781 0.5,-1.558 0.54,-2.339 0,-0.621 -0.11,-1.68 -0.27,-3.2 -0.16,-1.492 -0.23,-2.66 -0.23,-3.519 0,-0.703 0.03,-1.172 0.07,-1.371 0.2,-0.66 0.67,-1.051 1.41,-1.172 0.39,0 0.7,0.082 0.94,0.32 0.47,0.313 0.86,1.129 1.25,2.461 0.15,0.469 0.31,0.699 0.51,0.781 0.11,0.039 0.43,0.039 0.89,0.039 0.63,0 1.02,-0.082 1.14,-0.242 0.11,-0.148 0.08,-0.468 -0.08,-0.968 -0.78,-2.231 -1.95,-3.641 -3.52,-4.301 -0.23,-0.078 -0.43,-0.117 -0.62,-0.16 -0.24,-0.039 -0.59,-0.039 -1.13,-0.039 -3.09,0.121 -5.08,1.101 -5.94,2.929 -0.24,0.43 -0.39,1.02 -0.43,1.723 0,0.59 0.04,0.937 0.08,1.098 0.11,0.699 0.35,1.64 0.62,2.808 0.51,2.031 0.74,3.32 0.67,3.871 -0.12,1.403 -0.75,2.301 -1.88,2.731 l -0.31,0.121 h -5.28 l -0.03,-0.16 c 0,0.039 -0.51,-1.871 -1.45,-5.782 -0.941,-3.75 -1.41,-5.629 -1.371,-5.629 0.16,-0.152 1.062,-0.191 2.741,-0.191 h 0.9 l 0.19,-0.16 c 0.08,-0.109 0.16,-0.231 0.16,-0.348 0,-0.472 -0.16,-1.051 -0.47,-1.761 -0.08,-0.192 -0.39,-0.27 -0.9,-0.231 -0.12,0 -0.39,0 -0.78,0 -4.49,0.121 -8.009,0.121 -10.509,-0.039 h -0.512 l -0.109,0.121 c -0.121,0.149 -0.199,0.27 -0.199,0.391 0,0.468 0.16,1.047 0.468,1.758 0.352,0.152 0.903,0.269 1.68,0.269 1.371,0 2.152,0.082 2.301,0.16 0.16,0.071 0.281,0.27 0.359,0.539 0.231,0.59 1.25,4.653 3.121,12.153 2.071,8.281 3.09,12.461 3.09,12.5 0,0.121 0,0.16 -0.08,0.16 -0.201,0.039 -0.9,0.109 -2.111,0.148 -1.059,0 -1.641,0.121 -1.758,0.321 -0.039,0.109 0,0.46 0.117,1.05 0.152,0.551 0.313,0.899 0.434,1.02 z m 13.978,-2.469 c -0.19,0.039 -1.09,0.078 -2.73,0.078 -1.6,0 -2.54,0 -2.81,-0.078 -0.12,-0.07 -0.24,-0.109 -0.28,-0.191 l -2.89,-11.52 h 2.58 c 2.07,0.039 3.4,0.149 4.02,0.27 1.72,0.39 3.01,1.25 3.83,2.582 0.39,0.66 0.74,1.758 1.13,3.238 0.28,1.09 0.39,1.949 0.39,2.578 0,0.781 -0.23,1.442 -0.7,1.91 -0.31,0.313 -0.58,0.512 -0.82,0.59 -0.39,0.231 -0.98,0.391 -1.72,0.543 z m 23.64,-16.601 h 0.58 c 1.6,0 2.81,-0.54 3.71,-1.719 0.12,-0.192 0.2,-0.313 0.2,-0.313 l 1.05,1.024 1.02,1.008 h 0.19 c 0.24,0 0.39,-0.04 0.43,-0.149 0,-0.043 -0.27,-1.293 -0.9,-3.832 -0.66,-2.578 -0.97,-3.867 -0.97,-3.789 -0.04,-0.121 -0.28,-0.199 -0.74,-0.199 h -0.59 l -0.08,0.078 c -0.08,0.082 -0.08,0.242 -0.04,0.512 0.16,0.937 0.16,1.839 0.08,2.66 -0.2,1.75 -0.9,2.808 -2.07,3.16 -0.2,0 -0.43,0.039 -0.78,0.039 -0.67,0 -1.37,-0.078 -2.11,-0.309 -0.86,-0.312 -1.64,-0.742 -2.34,-1.332 -1.61,-1.211 -2.82,-3.16 -3.6,-5.859 -0.47,-1.762 -0.7,-3.238 -0.7,-4.379 0,-0.82 0.12,-1.519 0.31,-2.07 0.47,-1.25 1.33,-2.031 2.66,-2.422 0.11,-0.039 0.23,-0.078 0.35,-0.078 1.72,-0.352 3.28,0.16 4.69,1.527 1.05,1.051 1.79,2.383 2.26,3.942 0.08,0.281 0.2,0.468 0.28,0.468 0.03,0 0.23,0.043 0.54,0.043 0.43,0 0.71,-0.082 0.74,-0.152 0.04,-0.078 0,-0.238 -0.03,-0.399 -0.63,-2.14 -1.8,-3.941 -3.56,-5.308 -0.51,-0.391 -1.01,-0.742 -1.6,-1.012 -1.09,-0.512 -2.23,-0.781 -3.32,-0.75 -0.78,0 -1.52,0.16 -2.27,0.469 -1.25,0.473 -2.18,1.25 -2.89,2.351 -0.62,0.93 -1.01,2.071 -1.13,3.321 -0.08,0.469 -0.08,1.09 -0.04,1.91 0,0.078 0.04,0.16 0.04,0.199 0.2,2.031 0.9,3.942 2.11,5.781 0.35,0.469 0.66,0.899 0.94,1.207 0.47,0.622 1.09,1.211 1.79,1.832 1.84,1.489 3.75,2.348 5.79,2.54 z" /><path
         id="path166"
         style="fill:#808080;fill-opacity:1;fill-rule:nonzero;stroke:none"
         d="m 606.41,254.18 0.969,0.039 h 0.043 c 2.617,0 4.687,-0.938 6.168,-2.891 0.199,-0.308 0.32,-0.469 0.359,-0.469 l 1.711,1.641 1.68,1.719 h 0.39 c 0.36,0 0.59,-0.078 0.668,-0.27 0.043,-0.039 -0.468,-2.187 -1.488,-6.371 -1.09,-4.34 -1.64,-6.449 -1.64,-6.367 -0.04,-0.16 -0.469,-0.27 -1.25,-0.27 h -0.93 l -0.16,0.149 c -0.121,0.121 -0.121,0.39 -0.078,0.82 0.238,1.531 0.269,3.012 0.16,4.461 -0.352,2.93 -1.492,4.649 -3.481,5.188 -0.269,0.082 -0.703,0.082 -1.25,0.082 -1.133,0.039 -2.301,-0.121 -3.511,-0.512 -1.489,-0.508 -2.821,-1.207 -3.989,-2.18 -2.66,-2.039 -4.652,-5.277 -5.941,-9.769 -0.781,-2.969 -1.211,-5.391 -1.211,-7.301 0,-1.41 0.199,-2.539 0.551,-3.481 0.781,-2.027 2.269,-3.359 4.41,-4.019 0.199,-0.039 0.43,-0.078 0.629,-0.117 2.851,-0.59 5.429,0.226 7.769,2.5 1.762,1.828 3.012,4.019 3.793,6.597 0.16,0.512 0.309,0.782 0.469,0.782 0.078,0.039 0.391,0.078 0.898,0.078 0.743,0 1.172,-0.117 1.25,-0.27 0.043,-0.121 0,-0.359 -0.078,-0.668 -1.019,-3.59 -2.968,-6.519 -5.898,-8.832 -0.863,-0.66 -1.723,-1.25 -2.652,-1.679 -1.879,-0.86 -3.75,-1.29 -5.59,-1.25 -1.289,0 -2.539,0.281 -3.789,0.781 -2.032,0.789 -3.629,2.109 -4.77,3.949 -1.051,1.559 -1.672,3.398 -1.949,5.512 -0.121,0.777 -0.121,1.789 -0.043,3.16 0.043,0.156 0.043,0.277 0.043,0.348 0.387,3.359 1.558,6.57 3.519,9.609 0.618,0.82 1.129,1.531 1.598,2.07 0.781,0.981 1.801,2 3.012,3.012 3.039,2.461 6.25,3.91 9.609,4.219 z" /><path
         id="path168"
         style="fill:#808080;fill-opacity:1;fill-rule:nonzero;stroke:none"
         d="m 1606.29,234.879 c 1.01,0.242 1.8,-0.231 2.3,-1.399 0.08,-0.199 0.16,-0.39 0.24,-0.628 0.04,-0.274 0.08,-0.743 0.08,-1.481 0,-1.172 -0.28,-2.851 -0.82,-5 -0.82,-3.441 -1.92,-6.211 -3.25,-8.32 -0.74,-1.063 -1.52,-1.922 -2.3,-2.5 -0.63,-0.473 -1.25,-0.75 -1.88,-0.903 -0.27,-0.078 -0.7,-0.117 -1.28,-0.117 -0.9,0 -1.76,0.117 -2.5,0.348 -2.5,0.859 -3.68,2.82 -3.52,5.82 0.12,1.449 0.86,4.071 2.23,7.821 0.54,1.558 0.82,2.57 0.89,3.039 0.16,0.711 0.08,1.101 -0.23,1.171 -0.35,0.122 -0.78,0.04 -1.25,-0.23 -0.62,-0.391 -1.13,-1.02 -1.48,-1.84 -0.32,-0.539 -0.63,-1.441 -0.98,-2.73 -0.12,-0.2 -0.16,-0.309 -0.2,-0.309 -0.07,-0.082 -0.43,-0.121 -1.09,-0.121 h -0.98 l -0.15,0.16 c -0.08,0.07 -0.12,0.192 -0.12,0.352 0.08,0.468 0.31,1.207 0.78,2.258 0.51,1.14 1.21,2.109 1.99,3.011 0.63,0.547 1.21,0.981 1.84,1.25 0.47,0.199 1.05,0.309 1.72,0.309 0.78,0 1.4,-0.11 1.95,-0.391 0.39,-0.23 0.7,-0.429 0.9,-0.699 0.23,-0.199 0.47,-0.512 0.66,-0.898 0.28,-0.551 0.39,-1.172 0.39,-1.801 0,-0.582 -0.19,-1.403 -0.58,-2.461 -0.04,-0.149 -0.12,-0.352 -0.2,-0.539 -0.5,-1.449 -0.82,-2.313 -0.93,-2.621 -1.14,-3.399 -1.49,-5.782 -0.94,-7.231 0.31,-1.09 1.09,-1.597 2.26,-1.597 0.16,0 0.32,0.039 0.47,0.078 0.59,0.082 1.17,0.39 1.76,0.98 1.17,1.211 2.27,3.82 3.28,7.809 0.27,1.172 0.35,2.031 0.31,2.582 -0.11,1.051 -0.54,1.91 -1.21,2.609 -0.23,0.238 -0.43,0.469 -0.5,0.668 -0.08,0.192 -0.12,0.473 -0.12,0.82 0,0.352 0,0.622 0.08,0.821 0.31,0.742 0.82,1.293 1.48,1.601 0.23,0.16 0.55,0.27 0.9,0.309 z m 10.59,-15.469 c 0.03,0 0.23,0.039 0.58,0.039 0.47,-0.039 0.9,-0.109 1.29,-0.23 1.48,-0.508 2.42,-1.598 2.77,-3.278 0.04,-0.203 0.08,-0.55 0.08,-1.019 0,-0.582 -0.04,-1.133 -0.19,-1.602 -0.24,-1.019 -0.67,-1.949 -1.29,-2.808 -1.1,-1.563 -2.5,-2.621 -4.18,-3.09 -0.43,-0.121 -0.9,-0.192 -1.33,-0.231 -1.52,-0.043 -2.73,0.508 -3.56,1.68 -0.11,0.109 -0.19,0.27 -0.27,0.43 -0.86,1.519 -0.82,3.359 0.08,5.429 0.43,0.93 1.02,1.75 1.72,2.5 0.7,0.661 1.4,1.168 2.15,1.52 0.7,0.352 1.44,0.59 2.15,0.66 z m 0.85,-1.289 c -0.39,0.039 -0.7,0.039 -0.93,0 -0.86,-0.152 -1.6,-0.582 -2.19,-1.281 -0.51,-0.629 -0.98,-1.68 -1.33,-3.168 -0.04,-0.121 -0.08,-0.231 -0.12,-0.352 -0.27,-1.211 -0.43,-2.07 -0.43,-2.66 0,-0.39 0,-0.621 0.04,-0.738 0.24,-0.863 0.75,-1.332 1.57,-1.402 0.39,-0.04 0.74,0 1.13,0.109 0.98,0.32 1.72,1.019 2.3,2.07 0.28,0.59 0.59,1.492 0.9,2.781 0.39,1.559 0.51,2.649 0.31,3.321 -0.15,0.699 -0.58,1.129 -1.25,1.32 z m 9.61,1.258 c 0.12,0.031 0.32,0.07 0.59,0.07 0.43,-0.039 0.78,-0.109 1.09,-0.269 0.24,-0.16 0.39,-0.27 0.51,-0.43 0.16,-0.121 0.31,-0.309 0.43,-0.551 0.16,-0.308 0.24,-0.699 0.2,-1.051 0,-0.347 -0.12,-0.859 -0.36,-1.488 0,-0.109 -0.03,-0.191 -0.11,-0.351 -0.86,-2.418 -1.29,-4.098 -1.29,-5 0,-0.079 0,-0.149 0,-0.188 0,-0.633 0.15,-1.062 0.43,-1.371 0.19,-0.16 0.47,-0.23 0.82,-0.23 0.35,0 0.66,0.031 0.94,0.191 0.46,0.238 0.86,0.629 1.21,1.129 l 0.15,0.281 0.98,3.981 c 0.7,2.808 1.13,4.296 1.21,4.449 0.04,0.039 0.08,0.078 0.16,0.16 0.39,0.391 0.86,0.508 1.36,0.391 0.43,-0.122 0.67,-0.43 0.71,-0.821 0,-0.16 -0.35,-1.519 -0.98,-4.179 -0.66,-2.461 -0.98,-3.872 -1.05,-4.262 -0.08,-0.5 -0.08,-0.86 -0.04,-1.051 0.04,-0.078 0.08,-0.16 0.11,-0.199 0.08,-0.039 0.16,-0.07 0.28,-0.11 0.11,0 0.23,0.04 0.27,0.071 0.39,0.238 0.74,1.058 1.09,2.5 0.12,0.359 0.2,0.551 0.28,0.551 0.04,0.039 0.23,0.039 0.58,0.039 0.39,0 0.63,-0.039 0.67,-0.082 0.04,-0.039 0.08,-0.079 0.08,-0.188 0,-0.281 -0.16,-0.781 -0.43,-1.57 -0.24,-0.582 -0.47,-1.051 -0.71,-1.36 -0.5,-0.781 -1.13,-1.171 -1.87,-1.25 -0.9,-0.043 -1.64,0.309 -2.19,0.969 l -0.19,0.238 c -0.04,0.043 -0.04,0.082 -0.04,0.122 l -0.2,-0.2 c -0.66,-0.621 -1.41,-0.98 -2.19,-1.09 -0.78,-0.082 -1.48,0 -2.11,0.309 -0.89,0.352 -1.44,1.09 -1.64,2.109 -0.07,0.473 -0.07,1.051 0,1.68 0,0.082 0.04,0.121 0.04,0.152 0.12,0.899 0.55,2.27 1.25,4.11 0.32,0.969 0.51,1.558 0.55,1.832 0.08,0.43 0.04,0.668 -0.16,0.699 -0.19,0.078 -0.47,0.039 -0.74,-0.109 -0.39,-0.242 -0.66,-0.633 -0.9,-1.102 -0.15,-0.351 -0.35,-0.89 -0.58,-1.68 -0.04,-0.07 -0.08,-0.152 -0.12,-0.152 -0.04,-0.039 -0.23,-0.078 -0.63,-0.078 h -0.58 l -0.12,0.078 c -0.04,0.082 -0.08,0.121 -0.08,0.231 0.04,0.281 0.2,0.742 0.47,1.332 0.24,0.468 0.43,0.859 0.67,1.168 0.23,0.312 0.54,0.671 0.89,0.98 0.4,0.313 0.83,0.512 1.29,0.59 z m 17.35,4.961 c 0.27,0.109 0.51,0.07 0.78,0 0.23,-0.121 0.43,-0.281 0.51,-0.469 0.11,-0.199 0.07,-0.59 -0.08,-1.141 -0.04,-0.23 -0.16,-0.742 -0.35,-1.48 -0.35,-1.41 -0.55,-2.07 -0.51,-2.07 0,-0.039 0.35,-0.039 1.13,-0.039 h 1.17 l 0.08,-0.082 c 0.12,-0.079 0.12,-0.309 0,-0.7 -0.04,-0.269 -0.12,-0.468 -0.15,-0.589 -0.04,-0.071 -0.24,-0.11 -0.51,-0.149 -0.12,0 -0.43,0 -0.9,0 h -1.21 l -0.04,-0.121 c -1.21,-4.691 -1.84,-7.23 -1.88,-7.66 -0.03,-0.192 -0.07,-0.391 -0.07,-0.578 0,-0.512 0.15,-0.782 0.43,-0.782 0.11,0 0.27,0 0.39,0.04 0.23,0.031 0.5,0.152 0.82,0.39 0.62,0.469 1.13,1.25 1.56,2.34 0.08,0.23 0.19,0.352 0.31,0.352 0.04,0.039 0.2,0.039 0.51,0.039 0.43,0 0.62,-0.039 0.66,-0.082 0.12,-0.079 0.12,-0.27 0,-0.508 -0.35,-0.852 -0.74,-1.52 -1.21,-2.071 -0.74,-0.89 -1.56,-1.48 -2.5,-1.71 -0.11,0 -0.35,-0.04 -0.7,-0.04 -0.31,0 -0.55,0.04 -0.66,0.04 -0.51,0.152 -0.9,0.39 -1.22,0.66 -0.31,0.269 -0.5,0.621 -0.62,1.05 -0.04,0.161 -0.04,0.399 -0.04,0.75 v 0.5 l 0.9,3.68 c 0.62,2.418 0.94,3.629 0.94,3.711 0,0 -0.39,0 -1.14,0 -0.82,0 -1.25,0.078 -1.32,0.188 0,0.043 0,0.242 0.07,0.589 0.12,0.352 0.16,0.551 0.2,0.582 0.04,0.122 0.23,0.161 0.55,0.161 0.11,0 0.39,0 0.82,0 h 1.21 l 0.5,2.109 c 0.36,1.371 0.55,2.148 0.67,2.34 0.16,0.359 0.47,0.629 0.9,0.75 z" /><path
         id="path170"
         style="fill:#808080;fill-opacity:1;fill-rule:nonzero;stroke:none"
         d="m 1621.6,281.762 h -7.89 v -7.973 h -2.15 v 7.973 h -7.85 v 2.027 h 7.85 v 7.973 h 2.15 v -7.973 h 7.89 z" /><path
         id="path172"
         style="fill:none;stroke:#808080;stroke-width:2.25;stroke-linecap:butt;stroke-linejoin:miter;stroke-miterlimit:4;stroke-dasharray:none;stroke-opacity:1"
         d="m 1601.84,163.629 h 22.5" /><path
         id="path174"
         style="fill:#808080;fill-opacity:1;fill-rule:nonzero;stroke:none"
         d="m 736.289,242.379 c 1.012,0.242 1.801,-0.231 2.301,-1.399 0.082,-0.199 0.16,-0.39 0.238,-0.628 0.043,-0.274 0.082,-0.743 0.082,-1.481 0,-1.172 -0.281,-2.851 -0.82,-5 -0.82,-3.441 -1.918,-6.211 -3.25,-8.32 -0.738,-1.063 -1.52,-1.922 -2.301,-2.5 -0.629,-0.473 -1.25,-0.75 -1.879,-0.903 -0.269,-0.078 -0.699,-0.117 -1.281,-0.117 -0.899,0 -1.758,0.117 -2.5,0.348 -2.5,0.859 -3.68,2.82 -3.52,5.82 0.121,1.449 0.86,4.071 2.231,7.821 0.539,1.558 0.82,2.57 0.89,3.039 0.161,0.711 0.079,1.101 -0.23,1.171 -0.352,0.122 -0.781,0.04 -1.25,-0.23 -0.621,-0.391 -1.129,-1.02 -1.48,-1.84 -0.321,-0.539 -0.629,-1.441 -0.981,-2.73 -0.117,-0.2 -0.16,-0.309 -0.199,-0.309 -0.07,-0.082 -0.43,-0.121 -1.09,-0.121 h -0.98 l -0.149,0.16 c -0.082,0.07 -0.121,0.192 -0.121,0.352 0.078,0.468 0.309,1.207 0.781,2.258 0.508,1.14 1.207,2.109 1.989,3.011 0.628,0.547 1.21,0.981 1.839,1.25 0.469,0.199 1.051,0.309 1.719,0.309 0.781,0 1.402,-0.11 1.953,-0.391 0.391,-0.23 0.699,-0.429 0.899,-0.699 0.23,-0.199 0.468,-0.512 0.66,-0.898 0.281,-0.551 0.39,-1.172 0.39,-1.801 0,-0.582 -0.191,-1.403 -0.582,-2.461 -0.039,-0.149 -0.117,-0.352 -0.199,-0.539 -0.5,-1.449 -0.82,-2.313 -0.929,-2.621 -1.141,-3.399 -1.489,-5.782 -0.942,-7.231 0.313,-1.09 1.094,-1.597 2.262,-1.597 0.16,0 0.32,0.039 0.469,0.078 0.589,0.082 1.171,0.39 1.761,0.98 1.168,1.211 2.27,3.82 3.282,7.809 0.269,1.172 0.347,2.031 0.308,2.582 -0.109,1.051 -0.539,1.91 -1.211,2.609 -0.23,0.238 -0.429,0.469 -0.5,0.668 -0.078,0.192 -0.121,0.473 -0.121,0.82 0,0.352 0,0.622 0.082,0.821 0.309,0.742 0.82,1.293 1.481,1.601 0.23,0.16 0.55,0.27 0.898,0.309 z m 16.012,-8.359 h 0.59 c 1.558,0 2.808,-0.54 3.711,-1.719 0.117,-0.192 0.199,-0.313 0.199,-0.313 l 1.008,1.024 1.062,1.008 h 0.188 c 0.242,0 0.39,-0.04 0.39,-0.149 0.039,-0.043 -0.269,-1.293 -0.859,-3.832 -0.66,-2.578 -0.969,-3.867 -0.969,-3.789 -0.043,-0.121 -0.32,-0.199 -0.781,-0.199 h -0.551 l -0.078,0.078 c -0.082,0.082 -0.121,0.242 -0.082,0.512 0.16,0.937 0.199,1.839 0.121,2.66 -0.199,1.75 -0.898,2.808 -2.109,3.16 -0.161,0 -0.391,0.039 -0.743,0.039 -0.668,0 -1.367,-0.078 -2.109,-0.309 -0.859,-0.312 -1.68,-0.742 -2.379,-1.332 -1.609,-1.211 -2.781,-3.16 -3.558,-5.859 -0.512,-1.762 -0.743,-3.238 -0.743,-4.379 0,-0.82 0.121,-1.519 0.352,-2.07 0.469,-1.25 1.328,-2.031 2.617,-2.422 0.152,-0.039 0.274,-0.078 0.391,-0.078 1.722,-0.352 3.281,0.16 4.691,1.527 1.012,1.051 1.789,2.383 2.262,3.942 0.078,0.281 0.156,0.468 0.277,0.468 0.031,0 0.231,0.043 0.5,0.043 0.473,0 0.711,-0.082 0.781,-0.152 0,-0.078 0,-0.238 -0.07,-0.399 -0.59,-2.14 -1.762,-3.941 -3.519,-5.308 -0.512,-0.391 -1.051,-0.742 -1.602,-1.012 -1.129,-0.512 -2.23,-0.781 -3.359,-0.75 -0.739,0 -1.52,0.16 -2.27,0.469 -1.211,0.473 -2.14,1.25 -2.851,2.351 -0.618,0.93 -1.008,2.071 -1.168,3.321 -0.082,0.469 -0.082,1.09 0,1.91 0,0.078 0,0.16 0,0.199 0.238,2.031 0.937,3.942 2.109,5.781 0.352,0.469 0.699,0.899 0.941,1.207 0.508,0.622 1.09,1.211 1.829,1.832 1.839,1.489 3.75,2.348 5.781,2.54 z" /><path
         id="path176"
         style="fill:#808080;fill-opacity:1;fill-rule:nonzero;stroke:none"
         d="m 751.602,289.262 h -7.891 v -7.973 h -2.152 v 7.973 h -7.848 v 2.027 h 7.848 v 7.973 h 2.152 v -7.973 h 7.891 z" /><path
         id="path178"
         style="fill:none;stroke:#808080;stroke-width:2.25;stroke-linecap:butt;stroke-linejoin:miter;stroke-miterlimit:4;stroke-dasharray:none;stroke-opacity:1"
         d="m 731.84,171.129 h 22.5" /><path
         id="path180"
         style="fill:none;stroke:#808080;stroke-width:3.75;stroke-linecap:butt;stroke-linejoin:miter;stroke-miterlimit:4;stroke-dasharray:none;stroke-opacity:1"
         d="m 27.2305,373.48 78.7495,1.008 33.79,-0.039 45,29.77" /><path
         id="path182"
         style="fill:#808080;fill-opacity:1;fill-rule:nonzero;stroke:none"
         d="m 290.59,375.121 c 0,-5.512 4.488,-10 10,-10 5.539,0 10,4.488 10,10 0,5.539 -4.461,10 -10,10 -5.512,0 -10,-4.461 -10,-10 z m -105.82,0 h -1.87891 v -1.88281 H 184.77 Z m 51.402,-1.883 h 64.418 v 3.75 h -64.418 z m -34.262,0 h 34.2617 v 3.75 H 201.91 Z m -19.019,1.883 h 3.75 v 11.25 h -3.75 z m 1.879,-1.883 h 17.1406 v 3.75 H 184.77 Z" /><path
         id="path184"
         style="fill:#808080;fill-opacity:1;fill-rule:nonzero;stroke:none"
         d="m 169.609,442.73 c 0.743,0.122 1.52,0.122 2.34,-0.07 0.75,-0.16 1.41,-0.39 1.961,-0.781 0.309,-0.199 0.66,-0.508 1.051,-0.981 0.078,-0.117 0.16,-0.199 0.16,-0.238 l 1.008,1.059 c 0.711,0.703 1.062,1.051 1.101,1.051 0,0.039 0.11,0.039 0.348,0.039 0.274,0 0.434,-0.079 0.512,-0.231 0.031,-0.078 -0.32,-1.598 -1.059,-4.488 -0.742,-2.93 -1.133,-4.461 -1.211,-4.5 l -0.082,-0.11 h -0.816 c -0.621,0 -0.973,0.071 -1.012,0.192 -0.039,0.078 -0.039,0.308 0,0.629 0.43,2.609 0.07,4.449 -0.941,5.5 -0.59,0.629 -1.41,0.937 -2.5,1.019 -1.207,0.039 -2.348,-0.468 -3.321,-1.441 -0.546,-0.551 -0.937,-1.098 -1.207,-1.649 -0.472,-0.929 -0.671,-1.832 -0.632,-2.73 0,-0.551 0.121,-1.02 0.281,-1.328 0.269,-0.551 0.621,-0.902 1.051,-1.133 0.078,-0.039 0.859,-0.269 2.418,-0.738 1.722,-0.512 2.742,-0.86 3.05,-1.063 1.602,-0.937 2.422,-2.539 2.5,-4.84 0,-1.839 -0.507,-3.628 -1.558,-5.468 -0.781,-1.45 -1.879,-2.621 -3.25,-3.52 -0.93,-0.621 -1.949,-1.051 -2.961,-1.25 -0.238,-0.039 -0.668,-0.07 -1.25,-0.07 -0.82,0 -1.57,0.07 -2.149,0.23 -1.25,0.309 -2.23,0.86 -2.972,1.641 l -0.309,0.309 -1.019,-1.051 -1.09,-1.129 -0.352,-0.039 h -0.039 c -0.199,0 -0.359,0.039 -0.43,0.109 -0.082,0.078 -0.121,0.121 -0.121,0.199 0,0.082 0.743,3.012 2.192,8.789 0.187,0.153 0.539,0.231 1.051,0.231 h 0.777 l 0.121,-0.109 c 0.121,-0.079 0.121,-0.36 0.039,-0.75 0,-0.04 0,-0.11 -0.039,-0.192 -0.309,-1.488 -0.23,-2.699 0.23,-3.707 0.508,-1.293 1.61,-2.07 3.29,-2.351 0.742,-0.11 1.32,-0.149 1.71,-0.071 1.329,0.231 2.5,1.09 3.481,2.653 0.348,0.589 0.66,1.25 0.859,1.918 0.16,0.539 0.231,1.171 0.231,1.832 0,0.668 -0.071,1.128 -0.231,1.488 -0.269,0.621 -0.621,1.051 -1.129,1.289 -0.16,0.109 -0.98,0.351 -2.421,0.781 -1.532,0.43 -2.43,0.699 -2.7,0.82 -0.468,0.27 -0.941,0.579 -1.371,1.008 -1.09,1.172 -1.558,2.66 -1.437,4.492 0.148,1.801 0.816,3.52 1.988,5.161 0.629,0.781 1.289,1.41 1.988,1.949 1.25,0.941 2.543,1.488 3.871,1.64 z" /><path
         id="path186"
         style="fill:none;stroke:#808080;stroke-width:2.25;stroke-linecap:butt;stroke-linejoin:miter;stroke-miterlimit:4;stroke-dasharray:7.5, 7.5;stroke-dashoffset:0;stroke-opacity:1"
         d="m 72.9688,6.14063 h 260.27 v 462.73 h -260.27 z" /><path
         id="path188"
         style="fill:none;stroke:#808080;stroke-width:2.25;stroke-linecap:butt;stroke-linejoin:miter;stroke-miterlimit:4;stroke-dasharray:7.5, 7.5;stroke-dashoffset:0;stroke-opacity:1"
         d="m 342.969,6.14063 h 440.27 v 462.73 h -440.27 z" /><path
         id="path190"
         style="fill:none;stroke:#808080;stroke-width:2.25;stroke-linecap:butt;stroke-linejoin:miter;stroke-miterlimit:4;stroke-dasharray:7.5, 7.5;stroke-dashoffset:0;stroke-opacity:1"
         d="m 890.469,6.14063 h 635.27 v 462.73 h -635.27 z" /><path
         id="path192"
         style="fill:#808080;fill-opacity:1;fill-rule:nonzero;stroke:none"
         d="m 163.398,48.9102 c 1.762,0 3.243,-0.1602 4.454,-0.5118 1.207,-0.3086 2.109,-0.8984 2.738,-1.6796 0.621,-0.7774 0.93,-1.7969 0.93,-3.129 0,-0.8203 -0.149,-1.5585 -0.5,-2.2187 -0.282,-0.6719 -0.75,-1.1719 -1.372,-1.6406 -0.589,-0.3907 -1.328,-0.711 -2.226,-0.8594 v -0.1602 c 0.898,-0.1211 1.719,-0.3906 2.418,-0.7812 0.75,-0.3516 1.332,-0.8984 1.762,-1.6016 0.429,-0.707 0.628,-1.5976 0.628,-2.7383 0,-1.289 -0.32,-2.4179 -0.902,-3.3203 -0.59,-0.8906 -1.449,-1.5976 -2.578,-2.0703 C 167.66,27.7305 166.328,27.5 164.801,27.5 h -7.531 v 21.4102 z m 0.512,-9.1094 c 1.828,0 3.121,0.2773 3.789,0.8594 0.699,0.6289 1.012,1.4882 1.012,2.6601 0,1.168 -0.43,1.9883 -1.25,2.5 -0.82,0.5508 -2.152,0.7813 -3.941,0.7813 h -3.559 v -6.8008 z m -3.949,-2.2617 v -7.7696 h 4.34 c 1.871,0 3.199,0.3907 3.937,1.1289 0.742,0.7422 1.102,1.7227 1.102,2.8907 0,0.7812 -0.16,1.4414 -0.512,1.9922 -0.308,0.5468 -0.859,0.9804 -1.637,1.289 -0.742,0.3086 -1.8,0.4688 -3.132,0.4688 z m 29.879,6.0507 V 27.5 h -2.141 l -0.398,2.1484 h -0.11 c -0.351,-0.5898 -0.781,-1.0586 -1.332,-1.4101 -0.55,-0.3477 -1.129,-0.6172 -1.757,-0.7774 -0.661,-0.1601 -1.332,-0.2695 -2.032,-0.2695 -1.25,0 -2.34,0.1875 -3.242,0.6172 -0.859,0.3906 -1.488,1.0625 -1.949,1.9219 -0.43,0.8593 -0.629,1.9492 -0.629,3.3203 v 10.539 h 2.66 V 33.2383 c 0,-1.2891 0.27,-2.2578 0.86,-2.8867 0.582,-0.6211 1.48,-0.9727 2.691,-0.9727 1.211,0 2.148,0.2305 2.809,0.6602 0.71,0.4726 1.21,1.1328 1.492,1.9922 0.308,0.8593 0.468,1.9492 0.468,3.1679 v 8.3906 z m 11.57,-16.3984 c -1.41,0 -2.699,0.3086 -3.832,0.8984 -1.098,0.5391 -1.957,1.4415 -2.578,2.6915 -0.621,1.207 -0.941,2.7695 -0.941,4.6875 0,1.9531 0.32,3.5507 0.98,4.8007 0.66,1.25 1.563,2.1524 2.691,2.7422 1.141,0.5781 2.43,0.8594 3.872,0.8594 0.82,0 1.597,-0.082 2.347,-0.2813 0.781,-0.1484 1.403,-0.3515 1.871,-0.5781 L 205,40.8203 c -0.469,0.1992 -1.02,0.3516 -1.68,0.5078 -0.621,0.1524 -1.25,0.2305 -1.8,0.2305 -1.09,0 -1.95,-0.2305 -2.649,-0.6602 -0.711,-0.4687 -1.211,-1.1679 -1.57,-2.0703 -0.352,-0.8984 -0.5,-1.9883 -0.5,-3.3593 0,-1.25 0.148,-2.3477 0.5,-3.2383 0.359,-0.9024 0.859,-1.6094 1.527,-2.0703 0.66,-0.4297 1.524,-0.6719 2.543,-0.6719 0.899,0 1.641,0.082 2.301,0.2812 0.707,0.1524 1.328,0.3907 1.879,0.6211 V 28.0898 C 205,27.7695 204.41,27.5781 203.75,27.4219 c -0.629,-0.1524 -1.41,-0.2305 -2.34,-0.2305 z m 10.578,11.207 c 0,-0.3086 -0.039,-0.7382 -0.078,-1.25 0,-0.5468 -0.031,-0.9765 -0.031,-1.3671 h 0.109 c 0.121,0.1601 0.282,0.3906 0.551,0.6992 0.231,0.2812 0.473,0.5898 0.699,0.8984 0.282,0.3203 0.473,0.5899 0.672,0.7813 l 5.11,5.4296 h 3.089 l -6.488,-6.871 6.957,-9.2188 h -3.199 l -5.551,7.5 -1.84,-1.6016 V 27.5 h -2.609 v 22.8086 h 2.609 z m 27.703,10.5118 c 1.758,0 3.239,-0.1602 4.45,-0.5118 1.211,-0.3086 2.109,-0.8984 2.738,-1.6796 0.621,-0.7774 0.93,-1.7969 0.93,-3.129 0,-0.8203 -0.149,-1.5585 -0.508,-2.2187 -0.27,-0.6719 -0.742,-1.1719 -1.36,-1.6406 -0.589,-0.3907 -1.332,-0.711 -2.23,-0.8594 v -0.1602 c 0.898,-0.1211 1.719,-0.3906 2.418,-0.7812 0.75,-0.3516 1.332,-0.8984 1.762,-1.6016 0.429,-0.707 0.629,-1.5976 0.629,-2.7383 0,-1.289 -0.321,-2.4179 -0.899,-3.3203 -0.59,-0.8906 -1.449,-1.5976 -2.582,-2.0703 C 243.949,27.7305 242.621,27.5 241.09,27.5 h -7.539 v 21.4102 z m 0.508,-9.1094 c 1.832,0 3.121,0.2773 3.781,0.8594 0.711,0.6289 1.02,1.4882 1.02,2.6601 0,1.168 -0.43,1.9883 -1.25,2.5 -0.82,0.5508 -2.148,0.7813 -3.949,0.7813 h -3.551 v -6.8008 z m -3.949,-2.2617 v -7.7696 h 4.34 c 1.871,0 3.199,0.3907 3.941,1.1289 0.739,0.7422 1.09,1.7227 1.09,2.8907 0,0.7812 -0.152,1.4414 -0.5,1.9922 -0.32,0.5468 -0.859,0.9804 -1.641,1.289 -0.75,0.3086 -1.8,0.4688 -3.128,0.4688 z m 22.539,6.332 c 1.949,0 3.402,-0.4297 4.332,-1.293 0.938,-0.8593 1.41,-2.2695 1.41,-4.1367 V 27.5 h -1.91 l -0.512,2.2695 h -0.121 c -0.468,-0.5507 -0.937,-1.0586 -1.437,-1.4492 -0.473,-0.3906 -1.02,-0.6601 -1.68,-0.8594 -0.633,-0.1601 -1.371,-0.2695 -2.269,-0.2695 -0.981,0 -1.832,0.1875 -2.622,0.5078 -0.742,0.3516 -1.359,0.8516 -1.789,1.5625 -0.429,0.7383 -0.671,1.6367 -0.671,2.6875 0,1.6016 0.628,2.8516 1.921,3.711 1.25,0.8593 3.161,1.3711 5.821,1.4492 l 2.687,0.082 v 0.9688 c 0,1.3281 -0.269,2.2695 -0.859,2.7812 -0.578,0.5078 -1.399,0.7774 -2.461,0.7774 -0.82,0 -1.641,-0.1172 -2.379,-0.3907 -0.781,-0.2383 -1.48,-0.5078 -2.148,-0.8164 l -0.821,1.9492 c 0.699,0.3907 1.559,0.6993 2.5,0.9805 0.981,0.2695 1.949,0.4297 3.008,0.4297 z m 0.781,-8.6016 c -1.992,-0.0703 -3.398,-0.3906 -4.179,-0.9687 -0.743,-0.5508 -1.129,-1.332 -1.129,-2.3516 0,-0.8984 0.269,-1.5586 0.816,-1.9883 0.543,-0.4296 1.25,-0.6211 2.113,-0.6211 1.36,0 2.5,0.3516 3.399,1.0899 0.89,0.7812 1.359,1.9101 1.359,3.4805 v 1.4414 z m 3.442,14.9297 c -0.16,-0.3203 -0.434,-0.6289 -0.782,-1.0586 -0.32,-0.3906 -0.71,-0.7812 -1.14,-1.25 -0.391,-0.4297 -0.82,-0.8203 -1.211,-1.2109 -0.43,-0.3906 -0.777,-0.6992 -1.129,-1.0195 h -1.762 v 0.3906 c 0.313,0.3594 0.633,0.8281 0.981,1.3281 0.351,0.5117 0.703,1.0625 1.011,1.6016 0.36,0.5508 0.629,1.0586 0.86,1.4883 h 3.172 z M 280,31.9492 c 0,-1.0508 -0.27,-1.9101 -0.781,-2.6094 -0.547,-0.7109 -1.289,-1.25 -2.231,-1.6093 -0.968,-0.3516 -2.109,-0.5391 -3.437,-0.5391 -1.09,0 -2.071,0.1094 -2.891,0.2695 -0.82,0.1993 -1.519,0.4297 -2.14,0.7383 v 2.4219 c 0.66,-0.3125 1.402,-0.6211 2.3,-0.8906 0.942,-0.2813 1.879,-0.3907 2.809,-0.3907 1.332,0 2.312,0.1915 2.891,0.6211 0.628,0.4297 0.902,1.0196 0.902,1.7579 0,0.3906 -0.082,0.7421 -0.313,1.0507 -0.23,0.3203 -0.629,0.6719 -1.211,0.9805 -0.546,0.3086 -1.367,0.6602 -2.418,1.0508 -1.058,0.4297 -1.921,0.8203 -2.66,1.2187 -0.742,0.3907 -1.332,0.8907 -1.718,1.4414 -0.391,0.5508 -0.582,1.2891 -0.582,2.1485 0,1.3711 0.539,2.4219 1.64,3.1601 1.09,0.75 2.57,1.1016 4.371,1.1016 0.981,0 1.879,-0.082 2.739,-0.2813 0.851,-0.1914 1.64,-0.4687 2.378,-0.7812 l -0.898,-2.1094 c -0.43,0.1992 -0.898,0.3516 -1.41,0.5117 -0.461,0.1602 -0.969,0.2696 -1.481,0.3477 -0.468,0.1211 -0.98,0.1602 -1.519,0.1602 -1.059,0 -1.918,-0.1993 -2.461,-0.5469 -0.59,-0.3125 -0.859,-0.8203 -0.859,-1.4024 0,-0.4297 0.109,-0.8203 0.39,-1.1406 0.27,-0.3086 0.699,-0.5781 1.289,-0.8984 0.621,-0.2696 1.442,-0.6211 2.461,-1.0117 1.012,-0.3907 1.871,-0.7774 2.61,-1.168 0.71,-0.3906 1.25,-0.9024 1.64,-1.4922 0.391,-0.5391 0.59,-1.25 0.59,-2.1094 z M 286.52,27.5 h -2.64844 V 43.5898 H 286.52 Z m -1.29,22.1094 c 0.391,0 0.75,-0.1602 1.059,-0.4297 0.313,-0.2305 0.473,-0.6602 0.473,-1.25 0,-0.5508 -0.16,-0.9805 -0.473,-1.25 -0.309,-0.2695 -0.668,-0.4297 -1.059,-0.4297 -0.46,0 -0.82,0.1602 -1.128,0.4297 -0.274,0.2695 -0.43,0.6992 -0.43,1.25 0,0.5898 0.156,1.0195 0.43,1.25 0.308,0.2695 0.668,0.4297 1.128,0.4297 z m 12.821,-22.418 c -1.41,0 -2.699,0.3086 -3.789,0.8984 -1.102,0.5391 -1.992,1.4415 -2.621,2.6915 -0.621,1.207 -0.942,2.7695 -0.942,4.6875 0,1.9531 0.352,3.5507 0.981,4.8007 0.66,1.25 1.558,2.1524 2.699,2.7422 1.133,0.5781 2.422,0.8594 3.859,0.8594 0.821,0 1.602,-0.082 2.383,-0.2813 0.75,-0.1484 1.367,-0.3515 1.84,-0.5781 l -0.82,-2.1914 c -0.469,0.1992 -1.02,0.3516 -1.68,0.5078 -0.621,0.1524 -1.211,0.2305 -1.801,0.2305 -1.051,0 -1.949,-0.2305 -2.648,-0.6602 -0.711,-0.4687 -1.211,-1.1679 -1.563,-2.0703 -0.359,-0.8984 -0.508,-1.9883 -0.508,-3.3593 0,-1.25 0.149,-2.3477 0.508,-3.2383 0.352,-0.9024 0.852,-1.6094 1.52,-2.0703 0.703,-0.4297 1.519,-0.6719 2.543,-0.6719 0.898,0 1.679,0.082 2.34,0.2812 0.668,0.1524 1.289,0.3907 1.839,0.6211 v -2.3008 c -0.55,-0.3203 -1.14,-0.5117 -1.8,-0.6679 -0.621,-0.1524 -1.411,-0.2305 -2.34,-0.2305 z M 320,35.5898 c 0,-1.371 -0.199,-2.539 -0.551,-3.6015 -0.308,-1.0078 -0.82,-1.8672 -1.48,-2.6094 -0.668,-0.707 -1.449,-1.2578 -2.379,-1.6484 -0.899,-0.3516 -1.961,-0.5391 -3.09,-0.5391 -1.051,0 -2.031,0.1875 -2.93,0.5391 -0.898,0.3906 -1.679,0.9414 -2.34,1.6484 -0.671,0.7422 -1.179,1.6016 -1.57,2.6094 -0.351,1.0625 -0.539,2.2305 -0.539,3.6015 0,1.75 0.309,3.2813 0.899,4.4883 0.582,1.25 1.48,2.1914 2.57,2.8125 1.14,0.6602 2.461,0.9805 3.988,0.9805 1.481,0 2.731,-0.3203 3.871,-0.9805 1.09,-0.6211 1.992,-1.5625 2.571,-2.8125 0.671,-1.207 0.98,-2.7383 0.98,-4.4883 z m -12.148,0 c 0,-1.289 0.16,-2.3906 0.468,-3.3203 0.352,-0.8984 0.86,-1.6484 1.559,-2.1093 0.711,-0.5118 1.601,-0.7813 2.699,-0.7813 1.051,0 1.953,0.2695 2.652,0.7813 0.711,0.4609 1.219,1.2109 1.532,2.1093 0.347,0.9297 0.508,2.0313 0.508,3.3203 0,1.25 -0.161,2.3399 -0.508,3.2383 -0.352,0.9024 -0.864,1.6016 -1.563,2.0703 -0.668,0.5118 -1.57,0.7422 -2.66,0.7422 -1.641,0 -2.848,-0.5117 -3.59,-1.6015 -0.75,-1.0899 -1.097,-2.5782 -1.097,-4.4493 z" /><path
         id="path194"
         style="fill:#808080;fill-opacity:1;fill-rule:nonzero;stroke:none"
         d="m 422.461,27.5 h -2.691 v 21.4102 h 11.949 v -2.3516 h -9.258 v -7.6094 h 8.711 v -2.3476 h -8.711 z m 15.117,0 h -2.61719 v 16.0898 h 2.61719 z m -1.289,22.1094 c 0.43,0 0.781,-0.1602 1.051,-0.4297 0.359,-0.2305 0.512,-0.6602 0.512,-1.25 0,-0.5508 -0.153,-0.9805 -0.512,-1.25 -0.27,-0.2695 -0.621,-0.4297 -1.051,-0.4297 -0.43,0 -0.777,0.1602 -1.09,0.4297 -0.32,0.2695 -0.429,0.6992 -0.429,1.25 0,0.5898 0.109,1.0195 0.429,1.25 0.313,0.2695 0.66,0.4297 1.09,0.4297 z M 445.309,27.5 h -2.60938 v 22.8086 h 2.60938 z m 10.472,1.8789 c 0.43,0 0.821,0 1.25,0.0703 0.43,0.0821 0.739,0.1602 1.02,0.2422 v -1.9922 c -0.281,-0.1601 -0.672,-0.2773 -1.211,-0.3594 -0.512,-0.0703 -1.02,-0.1484 -1.488,-0.1484 -0.864,0 -1.641,0.1484 -2.34,0.4297 -0.711,0.3086 -1.293,0.8203 -1.723,1.5195 -0.43,0.7383 -0.668,1.7578 -0.668,3.0508 v 9.3281 h -2.262 v 1.2891 l 2.301,1.0625 1.059,3.3984 h 1.562 v -3.6797 h 4.649 v -2.0703 h -4.649 v -9.289 c 0,-0.9805 0.239,-1.6797 0.699,-2.1914 0.469,-0.4297 1.059,-0.6602 1.801,-0.6602 z m 12.969,14.4922 c 0.309,0 0.629,0 0.98,-0.043 0.348,-0.039 0.661,-0.0781 0.93,-0.1172 l -0.351,-2.4218 c -0.231,0.039 -0.539,0.082 -0.86,0.1211 -0.308,0.039 -0.578,0.0703 -0.859,0.0703 -0.621,0 -1.211,-0.1094 -1.789,-0.3907 -0.551,-0.2695 -1.063,-0.621 -1.492,-1.1289 -0.43,-0.4296 -0.778,-1.0117 -1.047,-1.6796 -0.242,-0.6211 -0.352,-1.3711 -0.352,-2.1915 V 27.5 h -2.66 v 16.0898 h 2.191 l 0.27,-2.9687 h 0.117 c 0.352,0.6289 0.781,1.1797 1.25,1.6484 0.473,0.5 1.012,0.8907 1.641,1.1719 0.621,0.2695 1.293,0.4297 2.031,0.4297 z m 18.32,-8.2813 c 0,-1.371 -0.191,-2.539 -0.55,-3.6015 -0.348,-1.0078 -0.86,-1.8672 -1.52,-2.6094 -0.621,-0.707 -1.41,-1.2578 -2.34,-1.6484 -0.941,-0.3516 -1.961,-0.5391 -3.09,-0.5391 -1.09,0 -2.07,0.1875 -2.968,0.5391 -0.903,0.3906 -1.68,0.9414 -2.34,1.6484 -0.672,0.7422 -1.172,1.6016 -1.563,2.6094 -0.359,1.0625 -0.508,2.2305 -0.508,3.6015 0,1.75 0.27,3.2813 0.899,4.4883 0.582,1.25 1.441,2.1914 2.57,2.8125 1.102,0.6602 2.43,0.9805 3.988,0.9805 1.442,0 2.731,-0.3203 3.832,-0.9805 1.129,-0.6211 1.989,-1.5625 2.61,-2.8125 0.629,-1.207 0.98,-2.7383 0.98,-4.4883 z m -12.191,0 c 0,-1.289 0.199,-2.3906 0.512,-3.3203 0.308,-0.8984 0.859,-1.6484 1.558,-2.1093 0.711,-0.5118 1.571,-0.7813 2.66,-0.7813 1.09,0 1.95,0.2695 2.661,0.7813 0.699,0.4609 1.21,1.2109 1.558,2.1093 0.313,0.9297 0.512,2.0313 0.512,3.3203 0,1.25 -0.199,2.3399 -0.512,3.2383 -0.348,0.9024 -0.859,1.6016 -1.558,2.0703 -0.711,0.5118 -1.61,0.7422 -2.7,0.7422 -1.64,0 -2.808,-0.5117 -3.55,-1.6015 -0.75,-1.0899 -1.141,-2.5782 -1.141,-4.4493 z m 29.851,-8.3984 c -2,0 -3.601,0.6992 -4.808,2.0703 -1.211,1.3985 -1.801,3.4688 -1.801,6.25 0,2.7696 0.59,4.8399 1.801,6.25 1.207,1.3985 2.848,2.1094 4.848,2.1094 0.82,0 1.558,-0.082 2.179,-0.3203 0.629,-0.1914 1.172,-0.461 1.602,-0.8516 0.469,-0.3594 0.859,-0.75 1.179,-1.1797 h 0.192 c -0.043,0.2422 -0.082,0.6289 -0.121,1.1407 -0.031,0.5 -0.071,0.9296 -0.071,1.2109 v 6.4375 h 2.649 V 27.5 h -2.149 l -0.39,2.1484 h -0.11 c -0.32,-0.4296 -0.71,-0.8593 -1.179,-1.25 -0.43,-0.3476 -0.973,-0.6679 -1.641,-0.8593 -0.621,-0.2383 -1.32,-0.3477 -2.18,-0.3477 z m 0.43,2.1875 c 1.68,0 2.891,0.4609 3.551,1.4024 0.699,0.9375 1.059,2.3398 1.059,4.2187 v 0.4688 c 0,1.9921 -0.321,3.5507 -0.981,4.6093 -0.668,1.0508 -1.879,1.6016 -3.668,1.6016 -1.41,0 -2.5,-0.5508 -3.211,-1.7188 -0.699,-1.0898 -1.051,-2.6211 -1.051,-4.4921 0,-1.9493 0.352,-3.4375 1.051,-4.4883 0.711,-1.0586 1.801,-1.6016 3.25,-1.6016 z m 18.551,14.4922 c 1.367,0 2.539,-0.2813 3.519,-0.9023 1.008,-0.5899 1.75,-1.4493 2.301,-2.5391 0.508,-1.0899 0.778,-2.3399 0.778,-3.8281 v -1.5625 h -11.008 c 0.078,-1.8399 0.5,-3.1993 1.398,-4.1797 0.903,-0.9375 2.153,-1.4102 3.75,-1.4102 1.02,0 1.922,0.0821 2.699,0.2813 0.782,0.1914 1.602,0.4687 2.461,0.8203 v -2.3125 c -0.82,-0.3477 -1.64,-0.6172 -2.418,-0.7774 -0.82,-0.1601 -1.761,-0.2695 -2.851,-0.2695 -1.531,0 -2.891,0.3086 -4.07,0.9297 -1.168,0.6289 -2.071,1.5703 -2.731,2.7773 -0.629,1.25 -0.937,2.7305 -0.937,4.5313 0,1.7617 0.277,3.2422 0.859,4.5312 0.59,1.25 1.41,2.2305 2.5,2.8907 1.059,0.6992 2.309,1.0195 3.75,1.0195 z m -0.039,-2.1523 c -1.25,0 -2.262,-0.3907 -3.012,-1.2071 -0.699,-0.8203 -1.129,-1.9609 -1.281,-3.3633 h 8.199 c 0,0.9024 -0.156,1.7227 -0.43,2.3829 -0.269,0.6679 -0.699,1.207 -1.289,1.5976 -0.55,0.3906 -1.289,0.5899 -2.187,0.5899 z M 549.34,27.5 h -2.699 v 19.0586 h -6.68 v 2.3516 h 16.059 v -2.3516 h -6.68 z m 13.629,16.3711 c 1.41,0 2.582,-0.2813 3.551,-0.9023 1.019,-0.5899 1.761,-1.4493 2.269,-2.5391 0.551,-1.0899 0.82,-2.3399 0.82,-3.8281 V 35.0391 H 558.59 c 0.039,-1.8399 0.512,-3.1993 1.41,-4.1797 0.898,-0.9375 2.148,-1.4102 3.75,-1.4102 1.02,0 1.91,0.0821 2.699,0.2813 0.781,0.1914 1.602,0.4687 2.461,0.8203 v -2.3125 c -0.82,-0.3477 -1.64,-0.6172 -2.461,-0.7774 -0.789,-0.1601 -1.719,-0.2695 -2.859,-0.2695 -1.481,0 -2.852,0.3086 -4.02,0.9297 -1.172,0.6289 -2.07,1.5703 -2.73,2.7773 -0.629,1.25 -0.981,2.7305 -0.981,4.5313 0,1.7617 0.313,3.2422 0.903,4.5312 0.578,1.25 1.398,2.2305 2.457,2.8907 1.09,0.6992 2.34,1.0195 3.75,1.0195 z m 0,-2.1523 c -1.289,0 -2.27,-0.3907 -3.008,-1.2071 -0.742,-0.8203 -1.172,-1.9609 -1.289,-3.3633 h 8.168 c 0,0.9024 -0.121,1.7227 -0.391,2.3829 -0.277,0.6679 -0.711,1.207 -1.289,1.5976 -0.59,0.3906 -1.289,0.5899 -2.191,0.5899 z m 18.48,2.1523 c 1.91,0 3.352,-0.4727 4.332,-1.4102 0.981,-0.9023 1.489,-2.4218 1.489,-4.4921 V 27.5 h -2.622 v 10.2695 c 0,1.3321 -0.269,2.3086 -0.859,2.9297 -0.59,0.6289 -1.488,0.9414 -2.738,0.9414 -1.789,0 -3,-0.4687 -3.672,-1.4804 -0.699,-0.9805 -1.051,-2.4297 -1.051,-4.3008 V 27.5 h -2.617 v 16.0898 h 2.109 l 0.391,-2.1796 h 0.16 c 0.348,0.539 0.82,1.0117 1.328,1.3593 0.539,0.3907 1.129,0.6719 1.75,0.8203 0.672,0.1993 1.332,0.2813 2,0.2813 z M 602.73,31.9492 c 0,-1.0508 -0.269,-1.9101 -0.781,-2.6094 -0.539,-0.7109 -1.289,-1.25 -2.219,-1.6093 -0.98,-0.3516 -2.109,-0.5391 -3.441,-0.5391 -1.09,0 -2.07,0.1094 -2.891,0.2695 -0.82,0.1993 -1.519,0.4297 -2.148,0.7383 v 2.4219 c 0.66,-0.3125 1.41,-0.6211 2.301,-0.8906 0.937,-0.2813 1.879,-0.3907 2.82,-0.3907 1.328,0 2.301,0.1915 2.891,0.6211 0.617,0.4297 0.898,1.0196 0.898,1.7579 0,0.3906 -0.082,0.7421 -0.32,1.0507 -0.231,0.3203 -0.621,0.6719 -1.211,0.9805 -0.539,0.3086 -1.359,0.6602 -2.418,1.0508 -1.051,0.4297 -1.91,0.8203 -2.66,1.2187 -0.742,0.3907 -1.321,0.8907 -1.711,1.4414 -0.391,0.5508 -0.59,1.2891 -0.59,2.1485 0,1.3711 0.551,2.4219 1.641,3.1601 1.089,0.75 2.578,1.1016 4.379,1.1016 0.968,0 1.871,-0.082 2.73,-0.2813 0.859,-0.1914 1.641,-0.4687 2.379,-0.7812 l -0.899,-2.1094 c -0.429,0.1992 -0.89,0.3516 -1.402,0.5117 -0.469,0.1602 -0.976,0.2696 -1.488,0.3477 -0.469,0.1211 -0.969,0.1602 -1.52,0.1602 -1.05,0 -1.91,-0.1993 -2.461,-0.5469 -0.589,-0.3125 -0.859,-0.8203 -0.859,-1.4024 0,-0.4297 0.121,-0.8203 0.391,-1.1406 0.269,-0.3086 0.699,-0.5781 1.289,-0.8984 0.621,-0.2696 1.449,-0.6211 2.461,-1.0117 1.019,-0.3907 1.879,-0.7774 2.621,-1.168 0.699,-0.3906 1.25,-0.9024 1.636,-1.4922 0.391,-0.5391 0.582,-1.25 0.582,-2.1094 z m 9.969,11.9219 c 1.949,0 3.391,-0.4297 4.332,-1.293 0.938,-0.8593 1.41,-2.2695 1.41,-4.1367 V 27.5 h -1.921 l -0.5,2.2695 h -0.122 c -0.468,-0.5507 -0.937,-1.0586 -1.449,-1.4492 -0.469,-0.3906 -1.008,-0.6601 -1.679,-0.8594 -0.622,-0.1601 -1.36,-0.2695 -2.258,-0.2695 -0.981,0 -1.84,0.1875 -2.621,0.5078 -0.743,0.3516 -1.371,0.8516 -1.801,1.5625 -0.43,0.7383 -0.66,1.6367 -0.66,2.6875 0,1.6016 0.621,2.8516 1.91,3.711 1.25,0.8593 3.172,1.3711 5.82,1.4492 l 2.699,0.082 v 0.9688 c 0,1.3281 -0.269,2.2695 -0.859,2.7812 -0.59,0.5078 -1.41,0.7774 -2.461,0.7774 -0.82,0 -1.641,-0.1172 -2.379,-0.3907 -0.781,-0.2383 -1.488,-0.5078 -2.148,-0.8164 l -0.821,1.9492 c 0.7,0.3907 1.559,0.6993 2.5,0.9805 0.969,0.2695 1.95,0.4297 3.008,0.4297 z m 0.781,-8.6016 c -2,-0.0703 -3.402,-0.3906 -4.179,-0.9687 -0.75,-0.5508 -1.141,-1.332 -1.141,-2.3516 0,-0.8984 0.281,-1.5586 0.82,-1.9883 0.551,-0.4296 1.25,-0.6211 2.11,-0.6211 1.371,0 2.5,0.3516 3.398,1.0899 0.903,0.7812 1.371,1.9101 1.371,3.4805 v 1.4414 z m -6.492,10.3907 c 0.082,0.6289 0.16,1.1406 0.352,1.6093 0.16,0.461 0.39,0.8907 0.672,1.211 0.269,0.3476 0.617,0.5781 1.008,0.7812 0.359,0.1485 0.781,0.2696 1.289,0.2696 0.429,0 0.863,-0.1211 1.25,-0.2696 0.429,-0.1601 0.82,-0.3515 1.211,-0.6328 0.351,-0.1875 0.75,-0.3906 1.058,-0.5781 0.352,-0.1602 0.703,-0.2422 1.012,-0.2422 0.469,0 0.82,0.1602 1.058,0.4297 0.274,0.2812 0.473,0.7422 0.622,1.293 h 1.492 c -0.121,-1.1329 -0.473,-2.0704 -1.024,-2.7696 -0.539,-0.7109 -1.328,-1.0625 -2.258,-1.0625 -0.39,0 -0.82,0.0821 -1.21,0.2422 -0.399,0.1875 -0.821,0.3867 -1.219,0.6172 -0.391,0.2422 -0.742,0.4297 -1.09,0.5898 -0.352,0.1914 -0.699,0.2735 -1.012,0.2735 -0.508,0 -0.859,-0.1524 -1.097,-0.4727 -0.231,-0.2695 -0.43,-0.6992 -0.582,-1.289 z m 30.434,-10.0704 c 0,-1.371 -0.192,-2.539 -0.543,-3.6015 -0.359,-1.0078 -0.859,-1.8672 -1.527,-2.6094 -0.622,-0.707 -1.403,-1.2578 -2.34,-1.6484 -0.942,-0.3516 -1.961,-0.5391 -3.09,-0.5391 -1.094,0 -2.07,0.1875 -2.973,0.5391 -0.898,0.3906 -1.679,0.9414 -2.34,1.6484 -0.66,0.7422 -1.168,1.6016 -1.558,2.6094 -0.352,1.0625 -0.512,2.2305 -0.512,3.6015 0,1.75 0.27,3.2813 0.902,4.4883 0.579,1.25 1.438,2.1914 2.579,2.8125 1.089,0.6602 2.421,0.9805 3.98,0.9805 1.449,0 2.73,-0.3203 3.828,-0.9805 1.133,-0.6211 1.992,-1.5625 2.621,-2.8125 0.621,-1.207 0.973,-2.7383 0.973,-4.4883 z m -12.192,0 c 0,-1.289 0.2,-2.3906 0.508,-3.3203 0.313,-0.8984 0.864,-1.6484 1.563,-2.1093 0.711,-0.5118 1.57,-0.7813 2.66,-0.7813 1.09,0 1.949,0.2695 2.66,0.7813 0.699,0.4609 1.207,1.2109 1.559,2.1093 0.308,0.9297 0.511,2.0313 0.511,3.3203 0,1.25 -0.203,2.3399 -0.511,3.2383 -0.352,0.9024 -0.86,1.6016 -1.559,2.0703 -0.711,0.5118 -1.601,0.7422 -2.699,0.7422 -1.641,0 -2.813,-0.5117 -3.551,-1.6015 -0.75,-1.0899 -1.141,-2.5782 -1.141,-4.4493 z m 29.848,-8.3984 c -1.988,0 -3.598,0.6992 -4.808,2.0703 -1.211,1.3985 -1.79,3.4688 -1.79,6.25 0,2.7696 0.579,4.8399 1.79,6.25 1.21,1.3985 2.851,2.1094 4.851,2.1094 0.82,0 1.559,-0.082 2.18,-0.3203 0.629,-0.1914 1.179,-0.461 1.609,-0.8516 0.469,-0.3594 0.86,-0.75 1.168,-1.1797 h 0.192 c -0.04,0.2422 -0.071,0.6289 -0.11,1.1407 -0.039,0.5 -0.082,0.9296 -0.082,1.2109 v 6.4375 h 2.652 V 27.5 h -2.14 l -0.391,2.1484 h -0.121 c -0.308,-0.4296 -0.699,-0.8593 -1.168,-1.25 -0.43,-0.3476 -0.98,-0.6679 -1.64,-0.8593 -0.629,-0.2383 -1.329,-0.3477 -2.192,-0.3477 z m 0.434,2.1875 c 1.679,0 2.886,0.4609 3.547,1.4024 0.711,0.9375 1.062,2.3398 1.062,4.2187 v 0.4688 c 0,1.9921 -0.32,3.5507 -0.98,4.6093 -0.661,1.0508 -1.871,1.6016 -3.672,1.6016 -1.41,0 -2.5,-0.5508 -3.199,-1.7188 -0.711,-1.0898 -1.059,-2.6211 -1.059,-4.4921 0,-1.9493 0.348,-3.4375 1.059,-4.4883 0.699,-1.0586 1.789,-1.6016 3.242,-1.6016 z m 18.547,14.4922 c 1.371,0 2.543,-0.2813 3.519,-0.9023 1.012,-0.5899 1.762,-1.4493 2.301,-2.5391 0.512,-1.0899 0.781,-2.3399 0.781,-3.8281 v -1.5625 h -11.012 c 0.082,-1.8399 0.512,-3.1993 1.403,-4.1797 0.898,-0.9375 2.148,-1.4102 3.75,-1.4102 1.019,0 1.918,0.0821 2.699,0.2813 0.781,0.1914 1.602,0.4687 2.461,0.8203 v -2.3125 c -0.82,-0.3477 -1.641,-0.6172 -2.422,-0.7774 -0.82,-0.1601 -1.758,-0.2695 -2.848,-0.2695 -1.531,0 -2.89,0.3086 -4.07,0.9297 -1.172,0.6289 -2.07,1.5703 -2.73,2.7773 -0.621,1.25 -0.942,2.7305 -0.942,4.5313 0,1.7617 0.281,3.2422 0.86,4.5312 0.589,1.25 1.41,2.2305 2.5,2.8907 1.062,0.6992 2.312,1.0195 3.75,1.0195 z m -0.039,-2.1523 c -1.25,0 -2.258,-0.3907 -3,-1.2071 -0.711,-0.8203 -1.141,-1.9609 -1.29,-3.3633 h 8.2 c 0,0.9024 -0.16,1.7227 -0.43,2.3829 -0.27,0.6679 -0.699,1.207 -1.289,1.5976 -0.551,0.3906 -1.289,0.5899 -2.191,0.5899 z m 31.058,-8.4805 c 0,-1.2891 -0.308,-2.3789 -0.937,-3.2774 -0.621,-0.9023 -1.481,-1.5625 -2.661,-2.0312 -1.128,-0.5078 -2.5,-0.7383 -4.058,-0.7383 -0.781,0 -1.563,0.0391 -2.301,0.1094 -0.711,0.0781 -1.371,0.1992 -2,0.3594 -0.582,0.1484 -1.133,0.3515 -1.562,0.539 v 2.5821 c 0.711,-0.3125 1.601,-0.5821 2.66,-0.8594 1.09,-0.2305 2.191,-0.3906 3.32,-0.3906 1.051,0 1.949,0.1601 2.691,0.4296 0.711,0.2696 1.25,0.6602 1.61,1.211 0.351,0.5078 0.539,1.1289 0.539,1.8398 0,0.6602 -0.149,1.2891 -0.469,1.7578 -0.269,0.461 -0.82,0.8907 -1.558,1.3203 -0.704,0.3907 -1.723,0.8594 -3.012,1.2891 -0.93,0.3516 -1.75,0.7109 -2.418,1.1016 -0.703,0.3906 -1.25,0.8593 -1.723,1.3593 -0.469,0.4688 -0.82,1.0586 -1.051,1.6797 -0.238,0.6719 -0.347,1.4102 -0.347,2.2305 0,1.1289 0.308,2.1094 0.898,2.9297 0.582,0.8203 1.36,1.4414 2.379,1.8711 1.051,0.4297 2.223,0.668 3.594,0.668 1.168,0 2.226,-0.1172 3.238,-0.3086 0.981,-0.2383 1.84,-0.5118 2.66,-0.8985 l -0.859,-2.3125 c -0.742,0.3203 -1.52,0.5899 -2.422,0.8203 -0.859,0.2422 -1.758,0.3203 -2.699,0.3203 -0.891,0 -1.641,-0.121 -2.262,-0.3906 -0.59,-0.2383 -1.019,-0.6289 -1.328,-1.0976 -0.309,-0.4727 -0.469,-1.0118 -0.469,-1.6407 0,-0.6992 0.16,-1.289 0.469,-1.8007 0.309,-0.461 0.781,-0.8907 1.48,-1.2891 0.668,-0.3516 1.571,-0.7813 2.739,-1.2109 1.25,-0.461 2.301,-0.9688 3.203,-1.5196 0.859,-0.5117 1.527,-1.1289 1.957,-1.8711 0.461,-0.75 0.699,-1.6797 0.699,-2.7812 z m 10.043,10.6328 c 1.949,0 3.399,-0.4297 4.328,-1.293 0.981,-0.8593 1.41,-2.2695 1.41,-4.1367 V 27.5 h -1.91 l -0.508,2.2695 h -0.121 c -0.468,-0.5507 -0.941,-1.0586 -1.441,-1.4492 -0.469,-0.3906 -1.02,-0.6601 -1.68,-0.8594 -0.59,-0.1601 -1.371,-0.2695 -2.269,-0.2695 -0.981,0 -1.84,0.1875 -2.621,0.5078 -0.739,0.3516 -1.36,0.8516 -1.789,1.5625 -0.43,0.7383 -0.668,1.6367 -0.668,2.6875 0,1.6016 0.628,2.8516 1.918,3.711 1.25,0.8593 3.199,1.3711 5.82,1.4492 l 2.691,0.082 v 0.9688 c 0,1.3281 -0.269,2.2695 -0.859,2.7812 -0.582,0.5078 -1.402,0.7774 -2.461,0.7774 -0.82,0 -1.641,-0.1172 -2.383,-0.3907 -0.777,-0.2383 -1.488,-0.5078 -2.148,-0.8164 l -0.821,1.9492 c 0.743,0.3907 1.563,0.6993 2.5,0.9805 0.981,0.2695 1.993,0.4297 3.012,0.4297 z m 0.777,-8.6016 c -1.988,-0.0703 -3.398,-0.3906 -4.179,-0.9687 -0.739,-0.5508 -1.129,-1.332 -1.129,-2.3516 0,-0.8984 0.269,-1.5586 0.82,-1.9883 0.539,-0.4296 1.25,-0.6211 2.11,-0.6211 1.359,0 2.5,0.3516 3.39,1.0899 0.899,0.7812 1.371,1.9101 1.371,3.4805 v 1.4414 z M 728.48,27.5 h -2.62109 V 43.5898 H 728.48 Z m 3.122,22.6992 c -0.192,-0.3203 -0.43,-0.6289 -0.782,-1.0586 -0.351,-0.3906 -0.699,-0.7812 -1.129,-1.25 -0.39,-0.4297 -0.82,-0.8203 -1.25,-1.2109 -0.39,-0.3906 -0.781,-0.6992 -1.14,-1.0195 h -1.711 v 0.3906 c 0.269,0.3594 0.621,0.8281 0.93,1.3281 0.359,0.5117 0.71,1.0625 1.058,1.6016 0.352,0.5508 0.621,1.0586 0.863,1.4883 h 3.161 z m 7.699,-23.0078 c -2.031,0 -3.641,0.6992 -4.813,2.0703 -1.207,1.3985 -1.789,3.4688 -1.789,6.25 0,2.7696 0.582,4.8399 1.789,6.25 1.211,1.3985 2.813,2.1094 4.813,2.1094 0.859,0 1.597,-0.082 2.179,-0.3203 0.629,-0.1914 1.18,-0.461 1.641,-0.8516 0.469,-0.3594 0.859,-0.75 1.18,-1.1797 h 0.148 c 0,0.2422 -0.039,0.6289 -0.109,1.1407 -0.039,0.5 -0.039,0.9296 -0.039,1.2109 v 6.4375 h 2.609 V 27.5 h -2.109 l -0.391,2.1484 h -0.109 c -0.321,-0.4296 -0.711,-0.8593 -1.18,-1.25 -0.461,-0.3476 -1.012,-0.6679 -1.641,-0.8593 -0.621,-0.2383 -1.359,-0.3477 -2.179,-0.3477 z m 0.39,2.1875 c 1.719,0 2.887,0.4609 3.59,1.4024 0.699,0.9375 1.059,2.3398 1.059,4.2187 v 0.4688 c 0,1.9921 -0.36,3.5507 -1.02,4.6093 -0.66,1.0508 -1.871,1.6016 -3.629,1.6016 -1.453,0 -2.5,-0.5508 -3.242,-1.7188 -0.711,-1.0898 -1.019,-2.6211 -1.019,-4.4921 0,-1.9493 0.308,-3.4375 1.019,-4.4883 0.742,-1.0586 1.832,-1.6016 3.242,-1.6016 z m 18.43,14.4922 c 1.957,0 3.399,-0.4297 4.34,-1.293 0.937,-0.8593 1.449,-2.2695 1.449,-4.1367 V 27.5 h -1.961 l -0.5,2.2695 h -0.121 c -0.469,-0.5507 -0.937,-1.0586 -1.449,-1.4492 -0.469,-0.3906 -1.008,-0.6601 -1.68,-0.8594 -0.621,-0.1601 -1.359,-0.2695 -2.258,-0.2695 -0.98,0 -1.839,0.1875 -2.621,0.5078 -0.742,0.3516 -1.371,0.8516 -1.8,1.5625 -0.43,0.7383 -0.661,1.6367 -0.661,2.6875 0,1.6016 0.621,2.8516 1.911,3.711 1.25,0.8593 3.171,1.3711 5.82,1.4492 l 2.738,0.082 v 0.9688 c 0,1.3281 -0.308,2.2695 -0.898,2.7812 -0.59,0.5078 -1.41,0.7774 -2.461,0.7774 -0.821,0 -1.641,-0.1172 -2.379,-0.3907 -0.789,-0.2383 -1.488,-0.5078 -2.149,-0.8164 l -0.781,1.9492 c 0.66,0.3907 1.52,0.6993 2.461,0.9805 0.969,0.2695 1.949,0.4297 3,0.4297 z m 0.789,-8.6016 c -2,-0.0703 -3.398,-0.3906 -4.18,-0.9687 -0.75,-0.5508 -1.14,-1.332 -1.14,-2.3516 0,-0.8984 0.281,-1.5586 0.82,-1.9883 0.551,-0.4296 1.25,-0.6211 2.11,-0.6211 1.371,0 2.5,0.3516 3.402,1.0899 0.898,0.7812 1.367,1.9101 1.367,3.4805 v 1.4414 z" /><path
         id="path196"
         style="fill:#808080;fill-opacity:1;fill-rule:nonzero;stroke:none"
         d="m 1403.95,46.8398 c -1.14,0 -2.19,-0.1992 -3.09,-0.5898 -0.94,-0.3906 -1.72,-0.9414 -2.34,-1.7187 -0.63,-0.7422 -1.14,-1.6407 -1.49,-2.7305 -0.31,-1.0625 -0.51,-2.2695 -0.51,-3.6016 0,-1.75 0.28,-3.2773 0.82,-4.5703 0.55,-1.3281 1.37,-2.3008 2.46,-3.0078 1.1,-0.6992 2.47,-1.0508 4.11,-1.0508 0.93,0 1.83,0.0781 2.65,0.2305 0.86,0.1601 1.68,0.3594 2.46,0.5898 v -2.3008 c -0.78,-0.3203 -1.6,-0.5507 -2.46,-0.6679 -0.86,-0.1524 -1.87,-0.2305 -3.04,-0.2305 -2.19,0 -3.99,0.4688 -5.47,1.3594 -1.45,0.8984 -2.54,2.1875 -3.28,3.8281 -0.75,1.6797 -1.1,3.6406 -1.1,5.8594 0,1.6015 0.24,3.0898 0.67,4.4609 0.46,1.3203 1.13,2.5 1.99,3.4727 0.86,0.9765 1.95,1.7187 3.24,2.2265 1.29,0.5508 2.73,0.8204 4.41,0.8204 1.1,0 2.15,-0.1172 3.17,-0.3086 1.01,-0.2383 1.91,-0.5508 2.73,-0.9414 l -1.09,-2.3086 c -0.67,0.3203 -1.41,0.5898 -2.23,0.8203 -0.78,0.2383 -1.68,0.3593 -2.61,0.3593 z m 15.5,-2.9687 c 1.96,0 3.4,-0.4297 4.34,-1.293 0.94,-0.8593 1.41,-2.2695 1.41,-4.1367 V 27.5 h -1.92 l -0.51,2.2695 h -0.11 c -0.47,-0.5507 -0.94,-1.0586 -1.45,-1.4492 -0.47,-0.3906 -1.01,-0.6601 -1.68,-0.8594 -0.62,-0.1601 -1.37,-0.2695 -2.26,-0.2695 -0.98,0 -1.84,0.1875 -2.62,0.5078 -0.78,0.3516 -1.37,0.8516 -1.8,1.5625 -0.43,0.7383 -0.66,1.6367 -0.66,2.6875 0,1.6016 0.62,2.8516 1.87,3.711 1.29,0.8593 3.21,1.3711 5.82,1.4492 l 2.74,0.082 v 0.9688 c 0,1.3281 -0.28,2.2695 -0.86,2.7812 -0.59,0.5078 -1.41,0.7774 -2.46,0.7774 -0.86,0 -1.64,-0.1172 -2.42,-0.3907 -0.75,-0.2383 -1.45,-0.5078 -2.11,-0.8164 l -0.82,1.9492 c 0.7,0.3907 1.52,0.6993 2.5,0.9805 0.97,0.2695 1.95,0.4297 3,0.4297 z m 0.78,-8.6016 c -1.99,-0.0703 -3.39,-0.3906 -4.18,-0.9687 -0.74,-0.5508 -1.13,-1.332 -1.13,-2.3516 0,-0.8984 0.28,-1.5586 0.78,-1.9883 0.59,-0.4296 1.29,-0.6211 2.15,-0.6211 1.37,0 2.5,0.3516 3.4,1.0899 0.9,0.7812 1.33,1.9101 1.33,3.4805 v 1.4414 z m 17.43,8.6016 c 0.31,0 0.62,0 0.97,-0.043 0.35,-0.039 0.67,-0.0781 0.94,-0.1172 l -0.35,-2.4218 c -0.24,0.039 -0.55,0.082 -0.86,0.1211 -0.31,0.039 -0.59,0.0703 -0.86,0.0703 -0.62,0 -1.21,-0.1094 -1.76,-0.3907 -0.58,-0.2695 -1.09,-0.621 -1.52,-1.1289 -0.43,-0.4296 -0.78,-1.0117 -1.06,-1.6796 -0.23,-0.6211 -0.35,-1.3711 -0.35,-2.1915 V 27.5 h -2.65 v 16.0898 h 2.18 l 0.28,-2.9687 h 0.15 c 0.32,0.6289 0.75,1.1797 1.21,1.6484 0.47,0.5 1.02,0.8907 1.64,1.1719 0.63,0.2695 1.29,0.4297 2.04,0.4297 z m 10.31,0 c 1.05,0 2.03,-0.1992 2.85,-0.5898 0.86,-0.3907 1.6,-1.0118 2.19,-1.8321 h 0.15 l 0.36,2.1406 h 2.1 V 27.2305 c 0,-1.5313 -0.27,-2.7813 -0.78,-3.7891 -0.5,-1.0625 -1.32,-1.8398 -2.38,-2.3516 -1.05,-0.539 -2.42,-0.7812 -4.02,-0.7812 -1.17,0 -2.27,0.082 -3.24,0.2812 -0.94,0.1485 -1.8,0.3907 -2.58,0.7383 V 23.75 c 0.54,-0.2695 1.09,-0.4687 1.72,-0.6602 0.62,-0.1992 1.28,-0.3593 2.03,-0.4296 0.7,-0.1211 1.44,-0.1602 2.18,-0.1602 1.41,0 2.47,0.3906 3.25,1.2109 0.82,0.8204 1.21,1.9102 1.21,3.3204 v 0.6289 c 0,0.2304 0,0.5781 0.04,1.0117 0,0.4687 0.04,0.7773 0.04,0.9765 h -0.12 c -0.55,-0.8203 -1.25,-1.4492 -2.07,-1.8398 -0.86,-0.4297 -1.8,-0.6172 -2.89,-0.6172 -2.11,0 -3.71,0.7383 -4.89,2.1875 -1.17,1.4805 -1.75,3.5117 -1.75,6.1328 0,1.7188 0.27,3.1992 0.78,4.4492 0.55,1.25 1.29,2.2305 2.26,2.8907 0.98,0.6992 2.19,1.0195 3.56,1.0195 z m 0.35,-2.2305 c -0.9,0 -1.68,-0.2304 -2.3,-0.6992 -0.63,-0.4726 -1.1,-1.1719 -1.45,-2.1133 -0.31,-0.8984 -0.47,-2.0273 -0.47,-3.3593 0,-1.9493 0.35,-3.4805 1.1,-4.5274 0.7,-1.0625 1.79,-1.5625 3.2,-1.5625 0.82,0 1.52,0.0703 2.11,0.2695 0.54,0.2305 1.05,0.5508 1.4,1.0118 0.39,0.4296 0.67,1.0195 0.86,1.7187 0.2,0.7109 0.28,1.5313 0.28,2.5 v 0.6328 c 0,1.4375 -0.2,2.6485 -0.51,3.5469 -0.31,0.9023 -0.82,1.5625 -1.52,1.9609 -0.71,0.4297 -1.61,0.6211 -2.7,0.6211 z m 18.52,2.2305 c 1.95,0 3.39,-0.4297 4.33,-1.293 0.94,-0.8593 1.41,-2.2695 1.41,-4.1367 V 27.5 h -1.92 l -0.5,2.2695 h -0.12 c -0.47,-0.5507 -0.94,-1.0586 -1.45,-1.4492 -0.47,-0.3906 -1.05,-0.6601 -1.68,-0.8594 -0.62,-0.1601 -1.36,-0.2695 -2.26,-0.2695 -0.98,0 -1.84,0.1875 -2.62,0.5078 -0.78,0.3516 -1.37,0.8516 -1.8,1.5625 -0.46,0.7383 -0.66,1.6367 -0.66,2.6875 0,1.6016 0.63,2.8516 1.88,3.711 1.25,0.8593 3.2,1.3711 5.82,1.4492 l 2.73,0.082 v 0.9688 c 0,1.3281 -0.27,2.2695 -0.86,2.7812 -0.59,0.5078 -1.41,0.7774 -2.46,0.7774 -0.86,0 -1.64,-0.1172 -2.42,-0.3907 -0.74,-0.2383 -1.45,-0.5078 -2.11,-0.8164 l -0.82,1.9492 c 0.7,0.3907 1.52,0.6993 2.5,0.9805 0.94,0.2695 1.95,0.4297 3.01,0.4297 z m 0.78,-8.6016 c -2.03,-0.0703 -3.4,-0.3906 -4.18,-0.9687 -0.78,-0.5508 -1.14,-1.332 -1.14,-2.3516 0,-0.8984 0.28,-1.5586 0.79,-1.9883 0.58,-0.4296 1.29,-0.6211 2.14,-0.6211 1.37,0 2.5,0.3516 3.4,1.0899 0.9,0.7812 1.33,1.9101 1.33,3.4805 v 1.4414 z m 20.39,-3.3203 c 0,-1.0508 -0.28,-1.9101 -0.78,-2.6094 -0.51,-0.7109 -1.25,-1.25 -2.23,-1.6093 -0.94,-0.3516 -2.07,-0.5391 -3.4,-0.5391 -1.13,0 -2.11,0.1094 -2.93,0.2695 -0.78,0.1993 -1.48,0.4297 -2.11,0.7383 v 2.4219 c 0.63,-0.3125 1.41,-0.6211 2.31,-0.8906 0.93,-0.2813 1.83,-0.3907 2.77,-0.3907 1.37,0 2.34,0.1915 2.93,0.6211 0.59,0.4297 0.9,1.0196 0.9,1.7579 0,0.3906 -0.12,0.7421 -0.35,1.0507 -0.2,0.3203 -0.59,0.6719 -1.17,0.9805 -0.59,0.3086 -1.37,0.6602 -2.43,1.0508 -1.05,0.4297 -1.95,0.8203 -2.69,1.2187 -0.74,0.3907 -1.29,0.8907 -1.72,1.4414 -0.39,0.5508 -0.59,1.2891 -0.59,2.1485 0,1.3711 0.55,2.4219 1.64,3.1601 1.14,0.75 2.58,1.1016 4.38,1.1016 1.01,0 1.91,-0.082 2.73,-0.2813 0.86,-0.1914 1.68,-0.4687 2.43,-0.7812 l -0.9,-2.1094 c -0.47,0.1992 -0.94,0.3516 -1.41,0.5117 -0.51,0.1602 -0.98,0.2696 -1.48,0.3477 -0.51,0.1211 -1.02,0.1602 -1.53,0.1602 -1.09,0 -1.91,-0.1993 -2.5,-0.5469 -0.54,-0.3125 -0.82,-0.8203 -0.82,-1.4024 0,-0.4297 0.12,-0.8203 0.39,-1.1406 0.24,-0.3086 0.67,-0.5781 1.29,-0.8984 0.59,-0.2696 1.41,-0.6211 2.46,-1.0117 1.02,-0.3907 1.88,-0.7774 2.58,-1.168 0.74,-0.3906 1.29,-0.9024 1.68,-1.4922 0.35,-0.5391 0.55,-1.25 0.55,-2.1094 z" /><path
         id="path198"
         style="fill:none;stroke:#808080;stroke-width:2.25;stroke-linecap:butt;stroke-linejoin:miter;stroke-miterlimit:4;stroke-dasharray:none;stroke-opacity:1"
         d="m 1406.84,215 h 82.5" /><path
         id="path200"
         style="fill:#808080;fill-opacity:1;fill-rule:nonzero;stroke:none"
         d="m 1314.38,251.91 c 1.05,0.281 1.83,0 2.34,-0.781 0.12,-0.27 0.23,-0.578 0.23,-0.899 0,-0.46 -0.07,-0.89 -0.31,-1.32 -0.66,-0.941 -1.56,-1.531 -2.58,-1.64 -0.35,0 -0.7,0.07 -1.05,0.269 -0.31,0.121 -0.55,0.391 -0.71,0.781 -0.11,0.121 -0.15,0.352 -0.19,0.739 0,0.472 0.08,0.902 0.27,1.25 0.43,0.82 1.1,1.371 2,1.601 z m -3.87,-9.609 c 0.19,0.039 0.51,0.078 0.97,0.078 0.71,-0.039 1.29,-0.149 1.8,-0.43 0.39,-0.23 0.7,-0.429 0.9,-0.699 0.23,-0.199 0.47,-0.512 0.66,-0.898 0.28,-0.551 0.39,-1.172 0.39,-1.801 0,-0.5 -0.03,-0.852 -0.11,-1.051 -0.04,-0.078 -0.71,-1.949 -2.03,-5.621 -1.25,-3.359 -1.92,-5.238 -2,-5.59 -0.31,-1.019 -0.35,-1.641 -0.15,-1.988 0.15,-0.199 0.47,-0.199 0.94,-0.082 1.17,0.269 2.1,1.722 2.85,4.371 0.15,0.469 0.31,0.711 0.43,0.75 0.11,0.039 0.43,0.039 0.97,0.039 0.63,0 1.02,-0.039 1.06,-0.078 0.19,-0.121 0.19,-0.43 0,-0.942 -0.31,-1.168 -0.82,-2.269 -1.49,-3.281 -1.21,-1.797 -2.54,-2.808 -4.1,-3.047 -0.51,-0.121 -1.09,-0.082 -1.64,0.117 -0.62,0.153 -1.09,0.391 -1.48,0.661 -0.67,0.55 -1.1,1.293 -1.33,2.312 -0.12,0.539 -0.08,1.168 0.12,1.789 0.03,0.238 0.7,2.07 1.95,5.551 1.09,2.848 1.8,4.769 2.07,5.66 0.31,0.938 0.35,1.57 0.16,1.918 -0.12,0.231 -0.43,0.313 -0.94,0.16 -0.9,-0.238 -1.72,-1.179 -2.42,-2.859 -0.36,-1.32 -0.55,-1.988 -0.55,-1.91 -0.12,-0.2 -0.16,-0.309 -0.2,-0.309 -0.07,-0.082 -0.43,-0.121 -1.09,-0.121 h -0.98 l -0.15,0.16 c -0.08,0.07 -0.12,0.192 -0.12,0.352 0.08,0.468 0.31,1.207 0.78,2.258 0.35,0.75 0.7,1.41 1.1,1.921 0.39,0.539 0.89,1.09 1.48,1.637 0.66,0.512 1.37,0.82 2.15,0.973 z m 11.29,-15.231 c 0.39,0.039 0.93,0.039 1.68,-0.039 1.21,-0.152 2.07,-0.551 2.61,-1.172 0.2,-0.238 0.32,-0.468 0.39,-0.738 0.08,-0.281 0.08,-0.59 0.04,-0.941 -0.15,-0.629 -0.54,-1.02 -1.21,-1.168 -0.7,-0.121 -1.21,0.078 -1.6,0.578 -0.16,0.199 -0.23,0.359 -0.27,0.59 -0.12,0.55 0,0.98 0.27,1.332 0.04,0.039 0.08,0.078 0.08,0.109 0,0.078 -0.39,0.078 -1.21,0.078 -0.39,0 -0.67,0 -0.74,0 -0.47,-0.148 -0.9,-0.39 -1.25,-0.738 -0.59,-0.582 -0.94,-1.481 -1.06,-2.731 -0.08,-0.628 -0.12,-1.41 -0.04,-2.308 0,-0.121 0.04,-0.152 0.04,-0.231 0.12,-0.863 0.35,-1.57 0.67,-2.07 0.66,-0.941 1.56,-1.492 2.73,-1.57 0.78,-0.031 1.41,0.277 1.91,0.828 0.32,0.422 0.51,0.82 0.63,1.281 0.08,0.16 0.12,0.281 0.23,0.281 0.08,0.039 0.24,0.039 0.47,0.039 h 0.51 l 0.08,-0.082 c 0.12,-0.078 0.08,-0.277 0,-0.546 -0.12,-0.313 -0.28,-0.704 -0.59,-1.211 -0.94,-1.332 -2.26,-1.993 -3.98,-1.95 -0.86,0.079 -1.68,0.27 -2.39,0.618 -1.75,0.941 -2.85,2.461 -3.2,4.613 -0.08,0.43 -0.08,0.976 -0.04,1.598 0.04,0.082 0.04,0.121 0.04,0.16 0.2,1.679 0.94,3.05 2.19,4.101 0.9,0.699 1.87,1.129 3.01,1.289 z m 9.29,-0.308 c 1.57,0.117 2.31,0.187 2.23,0.187 h 0.12 v -1.25 l 0.23,0.16 c 0.39,0.231 0.86,0.469 1.33,0.621 0.47,0.161 0.98,0.282 1.48,0.36 0.67,0.109 1.25,0.109 1.84,0.039 1.37,-0.277 2.46,-1.059 3.24,-2.391 0.67,-1.129 0.98,-2.34 0.98,-3.668 0,-1.84 -0.63,-3.359 -1.84,-4.609 -0.11,-0.082 -0.19,-0.191 -0.31,-0.27 -0.7,-0.55 -1.37,-0.902 -2.11,-1.062 -1.29,-0.309 -2.5,-0.188 -3.71,0.391 -0.43,0.199 -0.78,0.429 -0.98,0.628 l -0.07,0.043 v -2.191 c 0,-1.52 0,-2.27 0,-2.301 0.07,-0.121 0.58,-0.16 1.52,-0.16 h 0.58 v -1.519 h -0.23 l -1.68,0.031 c -0.98,0.039 -1.95,0.039 -2.93,0 l -1.72,-0.031 h -0.19 v 1.519 h 0.54 c 0.94,0 1.45,0.039 1.53,0.16 v 12.77 c -0.08,0.429 -0.32,0.703 -0.67,0.781 -0.19,0.078 -0.5,0.121 -0.93,0.121 h -0.47 v 1.52 h 0.04 z m 5.98,-1.211 c -0.23,0.039 -0.47,0.039 -0.74,0 -0.47,-0.039 -0.94,-0.16 -1.41,-0.352 -0.51,-0.238 -0.94,-0.508 -1.21,-0.898 l -0.19,-0.16 v -6.411 l 0.15,-0.23 c 0.39,-0.59 0.86,-0.98 1.49,-1.25 0.93,-0.43 1.79,-0.391 2.54,0.121 0.97,0.699 1.6,1.828 1.87,3.399 0.08,0.5 0.08,1.171 0,1.949 -0.16,1.562 -0.7,2.691 -1.6,3.402 -0.08,0.039 -0.12,0.078 -0.2,0.109 -0.23,0.161 -0.47,0.239 -0.7,0.321 z m 10,8.039 c 1.56,0.082 2.31,0.16 2.23,0.16 h 0.11 v -8.52 c 0,-5.66 0,-8.511 0,-8.511 0.08,-0.16 0.59,-0.199 1.53,-0.199 h 0.58 V 215 h -0.27 l -1.68,0.039 c -0.94,0.039 -1.87,0.039 -2.85,0 L 1345.08,215 h -0.24 v 1.52 h 0.55 c 0.94,0 1.45,0.039 1.52,0.199 v 14.301 c -0.07,0.429 -0.31,0.699 -0.66,0.82 -0.2,0.039 -0.51,0.07 -0.94,0.07 h -0.47 v 1.531 h 0.04 z" /><path
         id="path202"
         style="fill:#808080;fill-opacity:1;fill-rule:nonzero;stroke:none"
         d="m 1415.35,266.988 v 1.25 h 8.87 c 5.9,-0.039 9.06,-0.078 9.45,-0.148 0.51,-0.078 1.1,-0.199 1.72,-0.36 2.85,-0.82 4.92,-2.421 6.13,-4.761 0.59,-1.09 0.9,-2.188 0.94,-3.36 0.04,-1.25 -0.19,-2.418 -0.74,-3.519 -1.13,-2.301 -3.09,-3.942 -5.86,-4.879 -0.35,-0.121 -0.7,-0.191 -1.02,-0.313 -0.78,-0.16 -2.03,-0.277 -3.75,-0.308 -1.05,0 -1.68,0 -1.87,0 h -4.1 v -5.078 c 0,-3.403 0,-5.16 0.04,-5.16 0.11,-0.231 1.21,-0.313 3.32,-0.313 h 1.25 V 237.5 h -0.47 l -3.6,0.078 c -2.07,0.043 -4.14,0.043 -6.21,0 l -3.63,-0.078 h -0.47 v 2.539 h 1.25 c 2.11,0 3.2,0.082 3.32,0.313 v 25.039 c -0.12,0.23 -1.21,0.308 -3.32,0.308 h -1.25 z m 16.95,-1.367 c -0.19,0.039 -1.36,0.078 -3.43,0.078 -2.27,0 -3.48,-0.039 -3.67,-0.109 -0.12,-0.078 -0.2,-0.43 -0.24,-1.141 0,-0.578 0,-2.34 0,-5.347 v -6.211 h 3.44 c 2.5,0.039 4.02,0.121 4.69,0.269 1.79,0.391 2.89,1.328 3.32,2.781 0.15,0.539 0.27,1.68 0.27,3.36 0.04,1.437 -0.04,2.5 -0.2,3.16 -0.19,0.82 -0.58,1.488 -1.17,1.949 -0.7,0.59 -1.72,1.02 -3.01,1.211 z m 18.79,-23.551 c 0.43,0.039 0.98,0.039 1.72,-0.039 1.21,-0.152 2.07,-0.551 2.62,-1.172 0.19,-0.238 0.31,-0.468 0.39,-0.738 0.04,-0.281 0.08,-0.59 0.04,-0.941 -0.16,-0.629 -0.55,-1.02 -1.21,-1.168 -0.67,-0.121 -1.21,0.078 -1.6,0.578 -0.16,0.199 -0.24,0.359 -0.28,0.59 -0.11,0.55 0,0.98 0.28,1.332 0.04,0.039 0.07,0.078 0.07,0.109 0,0.078 -0.42,0.078 -1.21,0.078 -0.39,0 -0.66,0 -0.74,0 -0.47,-0.148 -0.9,-0.39 -1.25,-0.738 -0.58,-0.582 -0.94,-1.481 -1.09,-2.731 -0.08,-0.628 -0.08,-1.41 0,-2.308 0,-0.121 0,-0.152 0,-0.231 0.15,-0.863 0.39,-1.57 0.7,-2.07 0.63,-0.941 1.56,-1.492 2.74,-1.57 0.78,-0.031 1.4,0.277 1.87,0.828 0.31,0.422 0.55,0.82 0.66,1.281 0.08,0.16 0.12,0.281 0.24,0.281 0.04,0.039 0.23,0.039 0.47,0.039 h 0.51 l 0.07,-0.082 c 0.12,-0.078 0.08,-0.277 0,-0.546 -0.11,-0.313 -0.31,-0.704 -0.58,-1.211 -0.94,-1.332 -2.27,-1.993 -3.99,-1.95 -0.86,0.079 -1.68,0.27 -2.38,0.618 -1.8,0.941 -2.85,2.461 -3.2,4.613 -0.08,0.43 -0.08,0.976 -0.04,1.598 0,0.082 0.04,0.121 0.04,0.16 0.19,1.679 0.94,3.05 2.18,4.101 0.9,0.699 1.88,1.129 2.97,1.289 z m 9.34,-0.308 c 1.56,0.117 2.3,0.187 2.23,0.187 h 0.11 v -1.25 l 0.24,0.16 c 0.39,0.231 0.82,0.469 1.33,0.621 0.46,0.161 0.97,0.282 1.48,0.36 0.63,0.109 1.25,0.109 1.84,0.039 1.36,-0.277 2.42,-1.059 3.24,-2.391 0.66,-1.129 0.98,-2.34 0.98,-3.668 0,-1.84 -0.63,-3.359 -1.88,-4.609 -0.08,-0.082 -0.16,-0.191 -0.27,-0.27 -0.71,-0.55 -1.41,-0.902 -2.11,-1.062 -1.29,-0.309 -2.5,-0.188 -3.71,0.391 -0.43,0.199 -0.79,0.429 -0.98,0.628 l -0.08,0.043 v -2.191 c 0,-1.52 0,-2.27 0,-2.301 0.08,-0.121 0.59,-0.16 1.53,-0.16 h 0.58 v -1.519 h -0.23 l -1.72,0.031 c -0.98,0.039 -1.92,0.039 -2.89,0 l -1.72,-0.031 h -0.2 v 1.519 h 0.55 c 0.94,0 1.45,0.039 1.52,0.16 v 12.77 c -0.07,0.429 -0.31,0.703 -0.66,0.781 -0.2,0.078 -0.51,0.121 -0.94,0.121 h -0.47 v 1.52 h 0.04 z m 5.98,-1.211 c -0.24,0.039 -0.47,0.039 -0.79,0 -0.42,-0.039 -0.93,-0.16 -1.36,-0.352 -0.51,-0.238 -0.94,-0.508 -1.25,-0.898 l -0.16,-0.16 v -6.411 l 0.16,-0.23 c 0.35,-0.59 0.86,-0.98 1.48,-1.25 0.94,-0.43 1.76,-0.391 2.54,0.121 0.98,0.699 1.6,1.828 1.84,3.399 0.11,0.5 0.11,1.171 0.04,1.949 -0.16,1.562 -0.71,2.691 -1.61,3.402 -0.07,0.039 -0.11,0.078 -0.19,0.109 -0.23,0.161 -0.47,0.239 -0.7,0.321 z m 10,8.039 c 1.56,0.082 2.3,0.16 2.22,0.16 h 0.08 v -8.52 c 0,-5.66 0.04,-8.511 0.04,-8.511 0.08,-0.16 0.59,-0.199 1.52,-0.199 h 0.55 V 230 h -0.23 l -1.68,0.039 c -0.94,0.039 -1.88,0.039 -2.86,0 L 1474.41,230 h -0.23 v 1.52 h 0.55 c 0.93,0 1.44,0.039 1.52,0.199 v 14.301 c -0.08,0.429 -0.31,0.699 -0.66,0.82 -0.24,0.039 -0.51,0.07 -0.94,0.07 h -0.47 v 1.531 h 0.04 z" /><path
         id="path204"
         style="fill:#808080;fill-opacity:1;fill-rule:nonzero;stroke:none"
         d="m 1448.79,204.879 c 1.01,0.242 1.8,-0.231 2.3,-1.399 0.08,-0.199 0.16,-0.39 0.24,-0.628 0.04,-0.274 0.08,-0.743 0.08,-1.481 0,-1.172 -0.28,-2.851 -0.82,-5 -0.82,-3.441 -1.92,-6.211 -3.25,-8.32 -0.74,-1.063 -1.52,-1.922 -2.3,-2.5 -0.63,-0.473 -1.25,-0.75 -1.88,-0.903 -0.27,-0.078 -0.7,-0.117 -1.28,-0.117 -0.9,0 -1.76,0.117 -2.5,0.348 -2.5,0.859 -3.68,2.82 -3.52,5.82 0.12,1.449 0.86,4.071 2.23,7.821 0.54,1.558 0.82,2.57 0.89,3.039 0.16,0.711 0.08,1.101 -0.23,1.171 -0.35,0.122 -0.78,0.04 -1.25,-0.23 -0.62,-0.391 -1.13,-1.02 -1.48,-1.84 -0.32,-0.539 -0.63,-1.441 -0.98,-2.73 -0.12,-0.2 -0.16,-0.309 -0.2,-0.309 -0.07,-0.082 -0.43,-0.121 -1.09,-0.121 h -0.98 l -0.15,0.16 c -0.08,0.07 -0.12,0.192 -0.12,0.352 0.08,0.468 0.31,1.207 0.78,2.258 0.51,1.14 1.21,2.109 1.99,3.011 0.63,0.547 1.21,0.981 1.84,1.25 0.47,0.199 1.05,0.309 1.72,0.309 0.78,0 1.4,-0.11 1.95,-0.391 0.39,-0.23 0.7,-0.429 0.9,-0.699 0.23,-0.199 0.47,-0.512 0.66,-0.898 0.28,-0.551 0.39,-1.172 0.39,-1.801 0,-0.582 -0.19,-1.403 -0.58,-2.461 -0.04,-0.149 -0.12,-0.352 -0.2,-0.539 -0.5,-1.449 -0.82,-2.313 -0.93,-2.621 -1.14,-3.399 -1.49,-5.782 -0.94,-7.231 0.31,-1.09 1.09,-1.597 2.26,-1.597 0.16,0 0.32,0.039 0.47,0.078 0.59,0.082 1.17,0.39 1.76,0.98 1.17,1.211 2.27,3.82 3.28,7.809 0.27,1.172 0.35,2.031 0.31,2.582 -0.11,1.051 -0.54,1.91 -1.21,2.609 -0.23,0.238 -0.43,0.469 -0.5,0.668 -0.08,0.192 -0.12,0.473 -0.12,0.82 0,0.352 0,0.622 0.08,0.821 0.31,0.742 0.82,1.293 1.48,1.601 0.23,0.16 0.55,0.27 0.9,0.309 z m 11.41,-8.359 c 0.46,0.039 0.93,0.039 1.36,0 1.53,-0.149 2.78,-0.782 3.83,-1.829 0.16,-0.16 0.23,-0.203 0.23,-0.242 l 0.86,1.02 c 0.47,0.621 0.79,0.941 0.86,1.051 0.04,0 0.12,0 0.32,0 0.15,0 0.23,0 0.31,-0.071 l 0.08,-0.078 v -7.621 l -0.08,-0.121 -0.12,-0.078 h -0.58 c -0.43,0 -0.67,0.039 -0.71,0.121 0,0.039 -0.04,0.199 -0.08,0.508 -0.31,2.379 -1.17,4.058 -2.5,5.082 -0.46,0.347 -1.01,0.578 -1.56,0.699 -0.27,0.039 -0.7,0.078 -1.29,0.039 -2.15,-0.199 -3.79,-1.129 -4.88,-2.77 -0.63,-0.941 -1.05,-2.308 -1.21,-4.031 -0.08,-0.578 -0.08,-1.437 -0.04,-2.609 0.04,-0.16 0.04,-0.281 0.04,-0.36 0.12,-1.441 0.43,-2.609 0.9,-3.468 0.82,-1.641 2.18,-2.66 4.06,-3.133 0.16,-0.039 0.27,-0.078 0.39,-0.078 1.68,-0.313 3.09,0 4.26,0.937 1.21,1.063 1.87,2.5 2.03,4.301 0,0.039 0,0.121 0,0.191 0,0.282 0.04,0.43 0.08,0.469 l 0.08,0.082 h 1.01 l 0.12,-0.082 c 0.04,-0.07 0.08,-0.148 0.08,-0.308 0,-0.86 -0.2,-1.68 -0.51,-2.539 -0.16,-0.473 -0.43,-0.981 -0.74,-1.524 -0.63,-0.937 -1.41,-1.68 -2.27,-2.187 -1.29,-0.782 -2.73,-1.09 -4.26,-0.981 -2.3,0.238 -4.22,1.141 -5.82,2.738 -0.74,0.704 -1.33,1.563 -1.79,2.461 -1.29,2.5 -1.49,5.039 -0.67,7.661 0.2,0.539 0.39,1.05 0.67,1.558 1.05,2.113 2.65,3.594 4.8,4.492 0.39,0.2 0.82,0.352 1.29,0.43 0.51,0.16 1.02,0.23 1.45,0.27 z" /><path
         id="path206"
         style="fill:#808080;fill-opacity:1;fill-rule:nonzero;stroke:none"
         d="m 1369.77,223.91 c 0.07,0.07 4.49,0.11 13.24,0.11 h 13.08 l 0.24,-0.149 c 0.47,-0.242 0.62,-0.59 0.39,-1.062 -0.04,-0.231 -0.2,-0.387 -0.39,-0.469 l -0.24,-0.11 h -13.08 c -8.71,0 -13.13,0 -13.24,0.071 -0.51,0.199 -0.67,0.551 -0.51,1.097 0.12,0.231 0.27,0.391 0.51,0.512 z m -2.23,-8.75 0.19,0.11 h 13.13 c 8.71,0 13.12,0 13.24,-0.071 0.47,-0.199 0.63,-0.59 0.47,-1.097 -0.08,-0.231 -0.23,-0.391 -0.47,-0.512 -0.12,-0.07 -4.53,-0.11 -13.24,-0.11 h -13.13 l -0.19,0.149 c -0.51,0.242 -0.63,0.59 -0.43,1.062 0.08,0.231 0.19,0.387 0.43,0.469 z" /><path
         id="path208"
         style="fill:#808080;fill-opacity:1;fill-rule:nonzero;stroke:none"
         d="m 481.879,304.41 c 1.051,0.281 1.832,0 2.34,-0.781 0.121,-0.27 0.23,-0.578 0.23,-0.899 0,-0.46 -0.07,-0.89 -0.308,-1.32 -0.661,-0.941 -1.563,-1.531 -2.582,-1.64 -0.348,0 -0.7,0.07 -1.047,0.269 -0.313,0.121 -0.551,0.391 -0.711,0.781 -0.11,0.121 -0.153,0.352 -0.192,0.739 0,0.472 0.082,0.902 0.27,1.25 0.43,0.82 1.101,1.371 2,1.601 z m -3.867,-9.609 c 0.187,0.039 0.508,0.078 0.968,0.078 0.711,-0.039 1.29,-0.149 1.801,-0.43 0.391,-0.23 0.699,-0.429 0.899,-0.699 0.23,-0.199 0.468,-0.512 0.66,-0.898 0.281,-0.551 0.39,-1.172 0.39,-1.801 0,-0.5 -0.031,-0.852 -0.109,-1.051 -0.043,-0.078 -0.711,-1.949 -2.031,-5.621 -1.25,-3.359 -1.918,-5.238 -2,-5.59 -0.309,-1.019 -0.352,-1.641 -0.149,-1.988 0.149,-0.199 0.469,-0.199 0.938,-0.082 1.172,0.269 2.101,1.722 2.851,4.371 0.149,0.469 0.309,0.711 0.43,0.75 0.11,0.039 0.43,0.039 0.969,0.039 0.633,0 1.019,-0.039 1.062,-0.078 0.188,-0.121 0.188,-0.43 0,-0.942 -0.312,-1.168 -0.82,-2.269 -1.492,-3.281 -1.211,-1.797 -2.539,-2.808 -4.097,-3.047 -0.512,-0.121 -1.09,-0.082 -1.641,0.117 -0.621,0.153 -1.09,0.391 -1.481,0.661 -0.671,0.55 -1.101,1.293 -1.332,2.312 -0.117,0.539 -0.078,1.168 0.122,1.789 0.031,0.238 0.699,2.07 1.949,5.551 1.09,2.848 1.801,4.769 2.07,5.66 0.313,0.938 0.352,1.57 0.16,1.918 -0.121,0.231 -0.429,0.313 -0.937,0.16 -0.903,-0.238 -1.723,-1.179 -2.422,-2.859 -0.36,-1.32 -0.551,-1.988 -0.551,-1.91 -0.117,-0.2 -0.16,-0.309 -0.199,-0.309 -0.07,-0.082 -0.43,-0.121 -1.09,-0.121 h -0.98 l -0.149,0.16 c -0.082,0.07 -0.121,0.192 -0.121,0.352 0.078,0.468 0.309,1.207 0.781,2.258 0.348,0.75 0.699,1.41 1.098,1.921 0.391,0.539 0.891,1.09 1.48,1.637 0.661,0.512 1.371,0.82 2.153,0.973 z m 11.09,-8.942 0.078,0.082 h 0.39 c 1.879,-0.082 4.141,-0.082 6.879,-0.043 0.66,0.043 1.012,-0.039 1.09,-0.16 0,-0.039 0,-0.226 -0.078,-0.617 -0.121,-0.351 -0.191,-0.551 -0.231,-0.633 l -0.082,-0.078 h -1.058 c -1.168,0 -1.828,-0.07 -1.988,-0.23 -0.082,-0.039 -0.704,-2.539 -1.954,-7.539 -1.25,-5 -1.878,-7.5 -1.878,-7.539 0,-0.043 0.039,-0.082 0.16,-0.082 h 2.851 c 0.981,0.121 1.84,0.429 2.578,0.98 0.43,0.309 0.743,0.621 1.02,0.98 0.543,0.739 1.09,1.872 1.601,3.36 0.149,0.461 0.27,0.699 0.309,0.738 0.082,0.043 0.27,0.082 0.621,0.082 0.391,0 0.59,-0.039 0.629,-0.082 0.082,-0.039 0.16,-0.117 0.16,-0.238 l -2.5,-7.219 c -0.039,-0.043 -0.277,-0.082 -0.789,-0.082 -0.5,-0.039 -2.461,-0.039 -5.781,-0.039 h -6.399 l -0.121,0.078 c -0.039,0.082 -0.078,0.152 -0.078,0.231 0,0.281 0.078,0.632 0.27,1.062 0.199,0.078 0.551,0.149 1.019,0.149 0.821,0 1.289,0.039 1.371,0.082 0.11,0.078 0.149,0.199 0.231,0.347 0.117,0.352 0.738,2.781 1.879,7.27 1.211,5 1.828,7.5 1.828,7.543 0,0.039 0,0.078 -0.039,0.078 -0.11,0.039 -0.539,0.039 -1.289,0.07 -0.621,0 -0.973,0.078 -1.051,0.199 0,0.082 0.039,0.27 0.078,0.621 0.121,0.36 0.192,0.551 0.274,0.629 z" /><path
         id="path210"
         style="fill:#808080;fill-opacity:1;fill-rule:nonzero;stroke:none"
         d="m 544.34,320 -18.75,10.82 v -21.64 z m -112.5,-1.879 h 95.6211 v 3.75781 H 431.84 Z" /></g></g></svg>