<svg width="242" height="77" viewBox="0 0 242 77" fill="none" xmlns="http://www.w3.org/2000/svg">
<line x1="68" y1="25.6" x2="68.9381" y2="25.6" stroke="#A9A6A7" stroke-width="0.5"/>
<path d="M74.6349 22.6C72.4065 22.6 71.5706 28.6 73.2451 28.6" stroke="#A9A6A7" stroke-width="0.5"/>
<path d="M71.8046 22.6C74.033 22.6 74.8688 28.6 73.1943 28.6" stroke="#A9A6A7" stroke-width="0.5"/>
<path d="M77.4145 22.6C75.1861 22.6 74.3502 28.6 76.0247 28.6" stroke="#A9A6A7" stroke-width="0.5"/>
<path d="M74.5842 22.6C76.8126 22.6 77.6484 28.6 75.974 28.6" stroke="#A9A6A7" stroke-width="0.5"/>
<path d="M80.1941 22.6C77.9656 22.6 77.1298 28.6 78.8043 28.6" stroke="#A9A6A7" stroke-width="0.5"/>
<path d="M77.3637 22.6C79.5921 22.6 80.428 28.6 78.7535 28.6" stroke="#A9A6A7" stroke-width="0.5"/>
<path d="M71.8046 22.6C69.5762 22.6 70.8838 25.6 68.9381 25.6" stroke="#A9A6A7" stroke-width="0.5"/>
<line y1="-0.25" x2="0.938111" y2="-0.25" transform="matrix(-1 0 0 1 84 25.85)" stroke="#A9A6A7" stroke-width="0.5"/>
<path d="M80.1954 22.6C82.4238 22.6 81.1162 25.6 83.0619 25.6" stroke="#A9A6A7" stroke-width="0.5"/>
<path d="M103.217 21.85L104.778 27.85L106.339 21.85" stroke="#A9A6A7" stroke-width="0.5" stroke-linecap="round"/>
<path d="M112.583 21.85L113.363 24.85L113.559 25.6" stroke="#A9A6A7" stroke-width="0.5" stroke-linecap="round"/>
<path d="M103.217 21.85L102.437 24.85L102.241 25.6" stroke="#A9A6A7" stroke-width="0.5" stroke-linecap="round"/>
<path d="M102.241 25.6H100.368H99.9" stroke="#A9A6A7" stroke-width="0.5" stroke-linecap="round"/>
<path d="M115.9 25.6H114.027H113.559" stroke="#A9A6A7" stroke-width="0.5" stroke-linecap="round"/>
<path d="M109.461 21.85L111.022 27.85L112.583 21.85" stroke="#A9A6A7" stroke-width="0.5" stroke-linecap="round"/>
<path d="M106.339 21.85L107.9 27.85L109.461 21.85" stroke="#A9A6A7" stroke-width="0.5" stroke-linecap="round"/>
<path d="M132 52.2V45.7" stroke="#A9A6A7" stroke-width="0.5"/>
<path d="M136 45.7H132H128" stroke="#A9A6A7" stroke-width="0.5"/>
<path d="M136 42.7H128" stroke="#A9A6A7" stroke-width="0.5"/>
<path d="M132 36.2V42.7" stroke="#A9A6A7" stroke-width="0.5"/>
<rect x="199.282" y="44.2" width="9.5" height="9.5" transform="rotate(-45 199.282 44.2)" stroke="#A9A6A7" stroke-width="0.5"/>
<path d="M205.823 47.3768C205.92 47.4744 206.079 47.4744 206.176 47.3768L207.767 45.7858C207.865 45.6882 207.865 45.5299 207.767 45.4322C207.67 45.3346 207.511 45.3346 207.414 45.4322L205.999 46.8464L204.585 45.4322C204.488 45.3346 204.329 45.3346 204.232 45.4322C204.134 45.5299 204.134 45.6882 204.232 45.7858L205.823 47.3768ZM205.749 41.2V47.2H206.249V41.2H205.749Z" fill="#A9A6A7"/>
<path d="M205.999 35.7V37.7" stroke="#A9A6A7" stroke-width="0.5"/>
<path d="M205.999 50.7V52.7" stroke="#A9A6A7" stroke-width="0.5"/>
<path d="M28.6601 25.7876C28.6695 26.5239 29.2741 27.1132 30.0104 27.1038C30.7467 27.0943 31.336 26.4898 31.3265 25.7534C31.3171 25.0171 30.7125 24.4279 29.9762 24.4373C29.2399 24.4468 28.6506 25.0513 28.6601 25.7876ZM15.9977 26.2L29.9965 26.0205L29.9901 25.5206L15.9912 25.7L15.9977 26.2Z" fill="#A9A6A7"/>
<path d="M28.9939 25.6H42.9939" stroke="#A9A6A7" stroke-width="0.5"/>
<path d="M51.3672 63.2C51.3672 63.9364 51.9642 64.5333 52.7006 64.5333C53.4369 64.5333 54.0339 63.9364 54.0339 63.2C54.0339 62.4636 53.4369 61.8667 52.7006 61.8667C51.9642 61.8667 51.3672 62.4636 51.3672 63.2ZM15.7 63.45H52.7006V62.95H15.7V63.45Z" fill="#A9A6A7"/>
<path d="M130.667 63.2C130.667 63.9364 131.264 64.5333 132 64.5333C132.736 64.5333 133.333 63.9364 133.333 63.2C133.333 62.4636 132.736 61.8667 132 61.8667C131.264 61.8667 130.667 62.4636 130.667 63.2ZM53 63.45H132V62.95H53V63.45Z" fill="#A9A6A7"/>
<path d="M167.667 63.2C167.667 63.9364 168.264 64.5333 169 64.5333C169.736 64.5333 170.333 63.9364 170.333 63.2C170.333 62.4636 169.736 61.8667 169 61.8667C168.264 61.8667 167.667 62.4636 167.667 63.2ZM132 63.45L169 63.45V62.95L132 62.95V63.45Z" fill="#A9A6A7"/>
<path d="M204.667 63.2C204.667 63.9364 205.264 64.5333 206 64.5333C206.736 64.5333 207.333 63.9364 207.333 63.2C207.333 62.4636 206.736 61.8667 206 61.8667C205.264 61.8667 204.667 62.4636 204.667 63.2ZM169 63.45L206 63.45V62.95L169 62.95V63.45Z" fill="#A9A6A7"/>
<path d="M52.6 63.2V48.2" stroke="#A9A6A7" stroke-width="0.5"/>
<path d="M52.6 40.2V25.2" stroke="#A9A6A7" stroke-width="0.5"/>
<path d="M52.6 49.5333C53.3364 49.5333 53.9333 48.9364 53.9333 48.2C53.9333 47.4636 53.3364 46.8667 52.6 46.8667C51.8636 46.8667 51.2667 47.4636 51.2667 48.2C51.2667 48.9364 51.8636 49.5333 52.6 49.5333ZM52.85 63.2V48.2H52.35V63.2H52.85Z" fill="#A9A6A7"/>
<path d="M52.6 41.5333C53.3364 41.5333 53.9333 40.9364 53.9333 40.2C53.9333 39.4636 53.3364 38.8667 52.6 38.8667C51.8636 38.8667 51.2667 39.4636 51.2667 40.2C51.2667 40.9364 51.8636 41.5333 52.6 41.5333ZM52.85 40.2V25.2H52.35V40.2H52.85Z" fill="#A9A6A7"/>
<path d="M132 63.2V48.2" stroke="#A9A6A7" stroke-width="0.5"/>
<path d="M132 40.2V25.2" stroke="#A9A6A7" stroke-width="0.5"/>
<path d="M165.25 48.8829L171.25 47.3219L165.25 45.761" stroke="#A9A6A7" stroke-width="0.5" stroke-linecap="round"/>
<path d="M165.25 39.5171L168.25 38.7366L169 38.5415" stroke="#A9A6A7" stroke-width="0.5" stroke-linecap="round"/>
<path d="M165.25 48.8829L168.25 49.6634L169 49.8585" stroke="#A9A6A7" stroke-width="0.5" stroke-linecap="round"/>
<path d="M169 49.8585V51.7317V52.2" stroke="#A9A6A7" stroke-width="0.5" stroke-linecap="round"/>
<path d="M169 36.2V38.0732V38.5415" stroke="#A9A6A7" stroke-width="0.5" stroke-linecap="round"/>
<path d="M165.25 42.639L171.25 41.078L165.25 39.5171" stroke="#A9A6A7" stroke-width="0.5" stroke-linecap="round"/>
<path d="M165.25 45.761L171.25 44.2L165.25 42.639" stroke="#A9A6A7" stroke-width="0.5" stroke-linecap="round"/>
<path d="M169 63.2V51.2" stroke="#A9A6A7" stroke-width="0.5"/>
<path d="M169 38.2V25.2" stroke="#A9A6A7" stroke-width="0.5"/>
<path d="M206 37.2V25.2" stroke="#A9A6A7" stroke-width="0.5"/>
<path d="M206 63.2V51.2" stroke="#A9A6A7" stroke-width="0.5"/>
<path d="M37.266 25.5975C37.266 26.3338 37.863 26.9308 38.5993 26.9308C39.3357 26.9308 39.9327 26.3338 39.9327 25.5975C39.9327 24.8611 39.3357 24.2641 38.5993 24.2641C37.863 24.2641 37.266 24.8611 37.266 25.5975ZM51.266 25.5975C51.266 26.3338 51.863 26.9308 52.5994 26.9308C53.3357 26.9308 53.9327 26.3338 53.9327 25.5975C53.9327 24.8611 53.3357 24.2641 52.5994 24.2641C51.863 24.2641 51.266 24.8611 51.266 25.5975ZM38.5993 25.8475H52.5994V25.3475H38.5993V25.8475Z" fill="#A9A6A7"/>
<path d="M167.667 25.64C167.667 26.3764 168.264 26.9733 169 26.9733C169.736 26.9733 170.333 26.3764 170.333 25.64C170.333 24.9036 169.736 24.3067 169 24.3067C168.264 24.3067 167.667 24.9036 167.667 25.64ZM132 25.89H169V25.39H132V25.89Z" fill="#A9A6A7"/>
<path d="M204.667 25.647C204.667 26.3834 205.264 26.9803 206 26.9803C206.736 26.9803 207.333 26.3834 207.333 25.647C207.333 24.9106 206.736 24.3137 206 24.3137C205.264 24.3137 204.667 24.9106 204.667 25.647ZM169 25.897H206V25.397H169V25.897Z" fill="#A9A6A7"/>
<path d="M205.997 25.65H225.003" stroke="#A9A6A7" stroke-width="0.5"/>
<path d="M206 63.2H225.005" stroke="#A9A6A7" stroke-width="0.5"/>
<path d="M52.6 25.6H68.6" stroke="#A9A6A7" stroke-width="0.5"/>
<path d="M84 25.6H100" stroke="#A9A6A7" stroke-width="0.5"/>
<path d="M130.667 25.6C130.667 26.3364 131.264 26.9333 132 26.9333C132.736 26.9333 133.333 26.3364 133.333 25.6C133.333 24.8636 132.736 24.2667 132 24.2667C131.264 24.2667 130.667 24.8636 130.667 25.6ZM116 25.85H132V25.35H116V25.85Z" fill="#A9A6A7"/>
<path d="M15.75 25.95C15.75 26.6404 15.1904 27.2 14.5 27.2C13.8096 27.2 13.25 26.6404 13.25 25.95C13.25 25.2596 13.8096 24.7 14.5 24.7C15.1904 24.7 15.75 25.2596 15.75 25.95Z" stroke="#A9A6A7" stroke-width="0.5"/>
<path d="M15.75 63.2C15.75 63.8904 15.1904 64.45 14.5 64.45C13.8096 64.45 13.25 63.8904 13.25 63.2C13.25 62.5096 13.8096 61.95 14.5 61.95C15.1904 61.95 15.75 62.5096 15.75 63.2Z" stroke="#A9A6A7" stroke-width="0.5"/>
<path d="M227.75 25.7C227.75 26.3904 227.19 26.95 226.5 26.95C225.81 26.95 225.25 26.3904 225.25 25.7C225.25 25.0096 225.81 24.45 226.5 24.45C227.19 24.45 227.75 25.0096 227.75 25.7Z" stroke="#A9A6A7" stroke-width="0.5"/>
<path d="M227.75 63.2C227.75 63.8904 227.19 64.45 226.5 64.45C225.81 64.45 225.25 63.8904 225.25 63.2C225.25 62.5096 225.81 61.95 226.5 61.95C227.19 61.95 227.75 62.5096 227.75 63.2Z" stroke="#A9A6A7" stroke-width="0.5"/>
<path d="M14.592 43.548C14.728 43.52 14.83 43.582 14.898 43.734C14.91 43.762 14.92 43.79 14.928 43.818C14.936 43.854 14.94 43.92 14.94 44.016C14.94 44.176 14.904 44.398 14.832 44.682C14.72 45.142 14.576 45.512 14.4 45.792C14.3 45.936 14.198 46.048 14.094 46.128C14.01 46.188 13.926 46.228 13.842 46.248C13.806 46.256 13.748 46.26 13.668 46.26C13.548 46.26 13.438 46.246 13.338 46.218C13.002 46.102 12.846 45.842 12.87 45.438C12.882 45.246 12.98 44.9 13.164 44.4C13.236 44.188 13.276 44.052 13.284 43.992C13.304 43.9 13.294 43.848 13.254 43.836C13.206 43.82 13.15 43.83 13.086 43.866C13.002 43.918 12.936 44 12.888 44.112C12.848 44.184 12.804 44.306 12.756 44.478C12.744 44.502 12.736 44.516 12.732 44.52C12.724 44.528 12.676 44.532 12.588 44.532H12.456L12.438 44.514C12.426 44.502 12.42 44.486 12.42 44.466C12.428 44.402 12.462 44.302 12.522 44.166C12.594 44.014 12.684 43.88 12.792 43.764C12.872 43.688 12.952 43.632 13.032 43.596C13.096 43.568 13.174 43.554 13.266 43.554C13.366 43.554 13.452 43.572 13.524 43.608C13.576 43.636 13.616 43.666 13.644 43.698C13.676 43.726 13.706 43.766 13.734 43.818C13.77 43.894 13.786 43.974 13.782 44.058C13.782 44.138 13.756 44.248 13.704 44.388C13.7 44.408 13.692 44.432 13.68 44.46C13.612 44.652 13.57 44.768 13.554 44.808C13.402 45.26 13.36 45.582 13.428 45.774C13.472 45.918 13.574 45.988 13.734 45.984C13.754 45.984 13.774 45.982 13.794 45.978C13.874 45.966 13.952 45.922 14.028 45.846C14.188 45.686 14.334 45.338 14.466 44.802C14.502 44.646 14.516 44.532 14.508 44.46C14.492 44.32 14.438 44.204 14.346 44.112C14.314 44.08 14.292 44.05 14.28 44.022C14.268 43.998 14.262 43.962 14.262 43.914C14.262 43.866 14.266 43.83 14.274 43.806C14.318 43.706 14.384 43.634 14.472 43.59C14.504 43.57 14.544 43.556 14.592 43.548ZM15.7606 44.8456C15.847 44.824 15.9094 44.8456 15.9478 44.9104C15.9598 44.932 15.967 44.956 15.9694 44.9824C15.9694 45.0184 15.961 45.0532 15.9442 45.0868C15.889 45.1636 15.8194 45.208 15.7354 45.22C15.709 45.22 15.6814 45.2128 15.6526 45.1984C15.6286 45.1864 15.6094 45.1648 15.595 45.1336C15.5878 45.124 15.583 45.1048 15.5806 45.076C15.5806 45.0376 15.5878 45.004 15.6022 44.9752C15.6358 44.908 15.6886 44.8648 15.7606 44.8456ZM15.451 45.616C15.4678 45.6112 15.4942 45.6088 15.5302 45.6088C15.5854 45.6112 15.6334 45.6232 15.6742 45.6448C15.7054 45.6616 15.7294 45.6796 15.7462 45.6988C15.7654 45.7156 15.7834 45.7396 15.8002 45.7708C15.8218 45.8164 15.8314 45.8644 15.829 45.9148C15.829 45.9556 15.8266 45.9844 15.8218 46.0012C15.8194 46.006 15.7654 46.156 15.6598 46.4512C15.559 46.72 15.505 46.8688 15.4978 46.8976C15.4738 46.9768 15.4702 47.0296 15.487 47.056C15.499 47.0704 15.5242 47.0728 15.5626 47.0632C15.6562 47.0416 15.7318 46.9252 15.7894 46.714C15.8014 46.6756 15.8134 46.6552 15.8254 46.6528C15.8326 46.6504 15.8578 46.6492 15.901 46.6492C15.9538 46.6492 15.9826 46.6516 15.9874 46.6564C16.0018 46.666 16.0018 46.6912 15.9874 46.732C15.961 46.8256 15.9214 46.9132 15.8686 46.9948C15.7726 47.1388 15.6634 47.2192 15.541 47.236C15.4978 47.2456 15.4534 47.2432 15.4078 47.2288C15.3598 47.2144 15.3202 47.1964 15.289 47.1748C15.2362 47.1316 15.2014 47.0704 15.1846 46.9912C15.175 46.9456 15.1774 46.8976 15.1918 46.8472C15.1966 46.828 15.2494 46.6804 15.3502 46.4044C15.4366 46.174 15.4918 46.0228 15.5158 45.9508C15.5398 45.8764 15.5434 45.8248 15.5266 45.796C15.5194 45.7768 15.4942 45.7732 15.451 45.7852C15.379 45.802 15.3154 45.8776 15.2602 46.012C15.229 46.12 15.2134 46.1716 15.2134 46.1668C15.2062 46.1812 15.2014 46.1896 15.199 46.192C15.1942 46.1968 15.1654 46.1992 15.1126 46.1992H15.0334L15.0226 46.1884C15.0154 46.1812 15.0118 46.1716 15.0118 46.1596C15.0166 46.1212 15.037 46.0612 15.073 45.9796C15.1018 45.9172 15.1318 45.8656 15.163 45.8248C15.1942 45.7816 15.2338 45.7384 15.2818 45.6952C15.3346 45.6544 15.391 45.628 15.451 45.616ZM16.5837 45.616C16.6245 45.604 16.6761 45.6052 16.7385 45.6196C16.7961 45.634 16.8453 45.6604 16.8861 45.6988C16.9221 45.7348 16.9461 45.7696 16.9581 45.8032L16.9725 45.832L17.0013 45.8068C17.1045 45.7036 17.2221 45.6412 17.3541 45.6196C17.4405 45.6028 17.5197 45.604 17.5917 45.6232C17.6853 45.6424 17.7561 45.6832 17.8041 45.7456C17.8305 45.7792 17.8521 45.8236 17.8689 45.8788C17.8737 45.9004 17.8761 45.94 17.8761 45.9976C17.8761 46.06 17.8749 46.0996 17.8725 46.1164C17.8461 46.2532 17.7813 46.4656 17.6781 46.7536C17.6397 46.8568 17.6169 46.9276 17.6097 46.966C17.6025 47.026 17.6097 47.0596 17.6313 47.0668C17.6601 47.0764 17.6937 47.0704 17.7321 47.0488C17.8065 47.0032 17.8689 46.8916 17.9193 46.714C17.9313 46.6756 17.9433 46.6552 17.9553 46.6528C17.9625 46.6504 17.9877 46.6492 18.0309 46.6492C18.0837 46.6492 18.1125 46.6516 18.1173 46.6564C18.1317 46.666 18.1317 46.6912 18.1173 46.732C18.0909 46.8256 18.0513 46.9132 17.9985 46.9948C17.9025 47.1388 17.7933 47.2192 17.6709 47.236C17.6277 47.2456 17.5833 47.2432 17.5377 47.2288C17.4681 47.2144 17.4153 47.182 17.3793 47.1316C17.3337 47.0764 17.3109 47.0116 17.3109 46.9372C17.3109 46.8916 17.3289 46.8172 17.3649 46.714C17.4825 46.3972 17.5485 46.1728 17.5629 46.0408C17.5725 45.9832 17.5713 45.9292 17.5593 45.8788C17.5425 45.8308 17.5185 45.8008 17.4873 45.7888C17.4633 45.7768 17.4261 45.7744 17.3757 45.7816C17.2173 45.8056 17.0805 45.9256 16.9653 46.1416L16.9365 46.192L16.8213 46.6492C16.7445 46.9588 16.7025 47.1196 16.6953 47.1316C16.6641 47.194 16.6125 47.23 16.5405 47.2396C16.5213 47.242 16.5033 47.2408 16.4865 47.236C16.4265 47.2192 16.3941 47.182 16.3893 47.1244C16.3893 47.1028 16.4349 46.9084 16.5261 46.5412C16.6197 46.1788 16.6689 45.9808 16.6737 45.9472C16.6809 45.8848 16.6785 45.8392 16.6665 45.8104C16.6569 45.7936 16.6413 45.7828 16.6197 45.778C16.6053 45.778 16.5933 45.7816 16.5837 45.7888C16.5477 45.8104 16.5141 45.8692 16.4829 45.9652C16.4709 45.9988 16.4517 46.066 16.4253 46.1668C16.4181 46.1812 16.4133 46.1896 16.4109 46.192C16.4061 46.1968 16.3773 46.1992 16.3245 46.1992H16.2453L16.2345 46.1884C16.2273 46.1812 16.2237 46.1716 16.2237 46.1596L16.2453 46.0768C16.3053 45.868 16.3821 45.73 16.4757 45.6628C16.5141 45.6388 16.5501 45.6232 16.5837 45.616Z" fill="#A9A6A7"/>
<path d="M91.668 36.076C91.812 36.04 91.916 36.076 91.98 36.184C92 36.22 92.012 36.26 92.016 36.304C92.016 36.364 92.002 36.422 91.974 36.478C91.882 36.606 91.766 36.68 91.626 36.7C91.582 36.7 91.536 36.688 91.488 36.664C91.448 36.644 91.416 36.608 91.392 36.556C91.38 36.54 91.372 36.508 91.368 36.46C91.368 36.396 91.38 36.34 91.404 36.292C91.46 36.18 91.548 36.108 91.668 36.076ZM91.152 37.36C91.18 37.352 91.224 37.348 91.284 37.348C91.376 37.352 91.456 37.372 91.524 37.408C91.576 37.436 91.616 37.466 91.644 37.498C91.676 37.526 91.706 37.566 91.734 37.618C91.77 37.694 91.786 37.774 91.782 37.858C91.782 37.926 91.778 37.974 91.77 38.002C91.766 38.01 91.676 38.26 91.5 38.752C91.332 39.2 91.242 39.448 91.23 39.496C91.19 39.628 91.184 39.716 91.212 39.76C91.232 39.784 91.274 39.788 91.338 39.772C91.494 39.736 91.62 39.542 91.716 39.19C91.736 39.126 91.756 39.092 91.776 39.088C91.788 39.084 91.83 39.082 91.902 39.082C91.99 39.082 92.038 39.086 92.046 39.094C92.07 39.11 92.07 39.152 92.046 39.22C92.002 39.376 91.936 39.522 91.848 39.658C91.688 39.898 91.506 40.032 91.302 40.06C91.23 40.076 91.156 40.072 91.08 40.048C91 40.024 90.934 39.994 90.882 39.958C90.794 39.886 90.736 39.784 90.708 39.652C90.692 39.576 90.696 39.496 90.72 39.412C90.728 39.38 90.816 39.134 90.984 38.674C91.128 38.29 91.22 38.038 91.26 37.918C91.3 37.794 91.306 37.708 91.278 37.66C91.266 37.628 91.224 37.622 91.152 37.642C91.032 37.67 90.926 37.796 90.834 38.02C90.782 38.2 90.756 38.286 90.756 38.278C90.744 38.302 90.736 38.316 90.732 38.32C90.724 38.328 90.676 38.332 90.588 38.332H90.456L90.438 38.314C90.426 38.302 90.42 38.286 90.42 38.266C90.428 38.202 90.462 38.102 90.522 37.966C90.57 37.862 90.62 37.776 90.672 37.708C90.724 37.636 90.79 37.564 90.87 37.492C90.958 37.424 91.052 37.38 91.152 37.36ZM92.6318 38.552L92.6426 38.5412H92.6966C92.9438 38.5532 93.2498 38.5544 93.6146 38.5448C93.701 38.5424 93.749 38.5496 93.7586 38.5664C93.761 38.5736 93.7574 38.6012 93.7478 38.6492C93.7334 38.6972 93.7238 38.7248 93.719 38.732L93.7082 38.7428H93.5642C93.4082 38.7452 93.3194 38.756 93.2978 38.7752C93.2906 38.78 93.2042 39.116 93.0386 39.7832C92.873 40.4456 92.7902 40.7804 92.7902 40.7876C92.7902 40.7924 92.7974 40.7948 92.8118 40.7948H93.1934C93.3206 40.7804 93.4346 40.7372 93.5354 40.6652C93.5906 40.6268 93.635 40.5836 93.6686 40.5356C93.743 40.4372 93.8138 40.2884 93.881 40.0892C93.905 40.0268 93.9206 39.9932 93.9278 39.9884C93.935 39.9836 93.9626 39.9812 94.0106 39.9812C94.0586 39.9812 94.085 39.9836 94.0898 39.9884C94.1042 39.9932 94.1114 40.004 94.1114 40.0208L93.7802 40.982C93.7754 40.9916 93.7406 40.9964 93.6758 40.9964C93.6062 40.9988 93.3482 41 92.9018 41H92.0486L92.0342 40.9892C92.027 40.9772 92.0234 40.9676 92.0234 40.9604C92.0234 40.922 92.0354 40.8752 92.0594 40.82C92.0882 40.8056 92.1338 40.7984 92.1962 40.7984C92.3042 40.796 92.3654 40.7912 92.3798 40.784C92.3918 40.7768 92.4014 40.7624 92.4086 40.7408C92.4254 40.6928 92.5082 40.3688 92.657 39.7688C92.8226 39.1064 92.9054 38.7728 92.9054 38.768C92.9054 38.7608 92.903 38.7572 92.8982 38.7572C92.8838 38.7524 92.8274 38.7476 92.729 38.7428C92.645 38.7428 92.5982 38.7344 92.5886 38.7176C92.5862 38.7104 92.5898 38.6828 92.5994 38.6348C92.6114 38.5892 92.6222 38.5616 92.6318 38.552Z" fill="#A9A6A7"/>
<path d="M179.668 43.076C179.812 43.04 179.916 43.076 179.98 43.184C180 43.22 180.012 43.26 180.016 43.304C180.016 43.364 180.002 43.422 179.974 43.478C179.882 43.606 179.766 43.68 179.626 43.7C179.582 43.7 179.536 43.688 179.488 43.664C179.448 43.644 179.416 43.608 179.392 43.556C179.38 43.54 179.372 43.508 179.368 43.46C179.368 43.396 179.38 43.34 179.404 43.292C179.46 43.18 179.548 43.108 179.668 43.076ZM179.152 44.36C179.18 44.352 179.224 44.348 179.284 44.348C179.376 44.352 179.456 44.372 179.524 44.408C179.576 44.436 179.616 44.466 179.644 44.498C179.676 44.526 179.706 44.566 179.734 44.618C179.77 44.694 179.786 44.774 179.782 44.858C179.782 44.926 179.778 44.974 179.77 45.002C179.766 45.01 179.676 45.26 179.5 45.752C179.332 46.2 179.242 46.448 179.23 46.496C179.19 46.628 179.184 46.716 179.212 46.76C179.232 46.784 179.274 46.788 179.338 46.772C179.494 46.736 179.62 46.542 179.716 46.19C179.736 46.126 179.756 46.092 179.776 46.088C179.788 46.084 179.83 46.082 179.902 46.082C179.99 46.082 180.038 46.086 180.046 46.094C180.07 46.11 180.07 46.152 180.046 46.22C180.002 46.376 179.936 46.522 179.848 46.658C179.688 46.898 179.506 47.032 179.302 47.06C179.23 47.076 179.156 47.072 179.08 47.048C179 47.024 178.934 46.994 178.882 46.958C178.794 46.886 178.736 46.784 178.708 46.652C178.692 46.576 178.696 46.496 178.72 46.412C178.728 46.38 178.816 46.134 178.984 45.674C179.128 45.29 179.22 45.038 179.26 44.918C179.3 44.794 179.306 44.708 179.278 44.66C179.266 44.628 179.224 44.622 179.152 44.642C179.032 44.67 178.926 44.796 178.834 45.02C178.782 45.2 178.756 45.286 178.756 45.278C178.744 45.302 178.736 45.316 178.732 45.32C178.724 45.328 178.676 45.332 178.588 45.332H178.456L178.438 45.314C178.426 45.302 178.42 45.286 178.42 45.266C178.428 45.202 178.462 45.102 178.522 44.966C178.57 44.862 178.62 44.776 178.672 44.708C178.724 44.636 178.79 44.564 178.87 44.492C178.958 44.424 179.052 44.38 179.152 44.36ZM180.632 45.552L180.643 45.5412H181.222L181.805 45.5448L181.856 45.552C182.014 45.576 182.141 45.63 182.237 45.714C182.333 45.7908 182.392 45.8892 182.414 46.0092C182.423 46.074 182.421 46.1388 182.407 46.2036C182.366 46.374 182.249 46.524 182.057 46.6536C181.978 46.704 181.895 46.7448 181.809 46.776C181.79 46.7856 181.779 46.7904 181.777 46.7904L181.805 46.8192C181.856 46.86 181.899 46.914 181.935 46.9812C181.961 47.0436 181.976 47.106 181.978 47.1684C181.978 47.2188 181.971 47.304 181.957 47.424C181.945 47.544 181.939 47.6376 181.939 47.7048C181.939 47.7624 181.941 47.7996 181.946 47.8164C181.96 47.8692 181.997 47.9004 182.057 47.91C182.089 47.91 182.114 47.9016 182.133 47.8848C182.169 47.8608 182.203 47.7948 182.234 47.6868C182.243 47.6508 182.257 47.6304 182.273 47.6256C182.283 47.6232 182.307 47.622 182.345 47.622C182.396 47.622 182.426 47.628 182.435 47.64C182.445 47.652 182.443 47.6784 182.428 47.7192C182.368 47.8968 182.275 48.0108 182.147 48.0612C182.131 48.0684 182.114 48.0732 182.097 48.0756C182.08 48.078 182.05 48.0792 182.007 48.0792C181.76 48.0672 181.601 47.9892 181.532 47.8452C181.513 47.8092 181.502 47.7624 181.499 47.7048C181.499 47.6592 181.501 47.6304 181.503 47.6184C181.515 47.5632 181.532 47.4888 181.553 47.3952C181.594 47.232 181.612 47.1288 181.607 47.0856C181.598 46.9728 181.547 46.8996 181.456 46.866L181.431 46.8552H181.219H181.01L181.006 46.8696C181.006 46.8648 180.968 47.0184 180.891 47.3304C180.817 47.6304 180.781 47.7804 180.783 47.7804C180.795 47.7924 180.868 47.7984 181.003 47.7984H181.075L181.089 47.8092C181.096 47.8188 181.1 47.8284 181.1 47.838C181.1 47.8764 181.088 47.9232 181.064 47.9784C181.057 47.9928 181.033 47.9988 180.992 47.9964C180.982 47.9964 180.962 47.9964 180.931 47.9964C180.571 47.9868 180.29 47.988 180.088 48H180.049L180.038 47.9892C180.028 47.9796 180.023 47.97 180.023 47.9604C180.023 47.922 180.035 47.8752 180.059 47.82C180.088 47.8056 180.134 47.7984 180.196 47.7984C180.304 47.796 180.365 47.7912 180.38 47.784C180.392 47.7768 180.401 47.7624 180.409 47.7408C180.425 47.6928 180.508 47.3688 180.657 46.7688C180.823 46.1064 180.905 45.7728 180.905 45.768C180.905 45.7608 180.903 45.7572 180.898 45.7572C180.884 45.7524 180.827 45.7476 180.729 45.7428C180.645 45.7428 180.598 45.7344 180.589 45.7176C180.586 45.7104 180.59 45.6828 180.599 45.6348C180.611 45.5892 180.622 45.5616 180.632 45.552ZM181.751 45.75C181.737 45.7476 181.664 45.7452 181.532 45.7428C181.405 45.7428 181.33 45.7452 181.309 45.75C181.297 45.7548 181.289 45.7596 181.287 45.7644L181.053 46.686H181.262C181.425 46.6836 181.532 46.6764 181.582 46.6644C181.721 46.6332 181.823 46.5648 181.888 46.4592C181.919 46.4064 181.949 46.32 181.978 46.2C182 46.1112 182.011 46.0428 182.011 45.9948C182.011 45.93 181.991 45.8784 181.953 45.84C181.929 45.816 181.907 45.8004 181.888 45.7932C181.857 45.7764 181.811 45.762 181.751 45.75ZM184.536 45.4656L184.612 45.462H184.615C184.827 45.462 184.991 45.5388 185.109 45.6924C185.125 45.7188 185.135 45.732 185.137 45.732L185.274 45.5988L185.411 45.462H185.44C185.471 45.462 185.489 45.4692 185.494 45.4836C185.496 45.4884 185.457 45.6588 185.375 45.9948C185.289 46.3404 185.245 46.5096 185.245 46.5024C185.241 46.5168 185.207 46.524 185.145 46.524H185.069L185.058 46.5132C185.049 46.5036 185.046 46.482 185.051 46.4484C185.07 46.3236 185.074 46.2048 185.062 46.092C185.035 45.8568 184.943 45.7176 184.785 45.6744C184.763 45.6696 184.729 45.6672 184.684 45.6672C184.595 45.6648 184.501 45.6792 184.403 45.7104C184.285 45.7488 184.18 45.8064 184.086 45.8832C183.873 46.0464 183.714 46.3068 183.611 46.6644C183.546 46.902 183.514 47.0976 183.514 47.2512C183.514 47.3616 183.528 47.454 183.557 47.5284C183.619 47.6916 183.737 47.7984 183.91 47.8488C183.926 47.8536 183.943 47.8572 183.96 47.8596C184.188 47.9076 184.396 47.8404 184.583 47.658C184.722 47.514 184.823 47.3388 184.885 47.1324C184.897 47.0916 184.909 47.07 184.921 47.0676C184.929 47.0652 184.953 47.064 184.993 47.064C185.053 47.064 185.087 47.0712 185.094 47.0856C185.097 47.0952 185.094 47.112 185.087 47.136C185.008 47.424 184.851 47.6604 184.615 47.8452C184.548 47.898 184.477 47.9424 184.403 47.9784C184.254 48.048 184.105 48.0816 183.957 48.0792C183.853 48.0768 183.752 48.0552 183.654 48.0144C183.491 47.952 183.364 47.8476 183.272 47.7012C183.188 47.5764 183.137 47.4288 183.118 47.2584C183.108 47.1984 183.107 47.1144 183.114 47.0064C183.116 46.9944 183.118 46.9848 183.118 46.9776C183.146 46.7088 183.24 46.4532 183.398 46.2108C183.446 46.1436 183.488 46.0884 183.524 46.0452C183.589 45.966 183.67 45.8856 183.766 45.804C184.011 45.6048 184.267 45.492 184.536 45.4656Z" fill="#A9A6A7"/>
<path d="M44.898 42.072C45.21 42.048 45.364 42.036 45.36 42.036C45.396 42.036 45.42 42.05 45.432 42.078C45.436 42.094 45.292 42.69 45 43.866L44.544 45.69C44.536 45.782 44.536 45.856 44.544 45.912C44.552 45.932 44.564 45.948 44.58 45.96C44.592 45.972 44.61 45.978 44.634 45.978C44.662 45.978 44.684 45.974 44.7 45.966C44.776 45.91 44.854 45.728 44.934 45.42C44.954 45.344 44.97 45.302 44.982 45.294C44.99 45.286 45.038 45.282 45.126 45.282C45.214 45.282 45.264 45.286 45.276 45.294C45.284 45.302 45.288 45.318 45.288 45.342C45.288 45.366 45.278 45.414 45.258 45.486C45.11 45.99 44.9 46.25 44.628 46.266C44.424 46.278 44.26 46.208 44.136 46.056C44.116 46.032 44.098 46.006 44.082 45.978C44.074 45.954 44.068 45.942 44.064 45.942L44.022 45.978C43.882 46.102 43.744 46.184 43.608 46.224C43.348 46.312 43.114 46.272 42.906 46.104C42.882 46.084 42.86 46.062 42.84 46.038C42.78 45.978 42.73 45.906 42.69 45.822C42.59 45.618 42.558 45.376 42.594 45.096C42.658 44.64 42.852 44.256 43.176 43.944C43.384 43.744 43.61 43.618 43.854 43.566C43.89 43.558 43.946 43.554 44.022 43.554C44.122 43.554 44.208 43.57 44.28 43.602C44.336 43.63 44.388 43.668 44.436 43.716C44.468 43.748 44.484 43.76 44.484 43.752C44.488 43.748 44.538 43.556 44.634 43.176C44.726 42.804 44.774 42.596 44.778 42.552C44.778 42.516 44.774 42.494 44.766 42.486C44.738 42.458 44.652 42.442 44.508 42.438C44.412 42.438 44.356 42.424 44.34 42.396L44.334 42.378L44.364 42.258C44.38 42.182 44.396 42.136 44.412 42.12C44.424 42.108 44.436 42.102 44.448 42.102L44.898 42.072ZM44.046 43.836C43.882 43.808 43.724 43.886 43.572 44.07C43.532 44.122 43.496 44.178 43.464 44.238C43.404 44.354 43.332 44.582 43.248 44.922C43.196 45.114 43.158 45.282 43.134 45.426C43.118 45.562 43.118 45.666 43.134 45.738C43.174 45.878 43.252 45.958 43.368 45.978C43.436 45.99 43.518 45.976 43.614 45.936C43.758 45.856 43.894 45.722 44.022 45.534L44.052 45.492L44.202 44.892L44.352 44.292L44.34 44.25C44.304 44.022 44.216 43.886 44.076 43.842C44.068 43.838 44.058 43.836 44.046 43.836Z" fill="#A9A6A7"/>
<path d="M16.632 37.3H15.584V38.36H15.296V37.3H14.248V37.028H15.296V35.968H15.584V37.028H16.632V37.3Z" fill="#A9A6A7"/>
<line x1="14" y1="53.05" x2="17" y2="53.05" stroke="#A9A6A7" stroke-width="0.3"/>
<path d="M141.592 43.348C141.728 43.32 141.83 43.382 141.898 43.534C141.91 43.562 141.92 43.59 141.928 43.618C141.936 43.654 141.94 43.72 141.94 43.816C141.94 43.976 141.904 44.198 141.832 44.482C141.72 44.942 141.576 45.312 141.4 45.592C141.3 45.736 141.198 45.848 141.094 45.928C141.01 45.988 140.926 46.028 140.842 46.048C140.806 46.056 140.748 46.06 140.668 46.06C140.548 46.06 140.438 46.046 140.338 46.018C140.002 45.902 139.846 45.642 139.87 45.238C139.882 45.046 139.98 44.7 140.164 44.2C140.236 43.988 140.276 43.852 140.284 43.792C140.304 43.7 140.294 43.648 140.254 43.636C140.206 43.62 140.15 43.63 140.086 43.666C140.002 43.718 139.936 43.8 139.888 43.912C139.848 43.984 139.804 44.106 139.756 44.278C139.744 44.302 139.736 44.316 139.732 44.32C139.724 44.328 139.676 44.332 139.588 44.332H139.456L139.438 44.314C139.426 44.302 139.42 44.286 139.42 44.266C139.428 44.202 139.462 44.102 139.522 43.966C139.594 43.814 139.684 43.68 139.792 43.564C139.872 43.488 139.952 43.432 140.032 43.396C140.096 43.368 140.174 43.354 140.266 43.354C140.366 43.354 140.452 43.372 140.524 43.408C140.576 43.436 140.616 43.466 140.644 43.498C140.676 43.526 140.706 43.566 140.734 43.618C140.77 43.694 140.786 43.774 140.782 43.858C140.782 43.938 140.756 44.048 140.704 44.188C140.7 44.208 140.692 44.232 140.68 44.26C140.612 44.452 140.57 44.568 140.554 44.608C140.402 45.06 140.36 45.382 140.428 45.574C140.472 45.718 140.574 45.788 140.734 45.784C140.754 45.784 140.774 45.782 140.794 45.778C140.874 45.766 140.952 45.722 141.028 45.646C141.188 45.486 141.334 45.138 141.466 44.602C141.502 44.446 141.516 44.332 141.508 44.26C141.492 44.12 141.438 44.004 141.346 43.912C141.314 43.88 141.292 43.85 141.28 43.822C141.268 43.798 141.262 43.762 141.262 43.714C141.262 43.666 141.266 43.63 141.274 43.606C141.318 43.506 141.384 43.434 141.472 43.39C141.504 43.37 141.544 43.356 141.592 43.348ZM143.725 44.4656L143.801 44.462H143.805C144.016 44.462 144.18 44.5388 144.298 44.6924C144.315 44.7188 144.324 44.732 144.327 44.732L144.463 44.5988L144.6 44.462H144.629C144.66 44.462 144.678 44.4692 144.683 44.4836C144.685 44.4884 144.646 44.6588 144.564 44.9948C144.478 45.3404 144.435 45.5096 144.435 45.5024C144.43 45.5168 144.396 45.524 144.334 45.524H144.258L144.247 45.5132C144.238 45.5036 144.235 45.482 144.24 45.4484C144.259 45.3236 144.263 45.2048 144.251 45.092C144.225 44.8568 144.132 44.7176 143.974 44.6744C143.952 44.6696 143.919 44.6672 143.873 44.6672C143.784 44.6648 143.691 44.6792 143.592 44.7104C143.475 44.7488 143.369 44.8064 143.275 44.8832C143.062 45.0464 142.903 45.3068 142.8 45.6644C142.735 45.902 142.703 46.0976 142.703 46.2512C142.703 46.3616 142.717 46.454 142.746 46.5284C142.809 46.6916 142.926 46.7984 143.099 46.8488C143.116 46.8536 143.133 46.8572 143.149 46.8596C143.377 46.9076 143.585 46.8404 143.772 46.658C143.911 46.514 144.012 46.3388 144.075 46.1324C144.087 46.0916 144.099 46.07 144.111 46.0676C144.118 46.0652 144.142 46.064 144.183 46.064C144.243 46.064 144.276 46.0712 144.283 46.0856C144.286 46.0952 144.283 46.112 144.276 46.136C144.197 46.424 144.04 46.6604 143.805 46.8452C143.737 46.898 143.667 46.9424 143.592 46.9784C143.443 47.048 143.295 47.0816 143.146 47.0792C143.043 47.0768 142.942 47.0552 142.843 47.0144C142.68 46.952 142.553 46.8476 142.462 46.7012C142.378 46.5764 142.326 46.4288 142.307 46.2584C142.297 46.1984 142.296 46.1144 142.303 46.0064C142.306 45.9944 142.307 45.9848 142.307 45.9776C142.336 45.7088 142.429 45.4532 142.588 45.2108C142.636 45.1436 142.678 45.0884 142.714 45.0452C142.779 44.966 142.859 44.8856 142.955 44.804C143.2 44.6048 143.457 44.492 143.725 44.4656Z" fill="#A9A6A7"/>
<path d="M143.632 37.1H142.584V38.16H142.296V37.1H141.248V36.828H142.296V35.768H142.584V36.828H143.632V37.1Z" fill="#A9A6A7"/>
<line x1="141" y1="52.85" x2="144" y2="52.85" stroke="#A9A6A7" stroke-width="0.3"/>
<path d="M106.32 14.12L106.338 14.102H107.304L108.276 14.108L108.36 14.12C108.624 14.16 108.836 14.25 108.996 14.39C109.156 14.518 109.254 14.682 109.29 14.882C109.306 14.99 109.302 15.098 109.278 15.206C109.21 15.49 109.016 15.74 108.696 15.956C108.564 16.04 108.426 16.108 108.282 16.16C108.25 16.176 108.232 16.184 108.228 16.184L108.276 16.232C108.36 16.3 108.432 16.39 108.492 16.502C108.536 16.606 108.56 16.71 108.564 16.814C108.564 16.898 108.552 17.04 108.528 17.24C108.508 17.44 108.498 17.596 108.498 17.708C108.498 17.804 108.502 17.866 108.51 17.894C108.534 17.982 108.596 18.034 108.696 18.05C108.748 18.05 108.79 18.036 108.822 18.008C108.882 17.968 108.938 17.858 108.99 17.678C109.006 17.618 109.028 17.584 109.056 17.576C109.072 17.572 109.112 17.57 109.176 17.57C109.26 17.57 109.31 17.58 109.326 17.6C109.342 17.62 109.338 17.664 109.314 17.732C109.214 18.028 109.058 18.218 108.846 18.302C108.818 18.314 108.79 18.322 108.762 18.326C108.734 18.33 108.684 18.332 108.612 18.332C108.2 18.312 107.936 18.182 107.82 17.942C107.788 17.882 107.77 17.804 107.766 17.708C107.766 17.632 107.768 17.584 107.772 17.564C107.792 17.472 107.82 17.348 107.856 17.192C107.924 16.92 107.954 16.748 107.946 16.676C107.93 16.488 107.846 16.366 107.694 16.31L107.652 16.292H107.298H106.95L106.944 16.316C106.944 16.308 106.88 16.564 106.752 17.084C106.628 17.584 106.568 17.834 106.572 17.834C106.592 17.854 106.714 17.864 106.938 17.864H107.058L107.082 17.882C107.094 17.898 107.1 17.914 107.1 17.93C107.1 17.994 107.08 18.072 107.04 18.164C107.028 18.188 106.988 18.198 106.92 18.194C106.904 18.194 106.87 18.194 106.818 18.194C106.218 18.178 105.75 18.18 105.414 18.2H105.348L105.33 18.182C105.314 18.166 105.306 18.15 105.306 18.134C105.306 18.07 105.326 17.992 105.366 17.9C105.414 17.876 105.49 17.864 105.594 17.864C105.774 17.86 105.876 17.852 105.9 17.84C105.92 17.828 105.936 17.804 105.948 17.768C105.976 17.688 106.114 17.148 106.362 16.148C106.638 15.044 106.776 14.488 106.776 14.48C106.776 14.468 106.772 14.462 106.764 14.462C106.74 14.454 106.646 14.446 106.482 14.438C106.342 14.438 106.264 14.424 106.248 14.396C106.244 14.384 106.25 14.338 106.266 14.258C106.286 14.182 106.304 14.136 106.32 14.12ZM108.186 14.45C108.162 14.446 108.04 14.442 107.82 14.438C107.608 14.438 107.484 14.442 107.448 14.45C107.428 14.458 107.416 14.466 107.412 14.474L107.022 16.01H107.37C107.642 16.006 107.82 15.994 107.904 15.974C108.136 15.922 108.306 15.808 108.414 15.632C108.466 15.544 108.516 15.4 108.564 15.2C108.6 15.052 108.618 14.938 108.618 14.858C108.618 14.75 108.586 14.664 108.522 14.6C108.482 14.56 108.446 14.534 108.414 14.522C108.362 14.494 108.286 14.47 108.186 14.45ZM110.163 16.752L110.174 16.7412H110.228C110.475 16.7532 110.781 16.7544 111.146 16.7448C111.232 16.7424 111.28 16.7496 111.29 16.7664C111.292 16.7736 111.289 16.8012 111.279 16.8492C111.265 16.8972 111.255 16.9248 111.25 16.932L111.239 16.9428H111.095C110.939 16.9452 110.851 16.956 110.829 16.9752C110.822 16.98 110.735 17.316 110.57 17.9832C110.404 18.6456 110.321 18.9804 110.321 18.9876C110.321 18.9924 110.329 18.9948 110.343 18.9948H110.725C110.852 18.9804 110.966 18.9372 111.067 18.8652C111.122 18.8268 111.166 18.7836 111.2 18.7356C111.274 18.6372 111.345 18.4884 111.412 18.2892C111.436 18.2268 111.452 18.1932 111.459 18.1884C111.466 18.1836 111.494 18.1812 111.542 18.1812C111.59 18.1812 111.616 18.1836 111.621 18.1884C111.635 18.1932 111.643 18.204 111.643 18.2208L111.311 19.182C111.307 19.1916 111.272 19.1964 111.207 19.1964C111.137 19.1988 110.879 19.2 110.433 19.2H109.58L109.565 19.1892C109.558 19.1772 109.555 19.1676 109.555 19.1604C109.555 19.122 109.567 19.0752 109.591 19.02C109.619 19.0056 109.665 18.9984 109.727 18.9984C109.835 18.996 109.897 18.9912 109.911 18.984C109.923 18.9768 109.933 18.9624 109.94 18.9408C109.957 18.8928 110.039 18.5688 110.188 17.9688C110.354 17.3064 110.437 16.9728 110.437 16.968C110.437 16.9608 110.434 16.9572 110.429 16.9572C110.415 16.9524 110.359 16.9476 110.26 16.9428C110.176 16.9428 110.129 16.9344 110.12 16.9176C110.117 16.9104 110.121 16.8828 110.131 16.8348C110.143 16.7892 110.153 16.7616 110.163 16.752Z" fill="#A9A6A7"/>
<path d="M75.32 15.12L75.338 15.102H75.428C75.84 15.122 76.35 15.124 76.958 15.108C77.102 15.104 77.182 15.116 77.198 15.144C77.202 15.156 77.196 15.202 77.18 15.282C77.156 15.362 77.14 15.408 77.132 15.42L77.114 15.438H76.874C76.614 15.442 76.466 15.46 76.43 15.492C76.418 15.5 76.274 16.06 75.998 17.172C75.722 18.276 75.584 18.834 75.584 18.846C75.584 18.854 75.596 18.858 75.62 18.858H76.256C76.468 18.834 76.658 18.762 76.826 18.642C76.918 18.578 76.992 18.506 77.048 18.426C77.172 18.262 77.29 18.014 77.402 17.682C77.442 17.578 77.468 17.522 77.48 17.514C77.492 17.506 77.538 17.502 77.618 17.502C77.698 17.502 77.742 17.506 77.75 17.514C77.774 17.522 77.786 17.54 77.786 17.568L77.234 19.17C77.226 19.186 77.168 19.194 77.06 19.194C76.944 19.198 76.514 19.2 75.77 19.2H74.348L74.324 19.182C74.312 19.162 74.306 19.146 74.306 19.134C74.306 19.07 74.326 18.992 74.366 18.9C74.414 18.876 74.49 18.864 74.594 18.864C74.774 18.86 74.876 18.852 74.9 18.84C74.92 18.828 74.936 18.804 74.948 18.768C74.976 18.688 75.114 18.148 75.362 17.148C75.638 16.044 75.776 15.488 75.776 15.48C75.776 15.468 75.772 15.462 75.764 15.462C75.74 15.454 75.646 15.446 75.482 15.438C75.342 15.438 75.264 15.424 75.248 15.396C75.244 15.384 75.25 15.338 75.266 15.258C75.286 15.182 75.304 15.136 75.32 15.12Z" fill="#A9A6A7"/>
<path d="M157.32 42.12L157.338 42.102H158.304L159.276 42.108L159.36 42.12C159.624 42.16 159.836 42.25 159.996 42.39C160.156 42.518 160.254 42.682 160.29 42.882C160.306 42.99 160.302 43.098 160.278 43.206C160.21 43.49 160.016 43.74 159.696 43.956C159.564 44.04 159.426 44.108 159.282 44.16C159.25 44.176 159.232 44.184 159.228 44.184L159.276 44.232C159.36 44.3 159.432 44.39 159.492 44.502C159.536 44.606 159.56 44.71 159.564 44.814C159.564 44.898 159.552 45.04 159.528 45.24C159.508 45.44 159.498 45.596 159.498 45.708C159.498 45.804 159.502 45.866 159.51 45.894C159.534 45.982 159.596 46.034 159.696 46.05C159.748 46.05 159.79 46.036 159.822 46.008C159.882 45.968 159.938 45.858 159.99 45.678C160.006 45.618 160.028 45.584 160.056 45.576C160.072 45.572 160.112 45.57 160.176 45.57C160.26 45.57 160.31 45.58 160.326 45.6C160.342 45.62 160.338 45.664 160.314 45.732C160.214 46.028 160.058 46.218 159.846 46.302C159.818 46.314 159.79 46.322 159.762 46.326C159.734 46.33 159.684 46.332 159.612 46.332C159.2 46.312 158.936 46.182 158.82 45.942C158.788 45.882 158.77 45.804 158.766 45.708C158.766 45.632 158.768 45.584 158.772 45.564C158.792 45.472 158.82 45.348 158.856 45.192C158.924 44.92 158.954 44.748 158.946 44.676C158.93 44.488 158.846 44.366 158.694 44.31L158.652 44.292H158.298H157.95L157.944 44.316C157.944 44.308 157.88 44.564 157.752 45.084C157.628 45.584 157.568 45.834 157.572 45.834C157.592 45.854 157.714 45.864 157.938 45.864H158.058L158.082 45.882C158.094 45.898 158.1 45.914 158.1 45.93C158.1 45.994 158.08 46.072 158.04 46.164C158.028 46.188 157.988 46.198 157.92 46.194C157.904 46.194 157.87 46.194 157.818 46.194C157.218 46.178 156.75 46.18 156.414 46.2H156.348L156.33 46.182C156.314 46.166 156.306 46.15 156.306 46.134C156.306 46.07 156.326 45.992 156.366 45.9C156.414 45.876 156.49 45.864 156.594 45.864C156.774 45.86 156.876 45.852 156.9 45.84C156.92 45.828 156.936 45.804 156.948 45.768C156.976 45.688 157.114 45.148 157.362 44.148C157.638 43.044 157.776 42.488 157.776 42.48C157.776 42.468 157.772 42.462 157.764 42.462C157.74 42.454 157.646 42.446 157.482 42.438C157.342 42.438 157.264 42.424 157.248 42.396C157.244 42.384 157.25 42.338 157.266 42.258C157.286 42.182 157.304 42.136 157.32 42.12ZM159.186 42.45C159.162 42.446 159.04 42.442 158.82 42.438C158.608 42.438 158.484 42.442 158.448 42.45C158.428 42.458 158.416 42.466 158.412 42.474L158.022 44.01H158.37C158.642 44.006 158.82 43.994 158.904 43.974C159.136 43.922 159.306 43.808 159.414 43.632C159.466 43.544 159.516 43.4 159.564 43.2C159.6 43.052 159.618 42.938 159.618 42.858C159.618 42.75 159.586 42.664 159.522 42.6C159.482 42.56 159.446 42.534 159.414 42.522C159.362 42.494 159.286 42.47 159.186 42.45ZM162.337 44.6656L162.412 44.662H162.416C162.627 44.662 162.791 44.7388 162.909 44.8924C162.926 44.9188 162.935 44.932 162.938 44.932L163.075 44.7988L163.211 44.662H163.24C163.271 44.662 163.289 44.6692 163.294 44.6836C163.297 44.6884 163.257 44.8588 163.175 45.1948C163.089 45.5404 163.046 45.7096 163.046 45.7024C163.041 45.7168 163.007 45.724 162.945 45.724H162.869L162.859 45.7132C162.849 45.7036 162.847 45.682 162.851 45.6484C162.871 45.5236 162.874 45.4048 162.862 45.292C162.836 45.0568 162.743 44.9176 162.585 44.8744C162.563 44.8696 162.53 44.8672 162.484 44.8672C162.395 44.8648 162.302 44.8792 162.203 44.9104C162.086 44.9488 161.98 45.0064 161.887 45.0832C161.673 45.2464 161.515 45.5068 161.411 45.8644C161.347 46.102 161.314 46.2976 161.314 46.4512C161.314 46.5616 161.329 46.654 161.357 46.7284C161.42 46.8916 161.537 46.9984 161.71 47.0488C161.727 47.0536 161.744 47.0572 161.761 47.0596C161.989 47.1076 162.196 47.0404 162.383 46.858C162.523 46.714 162.623 46.5388 162.686 46.3324C162.698 46.2916 162.71 46.27 162.722 46.2676C162.729 46.2652 162.753 46.264 162.794 46.264C162.854 46.264 162.887 46.2712 162.895 46.2856C162.897 46.2952 162.895 46.312 162.887 46.336C162.808 46.624 162.651 46.8604 162.416 47.0452C162.349 47.098 162.278 47.1424 162.203 47.1784C162.055 47.248 161.906 47.2816 161.757 47.2792C161.654 47.2768 161.553 47.2552 161.455 47.2144C161.291 47.152 161.164 47.0476 161.073 46.9012C160.989 46.7764 160.937 46.6288 160.918 46.4584C160.909 46.3984 160.907 46.3144 160.915 46.2064C160.917 46.1944 160.918 46.1848 160.918 46.1776C160.947 45.9088 161.041 45.6532 161.199 45.4108C161.247 45.3436 161.289 45.2884 161.325 45.2452C161.39 45.166 161.47 45.0856 161.566 45.004C161.811 44.8048 162.068 44.692 162.337 44.6656Z" fill="#A9A6A7"/>
<path d="M193.668 31.076C193.812 31.04 193.916 31.076 193.98 31.184C194 31.22 194.012 31.26 194.016 31.304C194.016 31.364 194.002 31.422 193.974 31.478C193.882 31.606 193.766 31.68 193.626 31.7C193.582 31.7 193.536 31.688 193.488 31.664C193.448 31.644 193.416 31.608 193.392 31.556C193.38 31.54 193.372 31.508 193.368 31.46C193.368 31.396 193.38 31.34 193.404 31.292C193.46 31.18 193.548 31.108 193.668 31.076ZM193.152 32.36C193.18 32.352 193.224 32.348 193.284 32.348C193.376 32.352 193.456 32.372 193.524 32.408C193.576 32.436 193.616 32.466 193.644 32.498C193.676 32.526 193.706 32.566 193.734 32.618C193.77 32.694 193.786 32.774 193.782 32.858C193.782 32.926 193.778 32.974 193.77 33.002C193.766 33.01 193.676 33.26 193.5 33.752C193.332 34.2 193.242 34.448 193.23 34.496C193.19 34.628 193.184 34.716 193.212 34.76C193.232 34.784 193.274 34.788 193.338 34.772C193.494 34.736 193.62 34.542 193.716 34.19C193.736 34.126 193.756 34.092 193.776 34.088C193.788 34.084 193.83 34.082 193.902 34.082C193.99 34.082 194.038 34.086 194.046 34.094C194.07 34.11 194.07 34.152 194.046 34.22C194.002 34.376 193.936 34.522 193.848 34.658C193.688 34.898 193.506 35.032 193.302 35.06C193.23 35.076 193.156 35.072 193.08 35.048C193 35.024 192.934 34.994 192.882 34.958C192.794 34.886 192.736 34.784 192.708 34.652C192.692 34.576 192.696 34.496 192.72 34.412C192.728 34.38 192.816 34.134 192.984 33.674C193.128 33.29 193.22 33.038 193.26 32.918C193.3 32.794 193.306 32.708 193.278 32.66C193.266 32.628 193.224 32.622 193.152 32.642C193.032 32.67 192.926 32.796 192.834 33.02C192.782 33.2 192.756 33.286 192.756 33.278C192.744 33.302 192.736 33.316 192.732 33.32C192.724 33.328 192.676 33.332 192.588 33.332H192.456L192.438 33.314C192.426 33.302 192.42 33.286 192.42 33.266C192.428 33.202 192.462 33.102 192.522 32.966C192.57 32.862 192.62 32.776 192.672 32.708C192.724 32.636 192.79 32.564 192.87 32.492C192.958 32.424 193.052 32.38 193.152 32.36ZM195.805 33.4656L195.881 33.462H195.885C196.096 33.462 196.26 33.5388 196.378 33.6924C196.395 33.7188 196.404 33.732 196.407 33.732L196.543 33.5988L196.68 33.462H196.709C196.74 33.462 196.758 33.4692 196.763 33.4836C196.765 33.4884 196.726 33.6588 196.644 33.9948C196.558 34.3404 196.515 34.5096 196.515 34.5024C196.51 34.5168 196.476 34.524 196.414 34.524H196.338L196.327 34.5132C196.318 34.5036 196.315 34.482 196.32 34.4484C196.339 34.3236 196.343 34.2048 196.331 34.092C196.305 33.8568 196.212 33.7176 196.054 33.6744C196.032 33.6696 195.999 33.6672 195.953 33.6672C195.864 33.6648 195.771 33.6792 195.672 33.7104C195.555 33.7488 195.449 33.8064 195.355 33.8832C195.142 34.0464 194.983 34.3068 194.88 34.6644C194.815 34.902 194.783 35.0976 194.783 35.2512C194.783 35.3616 194.797 35.454 194.826 35.5284C194.889 35.6916 195.006 35.7984 195.179 35.8488C195.196 35.8536 195.213 35.8572 195.229 35.8596C195.457 35.9076 195.665 35.8404 195.852 35.658C195.991 35.514 196.092 35.3388 196.155 35.1324C196.167 35.0916 196.179 35.07 196.191 35.0676C196.198 35.0652 196.222 35.064 196.263 35.064C196.323 35.064 196.356 35.0712 196.363 35.0856C196.366 35.0952 196.363 35.112 196.356 35.136C196.277 35.424 196.12 35.6604 195.885 35.8452C195.817 35.898 195.747 35.9424 195.672 35.9784C195.523 36.048 195.375 36.0816 195.226 36.0792C195.123 36.0768 195.022 36.0552 194.923 36.0144C194.76 35.952 194.633 35.8476 194.542 35.7012C194.458 35.5764 194.406 35.4288 194.387 35.2584C194.377 35.1984 194.376 35.1144 194.383 35.0064C194.386 34.9944 194.387 34.9848 194.387 34.9776C194.416 34.7088 194.509 34.4532 194.668 34.2108C194.716 34.1436 194.758 34.0884 194.794 34.0452C194.859 33.966 194.939 33.8856 195.035 33.804C195.28 33.6048 195.537 33.492 195.805 33.4656ZM197.317 33.552L197.328 33.5412H197.943C198.366 33.5412 198.584 33.5424 198.598 33.5448C198.805 33.5664 198.958 33.6504 199.059 33.7968C199.17 33.9696 199.177 34.164 199.081 34.38C199.066 34.4112 199.051 34.4412 199.034 34.47C198.96 34.5876 198.865 34.686 198.75 34.7652C198.601 34.8684 198.441 34.9296 198.271 34.9488C198.256 34.9512 198.152 34.9524 197.958 34.9524H197.68L197.58 35.3664C197.508 35.6424 197.474 35.7804 197.479 35.7804C197.491 35.7924 197.564 35.7984 197.698 35.7984H197.77L197.785 35.8092C197.792 35.8188 197.796 35.8284 197.796 35.838C197.796 35.8764 197.784 35.9232 197.76 35.9784C197.752 35.9928 197.727 35.9988 197.684 35.9964C197.674 35.9964 197.654 35.9964 197.623 35.9964C197.265 35.9868 196.982 35.988 196.773 36H196.734L196.723 35.9892C196.713 35.9796 196.708 35.97 196.708 35.9604C196.708 35.922 196.72 35.8752 196.744 35.82C196.773 35.8056 196.819 35.7984 196.881 35.7984C196.989 35.796 197.05 35.7912 197.065 35.784C197.077 35.7768 197.086 35.7624 197.094 35.7408C197.11 35.6928 197.193 35.3688 197.342 34.7688C197.508 34.1064 197.59 33.7728 197.59 33.768C197.59 33.7608 197.588 33.7572 197.583 33.7572C197.569 33.7524 197.512 33.7476 197.414 33.7428C197.33 33.7428 197.283 33.7344 197.274 33.7176C197.271 33.7104 197.275 33.6828 197.284 33.6348C197.296 33.5892 197.307 33.5616 197.317 33.552ZM198.508 33.7536C198.482 33.7488 198.397 33.7452 198.253 33.7428C198.102 33.7428 198.015 33.7452 197.994 33.75C197.982 33.7548 197.974 33.7596 197.972 33.7644C197.97 33.7668 197.926 33.9336 197.842 34.2648C197.758 34.5936 197.716 34.7592 197.716 34.7616C197.716 34.7664 197.79 34.7688 197.936 34.7688C198.094 34.7688 198.182 34.7676 198.199 34.7652C198.372 34.7508 198.498 34.6884 198.577 34.578C198.615 34.5204 198.655 34.4136 198.696 34.2576C198.724 34.1424 198.739 34.0548 198.739 33.9948C198.741 33.9276 198.723 33.8736 198.685 33.8328C198.642 33.792 198.583 33.7656 198.508 33.7536ZM199.865 33.552L199.875 33.5412H199.929C200.177 33.5532 200.483 33.5544 200.847 33.5448C200.934 33.5424 200.982 33.5496 200.991 33.5664C200.994 33.5736 200.99 33.6012 200.981 33.6492C200.966 33.6972 200.957 33.7248 200.952 33.732L200.941 33.7428H200.797C200.641 33.7452 200.552 33.756 200.531 33.7752C200.523 33.78 200.437 34.116 200.271 34.7832C200.106 35.4456 200.023 35.7804 200.023 35.7876C200.023 35.7924 200.03 35.7948 200.045 35.7948H200.426C200.553 35.7804 200.667 35.7372 200.768 35.6652C200.823 35.6268 200.868 35.5836 200.901 35.5356C200.976 35.4372 201.047 35.2884 201.114 35.0892C201.138 35.0268 201.153 34.9932 201.161 34.9884C201.168 34.9836 201.195 34.9812 201.243 34.9812C201.291 34.9812 201.318 34.9836 201.323 34.9884C201.337 34.9932 201.344 35.004 201.344 35.0208L201.013 35.982C201.008 35.9916 200.973 35.9964 200.909 35.9964C200.839 35.9988 200.581 36 200.135 36H199.281L199.267 35.9892C199.26 35.9772 199.256 35.9676 199.256 35.9604C199.256 35.922 199.268 35.8752 199.292 35.82C199.321 35.8056 199.367 35.7984 199.429 35.7984C199.537 35.796 199.598 35.7912 199.613 35.784C199.625 35.7768 199.634 35.7624 199.641 35.7408C199.658 35.6928 199.741 35.3688 199.89 34.7688C200.055 34.1064 200.138 33.7728 200.138 33.768C200.138 33.7608 200.136 33.7572 200.131 33.7572C200.117 33.7524 200.06 33.7476 199.962 33.7428C199.878 33.7428 199.831 33.7344 199.821 33.7176C199.819 33.7104 199.823 33.6828 199.832 33.6348C199.844 33.5892 199.855 33.5616 199.865 33.552Z" fill="#A9A6A7"/>
<path d="M122.276 41.976L122.402 41.97H122.408C122.76 41.97 123.034 42.098 123.23 42.354C123.258 42.398 123.274 42.42 123.278 42.42L123.506 42.198L123.734 41.97H123.782C123.834 41.97 123.864 41.982 123.872 42.006C123.876 42.014 123.81 42.298 123.674 42.858C123.53 43.434 123.458 43.716 123.458 43.704C123.45 43.728 123.394 43.74 123.29 43.74H123.164L123.146 43.722C123.13 43.706 123.126 43.67 123.134 43.614C123.166 43.406 123.172 43.208 123.152 43.02C123.108 42.628 122.954 42.396 122.69 42.324C122.654 42.316 122.598 42.312 122.522 42.312C122.374 42.308 122.218 42.332 122.054 42.384C121.858 42.448 121.682 42.544 121.526 42.672C121.17 42.944 120.906 43.378 120.734 43.974C120.626 44.37 120.572 44.696 120.572 44.952C120.572 45.136 120.596 45.29 120.644 45.414C120.748 45.686 120.944 45.864 121.232 45.948C121.26 45.956 121.288 45.962 121.316 45.966C121.696 46.046 122.042 45.934 122.354 45.63C122.586 45.39 122.754 45.098 122.858 44.754C122.878 44.686 122.898 44.65 122.918 44.646C122.93 44.642 122.97 44.64 123.038 44.64C123.138 44.64 123.194 44.652 123.206 44.676C123.21 44.692 123.206 44.72 123.194 44.76C123.062 45.24 122.8 45.634 122.408 45.942C122.296 46.03 122.178 46.104 122.054 46.164C121.806 46.28 121.558 46.336 121.31 46.332C121.138 46.328 120.97 46.292 120.806 46.224C120.534 46.12 120.322 45.946 120.17 45.702C120.03 45.494 119.944 45.248 119.912 44.964C119.896 44.864 119.894 44.724 119.906 44.544C119.91 44.524 119.912 44.508 119.912 44.496C119.96 44.048 120.116 43.622 120.38 43.218C120.46 43.106 120.53 43.014 120.59 42.942C120.698 42.81 120.832 42.676 120.992 42.54C121.4 42.208 121.828 42.02 122.276 41.976Z" fill="#A9A6A7"/>
<path d="M224.592 43.548C224.728 43.52 224.83 43.582 224.898 43.734C224.91 43.762 224.92 43.79 224.928 43.818C224.936 43.854 224.94 43.92 224.94 44.016C224.94 44.176 224.904 44.398 224.832 44.682C224.72 45.142 224.576 45.512 224.4 45.792C224.3 45.936 224.198 46.048 224.094 46.128C224.01 46.188 223.926 46.228 223.842 46.248C223.806 46.256 223.748 46.26 223.668 46.26C223.548 46.26 223.438 46.246 223.338 46.218C223.002 46.102 222.846 45.842 222.87 45.438C222.882 45.246 222.98 44.9 223.164 44.4C223.236 44.188 223.276 44.052 223.284 43.992C223.304 43.9 223.294 43.848 223.254 43.836C223.206 43.82 223.15 43.83 223.086 43.866C223.002 43.918 222.936 44 222.888 44.112C222.848 44.184 222.804 44.306 222.756 44.478C222.744 44.502 222.736 44.516 222.732 44.52C222.724 44.528 222.676 44.532 222.588 44.532H222.456L222.438 44.514C222.426 44.502 222.42 44.486 222.42 44.466C222.428 44.402 222.462 44.302 222.522 44.166C222.594 44.014 222.684 43.88 222.792 43.764C222.872 43.688 222.952 43.632 223.032 43.596C223.096 43.568 223.174 43.554 223.266 43.554C223.366 43.554 223.452 43.572 223.524 43.608C223.576 43.636 223.616 43.666 223.644 43.698C223.676 43.726 223.706 43.766 223.734 43.818C223.77 43.894 223.786 43.974 223.782 44.058C223.782 44.138 223.756 44.248 223.704 44.388C223.7 44.408 223.692 44.432 223.68 44.46C223.612 44.652 223.57 44.768 223.554 44.808C223.402 45.26 223.36 45.582 223.428 45.774C223.472 45.918 223.574 45.988 223.734 45.984C223.754 45.984 223.774 45.982 223.794 45.978C223.874 45.966 223.952 45.922 224.028 45.846C224.188 45.686 224.334 45.338 224.466 44.802C224.502 44.646 224.516 44.532 224.508 44.46C224.492 44.32 224.438 44.204 224.346 44.112C224.314 44.08 224.292 44.05 224.28 44.022C224.268 43.998 224.262 43.962 224.262 43.914C224.262 43.866 224.266 43.83 224.274 43.806C224.318 43.706 224.384 43.634 224.472 43.59C224.504 43.57 224.544 43.556 224.592 43.548ZM226.005 45.6124C226.01 45.61 226.035 45.6088 226.081 45.6088C226.146 45.6112 226.203 45.6208 226.254 45.6376C226.453 45.7048 226.577 45.85 226.625 46.0732C226.629 46.102 226.632 46.1476 226.632 46.21C226.634 46.2892 226.627 46.3612 226.61 46.426C226.577 46.5604 226.519 46.6852 226.437 46.8004C226.289 47.0092 226.103 47.146 225.879 47.2108C225.819 47.2276 225.761 47.2372 225.703 47.2396C225.497 47.2468 225.338 47.1724 225.228 47.0164C225.213 46.9996 225.201 46.9816 225.192 46.9624C225.077 46.756 225.08 46.5136 225.203 46.2352C225.26 46.1104 225.337 46 225.433 45.904C225.524 45.8128 225.619 45.7444 225.717 45.6988C225.813 45.6508 225.909 45.622 226.005 45.6124ZM226.117 45.7852C226.067 45.778 226.026 45.7768 225.995 45.7816C225.877 45.8032 225.78 45.8608 225.703 45.9544C225.633 46.0384 225.573 46.1788 225.523 46.3756C225.518 46.3924 225.513 46.4092 225.509 46.426C225.47 46.5844 225.451 46.702 225.451 46.7788C225.451 46.8292 225.453 46.8628 225.458 46.8796C225.487 46.9924 225.557 47.0548 225.667 47.0668C225.715 47.0716 225.765 47.0656 225.818 47.0488C225.945 47.008 226.046 46.9156 226.121 46.7716C226.161 46.6972 226.202 46.5748 226.243 46.4044C226.296 46.1956 226.31 46.0468 226.286 45.958C226.262 45.8692 226.206 45.8116 226.117 45.7852ZM227.398 45.616C227.414 45.6112 227.441 45.6088 227.477 45.6088C227.532 45.6112 227.58 45.6232 227.621 45.6448C227.652 45.6616 227.676 45.6796 227.693 45.6988C227.712 45.7156 227.73 45.7396 227.747 45.7708C227.768 45.8164 227.778 45.8644 227.776 45.9148C227.776 45.9628 227.76 46.0288 227.729 46.1128C227.726 46.1248 227.722 46.1392 227.714 46.156C227.597 46.4824 227.538 46.7056 227.538 46.8256C227.538 46.8352 227.538 46.8436 227.538 46.8508C227.54 46.9324 227.56 46.9924 227.596 47.0308C227.622 47.0548 227.658 47.0668 227.704 47.0668C227.752 47.0668 227.794 47.0572 227.83 47.038C227.892 47.0068 227.946 46.9564 227.992 46.8868L228.013 46.8508L228.146 46.318C228.24 45.946 228.294 45.7492 228.308 45.7276C228.311 45.7228 228.317 45.7156 228.326 45.706C228.379 45.6532 228.439 45.6352 228.506 45.652C228.564 45.6712 228.595 45.7084 228.6 45.7636C228.6 45.7828 228.557 45.9676 228.47 46.318C228.386 46.6468 228.34 46.8364 228.33 46.8868C228.32 46.954 228.319 47.0008 228.326 47.0272C228.331 47.0368 228.337 47.0464 228.344 47.056C228.352 47.0608 228.364 47.0656 228.38 47.0704C228.395 47.0704 228.407 47.0668 228.416 47.0596C228.467 47.0284 228.515 46.918 228.56 46.7284C228.575 46.6804 228.587 46.6552 228.596 46.6528C228.604 46.6504 228.63 46.6492 228.676 46.6492C228.728 46.6492 228.758 46.6516 228.766 46.6564C228.77 46.6612 228.773 46.6708 228.773 46.6852C228.773 46.7188 228.754 46.7872 228.715 46.8904C228.686 46.9696 228.656 47.0308 228.625 47.074C228.558 47.1772 228.474 47.2324 228.373 47.2396C228.251 47.2444 228.154 47.2024 228.082 47.1136L228.056 47.0812C228.052 47.074 228.049 47.0692 228.049 47.0668L228.024 47.092C227.935 47.1736 227.838 47.2216 227.732 47.236C227.629 47.248 227.536 47.2348 227.452 47.1964C227.334 47.146 227.261 47.0512 227.232 46.912C227.222 46.8496 227.222 46.7752 227.232 46.6888C227.234 46.6816 227.236 46.6756 227.236 46.6708C227.255 46.5508 227.311 46.3672 227.405 46.12C227.448 45.9928 227.472 45.9112 227.477 45.8752C227.489 45.82 227.483 45.7888 227.459 45.7816C227.43 45.772 227.396 45.778 227.358 45.7996C227.308 45.8308 227.268 45.88 227.239 45.9472C227.215 45.9904 227.189 46.0636 227.16 46.1668C227.153 46.1812 227.148 46.1896 227.146 46.192C227.141 46.1968 227.112 46.1992 227.059 46.1992H226.98L226.969 46.1884C226.962 46.1812 226.958 46.1716 226.958 46.1596C226.963 46.1212 226.984 46.0612 227.02 45.9796C227.048 45.9172 227.078 45.8656 227.11 45.8248C227.141 45.7816 227.18 45.7384 227.228 45.6952C227.281 45.6544 227.338 45.628 227.398 45.616ZM229.713 44.9536C229.746 44.9416 229.781 44.9428 229.817 44.9572C229.848 44.9692 229.871 44.9896 229.886 45.0184C229.898 45.0448 229.894 45.0952 229.875 45.1696C229.868 45.2008 229.852 45.2668 229.828 45.3676C229.778 45.5524 229.754 45.6436 229.756 45.6412C229.756 45.646 229.808 45.6484 229.911 45.6484H230.066L230.076 45.6592C230.091 45.6688 230.091 45.7 230.076 45.7528C230.069 45.7888 230.062 45.814 230.055 45.8284C230.048 45.8404 230.025 45.8476 229.986 45.85C229.97 45.85 229.93 45.85 229.868 45.85H229.706L229.702 45.8644C229.541 46.4908 229.457 46.8316 229.45 46.8868C229.445 46.9156 229.443 46.942 229.443 46.966C229.443 47.0332 229.462 47.068 229.5 47.0704C229.515 47.0704 229.532 47.068 229.551 47.0632C229.584 47.0608 229.62 47.044 229.659 47.0128C229.743 46.948 229.812 46.8436 229.868 46.6996C229.88 46.6708 229.893 46.6552 229.907 46.6528C229.914 46.6504 229.938 46.6492 229.979 46.6492C230.032 46.6492 230.061 46.6516 230.066 46.6564C230.08 46.6684 230.08 46.6924 230.066 46.7284C230.02 46.8388 229.966 46.93 229.904 47.002C229.808 47.1244 229.697 47.2 229.572 47.2288C229.553 47.2336 229.522 47.236 229.479 47.236C229.436 47.236 229.406 47.2336 229.389 47.2288C229.322 47.2096 229.268 47.1808 229.227 47.1424C229.188 47.104 229.161 47.0572 229.144 47.002C229.139 46.9828 229.137 46.9504 229.137 46.9048V46.8364L229.259 46.3468C229.341 46.0252 229.382 45.8608 229.382 45.8536C229.382 45.8512 229.331 45.85 229.23 45.85C229.125 45.85 229.067 45.8416 229.058 45.8248C229.053 45.8176 229.055 45.7912 229.065 45.7456C229.079 45.6976 229.088 45.6724 229.09 45.67C229.097 45.6556 229.122 45.6484 229.166 45.6484C229.182 45.6484 229.218 45.6484 229.274 45.6484H229.436L229.504 45.3676C229.55 45.1828 229.578 45.0784 229.59 45.0544C229.612 45.0064 229.653 44.9728 229.713 44.9536Z" fill="#A9A6A7"/>
<path d="M226.632 37.3H225.584V38.36H225.296V37.3H224.248V37.028H225.296V35.968H225.584V37.028H226.632V37.3Z" fill="#A9A6A7"/>
<line x1="224" y1="53.05" x2="227" y2="53.05" stroke="#A9A6A7" stroke-width="0.3"/>
<path d="M100 33L97.5 31.5566V34.4434L100 33ZM85 33.25H97.75V32.75H85V33.25Z" fill="#A9A6A7"/>
<path d="M176 53L177.443 50.5H174.557L176 53ZM175.75 38V50.75H176.25V38H175.75Z" fill="#A9A6A7"/>
</svg>
