<svg width="242" height="77" viewBox="0 0 242 77" fill="none" xmlns="http://www.w3.org/2000/svg">
<line x1="68" y1="25.6" x2="68.9381" y2="25.6" stroke="#A9A6A7" stroke-width="0.5"/>
<path d="M74.6349 22.6C72.4065 22.6 71.5706 28.6 73.2451 28.6" stroke="#A9A6A7" stroke-width="0.5"/>
<path d="M71.8046 22.6C74.033 22.6 74.8688 28.6 73.1943 28.6" stroke="#A9A6A7" stroke-width="0.5"/>
<path d="M77.4145 22.6C75.1861 22.6 74.3502 28.6 76.0247 28.6" stroke="#A9A6A7" stroke-width="0.5"/>
<path d="M74.5842 22.6C76.8126 22.6 77.6484 28.6 75.974 28.6" stroke="#A9A6A7" stroke-width="0.5"/>
<path d="M80.1941 22.6C77.9656 22.6 77.1298 28.6 78.8043 28.6" stroke="#A9A6A7" stroke-width="0.5"/>
<path d="M77.3637 22.6C79.5921 22.6 80.428 28.6 78.7535 28.6" stroke="#A9A6A7" stroke-width="0.5"/>
<path d="M71.8046 22.6C69.5762 22.6 70.8838 25.6 68.9381 25.6" stroke="#A9A6A7" stroke-width="0.5"/>
<line y1="-0.25" x2="0.938111" y2="-0.25" transform="matrix(-1 0 0 1 84 25.85)" stroke="#A9A6A7" stroke-width="0.5"/>
<path d="M80.1954 22.6C82.4238 22.6 81.1162 25.6 83.0619 25.6" stroke="#A9A6A7" stroke-width="0.5"/>
<path d="M103.217 21.85L104.778 27.85L106.339 21.85" stroke="#A9A6A7" stroke-width="0.5" stroke-linecap="round"/>
<path d="M112.583 21.85L113.363 24.85L113.559 25.6" stroke="#A9A6A7" stroke-width="0.5" stroke-linecap="round"/>
<path d="M103.217 21.85L102.437 24.85L102.241 25.6" stroke="#A9A6A7" stroke-width="0.5" stroke-linecap="round"/>
<path d="M102.241 25.6H100.368H99.9" stroke="#A9A6A7" stroke-width="0.5" stroke-linecap="round"/>
<path d="M115.9 25.6H114.027H113.559" stroke="#A9A6A7" stroke-width="0.5" stroke-linecap="round"/>
<path d="M109.461 21.85L111.022 27.85L112.583 21.85" stroke="#A9A6A7" stroke-width="0.5" stroke-linecap="round"/>
<path d="M106.339 21.85L107.9 27.85L109.461 21.85" stroke="#A9A6A7" stroke-width="0.5" stroke-linecap="round"/>
<path d="M132 52.2V45.7" stroke="#A9A6A7" stroke-width="0.5"/>
<path d="M136 45.7H132H128" stroke="#A9A6A7" stroke-width="0.5"/>
<path d="M136 42.7H128" stroke="#A9A6A7" stroke-width="0.5"/>
<path d="M132 36.2V42.7" stroke="#A9A6A7" stroke-width="0.5"/>
<rect x="199.282" y="44.2" width="9.5" height="9.5" transform="rotate(-45 199.282 44.2)" stroke="#A9A6A7" stroke-width="0.5"/>
<path d="M205.823 47.3768C205.92 47.4744 206.079 47.4744 206.176 47.3768L207.767 45.7858C207.865 45.6882 207.865 45.5299 207.767 45.4322C207.67 45.3346 207.511 45.3346 207.414 45.4322L205.999 46.8464L204.585 45.4322C204.488 45.3346 204.329 45.3346 204.232 45.4322C204.134 45.5299 204.134 45.6882 204.232 45.7858L205.823 47.3768ZM205.749 41.2V47.2H206.249V41.2H205.749Z" fill="#A9A6A7"/>
<path d="M205.999 35.7V37.7" stroke="#A9A6A7" stroke-width="0.5"/>
<path d="M205.999 50.7V52.7" stroke="#A9A6A7" stroke-width="0.5"/>
<path d="M31.8 25.9318L32.8353 22.0681" stroke="#A9A6A7" stroke-width="0.5"/>
<path d="M35.8 22.0681L36.8353 25.9318" stroke="#A9A6A7" stroke-width="0.5"/>
<path d="M37.8 22.0681H30.8" stroke="#A9A6A7" stroke-width="0.5"/>
<path d="M15.9944 25.95L31.9931 25.7449" stroke="#A9A6A7" stroke-width="0.5"/>
<path d="M51.3672 63.2C51.3672 63.9364 51.9642 64.5333 52.7006 64.5333C53.4369 64.5333 54.0339 63.9364 54.0339 63.2C54.0339 62.4636 53.4369 61.8667 52.7006 61.8667C51.9642 61.8667 51.3672 62.4636 51.3672 63.2ZM15.7 63.45H52.7006V62.95H15.7V63.45Z" fill="#A9A6A7"/>
<path d="M130.667 63.2C130.667 63.9364 131.264 64.5333 132 64.5333C132.736 64.5333 133.333 63.9364 133.333 63.2C133.333 62.4636 132.736 61.8667 132 61.8667C131.264 61.8667 130.667 62.4636 130.667 63.2ZM53 63.45H132V62.95H53V63.45Z" fill="#A9A6A7"/>
<path d="M167.667 63.2C167.667 63.9364 168.264 64.5333 169 64.5333C169.736 64.5333 170.333 63.9364 170.333 63.2C170.333 62.4636 169.736 61.8667 169 61.8667C168.264 61.8667 167.667 62.4636 167.667 63.2ZM132 63.45L169 63.45V62.95L132 62.95V63.45Z" fill="#A9A6A7"/>
<path d="M204.667 63.2C204.667 63.9364 205.264 64.5333 206 64.5333C206.736 64.5333 207.333 63.9364 207.333 63.2C207.333 62.4636 206.736 61.8667 206 61.8667C205.264 61.8667 204.667 62.4636 204.667 63.2ZM169 63.45L206 63.45V62.95L169 62.95V63.45Z" fill="#A9A6A7"/>
<path d="M55.6 46.6655H49.6" stroke="#A9A6A7" stroke-width="0.5"/>
<path d="M55.6 41.6793H49.6" stroke="#A9A6A7" stroke-width="0.5"/>
<path d="M55.6 46.6793L52.6 41.4832" stroke="#A9A6A7" stroke-width="0.5"/>
<path d="M49.6 46.6793L52.6 41.4832" stroke="#A9A6A7" stroke-width="0.5"/>
<path d="M52.6 46.7207V48.7207" stroke="#A9A6A7" stroke-width="0.5"/>
<path d="M52.6 39.6793V41.6793" stroke="#A9A6A7" stroke-width="0.5"/>
<path d="M52.6 63.2V48.2" stroke="#A9A6A7" stroke-width="0.5"/>
<path d="M52.6 40.2V25.2" stroke="#A9A6A7" stroke-width="0.5"/>
<path d="M55.6 46.6655H49.6" stroke="#A9A6A7" stroke-width="0.5"/>
<path d="M55.6 41.6793H49.6" stroke="#A9A6A7" stroke-width="0.5"/>
<path d="M55.6 46.6793L52.6 41.4832" stroke="#A9A6A7" stroke-width="0.5"/>
<path d="M49.6 46.6793L52.6 41.4832" stroke="#A9A6A7" stroke-width="0.5"/>
<path d="M52.6 46.7207V48.7207" stroke="#A9A6A7" stroke-width="0.5"/>
<path d="M52.6 39.6793V41.6793" stroke="#A9A6A7" stroke-width="0.5"/>
<path d="M52.6 63.2V48.2" stroke="#A9A6A7" stroke-width="0.5"/>
<path d="M52.6 40.2V25.2" stroke="#A9A6A7" stroke-width="0.5"/>
<path d="M132 63.2V48.2" stroke="#A9A6A7" stroke-width="0.5"/>
<path d="M132 40.2V25.2" stroke="#A9A6A7" stroke-width="0.5"/>
<path d="M165.25 48.8829L171.25 47.322L165.25 45.761" stroke="#A9A6A7" stroke-width="0.5" stroke-linecap="round"/>
<path d="M165.25 39.5171L168.25 38.7366L169 38.5415" stroke="#A9A6A7" stroke-width="0.5" stroke-linecap="round"/>
<path d="M165.25 48.8829L168.25 49.6634L169 49.8585" stroke="#A9A6A7" stroke-width="0.5" stroke-linecap="round"/>
<path d="M169 49.8585V51.7317V52.2" stroke="#A9A6A7" stroke-width="0.5" stroke-linecap="round"/>
<path d="M169 36.2V38.0732V38.5415" stroke="#A9A6A7" stroke-width="0.5" stroke-linecap="round"/>
<path d="M165.25 42.639L171.25 41.078L165.25 39.5171" stroke="#A9A6A7" stroke-width="0.5" stroke-linecap="round"/>
<path d="M165.25 45.761L171.25 44.2L165.25 42.639" stroke="#A9A6A7" stroke-width="0.5" stroke-linecap="round"/>
<path d="M169 63.2V51.2" stroke="#A9A6A7" stroke-width="0.5"/>
<path d="M169 38.2V25.2" stroke="#A9A6A7" stroke-width="0.5"/>
<path d="M206 37.2V25.2" stroke="#A9A6A7" stroke-width="0.5"/>
<path d="M206 63.2V51.2" stroke="#A9A6A7" stroke-width="0.5"/>
<path d="M51.266 25.5975C51.266 26.3338 51.863 26.9308 52.5994 26.9308C53.3357 26.9308 53.9327 26.3338 53.9327 25.5975C53.9327 24.8611 53.3357 24.2641 52.5994 24.2641C51.863 24.2641 51.266 24.8611 51.266 25.5975ZM36.5993 25.8475H52.5994V25.3475H36.5993V25.8475Z" fill="#A9A6A7"/>
<path d="M167.667 25.64C167.667 26.3764 168.264 26.9733 169 26.9733C169.736 26.9733 170.333 26.3764 170.333 25.64C170.333 24.9036 169.736 24.3067 169 24.3067C168.264 24.3067 167.667 24.9036 167.667 25.64ZM132 25.89H169V25.39H132V25.89Z" fill="#A9A6A7"/>
<path d="M204.667 25.647C204.667 26.3834 205.264 26.9803 206 26.9803C206.736 26.9803 207.333 26.3834 207.333 25.647C207.333 24.9106 206.736 24.3137 206 24.3137C205.264 24.3137 204.667 24.9106 204.667 25.647ZM169 25.897H206V25.397H169V25.897Z" fill="#A9A6A7"/>
<path d="M205.997 25.65H225.003" stroke="#A9A6A7" stroke-width="0.5"/>
<path d="M206 63.2H225.005" stroke="#A9A6A7" stroke-width="0.5"/>
<path d="M52.6 25.6H68.6" stroke="#A9A6A7" stroke-width="0.5"/>
<path d="M84 25.6H100" stroke="#A9A6A7" stroke-width="0.5"/>
<path d="M130.667 25.6C130.667 26.3364 131.264 26.9333 132 26.9333C132.736 26.9333 133.333 26.3364 133.333 25.6C133.333 24.8636 132.736 24.2667 132 24.2667C131.264 24.2667 130.667 24.8636 130.667 25.6ZM116 25.85H132V25.35H116V25.85Z" fill="#A9A6A7"/>
<path d="M15.75 25.95C15.75 26.6404 15.1904 27.2 14.5 27.2C13.8096 27.2 13.25 26.6404 13.25 25.95C13.25 25.2596 13.8096 24.7 14.5 24.7C15.1904 24.7 15.75 25.2596 15.75 25.95Z" stroke="#A9A6A7" stroke-width="0.5"/>
<path d="M15.75 63.2C15.75 63.8904 15.1904 64.45 14.5 64.45C13.8096 64.45 13.25 63.8904 13.25 63.2C13.25 62.5096 13.8096 61.95 14.5 61.95C15.1904 61.95 15.75 62.5096 15.75 63.2Z" stroke="#A9A6A7" stroke-width="0.5"/>
<path d="M227.75 25.7C227.75 26.3904 227.19 26.95 226.5 26.95C225.81 26.95 225.25 26.3904 225.25 25.7C225.25 25.0096 225.81 24.45 226.5 24.45C227.19 24.45 227.75 25.0096 227.75 25.7Z" stroke="#A9A6A7" stroke-width="0.5"/>
<path d="M227.75 63.2C227.75 63.8904 227.19 64.45 226.5 64.45C225.81 64.45 225.25 63.8904 225.25 63.2C225.25 62.5096 225.81 61.95 226.5 61.95C227.19 61.95 227.75 62.5096 227.75 63.2Z" stroke="#A9A6A7" stroke-width="0.5"/>
<path d="M14.592 43.548C14.728 43.52 14.83 43.582 14.898 43.734C14.91 43.762 14.92 43.79 14.928 43.818C14.936 43.854 14.94 43.92 14.94 44.016C14.94 44.176 14.904 44.398 14.832 44.682C14.72 45.142 14.576 45.512 14.4 45.792C14.3 45.936 14.198 46.048 14.094 46.128C14.01 46.188 13.926 46.228 13.842 46.248C13.806 46.256 13.748 46.26 13.668 46.26C13.548 46.26 13.438 46.246 13.338 46.218C13.002 46.102 12.846 45.842 12.87 45.438C12.882 45.246 12.98 44.9 13.164 44.4C13.236 44.188 13.276 44.052 13.284 43.992C13.304 43.9 13.294 43.848 13.254 43.836C13.206 43.82 13.15 43.83 13.086 43.866C13.002 43.918 12.936 44 12.888 44.112C12.848 44.184 12.804 44.306 12.756 44.478C12.744 44.502 12.736 44.516 12.732 44.52C12.724 44.528 12.676 44.532 12.588 44.532H12.456L12.438 44.514C12.426 44.502 12.42 44.486 12.42 44.466C12.428 44.402 12.462 44.302 12.522 44.166C12.594 44.014 12.684 43.88 12.792 43.764C12.872 43.688 12.952 43.632 13.032 43.596C13.096 43.568 13.174 43.554 13.266 43.554C13.366 43.554 13.452 43.572 13.524 43.608C13.576 43.636 13.616 43.666 13.644 43.698C13.676 43.726 13.706 43.766 13.734 43.818C13.77 43.894 13.786 43.974 13.782 44.058C13.782 44.138 13.756 44.248 13.704 44.388C13.7 44.408 13.692 44.432 13.68 44.46C13.612 44.652 13.57 44.768 13.554 44.808C13.402 45.26 13.36 45.582 13.428 45.774C13.472 45.918 13.574 45.988 13.734 45.984C13.754 45.984 13.774 45.982 13.794 45.978C13.874 45.966 13.952 45.922 14.028 45.846C14.188 45.686 14.334 45.338 14.466 44.802C14.502 44.646 14.516 44.532 14.508 44.46C14.492 44.32 14.438 44.204 14.346 44.112C14.314 44.08 14.292 44.05 14.28 44.022C14.268 43.998 14.262 43.962 14.262 43.914C14.262 43.866 14.266 43.83 14.274 43.806C14.318 43.706 14.384 43.634 14.472 43.59C14.504 43.57 14.544 43.556 14.592 43.548ZM15.7606 44.8456C15.847 44.824 15.9094 44.8456 15.9478 44.9104C15.9598 44.932 15.967 44.956 15.9694 44.9824C15.9694 45.0184 15.961 45.0532 15.9442 45.0868C15.889 45.1636 15.8194 45.208 15.7354 45.22C15.709 45.22 15.6814 45.2128 15.6526 45.1984C15.6286 45.1864 15.6094 45.1648 15.595 45.1336C15.5878 45.124 15.583 45.1048 15.5806 45.076C15.5806 45.0376 15.5878 45.004 15.6022 44.9752C15.6358 44.908 15.6886 44.8648 15.7606 44.8456ZM15.451 45.616C15.4678 45.6112 15.4942 45.6088 15.5302 45.6088C15.5854 45.6112 15.6334 45.6232 15.6742 45.6448C15.7054 45.6616 15.7294 45.6796 15.7462 45.6988C15.7654 45.7156 15.7834 45.7396 15.8002 45.7708C15.8218 45.8164 15.8314 45.8644 15.829 45.9148C15.829 45.9556 15.8266 45.9844 15.8218 46.0012C15.8194 46.006 15.7654 46.156 15.6598 46.4512C15.559 46.72 15.505 46.8688 15.4978 46.8976C15.4738 46.9768 15.4702 47.0296 15.487 47.056C15.499 47.0704 15.5242 47.0728 15.5626 47.0632C15.6562 47.0416 15.7318 46.9252 15.7894 46.714C15.8014 46.6756 15.8134 46.6552 15.8254 46.6528C15.8326 46.6504 15.8578 46.6492 15.901 46.6492C15.9538 46.6492 15.9826 46.6516 15.9874 46.6564C16.0018 46.666 16.0018 46.6912 15.9874 46.732C15.961 46.8256 15.9214 46.9132 15.8686 46.9948C15.7726 47.1388 15.6634 47.2192 15.541 47.236C15.4978 47.2456 15.4534 47.2432 15.4078 47.2288C15.3598 47.2144 15.3202 47.1964 15.289 47.1748C15.2362 47.1316 15.2014 47.0704 15.1846 46.9912C15.175 46.9456 15.1774 46.8976 15.1918 46.8472C15.1966 46.828 15.2494 46.6804 15.3502 46.4044C15.4366 46.174 15.4918 46.0228 15.5158 45.9508C15.5398 45.8764 15.5434 45.8248 15.5266 45.796C15.5194 45.7768 15.4942 45.7732 15.451 45.7852C15.379 45.802 15.3154 45.8776 15.2602 46.012C15.229 46.12 15.2134 46.1716 15.2134 46.1668C15.2062 46.1812 15.2014 46.1896 15.199 46.192C15.1942 46.1968 15.1654 46.1992 15.1126 46.1992H15.0334L15.0226 46.1884C15.0154 46.1812 15.0118 46.1716 15.0118 46.1596C15.0166 46.1212 15.037 46.0612 15.073 45.9796C15.1018 45.9172 15.1318 45.8656 15.163 45.8248C15.1942 45.7816 15.2338 45.7384 15.2818 45.6952C15.3346 45.6544 15.391 45.628 15.451 45.616ZM16.5837 45.616C16.6245 45.604 16.6761 45.6052 16.7385 45.6196C16.7961 45.634 16.8453 45.6604 16.8861 45.6988C16.9221 45.7348 16.9461 45.7696 16.9581 45.8032L16.9725 45.832L17.0013 45.8068C17.1045 45.7036 17.2221 45.6412 17.3541 45.6196C17.4405 45.6028 17.5197 45.604 17.5917 45.6232C17.6853 45.6424 17.7561 45.6832 17.8041 45.7456C17.8305 45.7792 17.8521 45.8236 17.8689 45.8788C17.8737 45.9004 17.8761 45.94 17.8761 45.9976C17.8761 46.06 17.8749 46.0996 17.8725 46.1164C17.8461 46.2532 17.7813 46.4656 17.6781 46.7536C17.6397 46.8568 17.6169 46.9276 17.6097 46.966C17.6025 47.026 17.6097 47.0596 17.6313 47.0668C17.6601 47.0764 17.6937 47.0704 17.7321 47.0488C17.8065 47.0032 17.8689 46.8916 17.9193 46.714C17.9313 46.6756 17.9433 46.6552 17.9553 46.6528C17.9625 46.6504 17.9877 46.6492 18.0309 46.6492C18.0837 46.6492 18.1125 46.6516 18.1173 46.6564C18.1317 46.666 18.1317 46.6912 18.1173 46.732C18.0909 46.8256 18.0513 46.9132 17.9985 46.9948C17.9025 47.1388 17.7933 47.2192 17.6709 47.236C17.6277 47.2456 17.5833 47.2432 17.5377 47.2288C17.4681 47.2144 17.4153 47.182 17.3793 47.1316C17.3337 47.0764 17.3109 47.0116 17.3109 46.9372C17.3109 46.8916 17.3289 46.8172 17.3649 46.714C17.4825 46.3972 17.5485 46.1728 17.5629 46.0408C17.5725 45.9832 17.5713 45.9292 17.5593 45.8788C17.5425 45.8308 17.5185 45.8008 17.4873 45.7888C17.4633 45.7768 17.4261 45.7744 17.3757 45.7816C17.2173 45.8056 17.0805 45.9256 16.9653 46.1416L16.9365 46.192L16.8213 46.6492C16.7445 46.9588 16.7025 47.1196 16.6953 47.1316C16.6641 47.194 16.6125 47.23 16.5405 47.2396C16.5213 47.242 16.5033 47.2408 16.4865 47.236C16.4265 47.2192 16.3941 47.182 16.3893 47.1244C16.3893 47.1028 16.4349 46.9084 16.5261 46.5412C16.6197 46.1788 16.6689 45.9808 16.6737 45.9472C16.6809 45.8848 16.6785 45.8392 16.6665 45.8104C16.6569 45.7936 16.6413 45.7828 16.6197 45.778C16.6053 45.778 16.5933 45.7816 16.5837 45.7888C16.5477 45.8104 16.5141 45.8692 16.4829 45.9652C16.4709 45.9988 16.4517 46.066 16.4253 46.1668C16.4181 46.1812 16.4133 46.1896 16.4109 46.192C16.4061 46.1968 16.3773 46.1992 16.3245 46.1992H16.2453L16.2345 46.1884C16.2273 46.1812 16.2237 46.1716 16.2237 46.1596L16.2453 46.0768C16.3053 45.868 16.3821 45.73 16.4757 45.6628C16.5141 45.6388 16.5501 45.6232 16.5837 45.616Z" fill="#A9A6A7"/>
<path d="M44.898 42.072C45.21 42.048 45.364 42.036 45.36 42.036C45.396 42.036 45.42 42.05 45.432 42.078C45.436 42.094 45.292 42.69 45 43.866L44.544 45.69C44.536 45.782 44.536 45.856 44.544 45.912C44.552 45.932 44.564 45.948 44.58 45.96C44.592 45.972 44.61 45.978 44.634 45.978C44.662 45.978 44.684 45.974 44.7 45.966C44.776 45.91 44.854 45.728 44.934 45.42C44.954 45.344 44.97 45.302 44.982 45.294C44.99 45.286 45.038 45.282 45.126 45.282C45.214 45.282 45.264 45.286 45.276 45.294C45.284 45.302 45.288 45.318 45.288 45.342C45.288 45.366 45.278 45.414 45.258 45.486C45.11 45.99 44.9 46.25 44.628 46.266C44.424 46.278 44.26 46.208 44.136 46.056C44.116 46.032 44.098 46.006 44.082 45.978C44.074 45.954 44.068 45.942 44.064 45.942L44.022 45.978C43.882 46.102 43.744 46.184 43.608 46.224C43.348 46.312 43.114 46.272 42.906 46.104C42.882 46.084 42.86 46.062 42.84 46.038C42.78 45.978 42.73 45.906 42.69 45.822C42.59 45.618 42.558 45.376 42.594 45.096C42.658 44.64 42.852 44.256 43.176 43.944C43.384 43.744 43.61 43.618 43.854 43.566C43.89 43.558 43.946 43.554 44.022 43.554C44.122 43.554 44.208 43.57 44.28 43.602C44.336 43.63 44.388 43.668 44.436 43.716C44.468 43.748 44.484 43.76 44.484 43.752C44.488 43.748 44.538 43.556 44.634 43.176C44.726 42.804 44.774 42.596 44.778 42.552C44.778 42.516 44.774 42.494 44.766 42.486C44.738 42.458 44.652 42.442 44.508 42.438C44.412 42.438 44.356 42.424 44.34 42.396L44.334 42.378L44.364 42.258C44.38 42.182 44.396 42.136 44.412 42.12C44.424 42.108 44.436 42.102 44.448 42.102L44.898 42.072ZM44.046 43.836C43.882 43.808 43.724 43.886 43.572 44.07C43.532 44.122 43.496 44.178 43.464 44.238C43.404 44.354 43.332 44.582 43.248 44.922C43.196 45.114 43.158 45.282 43.134 45.426C43.118 45.562 43.118 45.666 43.134 45.738C43.174 45.878 43.252 45.958 43.368 45.978C43.436 45.99 43.518 45.976 43.614 45.936C43.758 45.856 43.894 45.722 44.022 45.534L44.052 45.492L44.202 44.892L44.352 44.292L44.34 44.25C44.304 44.022 44.216 43.886 44.076 43.842C44.068 43.838 44.058 43.836 44.046 43.836Z" fill="#A9A6A7"/>
<path d="M16.632 37.3H15.584V38.36H15.296V37.3H14.248V37.028H15.296V35.968H15.584V37.028H16.632V37.3Z" fill="#A9A6A7"/>
<line x1="14" y1="53.05" x2="17" y2="53.05" stroke="#A9A6A7" stroke-width="0.3"/>
<path d="M106.32 14.12L106.338 14.102H107.304L108.276 14.108L108.36 14.12C108.624 14.16 108.836 14.25 108.996 14.39C109.156 14.518 109.254 14.682 109.29 14.882C109.306 14.99 109.302 15.098 109.278 15.206C109.21 15.49 109.016 15.74 108.696 15.956C108.564 16.04 108.426 16.108 108.282 16.16C108.25 16.176 108.232 16.184 108.228 16.184L108.276 16.232C108.36 16.3 108.432 16.39 108.492 16.502C108.536 16.606 108.56 16.71 108.564 16.814C108.564 16.898 108.552 17.04 108.528 17.24C108.508 17.44 108.498 17.596 108.498 17.708C108.498 17.804 108.502 17.866 108.51 17.894C108.534 17.982 108.596 18.034 108.696 18.05C108.748 18.05 108.79 18.036 108.822 18.008C108.882 17.968 108.938 17.858 108.99 17.678C109.006 17.618 109.028 17.584 109.056 17.576C109.072 17.572 109.112 17.57 109.176 17.57C109.26 17.57 109.31 17.58 109.326 17.6C109.342 17.62 109.338 17.664 109.314 17.732C109.214 18.028 109.058 18.218 108.846 18.302C108.818 18.314 108.79 18.322 108.762 18.326C108.734 18.33 108.684 18.332 108.612 18.332C108.2 18.312 107.936 18.182 107.82 17.942C107.788 17.882 107.77 17.804 107.766 17.708C107.766 17.632 107.768 17.584 107.772 17.564C107.792 17.472 107.82 17.348 107.856 17.192C107.924 16.92 107.954 16.748 107.946 16.676C107.93 16.488 107.846 16.366 107.694 16.31L107.652 16.292H107.298H106.95L106.944 16.316C106.944 16.308 106.88 16.564 106.752 17.084C106.628 17.584 106.568 17.834 106.572 17.834C106.592 17.854 106.714 17.864 106.938 17.864H107.058L107.082 17.882C107.094 17.898 107.1 17.914 107.1 17.93C107.1 17.994 107.08 18.072 107.04 18.164C107.028 18.188 106.988 18.198 106.92 18.194C106.904 18.194 106.87 18.194 106.818 18.194C106.218 18.178 105.75 18.18 105.414 18.2H105.348L105.33 18.182C105.314 18.166 105.306 18.15 105.306 18.134C105.306 18.07 105.326 17.992 105.366 17.9C105.414 17.876 105.49 17.864 105.594 17.864C105.774 17.86 105.876 17.852 105.9 17.84C105.92 17.828 105.936 17.804 105.948 17.768C105.976 17.688 106.114 17.148 106.362 16.148C106.638 15.044 106.776 14.488 106.776 14.48C106.776 14.468 106.772 14.462 106.764 14.462C106.74 14.454 106.646 14.446 106.482 14.438C106.342 14.438 106.264 14.424 106.248 14.396C106.244 14.384 106.25 14.338 106.266 14.258C106.286 14.182 106.304 14.136 106.32 14.12ZM108.186 14.45C108.162 14.446 108.04 14.442 107.82 14.438C107.608 14.438 107.484 14.442 107.448 14.45C107.428 14.458 107.416 14.466 107.412 14.474L107.022 16.01H107.37C107.642 16.006 107.82 15.994 107.904 15.974C108.136 15.922 108.306 15.808 108.414 15.632C108.466 15.544 108.516 15.4 108.564 15.2C108.6 15.052 108.618 14.938 108.618 14.858C108.618 14.75 108.586 14.664 108.522 14.6C108.482 14.56 108.446 14.534 108.414 14.522C108.362 14.494 108.286 14.47 108.186 14.45ZM110.163 16.752L110.174 16.7412H110.228C110.475 16.7532 110.781 16.7544 111.146 16.7448C111.232 16.7424 111.28 16.7496 111.29 16.7664C111.292 16.7736 111.289 16.8012 111.279 16.8492C111.265 16.8972 111.255 16.9248 111.25 16.932L111.239 16.9428H111.095C110.939 16.9452 110.851 16.956 110.829 16.9752C110.822 16.98 110.735 17.316 110.57 17.9832C110.404 18.6456 110.321 18.9804 110.321 18.9876C110.321 18.9924 110.329 18.9948 110.343 18.9948H110.725C110.852 18.9804 110.966 18.9372 111.067 18.8652C111.122 18.8268 111.166 18.7836 111.2 18.7356C111.274 18.6372 111.345 18.4884 111.412 18.2892C111.436 18.2268 111.452 18.1932 111.459 18.1884C111.466 18.1836 111.494 18.1812 111.542 18.1812C111.59 18.1812 111.616 18.1836 111.621 18.1884C111.635 18.1932 111.643 18.204 111.643 18.2208L111.311 19.182C111.307 19.1916 111.272 19.1964 111.207 19.1964C111.137 19.1988 110.879 19.2 110.433 19.2H109.58L109.565 19.1892C109.558 19.1772 109.555 19.1676 109.555 19.1604C109.555 19.122 109.567 19.0752 109.591 19.02C109.619 19.0056 109.665 18.9984 109.727 18.9984C109.835 18.996 109.897 18.9912 109.911 18.984C109.923 18.9768 109.933 18.9624 109.94 18.9408C109.957 18.8928 110.039 18.5688 110.188 17.9688C110.354 17.3064 110.437 16.9728 110.437 16.968C110.437 16.9608 110.434 16.9572 110.429 16.9572C110.415 16.9524 110.359 16.9476 110.26 16.9428C110.176 16.9428 110.129 16.9344 110.12 16.9176C110.117 16.9104 110.121 16.8828 110.131 16.8348C110.143 16.7892 110.153 16.7616 110.163 16.752Z" fill="#A9A6A7"/>
<path d="M75.32 15.12L75.338 15.102H75.428C75.84 15.122 76.35 15.124 76.958 15.108C77.102 15.104 77.182 15.116 77.198 15.144C77.202 15.156 77.196 15.202 77.18 15.282C77.156 15.362 77.14 15.408 77.132 15.42L77.114 15.438H76.874C76.614 15.442 76.466 15.46 76.43 15.492C76.418 15.5 76.274 16.06 75.998 17.172C75.722 18.276 75.584 18.834 75.584 18.846C75.584 18.854 75.596 18.858 75.62 18.858H76.256C76.468 18.834 76.658 18.762 76.826 18.642C76.918 18.578 76.992 18.506 77.048 18.426C77.172 18.262 77.29 18.014 77.402 17.682C77.442 17.578 77.468 17.522 77.48 17.514C77.492 17.506 77.538 17.502 77.618 17.502C77.698 17.502 77.742 17.506 77.75 17.514C77.774 17.522 77.786 17.54 77.786 17.568L77.234 19.17C77.226 19.186 77.168 19.194 77.06 19.194C76.944 19.198 76.514 19.2 75.77 19.2H74.348L74.324 19.182C74.312 19.162 74.306 19.146 74.306 19.134C74.306 19.07 74.326 18.992 74.366 18.9C74.414 18.876 74.49 18.864 74.594 18.864C74.774 18.86 74.876 18.852 74.9 18.84C74.92 18.828 74.936 18.804 74.948 18.768C74.976 18.688 75.114 18.148 75.362 17.148C75.638 16.044 75.776 15.488 75.776 15.48C75.776 15.468 75.772 15.462 75.764 15.462C75.74 15.454 75.646 15.446 75.482 15.438C75.342 15.438 75.264 15.424 75.248 15.396C75.244 15.384 75.25 15.338 75.266 15.258C75.286 15.182 75.304 15.136 75.32 15.12Z" fill="#A9A6A7"/>
<path d="M157.32 42.12L157.338 42.102H158.304L159.276 42.108L159.36 42.12C159.624 42.16 159.836 42.25 159.996 42.39C160.156 42.518 160.254 42.682 160.29 42.882C160.306 42.99 160.302 43.098 160.278 43.206C160.21 43.49 160.016 43.74 159.696 43.956C159.564 44.04 159.426 44.108 159.282 44.16C159.25 44.176 159.232 44.184 159.228 44.184L159.276 44.232C159.36 44.3 159.432 44.39 159.492 44.502C159.536 44.606 159.56 44.71 159.564 44.814C159.564 44.898 159.552 45.04 159.528 45.24C159.508 45.44 159.498 45.596 159.498 45.708C159.498 45.804 159.502 45.866 159.51 45.894C159.534 45.982 159.596 46.034 159.696 46.05C159.748 46.05 159.79 46.036 159.822 46.008C159.882 45.968 159.938 45.858 159.99 45.678C160.006 45.618 160.028 45.584 160.056 45.576C160.072 45.572 160.112 45.57 160.176 45.57C160.26 45.57 160.31 45.58 160.326 45.6C160.342 45.62 160.338 45.664 160.314 45.732C160.214 46.028 160.058 46.218 159.846 46.302C159.818 46.314 159.79 46.322 159.762 46.326C159.734 46.33 159.684 46.332 159.612 46.332C159.2 46.312 158.936 46.182 158.82 45.942C158.788 45.882 158.77 45.804 158.766 45.708C158.766 45.632 158.768 45.584 158.772 45.564C158.792 45.472 158.82 45.348 158.856 45.192C158.924 44.92 158.954 44.748 158.946 44.676C158.93 44.488 158.846 44.366 158.694 44.31L158.652 44.292H158.298H157.95L157.944 44.316C157.944 44.308 157.88 44.564 157.752 45.084C157.628 45.584 157.568 45.834 157.572 45.834C157.592 45.854 157.714 45.864 157.938 45.864H158.058L158.082 45.882C158.094 45.898 158.1 45.914 158.1 45.93C158.1 45.994 158.08 46.072 158.04 46.164C158.028 46.188 157.988 46.198 157.92 46.194C157.904 46.194 157.87 46.194 157.818 46.194C157.218 46.178 156.75 46.18 156.414 46.2H156.348L156.33 46.182C156.314 46.166 156.306 46.15 156.306 46.134C156.306 46.07 156.326 45.992 156.366 45.9C156.414 45.876 156.49 45.864 156.594 45.864C156.774 45.86 156.876 45.852 156.9 45.84C156.92 45.828 156.936 45.804 156.948 45.768C156.976 45.688 157.114 45.148 157.362 44.148C157.638 43.044 157.776 42.488 157.776 42.48C157.776 42.468 157.772 42.462 157.764 42.462C157.74 42.454 157.646 42.446 157.482 42.438C157.342 42.438 157.264 42.424 157.248 42.396C157.244 42.384 157.25 42.338 157.266 42.258C157.286 42.182 157.304 42.136 157.32 42.12ZM159.186 42.45C159.162 42.446 159.04 42.442 158.82 42.438C158.608 42.438 158.484 42.442 158.448 42.45C158.428 42.458 158.416 42.466 158.412 42.474L158.022 44.01H158.37C158.642 44.006 158.82 43.994 158.904 43.974C159.136 43.922 159.306 43.808 159.414 43.632C159.466 43.544 159.516 43.4 159.564 43.2C159.6 43.052 159.618 42.938 159.618 42.858C159.618 42.75 159.586 42.664 159.522 42.6C159.482 42.56 159.446 42.534 159.414 42.522C159.362 42.494 159.286 42.47 159.186 42.45ZM162.337 44.6656L162.412 44.662H162.416C162.627 44.662 162.791 44.7388 162.909 44.8924C162.926 44.9188 162.935 44.932 162.938 44.932L163.075 44.7988L163.211 44.662H163.24C163.271 44.662 163.289 44.6692 163.294 44.6836C163.297 44.6884 163.257 44.8588 163.175 45.1948C163.089 45.5404 163.046 45.7096 163.046 45.7024C163.041 45.7168 163.007 45.724 162.945 45.724H162.869L162.859 45.7132C162.849 45.7036 162.847 45.682 162.851 45.6484C162.871 45.5236 162.874 45.4048 162.862 45.292C162.836 45.0568 162.743 44.9176 162.585 44.8744C162.563 44.8696 162.53 44.8672 162.484 44.8672C162.395 44.8648 162.302 44.8792 162.203 44.9104C162.086 44.9488 161.98 45.0064 161.887 45.0832C161.673 45.2464 161.515 45.5068 161.411 45.8644C161.347 46.102 161.314 46.2976 161.314 46.4512C161.314 46.5616 161.329 46.654 161.357 46.7284C161.42 46.8916 161.537 46.9984 161.71 47.0488C161.727 47.0536 161.744 47.0572 161.761 47.0596C161.989 47.1076 162.196 47.0404 162.383 46.858C162.523 46.714 162.623 46.5388 162.686 46.3324C162.698 46.2916 162.71 46.27 162.722 46.2676C162.729 46.2652 162.753 46.264 162.794 46.264C162.854 46.264 162.887 46.2712 162.895 46.2856C162.897 46.2952 162.895 46.312 162.887 46.336C162.808 46.624 162.651 46.8604 162.416 47.0452C162.349 47.098 162.278 47.1424 162.203 47.1784C162.055 47.248 161.906 47.2816 161.757 47.2792C161.654 47.2768 161.553 47.2552 161.455 47.2144C161.291 47.152 161.164 47.0476 161.073 46.9012C160.989 46.7764 160.937 46.6288 160.918 46.4584C160.909 46.3984 160.907 46.3144 160.915 46.2064C160.917 46.1944 160.918 46.1848 160.918 46.1776C160.947 45.9088 161.041 45.6532 161.199 45.4108C161.247 45.3436 161.289 45.2884 161.325 45.2452C161.39 45.166 161.47 45.0856 161.566 45.004C161.811 44.8048 162.068 44.692 162.337 44.6656Z" fill="#A9A6A7"/>
<path d="M188.668 42.276C188.812 42.24 188.916 42.276 188.98 42.384C189 42.42 189.012 42.46 189.016 42.504C189.016 42.564 189.002 42.622 188.974 42.678C188.882 42.806 188.766 42.88 188.626 42.9C188.582 42.9 188.536 42.888 188.488 42.864C188.448 42.844 188.416 42.808 188.392 42.756C188.38 42.74 188.372 42.708 188.368 42.66C188.368 42.596 188.38 42.54 188.404 42.492C188.46 42.38 188.548 42.308 188.668 42.276ZM188.152 43.56C188.18 43.552 188.224 43.548 188.284 43.548C188.376 43.552 188.456 43.572 188.524 43.608C188.576 43.636 188.616 43.666 188.644 43.698C188.676 43.726 188.706 43.766 188.734 43.818C188.77 43.894 188.786 43.974 188.782 44.058C188.782 44.126 188.778 44.174 188.77 44.202C188.766 44.21 188.676 44.46 188.5 44.952C188.332 45.4 188.242 45.648 188.23 45.696C188.19 45.828 188.184 45.916 188.212 45.96C188.232 45.984 188.274 45.988 188.338 45.972C188.494 45.936 188.62 45.742 188.716 45.39C188.736 45.326 188.756 45.292 188.776 45.288C188.788 45.284 188.83 45.282 188.902 45.282C188.99 45.282 189.038 45.286 189.046 45.294C189.07 45.31 189.07 45.352 189.046 45.42C189.002 45.576 188.936 45.722 188.848 45.858C188.688 46.098 188.506 46.232 188.302 46.26C188.23 46.276 188.156 46.272 188.08 46.248C188 46.224 187.934 46.194 187.882 46.158C187.794 46.086 187.736 45.984 187.708 45.852C187.692 45.776 187.696 45.696 187.72 45.612C187.728 45.58 187.816 45.334 187.984 44.874C188.128 44.49 188.22 44.238 188.26 44.118C188.3 43.994 188.306 43.908 188.278 43.86C188.266 43.828 188.224 43.822 188.152 43.842C188.032 43.87 187.926 43.996 187.834 44.22C187.782 44.4 187.756 44.486 187.756 44.478C187.744 44.502 187.736 44.516 187.732 44.52C187.724 44.528 187.676 44.532 187.588 44.532H187.456L187.438 44.514C187.426 44.502 187.42 44.486 187.42 44.466C187.428 44.402 187.462 44.302 187.522 44.166C187.57 44.062 187.62 43.976 187.672 43.908C187.724 43.836 187.79 43.764 187.87 43.692C187.958 43.624 188.052 43.58 188.152 43.56ZM190.805 44.6656L190.881 44.662H190.885C191.096 44.662 191.26 44.7388 191.378 44.8924C191.395 44.9188 191.404 44.932 191.407 44.932L191.543 44.7988L191.68 44.662H191.709C191.74 44.662 191.758 44.6692 191.763 44.6836C191.765 44.6884 191.726 44.8588 191.644 45.1948C191.558 45.5404 191.515 45.7096 191.515 45.7024C191.51 45.7168 191.476 45.724 191.414 45.724H191.338L191.327 45.7132C191.318 45.7036 191.315 45.682 191.32 45.6484C191.339 45.5236 191.343 45.4048 191.331 45.292C191.305 45.0568 191.212 44.9176 191.054 44.8744C191.032 44.8696 190.999 44.8672 190.953 44.8672C190.864 44.8648 190.771 44.8792 190.672 44.9104C190.555 44.9488 190.449 45.0064 190.355 45.0832C190.142 45.2464 189.983 45.5068 189.88 45.8644C189.815 46.102 189.783 46.2976 189.783 46.4512C189.783 46.5616 189.797 46.654 189.826 46.7284C189.889 46.8916 190.006 46.9984 190.179 47.0488C190.196 47.0536 190.213 47.0572 190.229 47.0596C190.457 47.1076 190.665 47.0404 190.852 46.858C190.991 46.714 191.092 46.5388 191.155 46.3324C191.167 46.2916 191.179 46.27 191.191 46.2676C191.198 46.2652 191.222 46.264 191.263 46.264C191.323 46.264 191.356 46.2712 191.363 46.2856C191.366 46.2952 191.363 46.312 191.356 46.336C191.277 46.624 191.12 46.8604 190.885 47.0452C190.817 47.098 190.747 47.1424 190.672 47.1784C190.523 47.248 190.375 47.2816 190.226 47.2792C190.123 47.2768 190.022 47.2552 189.923 47.2144C189.76 47.152 189.633 47.0476 189.542 46.9012C189.458 46.7764 189.406 46.6288 189.387 46.4584C189.377 46.3984 189.376 46.3144 189.383 46.2064C189.386 46.1944 189.387 46.1848 189.387 46.1776C189.416 45.9088 189.509 45.6532 189.668 45.4108C189.716 45.3436 189.758 45.2884 189.794 45.2452C189.859 45.166 189.939 45.0856 190.035 45.004C190.28 44.8048 190.537 44.692 190.805 44.6656ZM192.317 44.752L192.328 44.7412H192.943C193.366 44.7412 193.584 44.7424 193.598 44.7448C193.805 44.7664 193.958 44.8504 194.059 44.9968C194.17 45.1696 194.177 45.364 194.081 45.58C194.066 45.6112 194.051 45.6412 194.034 45.67C193.96 45.7876 193.865 45.886 193.75 45.9652C193.601 46.0684 193.441 46.1296 193.271 46.1488C193.256 46.1512 193.152 46.1524 192.958 46.1524H192.68L192.58 46.5664C192.508 46.8424 192.474 46.9804 192.479 46.9804C192.491 46.9924 192.564 46.9984 192.698 46.9984H192.77L192.785 47.0092C192.792 47.0188 192.796 47.0284 192.796 47.038C192.796 47.0764 192.784 47.1232 192.76 47.1784C192.752 47.1928 192.727 47.1988 192.684 47.1964C192.674 47.1964 192.654 47.1964 192.623 47.1964C192.265 47.1868 191.982 47.188 191.773 47.2H191.734L191.723 47.1892C191.713 47.1796 191.708 47.17 191.708 47.1604C191.708 47.122 191.72 47.0752 191.744 47.02C191.773 47.0056 191.819 46.9984 191.881 46.9984C191.989 46.996 192.05 46.9912 192.065 46.984C192.077 46.9768 192.086 46.9624 192.094 46.9408C192.11 46.8928 192.193 46.5688 192.342 45.9688C192.508 45.3064 192.59 44.9728 192.59 44.968C192.59 44.9608 192.588 44.9572 192.583 44.9572C192.569 44.9524 192.512 44.9476 192.414 44.9428C192.33 44.9428 192.283 44.9344 192.274 44.9176C192.271 44.9104 192.275 44.8828 192.284 44.8348C192.296 44.7892 192.307 44.7616 192.317 44.752ZM193.508 44.9536C193.482 44.9488 193.397 44.9452 193.253 44.9428C193.102 44.9428 193.015 44.9452 192.994 44.95C192.982 44.9548 192.974 44.9596 192.972 44.9644C192.97 44.9668 192.926 45.1336 192.842 45.4648C192.758 45.7936 192.716 45.9592 192.716 45.9616C192.716 45.9664 192.79 45.9688 192.936 45.9688C193.094 45.9688 193.182 45.9676 193.199 45.9652C193.372 45.9508 193.498 45.8884 193.577 45.778C193.615 45.7204 193.655 45.6136 193.696 45.4576C193.724 45.3424 193.739 45.2548 193.739 45.1948C193.741 45.1276 193.723 45.0736 193.685 45.0328C193.642 44.992 193.583 44.9656 193.508 44.9536ZM194.865 44.752L194.875 44.7412H194.929C195.177 44.7532 195.483 44.7544 195.847 44.7448C195.934 44.7424 195.982 44.7496 195.991 44.7664C195.994 44.7736 195.99 44.8012 195.981 44.8492C195.966 44.8972 195.957 44.9248 195.952 44.932L195.941 44.9428H195.797C195.641 44.9452 195.552 44.956 195.531 44.9752C195.523 44.98 195.437 45.316 195.271 45.9832C195.106 46.6456 195.023 46.9804 195.023 46.9876C195.023 46.9924 195.03 46.9948 195.045 46.9948H195.426C195.553 46.9804 195.667 46.9372 195.768 46.8652C195.823 46.8268 195.868 46.7836 195.901 46.7356C195.976 46.6372 196.047 46.4884 196.114 46.2892C196.138 46.2268 196.153 46.1932 196.161 46.1884C196.168 46.1836 196.195 46.1812 196.243 46.1812C196.291 46.1812 196.318 46.1836 196.323 46.1884C196.337 46.1932 196.344 46.204 196.344 46.2208L196.013 47.182C196.008 47.1916 195.973 47.1964 195.909 47.1964C195.839 47.1988 195.581 47.2 195.135 47.2H194.281L194.267 47.1892C194.26 47.1772 194.256 47.1676 194.256 47.1604C194.256 47.122 194.268 47.0752 194.292 47.02C194.321 47.0056 194.367 46.9984 194.429 46.9984C194.537 46.996 194.598 46.9912 194.613 46.984C194.625 46.9768 194.634 46.9624 194.641 46.9408C194.658 46.8928 194.741 46.5688 194.89 45.9688C195.055 45.3064 195.138 44.9728 195.138 44.968C195.138 44.9608 195.136 44.9572 195.131 44.9572C195.117 44.9524 195.06 44.9476 194.962 44.9428C194.878 44.9428 194.831 44.9344 194.821 44.9176C194.819 44.9104 194.823 44.8828 194.832 44.8348C194.844 44.7892 194.855 44.7616 194.865 44.752Z" fill="#A9A6A7"/>
<path d="M122.276 41.976L122.402 41.97H122.408C122.76 41.97 123.034 42.098 123.23 42.354C123.258 42.398 123.274 42.42 123.278 42.42L123.506 42.198L123.734 41.97H123.782C123.834 41.97 123.864 41.982 123.872 42.006C123.876 42.014 123.81 42.298 123.674 42.858C123.53 43.434 123.458 43.716 123.458 43.704C123.45 43.728 123.394 43.74 123.29 43.74H123.164L123.146 43.722C123.13 43.706 123.126 43.67 123.134 43.614C123.166 43.406 123.172 43.208 123.152 43.02C123.108 42.628 122.954 42.396 122.69 42.324C122.654 42.316 122.598 42.312 122.522 42.312C122.374 42.308 122.218 42.332 122.054 42.384C121.858 42.448 121.682 42.544 121.526 42.672C121.17 42.944 120.906 43.378 120.734 43.974C120.626 44.37 120.572 44.696 120.572 44.952C120.572 45.136 120.596 45.29 120.644 45.414C120.748 45.686 120.944 45.864 121.232 45.948C121.26 45.956 121.288 45.962 121.316 45.966C121.696 46.046 122.042 45.934 122.354 45.63C122.586 45.39 122.754 45.098 122.858 44.754C122.878 44.686 122.898 44.65 122.918 44.646C122.93 44.642 122.97 44.64 123.038 44.64C123.138 44.64 123.194 44.652 123.206 44.676C123.21 44.692 123.206 44.72 123.194 44.76C123.062 45.24 122.8 45.634 122.408 45.942C122.296 46.03 122.178 46.104 122.054 46.164C121.806 46.28 121.558 46.336 121.31 46.332C121.138 46.328 120.97 46.292 120.806 46.224C120.534 46.12 120.322 45.946 120.17 45.702C120.03 45.494 119.944 45.248 119.912 44.964C119.896 44.864 119.894 44.724 119.906 44.544C119.91 44.524 119.912 44.508 119.912 44.496C119.96 44.048 120.116 43.622 120.38 43.218C120.46 43.106 120.53 43.014 120.59 42.942C120.698 42.81 120.832 42.676 120.992 42.54C121.4 42.208 121.828 42.02 122.276 41.976Z" fill="#A9A6A7"/>
<path d="M224.592 43.548C224.728 43.52 224.83 43.582 224.898 43.734C224.91 43.762 224.92 43.79 224.928 43.818C224.936 43.854 224.94 43.92 224.94 44.016C224.94 44.176 224.904 44.398 224.832 44.682C224.72 45.142 224.576 45.512 224.4 45.792C224.3 45.936 224.198 46.048 224.094 46.128C224.01 46.188 223.926 46.228 223.842 46.248C223.806 46.256 223.748 46.26 223.668 46.26C223.548 46.26 223.438 46.246 223.338 46.218C223.002 46.102 222.846 45.842 222.87 45.438C222.882 45.246 222.98 44.9 223.164 44.4C223.236 44.188 223.276 44.052 223.284 43.992C223.304 43.9 223.294 43.848 223.254 43.836C223.206 43.82 223.15 43.83 223.086 43.866C223.002 43.918 222.936 44 222.888 44.112C222.848 44.184 222.804 44.306 222.756 44.478C222.744 44.502 222.736 44.516 222.732 44.52C222.724 44.528 222.676 44.532 222.588 44.532H222.456L222.438 44.514C222.426 44.502 222.42 44.486 222.42 44.466C222.428 44.402 222.462 44.302 222.522 44.166C222.594 44.014 222.684 43.88 222.792 43.764C222.872 43.688 222.952 43.632 223.032 43.596C223.096 43.568 223.174 43.554 223.266 43.554C223.366 43.554 223.452 43.572 223.524 43.608C223.576 43.636 223.616 43.666 223.644 43.698C223.676 43.726 223.706 43.766 223.734 43.818C223.77 43.894 223.786 43.974 223.782 44.058C223.782 44.138 223.756 44.248 223.704 44.388C223.7 44.408 223.692 44.432 223.68 44.46C223.612 44.652 223.57 44.768 223.554 44.808C223.402 45.26 223.36 45.582 223.428 45.774C223.472 45.918 223.574 45.988 223.734 45.984C223.754 45.984 223.774 45.982 223.794 45.978C223.874 45.966 223.952 45.922 224.028 45.846C224.188 45.686 224.334 45.338 224.466 44.802C224.502 44.646 224.516 44.532 224.508 44.46C224.492 44.32 224.438 44.204 224.346 44.112C224.314 44.08 224.292 44.05 224.28 44.022C224.268 43.998 224.262 43.962 224.262 43.914C224.262 43.866 224.266 43.83 224.274 43.806C224.318 43.706 224.384 43.634 224.472 43.59C224.504 43.57 224.544 43.556 224.592 43.548ZM226.005 45.6124C226.01 45.61 226.035 45.6088 226.081 45.6088C226.146 45.6112 226.203 45.6208 226.254 45.6376C226.453 45.7048 226.577 45.85 226.625 46.0732C226.629 46.102 226.632 46.1476 226.632 46.21C226.634 46.2892 226.627 46.3612 226.61 46.426C226.577 46.5604 226.519 46.6852 226.437 46.8004C226.289 47.0092 226.103 47.146 225.879 47.2108C225.819 47.2276 225.761 47.2372 225.703 47.2396C225.497 47.2468 225.338 47.1724 225.228 47.0164C225.213 46.9996 225.201 46.9816 225.192 46.9624C225.077 46.756 225.08 46.5136 225.203 46.2352C225.26 46.1104 225.337 46 225.433 45.904C225.524 45.8128 225.619 45.7444 225.717 45.6988C225.813 45.6508 225.909 45.622 226.005 45.6124ZM226.117 45.7852C226.067 45.778 226.026 45.7768 225.995 45.7816C225.877 45.8032 225.78 45.8608 225.703 45.9544C225.633 46.0384 225.573 46.1788 225.523 46.3756C225.518 46.3924 225.513 46.4092 225.509 46.426C225.47 46.5844 225.451 46.702 225.451 46.7788C225.451 46.8292 225.453 46.8628 225.458 46.8796C225.487 46.9924 225.557 47.0548 225.667 47.0668C225.715 47.0716 225.765 47.0656 225.818 47.0488C225.945 47.008 226.046 46.9156 226.121 46.7716C226.161 46.6972 226.202 46.5748 226.243 46.4044C226.296 46.1956 226.31 46.0468 226.286 45.958C226.262 45.8692 226.206 45.8116 226.117 45.7852ZM227.398 45.616C227.414 45.6112 227.441 45.6088 227.477 45.6088C227.532 45.6112 227.58 45.6232 227.621 45.6448C227.652 45.6616 227.676 45.6796 227.693 45.6988C227.712 45.7156 227.73 45.7396 227.747 45.7708C227.768 45.8164 227.778 45.8644 227.776 45.9148C227.776 45.9628 227.76 46.0288 227.729 46.1128C227.726 46.1248 227.722 46.1392 227.714 46.156C227.597 46.4824 227.538 46.7056 227.538 46.8256C227.538 46.8352 227.538 46.8436 227.538 46.8508C227.54 46.9324 227.56 46.9924 227.596 47.0308C227.622 47.0548 227.658 47.0668 227.704 47.0668C227.752 47.0668 227.794 47.0572 227.83 47.038C227.892 47.0068 227.946 46.9564 227.992 46.8868L228.013 46.8508L228.146 46.318C228.24 45.946 228.294 45.7492 228.308 45.7276C228.311 45.7228 228.317 45.7156 228.326 45.706C228.379 45.6532 228.439 45.6352 228.506 45.652C228.564 45.6712 228.595 45.7084 228.6 45.7636C228.6 45.7828 228.557 45.9676 228.47 46.318C228.386 46.6468 228.34 46.8364 228.33 46.8868C228.32 46.954 228.319 47.0008 228.326 47.0272C228.331 47.0368 228.337 47.0464 228.344 47.056C228.352 47.0608 228.364 47.0656 228.38 47.0704C228.395 47.0704 228.407 47.0668 228.416 47.0596C228.467 47.0284 228.515 46.918 228.56 46.7284C228.575 46.6804 228.587 46.6552 228.596 46.6528C228.604 46.6504 228.63 46.6492 228.676 46.6492C228.728 46.6492 228.758 46.6516 228.766 46.6564C228.77 46.6612 228.773 46.6708 228.773 46.6852C228.773 46.7188 228.754 46.7872 228.715 46.8904C228.686 46.9696 228.656 47.0308 228.625 47.074C228.558 47.1772 228.474 47.2324 228.373 47.2396C228.251 47.2444 228.154 47.2024 228.082 47.1136L228.056 47.0812C228.052 47.074 228.049 47.0692 228.049 47.0668L228.024 47.092C227.935 47.1736 227.838 47.2216 227.732 47.236C227.629 47.248 227.536 47.2348 227.452 47.1964C227.334 47.146 227.261 47.0512 227.232 46.912C227.222 46.8496 227.222 46.7752 227.232 46.6888C227.234 46.6816 227.236 46.6756 227.236 46.6708C227.255 46.5508 227.311 46.3672 227.405 46.12C227.448 45.9928 227.472 45.9112 227.477 45.8752C227.489 45.82 227.483 45.7888 227.459 45.7816C227.43 45.772 227.396 45.778 227.358 45.7996C227.308 45.8308 227.268 45.88 227.239 45.9472C227.215 45.9904 227.189 46.0636 227.16 46.1668C227.153 46.1812 227.148 46.1896 227.146 46.192C227.141 46.1968 227.112 46.1992 227.059 46.1992H226.98L226.969 46.1884C226.962 46.1812 226.958 46.1716 226.958 46.1596C226.963 46.1212 226.984 46.0612 227.02 45.9796C227.048 45.9172 227.078 45.8656 227.11 45.8248C227.141 45.7816 227.18 45.7384 227.228 45.6952C227.281 45.6544 227.338 45.628 227.398 45.616ZM229.713 44.9536C229.746 44.9416 229.781 44.9428 229.817 44.9572C229.848 44.9692 229.871 44.9896 229.886 45.0184C229.898 45.0448 229.894 45.0952 229.875 45.1696C229.868 45.2008 229.852 45.2668 229.828 45.3676C229.778 45.5524 229.754 45.6436 229.756 45.6412C229.756 45.646 229.808 45.6484 229.911 45.6484H230.066L230.076 45.6592C230.091 45.6688 230.091 45.7 230.076 45.7528C230.069 45.7888 230.062 45.814 230.055 45.8284C230.048 45.8404 230.025 45.8476 229.986 45.85C229.97 45.85 229.93 45.85 229.868 45.85H229.706L229.702 45.8644C229.541 46.4908 229.457 46.8316 229.45 46.8868C229.445 46.9156 229.443 46.942 229.443 46.966C229.443 47.0332 229.462 47.068 229.5 47.0704C229.515 47.0704 229.532 47.068 229.551 47.0632C229.584 47.0608 229.62 47.044 229.659 47.0128C229.743 46.948 229.812 46.8436 229.868 46.6996C229.88 46.6708 229.893 46.6552 229.907 46.6528C229.914 46.6504 229.938 46.6492 229.979 46.6492C230.032 46.6492 230.061 46.6516 230.066 46.6564C230.08 46.6684 230.08 46.6924 230.066 46.7284C230.02 46.8388 229.966 46.93 229.904 47.002C229.808 47.1244 229.697 47.2 229.572 47.2288C229.553 47.2336 229.522 47.236 229.479 47.236C229.436 47.236 229.406 47.2336 229.389 47.2288C229.322 47.2096 229.268 47.1808 229.227 47.1424C229.188 47.104 229.161 47.0572 229.144 47.002C229.139 46.9828 229.137 46.9504 229.137 46.9048V46.8364L229.259 46.3468C229.341 46.0252 229.382 45.8608 229.382 45.8536C229.382 45.8512 229.331 45.85 229.23 45.85C229.125 45.85 229.067 45.8416 229.058 45.8248C229.053 45.8176 229.055 45.7912 229.065 45.7456C229.079 45.6976 229.088 45.6724 229.09 45.67C229.097 45.6556 229.122 45.6484 229.166 45.6484C229.182 45.6484 229.218 45.6484 229.274 45.6484H229.436L229.504 45.3676C229.55 45.1828 229.578 45.0784 229.59 45.0544C229.612 45.0064 229.653 44.9728 229.713 44.9536Z" fill="#A9A6A7"/>
<path d="M226.632 37.3H225.584V38.36H225.296V37.3H224.248V37.028H225.296V35.968H225.584V37.028H226.632V37.3Z" fill="#A9A6A7"/>
<line x1="224" y1="53.05" x2="227" y2="53.05" stroke="#A9A6A7" stroke-width="0.3"/>
</svg>
