<svg width="218" height="62" viewBox="0 0 218 62" fill="none" xmlns="http://www.w3.org/2000/svg">
<g clip-path="url(#clip0_157_1100)">
<line x1="56" y1="12.75" x2="56.9381" y2="12.75" stroke="#A9A6A7" stroke-width="0.5"/>
<path d="M62.6349 9.75C60.4065 9.75 59.5706 15.75 61.2451 15.75" stroke="#A9A6A7" stroke-width="0.5"/>
<path d="M59.8046 9.75C62.033 9.75 62.8688 15.75 61.1944 15.75" stroke="#A9A6A7" stroke-width="0.5"/>
<path d="M65.4145 9.75C63.1861 9.75 62.3502 15.75 64.0247 15.75" stroke="#A9A6A7" stroke-width="0.5"/>
<path d="M62.5842 9.75C64.8126 9.75 65.6484 15.75 63.974 15.75" stroke="#A9A6A7" stroke-width="0.5"/>
<path d="M68.1941 9.75C65.9657 9.75 65.1298 15.75 66.8043 15.75" stroke="#A9A6A7" stroke-width="0.5"/>
<path d="M65.3637 9.75C67.5921 9.75 68.428 15.75 66.7535 15.75" stroke="#A9A6A7" stroke-width="0.5"/>
<path d="M59.8046 9.75C57.5762 9.75 58.8838 12.75 56.9381 12.75" stroke="#A9A6A7" stroke-width="0.5"/>
<line y1="-0.25" x2="0.938111" y2="-0.25" transform="matrix(-1 0 0 1 72 13)" stroke="#A9A6A7" stroke-width="0.5"/>
<path d="M68.1954 9.75C70.4238 9.75 69.1162 12.75 71.0619 12.75" stroke="#A9A6A7" stroke-width="0.5"/>
<path d="M91.2171 9L92.7781 15L94.3391 9" stroke="#A9A6A7" stroke-width="0.5" stroke-linecap="round"/>
<path d="M100.583 9L101.363 12L101.559 12.75" stroke="#A9A6A7" stroke-width="0.5" stroke-linecap="round"/>
<path d="M91.2171 9L90.4366 12L90.2415 12.75" stroke="#A9A6A7" stroke-width="0.5" stroke-linecap="round"/>
<path d="M90.2415 12.75H88.3683H87.9001" stroke="#A9A6A7" stroke-width="0.5" stroke-linecap="round"/>
<path d="M103.9 12.75H102.027H101.559" stroke="#A9A6A7" stroke-width="0.5" stroke-linecap="round"/>
<path d="M97.461 9L99.022 15L100.583 9" stroke="#A9A6A7" stroke-width="0.5" stroke-linecap="round"/>
<path d="M94.3391 9L95.9 15L97.461 9" stroke="#A9A6A7" stroke-width="0.5" stroke-linecap="round"/>
<path d="M120 39.35V32.85" stroke="#A9A6A7" stroke-width="0.5"/>
<path d="M124 32.85H120H116" stroke="#A9A6A7" stroke-width="0.5"/>
<path d="M124 29.85H116" stroke="#A9A6A7" stroke-width="0.5"/>
<path d="M120 23.35V29.85" stroke="#A9A6A7" stroke-width="0.5"/>
<rect x="187.283" y="31.35" width="9.5" height="9.5" transform="rotate(-45 187.283 31.35)" stroke="#A9A6A7" stroke-width="0.5"/>
<path d="M193.823 34.5268C193.92 34.6244 194.079 34.6244 194.176 34.5268L195.767 32.9358C195.865 32.8382 195.865 32.6799 195.767 32.5822C195.67 32.4846 195.511 32.4846 195.414 32.5822L194 33.9965L192.585 32.5822C192.488 32.4846 192.329 32.4846 192.232 32.5822C192.134 32.6799 192.134 32.8382 192.232 32.9358L193.823 34.5268ZM193.75 28.35V34.35H194.25V28.35H193.75Z" fill="#A9A6A7"/>
<path d="M194 22.85V24.85" stroke="#A9A6A7" stroke-width="0.5"/>
<path d="M194 37.85V39.85" stroke="#A9A6A7" stroke-width="0.5"/>
<path d="M39.3672 50.35C39.3672 51.0864 39.9642 51.6833 40.7006 51.6833C41.437 51.6833 42.0339 51.0864 42.0339 50.35C42.0339 49.6136 41.437 49.0167 40.7006 49.0167C39.9642 49.0167 39.3672 49.6136 39.3672 50.35ZM3.70001 50.6H40.7006V50.1H3.70001V50.6Z" fill="#A9A6A7"/>
<path d="M118.667 50.35C118.667 51.0864 119.264 51.6833 120 51.6833C120.736 51.6833 121.333 51.0864 121.333 50.35C121.333 49.6136 120.736 49.0167 120 49.0167C119.264 49.0167 118.667 49.6136 118.667 50.35ZM41 50.6H120V50.1H41V50.6Z" fill="#A9A6A7"/>
<path d="M155.667 50.35C155.667 51.0864 156.264 51.6833 157 51.6833C157.736 51.6833 158.333 51.0864 158.333 50.35C158.333 49.6136 157.736 49.0167 157 49.0167C156.264 49.0167 155.667 49.6136 155.667 50.35ZM120 50.6L157 50.6V50.1L120 50.1V50.6Z" fill="#A9A6A7"/>
<path d="M192.667 50.35C192.667 51.0864 193.264 51.6833 194 51.6833C194.736 51.6833 195.333 51.0864 195.333 50.35C195.333 49.6136 194.736 49.0167 194 49.0167C193.264 49.0167 192.667 49.6136 192.667 50.35ZM157 50.6L194 50.6V50.1L157 50.1V50.6Z" fill="#A9A6A7"/>
<path d="M43.6 33.8155H37.6" stroke="#A9A6A7" stroke-width="0.5"/>
<path d="M43.6 28.8293H37.6" stroke="#A9A6A7" stroke-width="0.5"/>
<path d="M43.6 33.8293L40.6 28.6332" stroke="#A9A6A7" stroke-width="0.5"/>
<path d="M37.6 33.8293L40.6 28.6332" stroke="#A9A6A7" stroke-width="0.5"/>
<path d="M40.6 33.8707V35.8707" stroke="#A9A6A7" stroke-width="0.5"/>
<path d="M40.6 26.8293V28.8293" stroke="#A9A6A7" stroke-width="0.5"/>
<path d="M40.6 50.35V35.35" stroke="#A9A6A7" stroke-width="0.5"/>
<path d="M40.6 27.35V12.35" stroke="#A9A6A7" stroke-width="0.5"/>
<path d="M43.6 33.8155H37.6" stroke="#A9A6A7" stroke-width="0.5"/>
<path d="M43.6 28.8293H37.6" stroke="#A9A6A7" stroke-width="0.5"/>
<path d="M43.6 33.8293L40.6 28.6332" stroke="#A9A6A7" stroke-width="0.5"/>
<path d="M37.6 33.8293L40.6 28.6332" stroke="#A9A6A7" stroke-width="0.5"/>
<path d="M40.6 33.8707V35.8707" stroke="#A9A6A7" stroke-width="0.5"/>
<path d="M40.6 26.8293V28.8293" stroke="#A9A6A7" stroke-width="0.5"/>
<path d="M40.6 50.35V35.35" stroke="#A9A6A7" stroke-width="0.5"/>
<path d="M40.6 27.35V12.35" stroke="#A9A6A7" stroke-width="0.5"/>
<path d="M120 50.35V35.35" stroke="#A9A6A7" stroke-width="0.5"/>
<path d="M120 27.35V12.35" stroke="#A9A6A7" stroke-width="0.5"/>
<path d="M153.25 36.0329L159.25 34.472L153.25 32.911" stroke="#A9A6A7" stroke-width="0.5" stroke-linecap="round"/>
<path d="M153.25 26.6671L156.25 25.8866L157 25.6915" stroke="#A9A6A7" stroke-width="0.5" stroke-linecap="round"/>
<path d="M153.25 36.0329L156.25 36.8134L157 37.0085" stroke="#A9A6A7" stroke-width="0.5" stroke-linecap="round"/>
<path d="M157 37.0085V38.8817V39.35" stroke="#A9A6A7" stroke-width="0.5" stroke-linecap="round"/>
<path d="M157 23.35V25.2232V25.6915" stroke="#A9A6A7" stroke-width="0.5" stroke-linecap="round"/>
<path d="M153.25 29.789L159.25 28.2281L153.25 26.6671" stroke="#A9A6A7" stroke-width="0.5" stroke-linecap="round"/>
<path d="M153.25 32.911L159.25 31.35L153.25 29.789" stroke="#A9A6A7" stroke-width="0.5" stroke-linecap="round"/>
<path d="M157 50.35V38.35" stroke="#A9A6A7" stroke-width="0.5"/>
<path d="M157 25.35V12.35" stroke="#A9A6A7" stroke-width="0.5"/>
<path d="M194 24.35V12.35" stroke="#A9A6A7" stroke-width="0.5"/>
<path d="M194 50.35V38.35" stroke="#A9A6A7" stroke-width="0.5"/>
<path d="M155.667 12.79C155.667 13.5264 156.264 14.1233 157 14.1233C157.736 14.1233 158.333 13.5264 158.333 12.79C158.333 12.0536 157.736 11.4567 157 11.4567C156.264 11.4567 155.667 12.0536 155.667 12.79ZM120 13.04H157V12.54H120V13.04Z" fill="#A9A6A7"/>
<path d="M192.667 12.797C192.667 13.5334 193.264 14.1303 194 14.1303C194.736 14.1303 195.333 13.5334 195.333 12.797C195.333 12.0606 194.736 11.4637 194 11.4637C193.264 11.4637 192.667 12.0606 192.667 12.797ZM157 13.047H194V12.547H157V13.047Z" fill="#A9A6A7"/>
<path d="M193.997 12.8H213.003" stroke="#A9A6A7" stroke-width="0.5"/>
<path d="M194 50.35H213.005" stroke="#A9A6A7" stroke-width="0.5"/>
<path d="M40.6 12.75H56.6" stroke="#A9A6A7" stroke-width="0.5"/>
<path d="M72 12.75H88" stroke="#A9A6A7" stroke-width="0.5"/>
<path d="M118.667 12.75C118.667 13.4864 119.264 14.0833 120 14.0833C120.736 14.0833 121.333 13.4864 121.333 12.75C121.333 12.0136 120.736 11.4167 120 11.4167C119.264 11.4167 118.667 12.0136 118.667 12.75ZM104 13H120V12.5H104V13Z" fill="#A9A6A7"/>
<path d="M3.77078 12.8498C3.77078 13.5401 3.21114 14.0998 2.52078 14.0998C1.83043 14.0998 1.27078 13.5401 1.27078 12.8498C1.27078 12.1594 1.83043 11.5998 2.52078 11.5998C3.21114 11.5998 3.77078 12.1594 3.77078 12.8498Z" stroke="#A9A6A7" stroke-width="0.5"/>
<path d="M3.74999 50.35C3.74999 51.0404 3.19035 51.6 2.49999 51.6C1.80964 51.6 1.24999 51.0404 1.24999 50.35C1.24999 49.6597 1.80964 49.1 2.49999 49.1C3.19035 49.1 3.74999 49.6597 3.74999 50.35Z" stroke="#A9A6A7" stroke-width="0.5"/>
<path d="M215.75 12.85C215.75 13.5404 215.19 14.1 214.5 14.1C213.81 14.1 213.25 13.5404 213.25 12.85C213.25 12.1597 213.81 11.6 214.5 11.6C215.19 11.6 215.75 12.1597 215.75 12.85Z" stroke="#A9A6A7" stroke-width="0.5"/>
<path d="M215.75 50.35C215.75 51.0404 215.19 51.6 214.5 51.6C213.81 51.6 213.25 51.0404 213.25 50.35C213.25 49.6597 213.81 49.1 214.5 49.1C215.19 49.1 215.75 49.6597 215.75 50.35Z" stroke="#A9A6A7" stroke-width="0.5"/>
<path d="M2.592 30.698C2.728 30.67 2.83 30.732 2.898 30.884C2.91 30.912 2.92 30.94 2.928 30.968C2.936 31.004 2.94 31.07 2.94 31.166C2.94 31.326 2.904 31.548 2.832 31.832C2.72 32.292 2.576 32.662 2.4 32.942C2.3 33.086 2.198 33.198 2.094 33.278C2.01 33.338 1.926 33.378 1.842 33.398C1.806 33.406 1.748 33.41 1.668 33.41C1.548 33.41 1.438 33.396 1.338 33.368C1.002 33.252 0.846 32.992 0.87 32.588C0.882 32.396 0.98 32.05 1.164 31.55C1.236 31.338 1.276 31.202 1.284 31.142C1.304 31.05 1.294 30.998 1.254 30.986C1.206 30.97 1.15 30.98 1.086 31.016C1.002 31.068 0.936 31.15 0.888 31.262C0.848 31.334 0.804 31.456 0.756 31.628C0.744 31.652 0.736 31.666 0.732 31.67C0.724 31.678 0.676 31.682 0.588 31.682H0.456L0.438 31.664C0.426 31.652 0.42 31.636 0.42 31.616C0.428 31.552 0.462 31.452 0.522 31.316C0.594 31.164 0.684 31.03 0.792 30.914C0.872 30.838 0.952 30.782 1.032 30.746C1.096 30.718 1.174 30.704 1.266 30.704C1.366 30.704 1.452 30.722 1.524 30.758C1.576 30.786 1.616 30.816 1.644 30.848C1.676 30.876 1.706 30.916 1.734 30.968C1.77 31.044 1.786 31.124 1.782 31.208C1.782 31.288 1.756 31.398 1.704 31.538C1.7 31.558 1.692 31.582 1.68 31.61C1.612 31.802 1.57 31.918 1.554 31.958C1.402 32.41 1.36 32.732 1.428 32.924C1.472 33.068 1.574 33.138 1.734 33.134C1.754 33.134 1.774 33.132 1.794 33.128C1.874 33.116 1.952 33.072 2.028 32.996C2.188 32.836 2.334 32.488 2.466 31.952C2.502 31.796 2.516 31.682 2.508 31.61C2.492 31.47 2.438 31.354 2.346 31.262C2.314 31.23 2.292 31.2 2.28 31.172C2.268 31.148 2.262 31.112 2.262 31.064C2.262 31.016 2.266 30.98 2.274 30.956C2.318 30.856 2.384 30.784 2.472 30.74C2.504 30.72 2.544 30.706 2.592 30.698ZM3.76057 31.9956C3.84697 31.974 3.90937 31.9956 3.94777 32.0604C3.95977 32.082 3.96697 32.106 3.96937 32.1324C3.96937 32.1684 3.96097 32.2032 3.94417 32.2368C3.88897 32.3136 3.81937 32.358 3.73537 32.37C3.70897 32.37 3.68137 32.3628 3.65257 32.3484C3.62857 32.3364 3.60937 32.3148 3.59497 32.2836C3.58777 32.274 3.58297 32.2548 3.58057 32.226C3.58057 32.1876 3.58777 32.154 3.60217 32.1252C3.63577 32.058 3.68857 32.0148 3.76057 31.9956ZM3.45097 32.766C3.46777 32.7612 3.49417 32.7588 3.53017 32.7588C3.58537 32.7612 3.63337 32.7732 3.67417 32.7948C3.70537 32.8116 3.72937 32.8296 3.74617 32.8488C3.76537 32.8656 3.78337 32.8896 3.80017 32.9208C3.82177 32.9664 3.83137 33.0144 3.82897 33.0648C3.82897 33.1056 3.82657 33.1344 3.82177 33.1512C3.81937 33.156 3.76537 33.306 3.65977 33.6012C3.55897 33.87 3.50497 34.0188 3.49777 34.0476C3.47377 34.1268 3.47017 34.1796 3.48697 34.206C3.49897 34.2204 3.52417 34.2228 3.56257 34.2132C3.65617 34.1916 3.73177 34.0752 3.78937 33.864C3.80137 33.8256 3.81337 33.8052 3.82537 33.8028C3.83257 33.8004 3.85777 33.7992 3.90097 33.7992C3.95377 33.7992 3.98257 33.8016 3.98737 33.8064C4.00177 33.816 4.00177 33.8412 3.98737 33.882C3.96097 33.9756 3.92137 34.0632 3.86857 34.1448C3.77257 34.2888 3.66337 34.3692 3.54097 34.386C3.49777 34.3956 3.45337 34.3932 3.40777 34.3788C3.35977 34.3644 3.32017 34.3464 3.28897 34.3248C3.23617 34.2816 3.20137 34.2204 3.18457 34.1412C3.17497 34.0956 3.17737 34.0476 3.19177 33.9972C3.19657 33.978 3.24937 33.8304 3.35017 33.5544C3.43657 33.324 3.49177 33.1728 3.51577 33.1008C3.53977 33.0264 3.54337 32.9748 3.52657 32.946C3.51937 32.9268 3.49417 32.9232 3.45097 32.9352C3.37897 32.952 3.31537 33.0276 3.26017 33.162C3.22897 33.27 3.21337 33.3216 3.21337 33.3168C3.20617 33.3312 3.20137 33.3396 3.19897 33.342C3.19417 33.3468 3.16537 33.3492 3.11257 33.3492H3.03337L3.02257 33.3384C3.01537 33.3312 3.01177 33.3216 3.01177 33.3096C3.01657 33.2712 3.03697 33.2112 3.07297 33.1296C3.10177 33.0672 3.13177 33.0156 3.16297 32.9748C3.19417 32.9316 3.23377 32.8884 3.28177 32.8452C3.33457 32.8044 3.39097 32.778 3.45097 32.766ZM4.58367 32.766C4.62447 32.754 4.67607 32.7552 4.73847 32.7696C4.79607 32.784 4.84527 32.8104 4.88607 32.8488C4.92207 32.8848 4.94607 32.9196 4.95807 32.9532L4.97247 32.982L5.00127 32.9568C5.10447 32.8536 5.22207 32.7912 5.35407 32.7696C5.44047 32.7528 5.51967 32.754 5.59167 32.7732C5.68527 32.7924 5.75607 32.8332 5.80407 32.8956C5.83047 32.9292 5.85207 32.9736 5.86887 33.0288C5.87367 33.0504 5.87607 33.09 5.87607 33.1476C5.87607 33.21 5.87487 33.2496 5.87247 33.2664C5.84607 33.4032 5.78127 33.6156 5.67807 33.9036C5.63967 34.0068 5.61687 34.0776 5.60967 34.116C5.60247 34.176 5.60967 34.2096 5.63127 34.2168C5.66007 34.2264 5.69367 34.2204 5.73207 34.1988C5.80647 34.1532 5.86887 34.0416 5.91927 33.864C5.93127 33.8256 5.94327 33.8052 5.95527 33.8028C5.96247 33.8004 5.98767 33.7992 6.03087 33.7992C6.08367 33.7992 6.11247 33.8016 6.11727 33.8064C6.13167 33.816 6.13167 33.8412 6.11727 33.882C6.09087 33.9756 6.05127 34.0632 5.99847 34.1448C5.90247 34.2888 5.79327 34.3692 5.67087 34.386C5.62767 34.3956 5.58327 34.3932 5.53767 34.3788C5.46807 34.3644 5.41527 34.332 5.37927 34.2816C5.33367 34.2264 5.31087 34.1616 5.31087 34.0872C5.31087 34.0416 5.32887 33.9672 5.36487 33.864C5.48247 33.5472 5.54847 33.3228 5.56287 33.1908C5.57247 33.1332 5.57127 33.0792 5.55927 33.0288C5.54247 32.9808 5.51847 32.9508 5.48727 32.9388C5.46327 32.9268 5.42607 32.9244 5.37567 32.9316C5.21727 32.9556 5.08047 33.0756 4.96527 33.2916L4.93647 33.342L4.82127 33.7992C4.74447 34.1088 4.70247 34.2696 4.69527 34.2816C4.66407 34.344 4.61247 34.38 4.54047 34.3896C4.52127 34.392 4.50327 34.3908 4.48647 34.386C4.42647 34.3692 4.39407 34.332 4.38927 34.2744C4.38927 34.2528 4.43487 34.0584 4.52607 33.6912C4.61967 33.3288 4.66887 33.1308 4.67367 33.0972C4.68087 33.0348 4.67847 32.9892 4.66647 32.9604C4.65687 32.9436 4.64127 32.9328 4.61967 32.928C4.60527 32.928 4.59327 32.9316 4.58367 32.9388C4.54767 32.9604 4.51407 33.0192 4.48287 33.1152C4.47087 33.1488 4.45167 33.216 4.42527 33.3168C4.41807 33.3312 4.41327 33.3396 4.41087 33.342C4.40607 33.3468 4.37727 33.3492 4.32447 33.3492H4.24527L4.23447 33.3384C4.22727 33.3312 4.22367 33.3216 4.22367 33.3096L4.24527 33.2268C4.30527 33.018 4.38207 32.88 4.47567 32.8128C4.51407 32.7888 4.55007 32.7732 4.58367 32.766Z" fill="#A9A6A7"/>
<path d="M31.32 29.27L31.338 29.252H32.406C33.13 29.252 33.506 29.254 33.534 29.258C33.942 29.298 34.248 29.504 34.452 29.876C34.56 30.072 34.624 30.296 34.644 30.548C34.656 30.672 34.654 30.82 34.638 30.992C34.562 31.628 34.296 32.178 33.84 32.642C33.788 32.698 33.734 32.75 33.678 32.798C33.346 33.094 32.984 33.274 32.592 33.338C32.556 33.342 32.172 33.346 31.44 33.35C30.708 33.35 30.336 33.344 30.324 33.332C30.32 33.332 30.316 33.324 30.312 33.308C30.304 33.296 30.31 33.25 30.33 33.17C30.35 33.086 30.366 33.04 30.378 33.032L30.396 33.014H30.588C30.772 33.01 30.876 33.002 30.9 32.99C30.92 32.978 30.936 32.954 30.948 32.918C30.976 32.838 31.114 32.298 31.362 31.298C31.638 30.194 31.776 29.638 31.776 29.63C31.776 29.618 31.772 29.612 31.764 29.612C31.74 29.604 31.646 29.596 31.482 29.588C31.342 29.588 31.264 29.574 31.248 29.546C31.244 29.534 31.25 29.488 31.266 29.408C31.286 29.332 31.304 29.286 31.32 29.27ZM33.264 29.594H32.502C32.446 29.598 32.416 29.608 32.412 29.624L31.566 32.99C31.566 33.002 31.582 33.008 31.614 33.008C31.626 33.012 31.768 33.014 32.04 33.014C32.3 33.01 32.454 33.004 32.502 32.996C32.882 32.928 33.192 32.738 33.432 32.426C33.576 32.238 33.698 31.974 33.798 31.634C33.89 31.306 33.95 31.048 33.978 30.86C34.054 30.436 34.012 30.118 33.852 29.906C33.716 29.73 33.52 29.626 33.264 29.594Z" fill="#A9A6A7"/>
<path d="M4.632 24.45H3.584V25.51H3.296V24.45H2.248V24.178H3.296V23.118H3.584V24.178H4.632V24.45Z" fill="#A9A6A7"/>
<line x1="2" y1="40.2" x2="5" y2="40.2" stroke="#A9A6A7" stroke-width="0.3"/>
<path d="M94.32 1.27001L94.338 1.25201H95.304L96.276 1.25801L96.36 1.27001C96.624 1.31001 96.836 1.40001 96.996 1.54001C97.156 1.66801 97.254 1.83201 97.29 2.03201C97.306 2.14001 97.302 2.24801 97.278 2.35601C97.21 2.64001 97.016 2.89001 96.696 3.10601C96.564 3.19001 96.426 3.25801 96.282 3.31001C96.25 3.32601 96.232 3.33401 96.228 3.33401L96.276 3.38201C96.36 3.45001 96.432 3.54001 96.492 3.65201C96.536 3.75601 96.56 3.86001 96.564 3.96401C96.564 4.04801 96.552 4.19001 96.528 4.39001C96.508 4.59001 96.498 4.74601 96.498 4.85801C96.498 4.95401 96.502 5.01601 96.51 5.04401C96.534 5.13201 96.596 5.18401 96.696 5.20001C96.748 5.20001 96.79 5.18601 96.822 5.15801C96.882 5.11801 96.938 5.00801 96.99 4.82801C97.006 4.76801 97.028 4.73401 97.056 4.72601C97.072 4.72201 97.112 4.72001 97.176 4.72001C97.26 4.72001 97.31 4.73001 97.326 4.75001C97.342 4.77001 97.338 4.81401 97.314 4.88201C97.214 5.17801 97.058 5.36801 96.846 5.45201C96.818 5.46401 96.79 5.47201 96.762 5.47601C96.734 5.48001 96.684 5.48201 96.612 5.48201C96.2 5.46201 95.936 5.33201 95.82 5.09201C95.788 5.03201 95.77 4.95401 95.766 4.85801C95.766 4.78201 95.768 4.73401 95.772 4.71401C95.792 4.62201 95.82 4.49801 95.856 4.34201C95.924 4.07001 95.954 3.89801 95.946 3.82601C95.93 3.63801 95.846 3.51601 95.694 3.46001L95.652 3.44201H95.298H94.95L94.944 3.46601C94.944 3.45801 94.88 3.71401 94.752 4.23401C94.628 4.73401 94.568 4.98401 94.572 4.98401C94.592 5.00401 94.714 5.01401 94.938 5.01401H95.058L95.082 5.03201C95.094 5.04801 95.1 5.06401 95.1 5.08001C95.1 5.14401 95.08 5.22201 95.04 5.31401C95.028 5.33801 94.988 5.34801 94.92 5.34401C94.904 5.34401 94.87 5.34401 94.818 5.34401C94.218 5.32801 93.75 5.33001 93.414 5.35001H93.348L93.33 5.33201C93.314 5.31601 93.306 5.30001 93.306 5.28401C93.306 5.22001 93.326 5.14201 93.366 5.05001C93.414 5.02601 93.49 5.01401 93.594 5.01401C93.774 5.01001 93.876 5.00201 93.9 4.99001C93.92 4.97801 93.936 4.95401 93.948 4.91801C93.976 4.83801 94.114 4.29801 94.362 3.29801C94.638 2.19401 94.776 1.63801 94.776 1.63001C94.776 1.61801 94.772 1.61201 94.764 1.61201C94.74 1.60401 94.646 1.59601 94.482 1.58801C94.342 1.58801 94.264 1.57401 94.248 1.54601C94.244 1.53401 94.25 1.48801 94.266 1.40801C94.286 1.33201 94.304 1.28601 94.32 1.27001ZM96.186 1.60001C96.162 1.59601 96.04 1.59201 95.82 1.58801C95.608 1.58801 95.484 1.59201 95.448 1.60001C95.428 1.60801 95.416 1.61601 95.412 1.62401L95.022 3.16001H95.37C95.642 3.15601 95.82 3.14401 95.904 3.12401C96.136 3.07201 96.306 2.95801 96.414 2.78201C96.466 2.69401 96.516 2.55001 96.564 2.35001C96.6 2.20201 96.618 2.08801 96.618 2.00801C96.618 1.90001 96.586 1.81401 96.522 1.75001C96.482 1.71001 96.446 1.68401 96.414 1.67201C96.362 1.64401 96.286 1.62001 96.186 1.60001ZM98.1631 3.90201L98.1739 3.89121H98.2279C98.4751 3.90321 98.7811 3.90441 99.1459 3.89481C99.2323 3.89241 99.2803 3.89961 99.2899 3.91641C99.2923 3.92361 99.2887 3.95121 99.2791 3.99921C99.2647 4.04721 99.2551 4.07481 99.2503 4.08201L99.2395 4.09281H99.0955C98.9395 4.09521 98.8507 4.10601 98.8291 4.12521C98.8219 4.13001 98.7355 4.46601 98.5699 5.13321C98.4043 5.79561 98.3215 6.13041 98.3215 6.13761C98.3215 6.14241 98.3287 6.14481 98.3431 6.14481H98.7247C98.8519 6.13041 98.9659 6.08721 99.0667 6.01521C99.1219 5.97681 99.1663 5.93361 99.1999 5.88561C99.2743 5.78721 99.3451 5.63841 99.4123 5.43921C99.4363 5.37681 99.4519 5.34321 99.4591 5.33841C99.4663 5.33361 99.4939 5.33121 99.5419 5.33121C99.5899 5.33121 99.6163 5.33361 99.6211 5.33841C99.6355 5.34321 99.6427 5.35401 99.6427 5.37081L99.3115 6.33201C99.3067 6.34161 99.2719 6.34641 99.2071 6.34641C99.1375 6.34881 98.8795 6.35001 98.4331 6.35001H97.5799L97.5655 6.33921C97.5583 6.32721 97.5547 6.31761 97.5547 6.31041C97.5547 6.27201 97.5667 6.22521 97.5907 6.17001C97.6195 6.15561 97.6651 6.14841 97.7275 6.14841C97.8355 6.14601 97.8967 6.14121 97.9111 6.13401C97.9231 6.12681 97.9327 6.11241 97.9399 6.09081C97.9567 6.04281 98.0395 5.71881 98.1883 5.11881C98.3539 4.45641 98.4367 4.12281 98.4367 4.11801C98.4367 4.11081 98.4343 4.10721 98.4295 4.10721C98.4151 4.10241 98.3587 4.09761 98.2603 4.09281C98.1763 4.09281 98.1295 4.08441 98.1199 4.06761C98.1175 4.06041 98.1211 4.03281 98.1307 3.98481C98.1427 3.93921 98.1535 3.91161 98.1631 3.90201Z" fill="#A9A6A7"/>
<path d="M63.32 2.27001L63.338 2.25201H63.428C63.84 2.27201 64.35 2.27401 64.958 2.25801C65.102 2.25401 65.182 2.26601 65.198 2.29401C65.202 2.30601 65.196 2.35201 65.18 2.43201C65.156 2.51201 65.14 2.55801 65.132 2.57001L65.114 2.58801H64.874C64.614 2.59201 64.466 2.61001 64.43 2.64201C64.418 2.65001 64.274 3.21001 63.998 4.32201C63.722 5.42601 63.584 5.98401 63.584 5.99601C63.584 6.00401 63.596 6.00801 63.62 6.00801H64.256C64.468 5.98401 64.658 5.91201 64.826 5.79201C64.918 5.72801 64.992 5.65601 65.048 5.57601C65.172 5.41201 65.29 5.16401 65.402 4.83201C65.442 4.72801 65.468 4.67201 65.48 4.66401C65.492 4.65601 65.538 4.65201 65.618 4.65201C65.698 4.65201 65.742 4.65601 65.75 4.66401C65.774 4.67201 65.786 4.69001 65.786 4.71801L65.234 6.32001C65.226 6.33601 65.168 6.34401 65.06 6.34401C64.944 6.34801 64.514 6.35001 63.77 6.35001H62.348L62.324 6.33201C62.312 6.31201 62.306 6.29601 62.306 6.28401C62.306 6.22001 62.326 6.14201 62.366 6.05001C62.414 6.02601 62.49 6.01401 62.594 6.01401C62.774 6.01001 62.876 6.00201 62.9 5.99001C62.92 5.97801 62.936 5.95401 62.948 5.91801C62.976 5.83801 63.114 5.29801 63.362 4.29801C63.638 3.19401 63.776 2.63801 63.776 2.63001C63.776 2.61801 63.772 2.61201 63.764 2.61201C63.74 2.60401 63.646 2.59601 63.482 2.58801C63.342 2.58801 63.264 2.57401 63.248 2.54601C63.244 2.53401 63.25 2.48801 63.266 2.40801C63.286 2.33201 63.304 2.28601 63.32 2.27001Z" fill="#A9A6A7"/>
<path d="M145.32 29.27L145.338 29.252H146.304L147.276 29.258L147.36 29.27C147.624 29.31 147.836 29.4 147.996 29.54C148.156 29.668 148.254 29.832 148.29 30.032C148.306 30.14 148.302 30.248 148.278 30.356C148.21 30.64 148.016 30.89 147.696 31.106C147.564 31.19 147.426 31.258 147.282 31.31C147.25 31.326 147.232 31.334 147.228 31.334L147.276 31.382C147.36 31.45 147.432 31.54 147.492 31.652C147.536 31.756 147.56 31.86 147.564 31.964C147.564 32.048 147.552 32.19 147.528 32.39C147.508 32.59 147.498 32.746 147.498 32.858C147.498 32.954 147.502 33.016 147.51 33.044C147.534 33.132 147.596 33.184 147.696 33.2C147.748 33.2 147.79 33.186 147.822 33.158C147.882 33.118 147.938 33.008 147.99 32.828C148.006 32.768 148.028 32.734 148.056 32.726C148.072 32.722 148.112 32.72 148.176 32.72C148.26 32.72 148.31 32.73 148.326 32.75C148.342 32.77 148.338 32.814 148.314 32.882C148.214 33.178 148.058 33.368 147.846 33.452C147.818 33.464 147.79 33.472 147.762 33.476C147.734 33.48 147.684 33.482 147.612 33.482C147.2 33.462 146.936 33.332 146.82 33.092C146.788 33.032 146.77 32.954 146.766 32.858C146.766 32.782 146.768 32.734 146.772 32.714C146.792 32.622 146.82 32.498 146.856 32.342C146.924 32.07 146.954 31.898 146.946 31.826C146.93 31.638 146.846 31.516 146.694 31.46L146.652 31.442H146.298H145.95L145.944 31.466C145.944 31.458 145.88 31.714 145.752 32.234C145.628 32.734 145.568 32.984 145.572 32.984C145.592 33.004 145.714 33.014 145.938 33.014H146.058L146.082 33.032C146.094 33.048 146.1 33.064 146.1 33.08C146.1 33.144 146.08 33.222 146.04 33.314C146.028 33.338 145.988 33.348 145.92 33.344C145.904 33.344 145.87 33.344 145.818 33.344C145.218 33.328 144.75 33.33 144.414 33.35H144.348L144.33 33.332C144.314 33.316 144.306 33.3 144.306 33.284C144.306 33.22 144.326 33.142 144.366 33.05C144.414 33.026 144.49 33.014 144.594 33.014C144.774 33.01 144.876 33.002 144.9 32.99C144.92 32.978 144.936 32.954 144.948 32.918C144.976 32.838 145.114 32.298 145.362 31.298C145.638 30.194 145.776 29.638 145.776 29.63C145.776 29.618 145.772 29.612 145.764 29.612C145.74 29.604 145.646 29.596 145.482 29.588C145.342 29.588 145.264 29.574 145.248 29.546C145.244 29.534 145.25 29.488 145.266 29.408C145.286 29.332 145.304 29.286 145.32 29.27ZM147.186 29.6C147.162 29.596 147.04 29.592 146.82 29.588C146.608 29.588 146.484 29.592 146.448 29.6C146.428 29.608 146.416 29.616 146.412 29.624L146.022 31.16H146.37C146.642 31.156 146.82 31.144 146.904 31.124C147.136 31.072 147.306 30.958 147.414 30.782C147.466 30.694 147.516 30.55 147.564 30.35C147.6 30.202 147.618 30.088 147.618 30.008C147.618 29.9 147.586 29.814 147.522 29.75C147.482 29.71 147.446 29.684 147.414 29.672C147.362 29.644 147.286 29.62 147.186 29.6ZM150.337 31.8156L150.412 31.812H150.416C150.627 31.812 150.791 31.8888 150.909 32.0424C150.926 32.0688 150.935 32.082 150.938 32.082L151.075 31.9488L151.211 31.812H151.24C151.271 31.812 151.289 31.8192 151.294 31.8336C151.297 31.8384 151.257 32.0088 151.175 32.3448C151.089 32.6904 151.046 32.8596 151.046 32.8524C151.041 32.8668 151.007 32.874 150.945 32.874H150.869L150.859 32.8632C150.849 32.8536 150.847 32.832 150.851 32.7984C150.871 32.6736 150.874 32.5548 150.862 32.442C150.836 32.2068 150.743 32.0676 150.585 32.0244C150.563 32.0196 150.53 32.0172 150.484 32.0172C150.395 32.0148 150.302 32.0292 150.203 32.0604C150.086 32.0988 149.98 32.1564 149.887 32.2332C149.673 32.3964 149.515 32.6568 149.411 33.0144C149.347 33.252 149.314 33.4476 149.314 33.6012C149.314 33.7116 149.329 33.804 149.357 33.8784C149.42 34.0416 149.537 34.1484 149.71 34.1988C149.727 34.2036 149.744 34.2072 149.761 34.2096C149.989 34.2576 150.196 34.1904 150.383 34.008C150.523 33.864 150.623 33.6888 150.686 33.4824C150.698 33.4416 150.71 33.42 150.722 33.4176C150.729 33.4152 150.753 33.414 150.794 33.414C150.854 33.414 150.887 33.4212 150.895 33.4356C150.897 33.4452 150.895 33.462 150.887 33.486C150.808 33.774 150.651 34.0104 150.416 34.1952C150.349 34.248 150.278 34.2924 150.203 34.3284C150.055 34.398 149.906 34.4316 149.757 34.4292C149.654 34.4268 149.553 34.4052 149.455 34.3644C149.291 34.302 149.164 34.1976 149.073 34.0512C148.989 33.9264 148.937 33.7788 148.918 33.6084C148.909 33.5484 148.907 33.4644 148.915 33.3564C148.917 33.3444 148.918 33.3348 148.918 33.3276C148.947 33.0588 149.041 32.8032 149.199 32.5608C149.247 32.4936 149.289 32.4384 149.325 32.3952C149.39 32.316 149.47 32.2356 149.566 32.154C149.811 31.9548 150.068 31.842 150.337 31.8156Z" fill="#A9A6A7"/>
<path d="M176.668 29.426C176.812 29.39 176.916 29.426 176.98 29.534C177 29.57 177.012 29.61 177.016 29.654C177.016 29.714 177.002 29.772 176.974 29.828C176.882 29.956 176.766 30.03 176.626 30.05C176.582 30.05 176.536 30.038 176.488 30.014C176.448 29.994 176.416 29.958 176.392 29.906C176.38 29.89 176.372 29.858 176.368 29.81C176.368 29.746 176.38 29.69 176.404 29.642C176.46 29.53 176.548 29.458 176.668 29.426ZM176.152 30.71C176.18 30.702 176.224 30.698 176.284 30.698C176.376 30.702 176.456 30.722 176.524 30.758C176.576 30.786 176.616 30.816 176.644 30.848C176.676 30.876 176.706 30.916 176.734 30.968C176.77 31.044 176.786 31.124 176.782 31.208C176.782 31.276 176.778 31.324 176.77 31.352C176.766 31.36 176.676 31.61 176.5 32.102C176.332 32.55 176.242 32.798 176.23 32.846C176.19 32.978 176.184 33.066 176.212 33.11C176.232 33.134 176.274 33.138 176.338 33.122C176.494 33.086 176.62 32.892 176.716 32.54C176.736 32.476 176.756 32.442 176.776 32.438C176.788 32.434 176.83 32.432 176.902 32.432C176.99 32.432 177.038 32.436 177.046 32.444C177.07 32.46 177.07 32.502 177.046 32.57C177.002 32.726 176.936 32.872 176.848 33.008C176.688 33.248 176.506 33.382 176.302 33.41C176.23 33.426 176.156 33.422 176.08 33.398C176 33.374 175.934 33.344 175.882 33.308C175.794 33.236 175.736 33.134 175.708 33.002C175.692 32.926 175.696 32.846 175.72 32.762C175.728 32.73 175.816 32.484 175.984 32.024C176.128 31.64 176.22 31.388 176.26 31.268C176.3 31.144 176.306 31.058 176.278 31.01C176.266 30.978 176.224 30.972 176.152 30.992C176.032 31.02 175.926 31.146 175.834 31.37C175.782 31.55 175.756 31.636 175.756 31.628C175.744 31.652 175.736 31.666 175.732 31.67C175.724 31.678 175.676 31.682 175.588 31.682H175.456L175.438 31.664C175.426 31.652 175.42 31.636 175.42 31.616C175.428 31.552 175.462 31.452 175.522 31.316C175.57 31.212 175.62 31.126 175.672 31.058C175.724 30.986 175.79 30.914 175.87 30.842C175.958 30.774 176.052 30.73 176.152 30.71ZM178.805 31.8156L178.881 31.812H178.885C179.096 31.812 179.26 31.8888 179.378 32.0424C179.395 32.0688 179.404 32.082 179.407 32.082L179.543 31.9488L179.68 31.812H179.709C179.74 31.812 179.758 31.8192 179.763 31.8336C179.765 31.8384 179.726 32.0088 179.644 32.3448C179.558 32.6904 179.515 32.8596 179.515 32.8524C179.51 32.8668 179.476 32.874 179.414 32.874H179.338L179.327 32.8632C179.318 32.8536 179.315 32.832 179.32 32.7984C179.339 32.6736 179.343 32.5548 179.331 32.442C179.305 32.2068 179.212 32.0676 179.054 32.0244C179.032 32.0196 178.999 32.0172 178.953 32.0172C178.864 32.0148 178.771 32.0292 178.672 32.0604C178.555 32.0988 178.449 32.1564 178.355 32.2332C178.142 32.3964 177.983 32.6568 177.88 33.0144C177.815 33.252 177.783 33.4476 177.783 33.6012C177.783 33.7116 177.797 33.804 177.826 33.8784C177.889 34.0416 178.006 34.1484 178.179 34.1988C178.196 34.2036 178.213 34.2072 178.229 34.2096C178.457 34.2576 178.665 34.1904 178.852 34.008C178.991 33.864 179.092 33.6888 179.155 33.4824C179.167 33.4416 179.179 33.42 179.191 33.4176C179.198 33.4152 179.222 33.414 179.263 33.414C179.323 33.414 179.356 33.4212 179.363 33.4356C179.366 33.4452 179.363 33.462 179.356 33.486C179.277 33.774 179.12 34.0104 178.885 34.1952C178.817 34.248 178.747 34.2924 178.672 34.3284C178.523 34.398 178.375 34.4316 178.226 34.4292C178.123 34.4268 178.022 34.4052 177.923 34.3644C177.76 34.302 177.633 34.1976 177.542 34.0512C177.458 33.9264 177.406 33.7788 177.387 33.6084C177.377 33.5484 177.376 33.4644 177.383 33.3564C177.386 33.3444 177.387 33.3348 177.387 33.3276C177.416 33.0588 177.509 32.8032 177.668 32.5608C177.716 32.4936 177.758 32.4384 177.794 32.3952C177.859 32.316 177.939 32.2356 178.035 32.154C178.28 31.9548 178.537 31.842 178.805 31.8156ZM180.317 31.902L180.328 31.8912H180.943C181.366 31.8912 181.584 31.8924 181.598 31.8948C181.805 31.9164 181.958 32.0004 182.059 32.1468C182.17 32.3196 182.177 32.514 182.081 32.73C182.066 32.7612 182.051 32.7912 182.034 32.82C181.96 32.9376 181.865 33.036 181.75 33.1152C181.601 33.2184 181.441 33.2796 181.271 33.2988C181.256 33.3012 181.152 33.3024 180.958 33.3024H180.68L180.58 33.7164C180.508 33.9924 180.474 34.1304 180.479 34.1304C180.491 34.1424 180.564 34.1484 180.698 34.1484H180.77L180.785 34.1592C180.792 34.1688 180.796 34.1784 180.796 34.188C180.796 34.2264 180.784 34.2732 180.76 34.3284C180.752 34.3428 180.727 34.3488 180.684 34.3464C180.674 34.3464 180.654 34.3464 180.623 34.3464C180.265 34.3368 179.982 34.338 179.773 34.35H179.734L179.723 34.3392C179.713 34.3296 179.708 34.32 179.708 34.3104C179.708 34.272 179.72 34.2252 179.744 34.17C179.773 34.1556 179.819 34.1484 179.881 34.1484C179.989 34.146 180.05 34.1412 180.065 34.134C180.077 34.1268 180.086 34.1124 180.094 34.0908C180.11 34.0428 180.193 33.7188 180.342 33.1188C180.508 32.4564 180.59 32.1228 180.59 32.118C180.59 32.1108 180.588 32.1072 180.583 32.1072C180.569 32.1024 180.512 32.0976 180.414 32.0928C180.33 32.0928 180.283 32.0844 180.274 32.0676C180.271 32.0604 180.275 32.0328 180.284 31.9848C180.296 31.9392 180.307 31.9116 180.317 31.902ZM181.508 32.1036C181.482 32.0988 181.397 32.0952 181.253 32.0928C181.102 32.0928 181.015 32.0952 180.994 32.1C180.982 32.1048 180.974 32.1096 180.972 32.1144C180.97 32.1168 180.926 32.2836 180.842 32.6148C180.758 32.9436 180.716 33.1092 180.716 33.1116C180.716 33.1164 180.79 33.1188 180.936 33.1188C181.094 33.1188 181.182 33.1176 181.199 33.1152C181.372 33.1008 181.498 33.0384 181.577 32.928C181.615 32.8704 181.655 32.7636 181.696 32.6076C181.724 32.4924 181.739 32.4048 181.739 32.3448C181.741 32.2776 181.723 32.2236 181.685 32.1828C181.642 32.142 181.583 32.1156 181.508 32.1036ZM182.865 31.902L182.875 31.8912H182.929C183.177 31.9032 183.483 31.9044 183.847 31.8948C183.934 31.8924 183.982 31.8996 183.991 31.9164C183.994 31.9236 183.99 31.9512 183.981 31.9992C183.966 32.0472 183.957 32.0748 183.952 32.082L183.941 32.0928H183.797C183.641 32.0952 183.552 32.106 183.531 32.1252C183.523 32.13 183.437 32.466 183.271 33.1332C183.106 33.7956 183.023 34.1304 183.023 34.1376C183.023 34.1424 183.03 34.1448 183.045 34.1448H183.426C183.553 34.1304 183.667 34.0872 183.768 34.0152C183.823 33.9768 183.868 33.9336 183.901 33.8856C183.976 33.7872 184.047 33.6384 184.114 33.4392C184.138 33.3768 184.153 33.3432 184.161 33.3384C184.168 33.3336 184.195 33.3312 184.243 33.3312C184.291 33.3312 184.318 33.3336 184.323 33.3384C184.337 33.3432 184.344 33.354 184.344 33.3708L184.013 34.332C184.008 34.3416 183.973 34.3464 183.909 34.3464C183.839 34.3488 183.581 34.35 183.135 34.35H182.281L182.267 34.3392C182.26 34.3272 182.256 34.3176 182.256 34.3104C182.256 34.272 182.268 34.2252 182.292 34.17C182.321 34.1556 182.367 34.1484 182.429 34.1484C182.537 34.146 182.598 34.1412 182.613 34.134C182.625 34.1268 182.634 34.1124 182.641 34.0908C182.658 34.0428 182.741 33.7188 182.89 33.1188C183.055 32.4564 183.138 32.1228 183.138 32.118C183.138 32.1108 183.136 32.1072 183.131 32.1072C183.117 32.1024 183.06 32.0976 182.962 32.0928C182.878 32.0928 182.831 32.0844 182.821 32.0676C182.819 32.0604 182.823 32.0328 182.832 31.9848C182.844 31.9392 182.855 31.9116 182.865 31.902Z" fill="#A9A6A7"/>
<path d="M110.276 29.126L110.402 29.12H110.408C110.76 29.12 111.034 29.248 111.23 29.504C111.258 29.548 111.274 29.57 111.278 29.57L111.506 29.348L111.734 29.12H111.782C111.834 29.12 111.864 29.132 111.872 29.156C111.876 29.164 111.81 29.448 111.674 30.008C111.53 30.584 111.458 30.866 111.458 30.854C111.45 30.878 111.394 30.89 111.29 30.89H111.164L111.146 30.872C111.13 30.856 111.126 30.82 111.134 30.764C111.166 30.556 111.172 30.358 111.152 30.17C111.108 29.778 110.954 29.546 110.69 29.474C110.654 29.466 110.598 29.462 110.522 29.462C110.374 29.458 110.218 29.482 110.054 29.534C109.858 29.598 109.682 29.694 109.526 29.822C109.17 30.094 108.906 30.528 108.734 31.124C108.626 31.52 108.572 31.846 108.572 32.102C108.572 32.286 108.596 32.44 108.644 32.564C108.748 32.836 108.944 33.014 109.232 33.098C109.26 33.106 109.288 33.112 109.316 33.116C109.696 33.196 110.042 33.084 110.354 32.78C110.586 32.54 110.754 32.248 110.858 31.904C110.878 31.836 110.898 31.8 110.918 31.796C110.93 31.792 110.97 31.79 111.038 31.79C111.138 31.79 111.194 31.802 111.206 31.826C111.21 31.842 111.206 31.87 111.194 31.91C111.062 32.39 110.8 32.784 110.408 33.092C110.296 33.18 110.178 33.254 110.054 33.314C109.806 33.43 109.558 33.486 109.31 33.482C109.138 33.478 108.97 33.442 108.806 33.374C108.534 33.27 108.322 33.096 108.17 32.852C108.03 32.644 107.944 32.398 107.912 32.114C107.896 32.014 107.894 31.874 107.906 31.694C107.91 31.674 107.912 31.658 107.912 31.646C107.96 31.198 108.116 30.772 108.38 30.368C108.46 30.256 108.53 30.164 108.59 30.092C108.698 29.96 108.832 29.826 108.992 29.69C109.4 29.358 109.828 29.17 110.276 29.126Z" fill="#A9A6A7"/>
<path d="M212.592 30.698C212.728 30.67 212.83 30.732 212.898 30.884C212.91 30.912 212.92 30.94 212.928 30.968C212.936 31.004 212.94 31.07 212.94 31.166C212.94 31.326 212.904 31.548 212.832 31.832C212.72 32.292 212.576 32.662 212.4 32.942C212.3 33.086 212.198 33.198 212.094 33.278C212.01 33.338 211.926 33.378 211.842 33.398C211.806 33.406 211.748 33.41 211.668 33.41C211.548 33.41 211.438 33.396 211.338 33.368C211.002 33.252 210.846 32.992 210.87 32.588C210.882 32.396 210.98 32.05 211.164 31.55C211.236 31.338 211.276 31.202 211.284 31.142C211.304 31.05 211.294 30.998 211.254 30.986C211.206 30.97 211.15 30.98 211.086 31.016C211.002 31.068 210.936 31.15 210.888 31.262C210.848 31.334 210.804 31.456 210.756 31.628C210.744 31.652 210.736 31.666 210.732 31.67C210.724 31.678 210.676 31.682 210.588 31.682H210.456L210.438 31.664C210.426 31.652 210.42 31.636 210.42 31.616C210.428 31.552 210.462 31.452 210.522 31.316C210.594 31.164 210.684 31.03 210.792 30.914C210.872 30.838 210.952 30.782 211.032 30.746C211.096 30.718 211.174 30.704 211.266 30.704C211.366 30.704 211.452 30.722 211.524 30.758C211.576 30.786 211.616 30.816 211.644 30.848C211.676 30.876 211.706 30.916 211.734 30.968C211.77 31.044 211.786 31.124 211.782 31.208C211.782 31.288 211.756 31.398 211.704 31.538C211.7 31.558 211.692 31.582 211.68 31.61C211.612 31.802 211.57 31.918 211.554 31.958C211.402 32.41 211.36 32.732 211.428 32.924C211.472 33.068 211.574 33.138 211.734 33.134C211.754 33.134 211.774 33.132 211.794 33.128C211.874 33.116 211.952 33.072 212.028 32.996C212.188 32.836 212.334 32.488 212.466 31.952C212.502 31.796 212.516 31.682 212.508 31.61C212.492 31.47 212.438 31.354 212.346 31.262C212.314 31.23 212.292 31.2 212.28 31.172C212.268 31.148 212.262 31.112 212.262 31.064C212.262 31.016 212.266 30.98 212.274 30.956C212.318 30.856 212.384 30.784 212.472 30.74C212.504 30.72 212.544 30.706 212.592 30.698ZM214.005 32.7624C214.01 32.76 214.035 32.7588 214.081 32.7588C214.146 32.7612 214.203 32.7708 214.254 32.7876C214.453 32.8548 214.577 33 214.625 33.2232C214.629 33.252 214.632 33.2976 214.632 33.36C214.634 33.4392 214.627 33.5112 214.61 33.576C214.577 33.7104 214.519 33.8352 214.437 33.9504C214.289 34.1592 214.103 34.296 213.879 34.3608C213.819 34.3776 213.761 34.3872 213.703 34.3896C213.497 34.3968 213.338 34.3224 213.228 34.1664C213.213 34.1496 213.201 34.1316 213.192 34.1124C213.077 33.906 213.08 33.6636 213.203 33.3852C213.26 33.2604 213.337 33.15 213.433 33.054C213.524 32.9628 213.619 32.8944 213.717 32.8488C213.813 32.8008 213.909 32.772 214.005 32.7624ZM214.117 32.9352C214.067 32.928 214.026 32.9268 213.995 32.9316C213.877 32.9532 213.78 33.0108 213.703 33.1044C213.633 33.1884 213.573 33.3288 213.523 33.5256C213.518 33.5424 213.513 33.5592 213.509 33.576C213.47 33.7344 213.451 33.852 213.451 33.9288C213.451 33.9792 213.453 34.0128 213.458 34.0296C213.487 34.1424 213.557 34.2048 213.667 34.2168C213.715 34.2216 213.765 34.2156 213.818 34.1988C213.945 34.158 214.046 34.0656 214.121 33.9216C214.161 33.8472 214.202 33.7248 214.243 33.5544C214.296 33.3456 214.31 33.1968 214.286 33.108C214.262 33.0192 214.206 32.9616 214.117 32.9352ZM215.398 32.766C215.414 32.7612 215.441 32.7588 215.477 32.7588C215.532 32.7612 215.58 32.7732 215.621 32.7948C215.652 32.8116 215.676 32.8296 215.693 32.8488C215.712 32.8656 215.73 32.8896 215.747 32.9208C215.768 32.9664 215.778 33.0144 215.776 33.0648C215.776 33.1128 215.76 33.1788 215.729 33.2628C215.726 33.2748 215.722 33.2892 215.714 33.306C215.597 33.6324 215.538 33.8556 215.538 33.9756C215.538 33.9852 215.538 33.9936 215.538 34.0008C215.54 34.0824 215.56 34.1424 215.596 34.1808C215.622 34.2048 215.658 34.2168 215.704 34.2168C215.752 34.2168 215.794 34.2072 215.83 34.188C215.892 34.1568 215.946 34.1064 215.992 34.0368L216.013 34.0008L216.146 33.468C216.24 33.096 216.294 32.8992 216.308 32.8776C216.311 32.8728 216.317 32.8656 216.326 32.856C216.379 32.8032 216.439 32.7852 216.506 32.802C216.564 32.8212 216.595 32.8584 216.6 32.9136C216.6 32.9328 216.557 33.1176 216.47 33.468C216.386 33.7968 216.34 33.9864 216.33 34.0368C216.32 34.104 216.319 34.1508 216.326 34.1772C216.331 34.1868 216.337 34.1964 216.344 34.206C216.352 34.2108 216.364 34.2156 216.38 34.2204C216.395 34.2204 216.407 34.2168 216.416 34.2096C216.467 34.1784 216.515 34.068 216.56 33.8784C216.575 33.8304 216.587 33.8052 216.596 33.8028C216.604 33.8004 216.63 33.7992 216.676 33.7992C216.728 33.7992 216.758 33.8016 216.766 33.8064C216.77 33.8112 216.773 33.8208 216.773 33.8352C216.773 33.8688 216.754 33.9372 216.715 34.0404C216.686 34.1196 216.656 34.1808 216.625 34.224C216.558 34.3272 216.474 34.3824 216.373 34.3896C216.251 34.3944 216.154 34.3524 216.082 34.2636L216.056 34.2312C216.052 34.224 216.049 34.2192 216.049 34.2168L216.024 34.242C215.935 34.3236 215.838 34.3716 215.732 34.386C215.629 34.398 215.536 34.3848 215.452 34.3464C215.334 34.296 215.261 34.2012 215.232 34.062C215.222 33.9996 215.222 33.9252 215.232 33.8388C215.234 33.8316 215.236 33.8256 215.236 33.8208C215.255 33.7008 215.311 33.5172 215.405 33.27C215.448 33.1428 215.472 33.0612 215.477 33.0252C215.489 32.97 215.483 32.9388 215.459 32.9316C215.43 32.922 215.396 32.928 215.358 32.9496C215.308 32.9808 215.268 33.03 215.239 33.0972C215.215 33.1404 215.189 33.2136 215.16 33.3168C215.153 33.3312 215.148 33.3396 215.146 33.342C215.141 33.3468 215.112 33.3492 215.059 33.3492H214.98L214.969 33.3384C214.962 33.3312 214.958 33.3216 214.958 33.3096C214.963 33.2712 214.984 33.2112 215.02 33.1296C215.048 33.0672 215.078 33.0156 215.11 32.9748C215.141 32.9316 215.18 32.8884 215.228 32.8452C215.281 32.8044 215.338 32.778 215.398 32.766ZM217.713 32.1036C217.746 32.0916 217.781 32.0928 217.817 32.1072C217.848 32.1192 217.871 32.1396 217.886 32.1684C217.898 32.1948 217.894 32.2452 217.875 32.3196C217.868 32.3508 217.852 32.4168 217.828 32.5176C217.778 32.7024 217.754 32.7936 217.756 32.7912C217.756 32.796 217.808 32.7984 217.911 32.7984H218.066L218.076 32.8092C218.091 32.8188 218.091 32.85 218.076 32.9028C218.069 32.9388 218.062 32.964 218.055 32.9784C218.048 32.9904 218.025 32.9976 217.986 33C217.97 33 217.93 33 217.868 33H217.706L217.702 33.0144C217.541 33.6408 217.457 33.9816 217.45 34.0368C217.445 34.0656 217.443 34.092 217.443 34.116C217.443 34.1832 217.462 34.218 217.5 34.2204C217.515 34.2204 217.532 34.218 217.551 34.2132C217.584 34.2108 217.62 34.194 217.659 34.1628C217.743 34.098 217.812 33.9936 217.868 33.8496C217.88 33.8208 217.893 33.8052 217.907 33.8028C217.914 33.8004 217.938 33.7992 217.979 33.7992C218.032 33.7992 218.061 33.8016 218.066 33.8064C218.08 33.8184 218.08 33.8424 218.066 33.8784C218.02 33.9888 217.966 34.08 217.904 34.152C217.808 34.2744 217.697 34.35 217.572 34.3788C217.553 34.3836 217.522 34.386 217.479 34.386C217.436 34.386 217.406 34.3836 217.389 34.3788C217.322 34.3596 217.268 34.3308 217.227 34.2924C217.188 34.254 217.161 34.2072 217.144 34.152C217.139 34.1328 217.137 34.1004 217.137 34.0548V33.9864L217.259 33.4968C217.341 33.1752 217.382 33.0108 217.382 33.0036C217.382 33.0012 217.331 33 217.23 33C217.125 33 217.067 32.9916 217.058 32.9748C217.053 32.9676 217.055 32.9412 217.065 32.8956C217.079 32.8476 217.088 32.8224 217.09 32.82C217.097 32.8056 217.122 32.7984 217.166 32.7984C217.182 32.7984 217.218 32.7984 217.274 32.7984H217.436L217.504 32.5176C217.55 32.3328 217.578 32.2284 217.59 32.2044C217.612 32.1564 217.653 32.1228 217.713 32.1036Z" fill="#A9A6A7"/>
<path d="M214.632 24.45H213.584V25.51H213.296V24.45H212.248V24.178H213.296V23.118H213.584V24.178H214.632V24.45Z" fill="#A9A6A7"/>
<line x1="212" y1="40.2" x2="215" y2="40.2" stroke="#A9A6A7" stroke-width="0.3"/>
<path d="M4.0491 12.8701L14.5482 12.7355L19.0546 12.7401L25.0546 8.7701" stroke="#A9A6A7" stroke-width="0.5"/>
<path d="M39.1667 12.65C39.1667 13.3864 39.7636 13.9834 40.5 13.9834C41.2364 13.9834 41.8333 13.3864 41.8333 12.65C41.8333 11.9136 41.2364 11.3167 40.5 11.3167C39.7636 11.3167 39.1667 11.9136 39.1667 12.65ZM25.0546 12.65H24.8046V12.9H25.0546V12.65ZM31.9118 12.9H40.5V12.4H31.9118V12.9ZM27.3403 12.9H31.9118V12.4H27.3403V12.9ZM24.8046 11.15V12.65H25.3046V11.15H24.8046ZM25.0546 12.9H27.3403V12.4H25.0546V12.9Z" fill="#A9A6A7"/>
<path d="M23.035 3.63502C23.135 3.61836 23.2383 3.62169 23.345 3.64502C23.445 3.66502 23.5333 3.70002 23.61 3.75002C23.65 3.77669 23.6967 3.82002 23.75 3.88002C23.76 3.89669 23.7667 3.90669 23.77 3.91002L23.905 3.77002C23.9983 3.67669 24.0467 3.63002 24.05 3.63002C24.05 3.62669 24.065 3.62502 24.095 3.62502C24.1317 3.62502 24.155 3.63502 24.165 3.65502C24.1683 3.66836 24.1217 3.86836 24.025 4.25502C23.925 4.64836 23.8717 4.84836 23.865 4.85502L23.85 4.87002H23.745C23.6583 4.87002 23.6117 4.86169 23.605 4.84502C23.6017 4.83169 23.6033 4.80336 23.61 4.76002C23.6633 4.41002 23.62 4.16502 23.48 4.02502C23.4033 3.94502 23.2933 3.90002 23.15 3.89002C22.9867 3.88669 22.8383 3.95169 22.705 4.08502C22.635 4.15502 22.5817 4.22669 22.545 4.30002C22.485 4.42669 22.4567 4.54836 22.46 4.66502C22.4633 4.74169 22.4767 4.80169 22.5 4.84502C22.5333 4.91502 22.58 4.96502 22.64 4.99502C22.6467 4.99836 22.7533 5.03169 22.96 5.09502C23.19 5.16169 23.3267 5.20836 23.37 5.23502C23.5833 5.35836 23.6933 5.57336 23.7 5.88002C23.7033 6.12336 23.635 6.36669 23.495 6.61002C23.3883 6.80002 23.2433 6.95669 23.06 7.08002C22.9333 7.16336 22.8017 7.21836 22.665 7.24502C22.6317 7.25169 22.5767 7.25502 22.5 7.25502C22.3867 7.25502 22.29 7.24502 22.21 7.22502C22.0467 7.18169 21.915 7.10836 21.815 7.00502L21.775 6.96502L21.64 7.10502L21.495 7.25502L21.445 7.26002H21.44C21.4133 7.26002 21.395 7.25502 21.385 7.24502C21.375 7.23502 21.37 7.22669 21.37 7.22002C21.37 7.21002 21.4667 6.81836 21.66 6.04502C21.6833 6.02502 21.73 6.01502 21.8 6.01502H21.905L21.92 6.03002C21.9333 6.04336 21.935 6.07669 21.925 6.13002C21.925 6.13669 21.9233 6.14502 21.92 6.15502C21.88 6.35169 21.89 6.51669 21.95 6.65002C22.02 6.82336 22.1667 6.92836 22.39 6.96502C22.4867 6.98169 22.5633 6.98502 22.62 6.97502C22.7967 6.94502 22.95 6.82669 23.08 6.62002C23.13 6.54002 23.1683 6.45502 23.195 6.36502C23.215 6.29169 23.225 6.21002 23.225 6.12002C23.225 6.03336 23.215 5.96669 23.195 5.92002C23.1617 5.83669 23.1117 5.78002 23.045 5.75002C23.0217 5.73669 22.9133 5.70169 22.72 5.64502C22.52 5.58836 22.4017 5.55169 22.365 5.53502C22.2983 5.50169 22.2367 5.45669 22.18 5.40002C22.0333 5.24669 21.97 5.04669 21.99 4.80002C22.01 4.56002 22.0983 4.33169 22.255 4.11502C22.3383 4.01169 22.4267 3.92502 22.52 3.85502C22.6867 3.72836 22.8583 3.65502 23.035 3.63502Z" fill="#A9A6A7"/>
<rect x="10.15" y="0.15" width="38.7" height="61.7" stroke="#A9A6A7" stroke-width="0.3" stroke-dasharray="1 1"/>
<rect x="53.15" y="0.15" width="73.7" height="61.7" stroke="#A9A6A7" stroke-width="0.3" stroke-dasharray="1 1"/>
<rect x="141.15" y="0.15" width="63.7" height="61.7" stroke="#A9A6A7" stroke-width="0.3" stroke-dasharray="1 1"/>
<path d="M26.204 56.144C26.4413 56.144 26.64 56.1667 26.8 56.212C26.9627 56.2573 27.084 56.332 27.164 56.436C27.2467 56.54 27.288 56.6787 27.288 56.852C27.288 56.964 27.2667 57.064 27.224 57.152C27.184 57.2373 27.1227 57.3093 27.04 57.368C26.96 57.424 26.8613 57.4627 26.744 57.484V57.504C26.864 57.5227 26.972 57.5573 27.068 57.608C27.1667 57.6587 27.244 57.7307 27.3 57.824C27.356 57.9173 27.384 58.0387 27.384 58.188C27.384 58.3613 27.344 58.5093 27.264 58.632C27.184 58.752 27.0693 58.844 26.92 58.908C26.7733 58.9693 26.5973 59 26.392 59H25.388V56.144H26.204ZM26.276 57.36C26.5213 57.36 26.6893 57.3213 26.78 57.244C26.8707 57.164 26.916 57.0467 26.916 56.892C26.916 56.7347 26.86 56.6227 26.748 56.556C26.6387 56.4867 26.4627 56.452 26.22 56.452H25.748V57.36H26.276ZM25.748 57.66V58.696H26.324C26.5773 58.696 26.7533 58.6467 26.852 58.548C26.9507 58.4493 27 58.32 27 58.16C27 58.0587 26.9773 57.9707 26.932 57.896C26.8893 57.8213 26.816 57.764 26.712 57.724C26.6107 57.6813 26.472 57.66 26.296 57.66H25.748ZM29.7336 56.856V59H29.4456L29.3936 58.716H29.3776C29.3322 58.7907 29.2736 58.852 29.2016 58.9C29.1296 58.948 29.0509 58.9827 28.9656 59.004C28.8802 59.028 28.7909 59.04 28.6976 59.04C28.5269 59.04 28.3829 59.0133 28.2656 58.96C28.1509 58.904 28.0642 58.8187 28.0056 58.704C27.9469 58.5893 27.9176 58.4413 27.9176 58.26V56.856H28.2736V58.236C28.2736 58.4067 28.3122 58.5347 28.3896 58.62C28.4669 58.7053 28.5869 58.748 28.7496 58.748C28.9096 58.748 29.0349 58.7187 29.1256 58.66C29.2189 58.5987 29.2842 58.5107 29.3216 58.396C29.3616 58.2787 29.3816 58.1373 29.3816 57.972V56.856H29.7336ZM31.2742 59.04C31.0849 59.04 30.9156 59.0013 30.7662 58.924C30.6196 58.8467 30.5036 58.7267 30.4182 58.564C30.3356 58.4013 30.2942 58.1933 30.2942 57.94C30.2942 57.676 30.3382 57.4613 30.4262 57.296C30.5142 57.1307 30.6329 57.0093 30.7822 56.932C30.9342 56.8547 31.1062 56.816 31.2982 56.816C31.4076 56.816 31.5129 56.828 31.6142 56.852C31.7156 56.8733 31.7982 56.9 31.8622 56.932L31.7542 57.224C31.6902 57.2 31.6156 57.1773 31.5302 57.156C31.4449 57.1347 31.3649 57.124 31.2902 57.124C31.1462 57.124 31.0276 57.1547 30.9342 57.216C30.8409 57.2773 30.7716 57.368 30.7262 57.488C30.6809 57.608 30.6582 57.7573 30.6582 57.936C30.6582 58.1067 30.6809 58.252 30.7262 58.372C30.7716 58.492 30.8396 58.5827 30.9302 58.644C31.0209 58.7053 31.1342 58.736 31.2702 58.736C31.3876 58.736 31.4902 58.724 31.5782 58.7C31.6689 58.676 31.7516 58.6467 31.8262 58.612V58.924C31.7542 58.9613 31.6742 58.9893 31.5862 59.008C31.5009 59.0293 31.3969 59.04 31.2742 59.04ZM32.6841 57.548C32.6841 57.5907 32.6814 57.6467 32.6761 57.716C32.6734 57.7853 32.6708 57.8453 32.6681 57.896H32.6841C32.7001 57.8747 32.7241 57.844 32.7561 57.804C32.7881 57.764 32.8201 57.724 32.8521 57.684C32.8868 57.6413 32.9161 57.6067 32.9401 57.58L33.6241 56.856H34.0361L33.1681 57.772L34.0961 59H33.6721L32.9281 58L32.6841 58.212V59H32.3361V55.96H32.6841V57.548ZM36.3759 56.144C36.6132 56.144 36.8119 56.1667 36.9719 56.212C37.1345 56.2573 37.2559 56.332 37.3359 56.436C37.4185 56.54 37.4599 56.6787 37.4599 56.852C37.4599 56.964 37.4385 57.064 37.3959 57.152C37.3559 57.2373 37.2945 57.3093 37.2119 57.368C37.1319 57.424 37.0332 57.4627 36.9159 57.484V57.504C37.0359 57.5227 37.1439 57.5573 37.2399 57.608C37.3385 57.6587 37.4159 57.7307 37.4719 57.824C37.5279 57.9173 37.5559 58.0387 37.5559 58.188C37.5559 58.3613 37.5159 58.5093 37.4359 58.632C37.3559 58.752 37.2412 58.844 37.0919 58.908C36.9452 58.9693 36.7692 59 36.5639 59H35.5599V56.144H36.3759ZM36.4479 57.36C36.6932 57.36 36.8612 57.3213 36.9519 57.244C37.0425 57.164 37.0879 57.0467 37.0879 56.892C37.0879 56.7347 37.0319 56.6227 36.9199 56.556C36.8105 56.4867 36.6345 56.452 36.3919 56.452H35.9199V57.36H36.4479ZM35.9199 57.66V58.696H36.4959C36.7492 58.696 36.9252 58.6467 37.0239 58.548C37.1225 58.4493 37.1719 58.32 37.1719 58.16C37.1719 58.0587 37.1492 57.9707 37.1039 57.896C37.0612 57.8213 36.9879 57.764 36.8839 57.724C36.7825 57.6813 36.6439 57.66 36.4679 57.66H35.9199ZM38.9254 56.82C39.1868 56.82 39.3801 56.8773 39.5054 56.992C39.6308 57.1067 39.6934 57.2893 39.6934 57.54V59H39.4374L39.3694 58.696H39.3534C39.2921 58.7733 39.2281 58.8387 39.1614 58.892C39.0974 58.9427 39.0228 58.98 38.9374 59.004C38.8548 59.028 38.7534 59.04 38.6334 59.04C38.5054 59.04 38.3894 59.0173 38.2854 58.972C38.1841 58.9267 38.1041 58.8573 38.0454 58.764C37.9868 58.668 37.9574 58.548 37.9574 58.404C37.9574 58.1907 38.0414 58.0267 38.2094 57.912C38.3774 57.7947 38.6361 57.7307 38.9854 57.72L39.3494 57.708V57.58C39.3494 57.4013 39.3108 57.2773 39.2334 57.208C39.1561 57.1387 39.0468 57.104 38.9054 57.104C38.7934 57.104 38.6868 57.1213 38.5854 57.156C38.4841 57.188 38.3894 57.2253 38.3014 57.268L38.1934 57.004C38.2868 56.9533 38.3974 56.9107 38.5254 56.876C38.6534 56.8387 38.7868 56.82 38.9254 56.82ZM39.0294 57.964C38.7628 57.9747 38.5774 58.0173 38.4734 58.092C38.3721 58.1667 38.3214 58.272 38.3214 58.408C38.3214 58.528 38.3574 58.616 38.4294 58.672C38.5041 58.728 38.5988 58.756 38.7134 58.756C38.8948 58.756 39.0454 58.7067 39.1654 58.608C39.2854 58.5067 39.3454 58.352 39.3454 58.144V57.952L39.0294 57.964ZM39.4894 55.976C39.4654 56.0133 39.4308 56.0587 39.3854 56.112C39.3401 56.1653 39.2894 56.2213 39.2334 56.28C39.1801 56.336 39.1254 56.3907 39.0694 56.444C39.0161 56.4947 38.9654 56.5387 38.9174 56.576H38.6854V56.528C38.7254 56.4773 38.7681 56.4173 38.8134 56.348C38.8614 56.2787 38.9081 56.208 38.9534 56.136C38.9988 56.0613 39.0361 55.9947 39.0654 55.936H39.4894V55.976ZM41.7516 58.408C41.7516 58.5467 41.717 58.6627 41.6476 58.756C41.5783 58.8493 41.4796 58.92 41.3516 58.968C41.2236 59.016 41.0716 59.04 40.8956 59.04C40.7463 59.04 40.617 59.028 40.5076 59.004C40.401 58.98 40.3063 58.9467 40.2236 58.904V58.584C40.309 58.6267 40.4116 58.6667 40.5316 58.704C40.6543 58.7387 40.7783 58.756 40.9036 58.756C41.0823 58.756 41.2116 58.728 41.2916 58.672C41.3716 58.6133 41.4116 58.536 41.4116 58.44C41.4116 58.3867 41.397 58.3387 41.3676 58.296C41.3383 58.2533 41.285 58.2107 41.2076 58.168C41.133 58.1253 41.025 58.0773 40.8836 58.024C40.745 57.9707 40.6263 57.9173 40.5276 57.864C40.429 57.8107 40.353 57.7467 40.2996 57.672C40.2463 57.5973 40.2196 57.5013 40.2196 57.384C40.2196 57.2027 40.293 57.0627 40.4396 56.964C40.589 56.8653 40.7836 56.816 41.0236 56.816C41.1543 56.816 41.2756 56.8293 41.3876 56.856C41.5023 56.88 41.609 56.9147 41.7076 56.96L41.5876 57.24C41.529 57.2133 41.4663 57.1907 41.3996 57.172C41.3356 57.1507 41.2703 57.1347 41.2036 57.124C41.137 57.1107 41.069 57.104 40.9996 57.104C40.8556 57.104 40.745 57.128 40.6676 57.176C40.593 57.2213 40.5556 57.284 40.5556 57.364C40.5556 57.4227 40.573 57.4733 40.6076 57.516C40.6423 57.556 40.6996 57.596 40.7796 57.636C40.8623 57.6733 40.9716 57.7187 41.1076 57.772C41.2436 57.8227 41.3596 57.8747 41.4556 57.928C41.5516 57.9813 41.625 58.0467 41.6756 58.124C41.7263 58.1987 41.7516 58.2933 41.7516 58.408ZM42.6217 56.856V59H42.2697V56.856H42.6217ZM42.4497 56.052C42.503 56.052 42.5497 56.0707 42.5897 56.108C42.6324 56.1427 42.6537 56.1987 42.6537 56.276C42.6537 56.3507 42.6324 56.4067 42.5897 56.444C42.5497 56.4813 42.503 56.5 42.4497 56.5C42.391 56.5 42.3417 56.4813 42.3017 56.444C42.2617 56.4067 42.2417 56.3507 42.2417 56.276C42.2417 56.1987 42.2617 56.1427 42.3017 56.108C42.3417 56.0707 42.391 56.052 42.4497 56.052ZM44.1609 59.04C43.9716 59.04 43.8023 59.0013 43.6529 58.924C43.5063 58.8467 43.3903 58.7267 43.3049 58.564C43.2223 58.4013 43.1809 58.1933 43.1809 57.94C43.1809 57.676 43.2249 57.4613 43.3129 57.296C43.4009 57.1307 43.5196 57.0093 43.6689 56.932C43.8209 56.8547 43.9929 56.816 44.1849 56.816C44.2943 56.816 44.3996 56.828 44.5009 56.852C44.6023 56.8733 44.6849 56.9 44.7489 56.932L44.6409 57.224C44.5769 57.2 44.5023 57.1773 44.4169 57.156C44.3316 57.1347 44.2516 57.124 44.1769 57.124C44.0329 57.124 43.9143 57.1547 43.8209 57.216C43.7276 57.2773 43.6583 57.368 43.6129 57.488C43.5676 57.608 43.5449 57.7573 43.5449 57.936C43.5449 58.1067 43.5676 58.252 43.6129 58.372C43.6583 58.492 43.7263 58.5827 43.8169 58.644C43.9076 58.7053 44.0209 58.736 44.1569 58.736C44.2743 58.736 44.3769 58.724 44.4649 58.7C44.5556 58.676 44.6383 58.6467 44.7129 58.612V58.924C44.6409 58.9613 44.5609 58.9893 44.4729 59.008C44.3876 59.0293 44.2836 59.04 44.1609 59.04ZM47.0868 57.924C47.0868 58.1027 47.0628 58.2613 47.0148 58.4C46.9695 58.536 46.9028 58.652 46.8148 58.748C46.7295 58.844 46.6241 58.9173 46.4988 58.968C46.3761 59.016 46.2388 59.04 46.0868 59.04C45.9455 59.04 45.8148 59.016 45.6948 58.968C45.5748 58.9173 45.4708 58.844 45.3828 58.748C45.2948 58.652 45.2255 58.536 45.1748 58.4C45.1268 58.2613 45.1028 58.1027 45.1028 57.924C45.1028 57.6867 45.1428 57.4867 45.2228 57.324C45.3028 57.1587 45.4175 57.0333 45.5668 56.948C45.7161 56.86 45.8935 56.816 46.0988 56.816C46.2935 56.816 46.4641 56.86 46.6108 56.948C46.7601 57.0333 46.8761 57.1587 46.9588 57.324C47.0441 57.4867 47.0868 57.6867 47.0868 57.924ZM45.4668 57.924C45.4668 58.092 45.4881 58.2387 45.5308 58.364C45.5761 58.4867 45.6455 58.5813 45.7388 58.648C45.8321 58.7147 45.9508 58.748 46.0948 58.748C46.2388 58.748 46.3575 58.7147 46.4508 58.648C46.5441 58.5813 46.6121 58.4867 46.6548 58.364C46.7001 58.2387 46.7228 58.092 46.7228 57.924C46.7228 57.7533 46.7001 57.608 46.6548 57.488C46.6095 57.368 46.5401 57.276 46.4468 57.212C46.3561 57.1453 46.2375 57.112 46.0908 57.112C45.8721 57.112 45.7135 57.184 45.6148 57.328C45.5161 57.472 45.4668 57.6707 45.4668 57.924Z" fill="#A9A6A7"/>
<path d="M70.748 59H70.388V56.144H71.984V56.46H70.748V57.472H71.908V57.788H70.748V59ZM72.7662 56.856V59H72.4142V56.856H72.7662ZM72.5942 56.052C72.6476 56.052 72.6942 56.0707 72.7342 56.108C72.7769 56.1427 72.7982 56.1987 72.7982 56.276C72.7982 56.3507 72.7769 56.4067 72.7342 56.444C72.6942 56.4813 72.6476 56.5 72.5942 56.5C72.5356 56.5 72.4862 56.4813 72.4462 56.444C72.4062 56.4067 72.3862 56.3507 72.3862 56.276C72.3862 56.1987 72.4062 56.1427 72.4462 56.108C72.4862 56.0707 72.5356 56.052 72.5942 56.052ZM73.7975 59H73.4455V55.96H73.7975V59ZM75.1927 58.752C75.2461 58.752 75.3007 58.748 75.3567 58.74C75.4127 58.7293 75.4581 58.7187 75.4927 58.708V58.976C75.4554 58.9947 75.4021 59.0093 75.3327 59.02C75.2634 59.0333 75.1967 59.04 75.1327 59.04C75.0207 59.04 74.9167 59.0213 74.8207 58.984C74.7274 58.944 74.6514 58.876 74.5927 58.78C74.5341 58.684 74.5047 58.5493 74.5047 58.376V57.128H74.2007V56.96L74.5087 56.82L74.6487 56.364H74.8567V56.856H75.4767V57.128H74.8567V58.368C74.8567 58.4987 74.8874 58.596 74.9487 58.66C75.0127 58.7213 75.0941 58.752 75.1927 58.752ZM76.922 56.816C76.962 56.816 77.0047 56.8187 77.05 56.824C77.098 56.8267 77.1394 56.832 77.174 56.84L77.13 57.164C77.0954 57.156 77.0567 57.1493 77.014 57.144C76.974 57.1387 76.9354 57.136 76.898 57.136C76.8154 57.136 76.7367 57.1533 76.662 57.188C76.5874 57.2227 76.5207 57.272 76.462 57.336C76.4034 57.3973 76.3567 57.472 76.322 57.56C76.29 57.648 76.274 57.7467 76.274 57.856V59H75.922V56.856H76.21L76.25 57.248H76.266C76.3114 57.168 76.366 57.096 76.43 57.032C76.494 56.9653 76.5674 56.9133 76.65 56.876C76.7327 56.836 76.8234 56.816 76.922 56.816ZM78.3083 56.82C78.5696 56.82 78.7629 56.8773 78.8883 56.992C79.0136 57.1067 79.0763 57.2893 79.0763 57.54V59H78.8203L78.7523 58.696H78.7363C78.6749 58.7733 78.6109 58.8387 78.5443 58.892C78.4803 58.9427 78.4056 58.98 78.3203 59.004C78.2376 59.028 78.1363 59.04 78.0163 59.04C77.8883 59.04 77.7723 59.0173 77.6683 58.972C77.5669 58.9267 77.4869 58.8573 77.4283 58.764C77.3696 58.668 77.3403 58.548 77.3403 58.404C77.3403 58.1907 77.4243 58.0267 77.5923 57.912C77.7603 57.7947 78.0189 57.7307 78.3683 57.72L78.7323 57.708V57.58C78.7323 57.4013 78.6936 57.2773 78.6163 57.208C78.5389 57.1387 78.4296 57.104 78.2883 57.104C78.1763 57.104 78.0696 57.1213 77.9683 57.156C77.8669 57.188 77.7723 57.2253 77.6842 57.268L77.5763 57.004C77.6696 56.9533 77.7803 56.9107 77.9083 56.876C78.0363 56.8387 78.1696 56.82 78.3083 56.82ZM78.4123 57.964C78.1456 57.9747 77.9603 58.0173 77.8563 58.092C77.7549 58.1667 77.7043 58.272 77.7043 58.408C77.7043 58.528 77.7403 58.616 77.8123 58.672C77.8869 58.728 77.9816 58.756 78.0963 58.756C78.2776 58.756 78.4283 58.7067 78.5483 58.608C78.6683 58.5067 78.7283 58.352 78.7283 58.144V57.952L78.4123 57.964ZM80.4984 56.816C80.6398 56.816 80.7664 56.8427 80.8784 56.896C80.9931 56.9493 81.0904 57.0307 81.1704 57.14H81.1904L81.2384 56.856H81.5184V59.036C81.5184 59.2387 81.4838 59.408 81.4144 59.544C81.3451 59.6827 81.2398 59.7867 81.0984 59.856C80.9571 59.9253 80.7771 59.96 80.5584 59.96C80.4038 59.96 80.2611 59.948 80.1304 59.924C80.0024 59.9027 79.8878 59.8693 79.7864 59.824V59.5C79.8558 59.5347 79.9318 59.564 80.0144 59.588C80.0971 59.6147 80.1864 59.6347 80.2824 59.648C80.3784 59.6613 80.4771 59.668 80.5784 59.668C80.7624 59.668 80.9064 59.6133 81.0104 59.504C81.1171 59.3973 81.1704 59.2507 81.1704 59.064V58.98C81.1704 58.948 81.1718 58.9027 81.1744 58.844C81.1771 58.7827 81.1798 58.74 81.1824 58.716H81.1664C81.0918 58.8253 80.9984 58.9067 80.8864 58.96C80.7771 59.0133 80.6491 59.04 80.5024 59.04C80.2251 59.04 80.0078 58.9427 79.8504 58.748C79.6958 58.5533 79.6184 58.2813 79.6184 57.932C79.6184 57.7027 79.6531 57.5053 79.7224 57.34C79.7944 57.172 79.8958 57.0427 80.0264 56.952C80.1571 56.8613 80.3144 56.816 80.4984 56.816ZM80.5464 57.112C80.4264 57.112 80.3238 57.144 80.2384 57.208C80.1558 57.272 80.0918 57.3653 80.0464 57.488C80.0038 57.6107 79.9824 57.76 79.9824 57.936C79.9824 58.2 80.0304 58.4027 80.1264 58.544C80.2251 58.6827 80.3678 58.752 80.5544 58.752C80.6638 58.752 80.7571 58.7387 80.8344 58.712C80.9118 58.6827 80.9758 58.6387 81.0264 58.58C81.0771 58.5187 81.1144 58.4413 81.1384 58.348C81.1624 58.2547 81.1744 58.144 81.1744 58.016V57.932C81.1744 57.7373 81.1518 57.58 81.1064 57.46C81.0638 57.34 80.9958 57.252 80.9024 57.196C80.8091 57.14 80.6904 57.112 80.5464 57.112ZM83.0274 56.816C83.2114 56.816 83.3687 56.856 83.4994 56.936C83.6327 57.016 83.734 57.1293 83.8034 57.276C83.8754 57.42 83.9114 57.5893 83.9114 57.784V57.996H82.4434C82.4487 58.2387 82.51 58.424 82.6274 58.552C82.7474 58.6773 82.914 58.74 83.1274 58.74C83.2634 58.74 83.3834 58.728 83.4874 58.704C83.594 58.6773 83.7034 58.64 83.8154 58.592V58.9C83.706 58.948 83.598 58.9827 83.4914 59.004C83.3847 59.028 83.258 59.04 83.1114 59.04C82.9087 59.04 82.7287 58.9987 82.5714 58.916C82.4167 58.8333 82.2954 58.7107 82.2074 58.548C82.122 58.3827 82.0794 58.1813 82.0794 57.944C82.0794 57.7093 82.118 57.508 82.1954 57.34C82.2754 57.172 82.386 57.0427 82.5274 56.952C82.6714 56.8613 82.838 56.816 83.0274 56.816ZM83.0234 57.104C82.8554 57.104 82.722 57.1587 82.6234 57.268C82.5274 57.3747 82.47 57.524 82.4514 57.716H83.5434C83.5434 57.5933 83.5247 57.4867 83.4874 57.396C83.45 57.3053 83.3927 57.2347 83.3154 57.184C83.2407 57.1307 83.1434 57.104 83.0234 57.104ZM86.8092 56.816C87.0519 56.816 87.2332 56.8787 87.3532 57.004C87.4732 57.1267 87.5332 57.3267 87.5332 57.604V59H87.1852V57.62C87.1852 57.452 87.1492 57.3253 87.0772 57.24C87.0079 57.1547 86.8985 57.112 86.7492 57.112C86.5412 57.112 86.3919 57.172 86.3012 57.292C86.2132 57.412 86.1692 57.5867 86.1692 57.816V59H85.8212V57.62C85.8212 57.508 85.8052 57.4147 85.7732 57.34C85.7412 57.2627 85.6932 57.2053 85.6292 57.168C85.5652 57.1307 85.4825 57.112 85.3812 57.112C85.2372 57.112 85.1239 57.1427 85.0412 57.204C84.9585 57.2627 84.8985 57.3493 84.8612 57.464C84.8265 57.5787 84.8092 57.72 84.8092 57.888V59H84.4572V56.856H84.7412L84.7932 57.148H84.8132C84.8585 57.0733 84.9132 57.012 84.9772 56.964C85.0439 56.9133 85.1172 56.876 85.1972 56.852C85.2772 56.828 85.3599 56.816 85.4452 56.816C85.6105 56.816 85.7479 56.8453 85.8572 56.904C85.9692 56.9627 86.0505 57.0533 86.1012 57.176H86.1212C86.1932 57.0533 86.2905 56.9627 86.4132 56.904C86.5385 56.8453 86.6705 56.816 86.8092 56.816ZM89.9945 59.04C89.7279 59.04 89.5145 58.948 89.3545 58.764C89.1945 58.5773 89.1145 58.3 89.1145 57.932C89.1145 57.564 89.1945 57.2867 89.3545 57.1C89.5172 56.9107 89.7319 56.816 89.9985 56.816C90.1105 56.816 90.2079 56.8307 90.2905 56.86C90.3732 56.8867 90.4452 56.924 90.5065 56.972C90.5679 57.02 90.6199 57.0733 90.6625 57.132H90.6865C90.6839 57.0973 90.6785 57.0467 90.6705 56.98C90.6652 56.9107 90.6625 56.856 90.6625 56.816V55.96H91.0145V59H90.7305L90.6785 58.712H90.6625C90.6199 58.7733 90.5679 58.8293 90.5065 58.88C90.4452 58.928 90.3719 58.9667 90.2865 58.996C90.2039 59.0253 90.1065 59.04 89.9945 59.04ZM90.0505 58.748C90.2772 58.748 90.4359 58.6867 90.5265 58.564C90.6199 58.4387 90.6665 58.2507 90.6665 58V57.936C90.6665 57.6693 90.6225 57.4653 90.5345 57.324C90.4465 57.18 90.2839 57.108 90.0465 57.108C89.8572 57.108 89.7145 57.184 89.6185 57.336C89.5252 57.4853 89.4785 57.6867 89.4785 57.94C89.4785 58.196 89.5252 58.3947 89.6185 58.536C89.7145 58.6773 89.8585 58.748 90.0505 58.748ZM92.5075 56.82C92.7688 56.82 92.9621 56.8773 93.0875 56.992C93.2128 57.1067 93.2755 57.2893 93.2755 57.54V59H93.0195L92.9515 58.696H92.9355C92.8741 58.7733 92.8101 58.8387 92.7435 58.892C92.6795 58.9427 92.6048 58.98 92.5195 59.004C92.4368 59.028 92.3355 59.04 92.2155 59.04C92.0875 59.04 91.9715 59.0173 91.8675 58.972C91.7661 58.9267 91.6861 58.8573 91.6275 58.764C91.5688 58.668 91.5395 58.548 91.5395 58.404C91.5395 58.1907 91.6235 58.0267 91.7915 57.912C91.9595 57.7947 92.2181 57.7307 92.5675 57.72L92.9315 57.708V57.58C92.9315 57.4013 92.8928 57.2773 92.8155 57.208C92.7381 57.1387 92.6288 57.104 92.4875 57.104C92.3755 57.104 92.2688 57.1213 92.1675 57.156C92.0661 57.188 91.9715 57.2253 91.8835 57.268L91.7755 57.004C91.8688 56.9533 91.9795 56.9107 92.1075 56.876C92.2355 56.8387 92.3688 56.82 92.5075 56.82ZM92.6115 57.964C92.3448 57.9747 92.1595 58.0173 92.0555 58.092C91.9541 58.1667 91.9035 58.272 91.9035 58.408C91.9035 58.528 91.9395 58.616 92.0115 58.672C92.0861 58.728 92.1808 58.756 92.2955 58.756C92.4768 58.756 92.6275 58.7067 92.7475 58.608C92.8675 58.5067 92.9275 58.352 92.9275 58.144V57.952L92.6115 57.964ZM95.9287 59H95.5687V56.46H94.6767V56.144H96.8167V56.46H95.9287V59ZM97.7461 56.816C97.9301 56.816 98.0875 56.856 98.2181 56.936C98.3515 57.016 98.4528 57.1293 98.5221 57.276C98.5941 57.42 98.6301 57.5893 98.6301 57.784V57.996H97.1621C97.1675 58.2387 97.2288 58.424 97.3461 58.552C97.4661 58.6773 97.6328 58.74 97.8461 58.74C97.9821 58.74 98.1021 58.728 98.2061 58.704C98.3128 58.6773 98.4221 58.64 98.5341 58.592V58.9C98.4248 58.948 98.3168 58.9827 98.2101 59.004C98.1035 59.028 97.9768 59.04 97.8301 59.04C97.6275 59.04 97.4475 58.9987 97.2901 58.916C97.1355 58.8333 97.0141 58.7107 96.9261 58.548C96.8408 58.3827 96.7981 58.1813 96.7981 57.944C96.7981 57.7093 96.8368 57.508 96.9141 57.34C96.9941 57.172 97.1048 57.0427 97.2461 56.952C97.3901 56.8613 97.5568 56.816 97.7461 56.816ZM97.7421 57.104C97.5741 57.104 97.4408 57.1587 97.3421 57.268C97.2461 57.3747 97.1888 57.524 97.1701 57.716H98.2621C98.2621 57.5933 98.2435 57.4867 98.2061 57.396C98.1688 57.3053 98.1115 57.2347 98.0341 57.184C97.9595 57.1307 97.8621 57.104 97.7421 57.104ZM100.208 56.816C100.464 56.816 100.657 56.8787 100.788 57.004C100.919 57.1267 100.984 57.3267 100.984 57.604V59H100.636V57.628C100.636 57.4547 100.597 57.3253 100.52 57.24C100.443 57.1547 100.321 57.112 100.156 57.112C99.9186 57.112 99.7546 57.1787 99.6639 57.312C99.5733 57.4453 99.5279 57.6373 99.5279 57.888V59H99.1759V56.856H99.4599L99.5119 57.148H99.5319C99.5799 57.0733 99.6386 57.012 99.7079 56.964C99.7799 56.9133 99.8586 56.876 99.9439 56.852C100.029 56.828 100.117 56.816 100.208 56.816ZM103.045 58.408C103.045 58.5467 103.01 58.6627 102.941 58.756C102.871 58.8493 102.773 58.92 102.645 58.968C102.517 59.016 102.365 59.04 102.189 59.04C102.039 59.04 101.91 59.028 101.801 59.004C101.694 58.98 101.599 58.9467 101.517 58.904V58.584C101.602 58.6267 101.705 58.6667 101.825 58.704C101.947 58.7387 102.071 58.756 102.197 58.756C102.375 58.756 102.505 58.728 102.585 58.672C102.665 58.6133 102.705 58.536 102.705 58.44C102.705 58.3867 102.69 58.3387 102.661 58.296C102.631 58.2533 102.578 58.2107 102.501 58.168C102.426 58.1253 102.318 58.0773 102.177 58.024C102.038 57.9707 101.919 57.9173 101.821 57.864C101.722 57.8107 101.646 57.7467 101.593 57.672C101.539 57.5973 101.513 57.5013 101.513 57.384C101.513 57.2027 101.586 57.0627 101.733 56.964C101.882 56.8653 102.077 56.816 102.317 56.816C102.447 56.816 102.569 56.8293 102.681 56.856C102.795 56.88 102.902 56.9147 103.001 56.96L102.881 57.24C102.822 57.2133 102.759 57.1907 102.693 57.172C102.629 57.1507 102.563 57.1347 102.497 57.124C102.43 57.1107 102.362 57.104 102.293 57.104C102.149 57.104 102.038 57.128 101.961 57.176C101.886 57.2213 101.849 57.284 101.849 57.364C101.849 57.4227 101.866 57.4733 101.901 57.516C101.935 57.556 101.993 57.596 102.073 57.636C102.155 57.6733 102.265 57.7187 102.401 57.772C102.537 57.8227 102.653 57.8747 102.749 57.928C102.845 57.9813 102.918 58.0467 102.969 58.124C103.019 58.1987 103.045 58.2933 103.045 58.408ZM104.375 56.82C104.636 56.82 104.829 56.8773 104.955 56.992C105.08 57.1067 105.143 57.2893 105.143 57.54V59H104.887L104.819 58.696H104.803C104.741 58.7733 104.677 58.8387 104.611 58.892C104.547 58.9427 104.472 58.98 104.387 59.004C104.304 59.028 104.203 59.04 104.083 59.04C103.955 59.04 103.839 59.0173 103.735 58.972C103.633 58.9267 103.553 58.8573 103.495 58.764C103.436 58.668 103.407 58.548 103.407 58.404C103.407 58.1907 103.491 58.0267 103.659 57.912C103.827 57.7947 104.085 57.7307 104.435 57.72L104.799 57.708V57.58C104.799 57.4013 104.76 57.2773 104.683 57.208C104.605 57.1387 104.496 57.104 104.355 57.104C104.243 57.104 104.136 57.1213 104.035 57.156C103.933 57.188 103.839 57.2253 103.751 57.268L103.643 57.004C103.736 56.9533 103.847 56.9107 103.975 56.876C104.103 56.8387 104.236 56.82 104.375 56.82ZM104.479 57.964C104.212 57.9747 104.027 58.0173 103.923 58.092C103.821 58.1667 103.771 58.272 103.771 58.408C103.771 58.528 103.807 58.616 103.879 58.672C103.953 58.728 104.048 58.756 104.163 58.756C104.344 58.756 104.495 58.7067 104.615 58.608C104.735 58.5067 104.795 58.352 104.795 58.144V57.952L104.479 57.964ZM103.615 56.576C103.623 56.496 103.637 56.4253 103.659 56.364C103.683 56.3 103.713 56.2467 103.751 56.204C103.788 56.1587 103.832 56.124 103.883 56.1C103.933 56.076 103.991 56.064 104.055 56.064C104.113 56.064 104.169 56.076 104.223 56.1C104.279 56.1213 104.332 56.148 104.383 56.18C104.433 56.2093 104.481 56.236 104.527 56.26C104.575 56.2813 104.62 56.292 104.663 56.292C104.724 56.292 104.771 56.2733 104.803 56.236C104.837 56.196 104.864 56.1373 104.883 56.06H105.083C105.067 56.2147 105.021 56.3387 104.947 56.432C104.872 56.5253 104.772 56.572 104.647 56.572C104.591 56.572 104.536 56.5613 104.483 56.54C104.429 56.516 104.376 56.4893 104.323 56.46C104.272 56.428 104.223 56.4013 104.175 56.38C104.129 56.356 104.084 56.344 104.039 56.344C103.975 56.344 103.927 56.364 103.895 56.404C103.863 56.4413 103.837 56.4987 103.819 56.576H103.615ZM107.669 57.924C107.669 58.1027 107.645 58.2613 107.597 58.4C107.552 58.536 107.485 58.652 107.397 58.748C107.312 58.844 107.206 58.9173 107.081 58.968C106.958 59.016 106.821 59.04 106.669 59.04C106.528 59.04 106.397 59.016 106.277 58.968C106.157 58.9173 106.053 58.844 105.965 58.748C105.877 58.652 105.808 58.536 105.757 58.4C105.709 58.2613 105.685 58.1027 105.685 57.924C105.685 57.6867 105.725 57.4867 105.805 57.324C105.885 57.1587 106 57.0333 106.149 56.948C106.298 56.86 106.476 56.816 106.681 56.816C106.876 56.816 107.046 56.86 107.193 56.948C107.342 57.0333 107.458 57.1587 107.541 57.324C107.626 57.4867 107.669 57.6867 107.669 57.924ZM106.049 57.924C106.049 58.092 106.07 58.2387 106.113 58.364C106.158 58.4867 106.228 58.5813 106.321 58.648C106.414 58.7147 106.533 58.748 106.677 58.748C106.821 58.748 106.94 58.7147 107.033 58.648C107.126 58.5813 107.194 58.4867 107.237 58.364C107.282 58.2387 107.305 58.092 107.305 57.924C107.305 57.7533 107.282 57.608 107.237 57.488C107.192 57.368 107.122 57.276 107.029 57.212C106.938 57.1453 106.82 57.112 106.673 57.112C106.454 57.112 106.296 57.184 106.197 57.328C106.098 57.472 106.049 57.6707 106.049 57.924ZM110.026 59.04C109.759 59.04 109.546 58.948 109.386 58.764C109.226 58.5773 109.146 58.3 109.146 57.932C109.146 57.564 109.226 57.2867 109.386 57.1C109.548 56.9107 109.763 56.816 110.03 56.816C110.142 56.816 110.239 56.8307 110.322 56.86C110.404 56.8867 110.476 56.924 110.538 56.972C110.599 57.02 110.651 57.0733 110.694 57.132H110.718C110.715 57.0973 110.71 57.0467 110.702 56.98C110.696 56.9107 110.694 56.856 110.694 56.816V55.96H111.046V59H110.762L110.71 58.712H110.694C110.651 58.7733 110.599 58.8293 110.538 58.88C110.476 58.928 110.403 58.9667 110.318 58.996C110.235 59.0253 110.138 59.04 110.026 59.04ZM110.082 58.748C110.308 58.748 110.467 58.6867 110.558 58.564C110.651 58.4387 110.698 58.2507 110.698 58V57.936C110.698 57.6693 110.654 57.4653 110.566 57.324C110.478 57.18 110.315 57.108 110.078 57.108C109.888 57.108 109.746 57.184 109.65 57.336C109.556 57.4853 109.51 57.6867 109.51 57.94C109.51 58.196 109.556 58.3947 109.65 58.536C109.746 58.6773 109.89 58.748 110.082 58.748ZM112.555 56.816C112.739 56.816 112.896 56.856 113.027 56.936C113.16 57.016 113.261 57.1293 113.331 57.276C113.403 57.42 113.439 57.5893 113.439 57.784V57.996H111.971C111.976 58.2387 112.037 58.424 112.155 58.552C112.275 58.6773 112.441 58.74 112.655 58.74C112.791 58.74 112.911 58.728 113.015 58.704C113.121 58.6773 113.231 58.64 113.343 58.592V58.9C113.233 58.948 113.125 58.9827 113.019 59.004C112.912 59.028 112.785 59.04 112.639 59.04C112.436 59.04 112.256 58.9987 112.099 58.916C111.944 58.8333 111.823 58.7107 111.735 58.548C111.649 58.3827 111.607 58.1813 111.607 57.944C111.607 57.7093 111.645 57.508 111.723 57.34C111.803 57.172 111.913 57.0427 112.055 56.952C112.199 56.8613 112.365 56.816 112.555 56.816ZM112.551 57.104C112.383 57.104 112.249 57.1587 112.151 57.268C112.055 57.3747 111.997 57.524 111.979 57.716H113.071C113.071 57.5933 113.052 57.4867 113.015 57.396C112.977 57.3053 112.92 57.2347 112.843 57.184C112.768 57.1307 112.671 57.104 112.551 57.104ZM116.692 58.236C116.692 58.4067 116.65 58.552 116.568 58.672C116.485 58.7893 116.366 58.88 116.212 58.944C116.06 59.008 115.88 59.04 115.672 59.04C115.565 59.04 115.462 59.0347 115.364 59.024C115.268 59.0133 115.18 58.9987 115.1 58.98C115.02 58.9587 114.949 58.9333 114.888 58.904V58.56C114.984 58.6027 115.102 58.6413 115.244 58.676C115.388 58.7107 115.536 58.728 115.688 58.728C115.829 58.728 115.948 58.7093 116.044 58.672C116.14 58.6347 116.212 58.5813 116.26 58.512C116.308 58.4427 116.332 58.3613 116.332 58.268C116.332 58.1747 116.312 58.096 116.272 58.032C116.232 57.968 116.162 57.9093 116.064 57.856C115.968 57.8 115.833 57.7413 115.66 57.68C115.537 57.6347 115.429 57.5867 115.336 57.536C115.245 57.4827 115.169 57.4227 115.108 57.356C115.046 57.2893 115 57.2133 114.968 57.128C114.938 57.0427 114.924 56.944 114.924 56.832C114.924 56.68 114.962 56.5507 115.04 56.444C115.117 56.3347 115.224 56.2507 115.36 56.192C115.498 56.1333 115.657 56.104 115.836 56.104C115.993 56.104 116.137 56.1187 116.268 56.148C116.398 56.1773 116.517 56.216 116.624 56.264L116.512 56.572C116.413 56.5293 116.305 56.4933 116.188 56.464C116.073 56.4347 115.953 56.42 115.828 56.42C115.708 56.42 115.608 56.4373 115.528 56.472C115.448 56.5067 115.388 56.556 115.348 56.62C115.308 56.6813 115.288 56.7533 115.288 56.836C115.288 56.932 115.308 57.012 115.348 57.076C115.388 57.14 115.453 57.1973 115.544 57.248C115.634 57.2987 115.757 57.3533 115.912 57.412C116.08 57.4733 116.221 57.54 116.336 57.612C116.453 57.6813 116.541 57.7653 116.6 57.864C116.661 57.9627 116.692 58.0867 116.692 58.236ZM118.031 56.82C118.292 56.82 118.486 56.8773 118.611 56.992C118.736 57.1067 118.799 57.2893 118.799 57.54V59H118.543L118.475 58.696H118.459C118.398 58.7733 118.334 58.8387 118.267 58.892C118.203 58.9427 118.128 58.98 118.043 59.004C117.96 59.028 117.859 59.04 117.739 59.04C117.611 59.04 117.495 59.0173 117.391 58.972C117.29 58.9267 117.21 58.8573 117.151 58.764C117.092 58.668 117.063 58.548 117.063 58.404C117.063 58.1907 117.147 58.0267 117.315 57.912C117.483 57.7947 117.742 57.7307 118.091 57.72L118.455 57.708V57.58C118.455 57.4013 118.416 57.2773 118.339 57.208C118.262 57.1387 118.152 57.104 118.011 57.104C117.899 57.104 117.792 57.1213 117.691 57.156C117.59 57.188 117.495 57.2253 117.407 57.268L117.299 57.004C117.392 56.9533 117.503 56.9107 117.631 56.876C117.759 56.8387 117.892 56.82 118.031 56.82ZM118.135 57.964C117.868 57.9747 117.683 58.0173 117.579 58.092C117.478 58.1667 117.427 58.272 117.427 58.408C117.427 58.528 117.463 58.616 117.535 58.672C117.61 58.728 117.704 58.756 117.819 58.756C118 58.756 118.151 58.7067 118.271 58.608C118.391 58.5067 118.451 58.352 118.451 58.144V57.952L118.135 57.964ZM119.813 59H119.461V56.856H119.813V59ZM120.229 55.976C120.205 56.0133 120.17 56.0587 120.125 56.112C120.08 56.1653 120.029 56.2213 119.973 56.28C119.92 56.336 119.865 56.3907 119.809 56.444C119.756 56.4947 119.705 56.5387 119.657 56.576H119.425V56.528C119.465 56.4773 119.508 56.4173 119.553 56.348C119.601 56.2787 119.648 56.208 119.693 56.136C119.738 56.0613 119.776 55.9947 119.805 55.936H120.229V55.976ZM121.252 59.04C120.986 59.04 120.772 58.948 120.612 58.764C120.452 58.5773 120.372 58.3 120.372 57.932C120.372 57.564 120.452 57.2867 120.612 57.1C120.775 56.9107 120.99 56.816 121.256 56.816C121.368 56.816 121.466 56.8307 121.548 56.86C121.631 56.8867 121.703 56.924 121.764 56.972C121.826 57.02 121.878 57.0733 121.92 57.132H121.944C121.942 57.0973 121.936 57.0467 121.928 56.98C121.923 56.9107 121.92 56.856 121.92 56.816V55.96H122.272V59H121.988L121.936 58.712H121.92C121.878 58.7733 121.826 58.8293 121.764 58.88C121.703 58.928 121.63 58.9667 121.544 58.996C121.462 59.0253 121.364 59.04 121.252 59.04ZM121.308 58.748C121.535 58.748 121.694 58.6867 121.784 58.564C121.878 58.4387 121.924 58.2507 121.924 58V57.936C121.924 57.6693 121.88 57.4653 121.792 57.324C121.704 57.18 121.542 57.108 121.304 57.108C121.115 57.108 120.972 57.184 120.876 57.336C120.783 57.4853 120.736 57.6867 120.736 57.94C120.736 58.196 120.783 58.3947 120.876 58.536C120.972 58.6773 121.116 58.748 121.308 58.748ZM123.765 56.82C124.027 56.82 124.22 56.8773 124.345 56.992C124.471 57.1067 124.533 57.2893 124.533 57.54V59H124.277L124.209 58.696H124.193C124.132 58.7733 124.068 58.8387 124.001 58.892C123.937 58.9427 123.863 58.98 123.777 59.004C123.695 59.028 123.593 59.04 123.473 59.04C123.345 59.04 123.229 59.0173 123.125 58.972C123.024 58.9267 122.944 58.8573 122.885 58.764C122.827 58.668 122.797 58.548 122.797 58.404C122.797 58.1907 122.881 58.0267 123.049 57.912C123.217 57.7947 123.476 57.7307 123.825 57.72L124.189 57.708V57.58C124.189 57.4013 124.151 57.2773 124.073 57.208C123.996 57.1387 123.887 57.104 123.745 57.104C123.633 57.104 123.527 57.1213 123.425 57.156C123.324 57.188 123.229 57.2253 123.141 57.268L123.033 57.004C123.127 56.9533 123.237 56.9107 123.365 56.876C123.493 56.8387 123.627 56.82 123.765 56.82ZM123.869 57.964C123.603 57.9747 123.417 58.0173 123.313 58.092C123.212 58.1667 123.161 58.272 123.161 58.408C123.161 58.528 123.197 58.616 123.269 58.672C123.344 58.728 123.439 58.756 123.553 58.756C123.735 58.756 123.885 58.7067 124.005 58.608C124.125 58.5067 124.185 58.352 124.185 58.144V57.952L123.869 57.964Z" fill="#A9A6A7"/>
<path d="M190.612 56.42C190.46 56.42 190.323 56.4467 190.2 56.5C190.077 56.5507 189.973 56.6267 189.888 56.728C189.803 56.8267 189.737 56.948 189.692 57.092C189.647 57.2333 189.624 57.3933 189.624 57.572C189.624 57.8067 189.66 58.0107 189.732 58.184C189.807 58.3573 189.916 58.4907 190.06 58.584C190.207 58.6773 190.389 58.724 190.608 58.724C190.733 58.724 190.852 58.7133 190.964 58.692C191.076 58.6707 191.185 58.644 191.292 58.612V58.924C191.185 58.964 191.075 58.9933 190.96 59.012C190.848 59.0307 190.713 59.04 190.556 59.04C190.265 59.04 190.023 58.98 189.828 58.86C189.633 58.74 189.487 58.5693 189.388 58.348C189.292 58.1267 189.244 57.8667 189.244 57.568C189.244 57.352 189.273 57.1547 189.332 56.976C189.393 56.7973 189.481 56.6427 189.596 56.512C189.713 56.3813 189.857 56.2813 190.028 56.212C190.199 56.14 190.395 56.104 190.616 56.104C190.763 56.104 190.904 56.1187 191.04 56.148C191.176 56.1773 191.297 56.2187 191.404 56.272L191.26 56.576C191.172 56.536 191.073 56.5 190.964 56.468C190.857 56.436 190.74 56.42 190.612 56.42ZM192.679 56.82C192.941 56.82 193.134 56.8773 193.259 56.992C193.385 57.1067 193.447 57.2893 193.447 57.54V59H193.191L193.123 58.696H193.107C193.046 58.7733 192.982 58.8387 192.915 58.892C192.851 58.9427 192.777 58.98 192.691 59.004C192.609 59.028 192.507 59.04 192.387 59.04C192.259 59.04 192.143 59.0173 192.039 58.972C191.938 58.9267 191.858 58.8573 191.799 58.764C191.741 58.668 191.711 58.548 191.711 58.404C191.711 58.1907 191.795 58.0267 191.963 57.912C192.131 57.7947 192.39 57.7307 192.739 57.72L193.103 57.708V57.58C193.103 57.4013 193.065 57.2773 192.987 57.208C192.91 57.1387 192.801 57.104 192.659 57.104C192.547 57.104 192.441 57.1213 192.339 57.156C192.238 57.188 192.143 57.2253 192.055 57.268L191.947 57.004C192.041 56.9533 192.151 56.9107 192.279 56.876C192.407 56.8387 192.541 56.82 192.679 56.82ZM192.783 57.964C192.517 57.9747 192.331 58.0173 192.227 58.092C192.126 58.1667 192.075 58.272 192.075 58.408C192.075 58.528 192.111 58.616 192.183 58.672C192.258 58.728 192.353 58.756 192.467 58.756C192.649 58.756 192.799 58.7067 192.919 58.608C193.039 58.5067 193.099 58.352 193.099 58.144V57.952L192.783 57.964ZM195.11 56.816C195.15 56.816 195.192 56.8187 195.238 56.824C195.286 56.8267 195.327 56.832 195.362 56.84L195.318 57.164C195.283 57.156 195.244 57.1493 195.202 57.144C195.162 57.1387 195.123 57.136 195.086 57.136C195.003 57.136 194.924 57.1533 194.85 57.188C194.775 57.2227 194.708 57.272 194.65 57.336C194.591 57.3973 194.544 57.472 194.51 57.56C194.478 57.648 194.462 57.7467 194.462 57.856V59H194.11V56.856H194.398L194.438 57.248H194.454C194.499 57.168 194.554 57.096 194.618 57.032C194.682 56.9653 194.755 56.9133 194.838 56.876C194.92 56.836 195.011 56.816 195.11 56.816ZM196.483 56.816C196.624 56.816 196.751 56.8427 196.863 56.896C196.977 56.9493 197.075 57.0307 197.155 57.14H197.175L197.223 56.856H197.503V59.036C197.503 59.2387 197.468 59.408 197.399 59.544C197.329 59.6827 197.224 59.7867 197.083 59.856C196.941 59.9253 196.761 59.96 196.543 59.96C196.388 59.96 196.245 59.948 196.115 59.924C195.987 59.9027 195.872 59.8693 195.771 59.824V59.5C195.84 59.5347 195.916 59.564 195.999 59.588C196.081 59.6147 196.171 59.6347 196.267 59.648C196.363 59.6613 196.461 59.668 196.563 59.668C196.747 59.668 196.891 59.6133 196.995 59.504C197.101 59.3973 197.155 59.2507 197.155 59.064V58.98C197.155 58.948 197.156 58.9027 197.159 58.844C197.161 58.7827 197.164 58.74 197.167 58.716H197.151C197.076 58.8253 196.983 58.9067 196.871 58.96C196.761 59.0133 196.633 59.04 196.487 59.04C196.209 59.04 195.992 58.9427 195.835 58.748C195.68 58.5533 195.603 58.2813 195.603 57.932C195.603 57.7027 195.637 57.5053 195.707 57.34C195.779 57.172 195.88 57.0427 196.011 56.952C196.141 56.8613 196.299 56.816 196.483 56.816ZM196.531 57.112C196.411 57.112 196.308 57.144 196.223 57.208C196.14 57.272 196.076 57.3653 196.031 57.488C195.988 57.6107 195.967 57.76 195.967 57.936C195.967 58.2 196.015 58.4027 196.111 58.544C196.209 58.6827 196.352 58.752 196.539 58.752C196.648 58.752 196.741 58.7387 196.819 58.712C196.896 58.6827 196.96 58.6387 197.011 58.58C197.061 58.5187 197.099 58.4413 197.123 58.348C197.147 58.2547 197.159 58.144 197.159 58.016V57.932C197.159 57.7373 197.136 57.58 197.091 57.46C197.048 57.34 196.98 57.252 196.887 57.196C196.793 57.14 196.675 57.112 196.531 57.112ZM198.996 56.82C199.257 56.82 199.45 56.8773 199.576 56.992C199.701 57.1067 199.764 57.2893 199.764 57.54V59H199.508L199.44 58.696H199.424C199.362 58.7733 199.298 58.8387 199.232 58.892C199.168 58.9427 199.093 58.98 199.008 59.004C198.925 59.028 198.824 59.04 198.704 59.04C198.576 59.04 198.46 59.0173 198.356 58.972C198.254 58.9267 198.174 58.8573 198.116 58.764C198.057 58.668 198.028 58.548 198.028 58.404C198.028 58.1907 198.112 58.0267 198.28 57.912C198.448 57.7947 198.706 57.7307 199.056 57.72L199.42 57.708V57.58C199.42 57.4013 199.381 57.2773 199.304 57.208C199.226 57.1387 199.117 57.104 198.976 57.104C198.864 57.104 198.757 57.1213 198.656 57.156C198.554 57.188 198.46 57.2253 198.372 57.268L198.264 57.004C198.357 56.9533 198.468 56.9107 198.596 56.876C198.724 56.8387 198.857 56.82 198.996 56.82ZM199.1 57.964C198.833 57.9747 198.648 58.0173 198.544 58.092C198.442 58.1667 198.392 58.272 198.392 58.408C198.392 58.528 198.428 58.616 198.5 58.672C198.574 58.728 198.669 58.756 198.784 58.756C198.965 58.756 199.116 58.7067 199.236 58.608C199.356 58.5067 199.416 58.352 199.416 58.144V57.952L199.1 57.964ZM201.822 58.408C201.822 58.5467 201.787 58.6627 201.718 58.756C201.649 58.8493 201.55 58.92 201.422 58.968C201.294 59.016 201.142 59.04 200.966 59.04C200.817 59.04 200.687 59.028 200.578 59.004C200.471 58.98 200.377 58.9467 200.294 58.904V58.584C200.379 58.6267 200.482 58.6667 200.602 58.704C200.725 58.7387 200.849 58.756 200.974 58.756C201.153 58.756 201.282 58.728 201.362 58.672C201.442 58.6133 201.482 58.536 201.482 58.44C201.482 58.3867 201.467 58.3387 201.438 58.296C201.409 58.2533 201.355 58.2107 201.278 58.168C201.203 58.1253 201.095 58.0773 200.954 58.024C200.815 57.9707 200.697 57.9173 200.598 57.864C200.499 57.8107 200.423 57.7467 200.37 57.672C200.317 57.5973 200.29 57.5013 200.29 57.384C200.29 57.2027 200.363 57.0627 200.51 56.964C200.659 56.8653 200.854 56.816 201.094 56.816C201.225 56.816 201.346 56.8293 201.458 56.856C201.573 56.88 201.679 56.9147 201.778 56.96L201.658 57.24C201.599 57.2133 201.537 57.1907 201.47 57.172C201.406 57.1507 201.341 57.1347 201.274 57.124C201.207 57.1107 201.139 57.104 201.07 57.104C200.926 57.104 200.815 57.128 200.738 57.176C200.663 57.2213 200.626 57.284 200.626 57.364C200.626 57.4227 200.643 57.4733 200.678 57.516C200.713 57.556 200.77 57.596 200.85 57.636C200.933 57.6733 201.042 57.7187 201.178 57.772C201.314 57.8227 201.43 57.8747 201.526 57.928C201.622 57.9813 201.695 58.0467 201.746 58.124C201.797 58.1987 201.822 58.2933 201.822 58.408Z" fill="#A9A6A7"/>
</g>
<defs>
<clipPath id="clip0_157_1100">
<rect width="218" height="62" fill="white"/>
</clipPath>
</defs>
</svg>
