<svg width="218" height="67" viewBox="0 0 218 67" fill="none" xmlns="http://www.w3.org/2000/svg">
<g clip-path="url(#clip0_141_1384)">
<path d="M67.5414 17.5V11.5" stroke="#808080" stroke-width="0.5"/>
<path d="M72.5276 17.5V11.5" stroke="#808080" stroke-width="0.5"/>
<path d="M67.5276 17.5L72.7238 14.5" stroke="#808080" stroke-width="0.5"/>
<path d="M67.5276 11.5L72.7238 14.5" stroke="#808080" stroke-width="0.5"/>
<path d="M67.4863 14.5H65.4863" stroke="#808080" stroke-width="0.5"/>
<path d="M74.5276 14.5H72.5276" stroke="#808080" stroke-width="0.5"/>
<path d="M51.6136 52.5506V41.9142L51.6755 37.3498L47.8101 31.2208" stroke="#808080" stroke-width="0.5"/>
<path d="M87.6667 53C87.6667 53.7364 88.2637 54.3333 89.0001 54.3333C89.7364 54.3333 90.3334 53.7364 90.3334 53C90.3334 52.2636 89.7364 51.6667 89.0001 51.6667C88.2637 51.6667 87.6667 52.2636 87.6667 53ZM51.782 53.25L89.0001 53.25L89.0001 52.75L51.782 52.75L51.782 53.25Z" fill="#808080"/>
<path d="M87.6667 14.5065C87.6667 15.2429 88.2637 15.8398 89.0001 15.8398C89.7364 15.8398 90.3334 15.2429 90.3334 14.5065C90.3334 13.7701 89.7364 13.1732 89.0001 13.1732C88.2637 13.1732 87.6667 13.7701 87.6667 14.5065ZM124.674 14.5065C124.674 15.2429 125.271 15.8398 126.007 15.8398C126.743 15.8398 127.34 15.2429 127.34 14.5065C127.34 13.7701 126.743 13.1732 126.007 13.1732C125.271 13.1732 124.674 13.7701 124.674 14.5065ZM89.0001 14.7565H126.007V14.2565H89.0001V14.7565Z" fill="#808080"/>
<path d="M161.674 14.51C161.674 15.2464 162.271 15.8433 163.007 15.8433C163.743 15.8433 164.34 15.2464 164.34 14.51C164.34 13.7736 163.743 13.1767 163.007 13.1767C162.271 13.1767 161.674 13.7736 161.674 14.51ZM126.007 14.76H163.007V14.26H126.007V14.76Z" fill="#808080"/>
<path d="M161.674 53C161.674 53.7364 162.271 54.3333 163.007 54.3333C163.743 54.3333 164.34 53.7364 164.34 53C164.34 52.2636 163.743 51.6667 163.007 51.6667C162.271 51.6667 161.674 52.2636 161.674 53ZM126.007 53.25H163.007V52.75H126.007V53.25Z" fill="#808080"/>
<path d="M124.674 53C124.674 53.7364 125.271 54.3333 126.007 54.3333C126.743 54.3333 127.34 53.7364 127.34 53C127.34 52.2636 126.743 51.6667 126.007 51.6667C125.271 51.6667 124.674 52.2636 124.674 53ZM89.2667 53.25H126.007V52.75H89.2667V53.25Z" fill="#808080"/>
<path d="M50.2925 30.2078H51.782V27.8924V23.2616V14" stroke="#808080" stroke-width="0.5"/>
<path d="M52.8348 52.7907C52.8348 52.0543 52.2378 51.4573 51.5014 51.4573C50.7651 51.4573 50.1681 52.0543 50.1681 52.7907C50.1681 53.527 50.7651 54.124 51.5014 54.124C52.2378 54.124 52.8348 53.527 52.8348 52.7907ZM41.6707 52.7867L41.6708 52.5367H41.6707V52.7867ZM41.6707 52.5367H4.49997V53.0367H41.6707V52.5367ZM51.5015 52.5407L41.6708 52.5367L41.6706 53.0367L51.5013 53.0407L51.5015 52.5407Z" fill="#808080"/>
<path d="M4.77271 14.761C4.77271 15.4514 4.21306 16.011 3.52271 16.011C2.83235 16.011 2.27271 15.4514 2.27271 14.761C2.27271 14.0707 2.83235 13.511 3.52271 13.511C4.21306 13.511 4.77271 14.0707 4.77271 14.761Z" stroke="#808080" stroke-width="0.5"/>
<path d="M4.64847 52.7999C4.64847 53.4903 4.08882 54.0499 3.39847 54.0499C2.70811 54.0499 2.14847 53.4903 2.14847 52.7999C2.14847 52.1096 2.70811 51.5499 3.39847 51.5499C4.08882 51.5499 4.64847 52.1096 4.64847 52.7999Z" stroke="#808080" stroke-width="0.5"/>
<path d="M2.592 32.098C2.728 32.07 2.83 32.132 2.898 32.284C2.91 32.312 2.92 32.34 2.928 32.368C2.936 32.404 2.94 32.47 2.94 32.566C2.94 32.726 2.904 32.948 2.832 33.232C2.72 33.692 2.576 34.062 2.4 34.342C2.3 34.486 2.198 34.598 2.094 34.678C2.01 34.738 1.926 34.778 1.842 34.798C1.806 34.806 1.748 34.81 1.668 34.81C1.548 34.81 1.438 34.796 1.338 34.768C1.002 34.652 0.846 34.392 0.87 33.988C0.882 33.796 0.98 33.45 1.164 32.95C1.236 32.738 1.276 32.602 1.284 32.542C1.304 32.45 1.294 32.398 1.254 32.386C1.206 32.37 1.15 32.38 1.086 32.416C1.002 32.468 0.936 32.55 0.888 32.662C0.848 32.734 0.804 32.856 0.756 33.028C0.744 33.052 0.736 33.066 0.732 33.07C0.724 33.078 0.676 33.082 0.588 33.082H0.456L0.438 33.064C0.426 33.052 0.42 33.036 0.42 33.016C0.428 32.952 0.462 32.852 0.522 32.716C0.594 32.564 0.684 32.43 0.792 32.314C0.872 32.238 0.952 32.182 1.032 32.146C1.096 32.118 1.174 32.104 1.266 32.104C1.366 32.104 1.452 32.122 1.524 32.158C1.576 32.186 1.616 32.216 1.644 32.248C1.676 32.276 1.706 32.316 1.734 32.368C1.77 32.444 1.786 32.524 1.782 32.608C1.782 32.688 1.756 32.798 1.704 32.938C1.7 32.958 1.692 32.982 1.68 33.01C1.612 33.202 1.57 33.318 1.554 33.358C1.402 33.81 1.36 34.132 1.428 34.324C1.472 34.468 1.574 34.538 1.734 34.534C1.754 34.534 1.774 34.532 1.794 34.528C1.874 34.516 1.952 34.472 2.028 34.396C2.188 34.236 2.334 33.888 2.466 33.352C2.502 33.196 2.516 33.082 2.508 33.01C2.492 32.87 2.438 32.754 2.346 32.662C2.314 32.63 2.292 32.6 2.28 32.572C2.268 32.548 2.262 32.512 2.262 32.464C2.262 32.416 2.266 32.38 2.274 32.356C2.318 32.256 2.384 32.184 2.472 32.14C2.504 32.12 2.544 32.106 2.592 32.098ZM3.76057 33.3956C3.84697 33.374 3.90937 33.3956 3.94777 33.4604C3.95977 33.482 3.96697 33.506 3.96937 33.5324C3.96937 33.5684 3.96097 33.6032 3.94417 33.6368C3.88897 33.7136 3.81937 33.758 3.73537 33.77C3.70897 33.77 3.68137 33.7628 3.65257 33.7484C3.62857 33.7364 3.60937 33.7148 3.59497 33.6836C3.58777 33.674 3.58297 33.6548 3.58057 33.626C3.58057 33.5876 3.58777 33.554 3.60217 33.5252C3.63577 33.458 3.68857 33.4148 3.76057 33.3956ZM3.45097 34.166C3.46777 34.1612 3.49417 34.1588 3.53017 34.1588C3.58537 34.1612 3.63337 34.1732 3.67417 34.1948C3.70537 34.2116 3.72937 34.2296 3.74617 34.2488C3.76537 34.2656 3.78337 34.2896 3.80017 34.3208C3.82177 34.3664 3.83137 34.4144 3.82897 34.4648C3.82897 34.5056 3.82657 34.5344 3.82177 34.5512C3.81937 34.556 3.76537 34.706 3.65977 35.0012C3.55897 35.27 3.50497 35.4188 3.49777 35.4476C3.47377 35.5268 3.47017 35.5796 3.48697 35.606C3.49897 35.6204 3.52417 35.6228 3.56257 35.6132C3.65617 35.5916 3.73177 35.4752 3.78937 35.264C3.80137 35.2256 3.81337 35.2052 3.82537 35.2028C3.83257 35.2004 3.85777 35.1992 3.90097 35.1992C3.95377 35.1992 3.98257 35.2016 3.98737 35.2064C4.00177 35.216 4.00177 35.2412 3.98737 35.282C3.96097 35.3756 3.92137 35.4632 3.86857 35.5448C3.77257 35.6888 3.66337 35.7692 3.54097 35.786C3.49777 35.7956 3.45337 35.7932 3.40777 35.7788C3.35977 35.7644 3.32017 35.7464 3.28897 35.7248C3.23617 35.6816 3.20137 35.6204 3.18457 35.5412C3.17497 35.4956 3.17737 35.4476 3.19177 35.3972C3.19657 35.378 3.24937 35.2304 3.35017 34.9544C3.43657 34.724 3.49177 34.5728 3.51577 34.5008C3.53977 34.4264 3.54337 34.3748 3.52657 34.346C3.51937 34.3268 3.49417 34.3232 3.45097 34.3352C3.37897 34.352 3.31537 34.4276 3.26017 34.562C3.22897 34.67 3.21337 34.7216 3.21337 34.7168C3.20617 34.7312 3.20137 34.7396 3.19897 34.742C3.19417 34.7468 3.16537 34.7492 3.11257 34.7492H3.03337L3.02257 34.7384C3.01537 34.7312 3.01177 34.7216 3.01177 34.7096C3.01657 34.6712 3.03697 34.6112 3.07297 34.5296C3.10177 34.4672 3.13177 34.4156 3.16297 34.3748C3.19417 34.3316 3.23377 34.2884 3.28177 34.2452C3.33457 34.2044 3.39097 34.178 3.45097 34.166ZM4.58367 34.166C4.62447 34.154 4.67607 34.1552 4.73847 34.1696C4.79607 34.184 4.84527 34.2104 4.88607 34.2488C4.92207 34.2848 4.94607 34.3196 4.95807 34.3532L4.97247 34.382L5.00127 34.3568C5.10447 34.2536 5.22207 34.1912 5.35407 34.1696C5.44047 34.1528 5.51967 34.154 5.59167 34.1732C5.68527 34.1924 5.75607 34.2332 5.80407 34.2956C5.83047 34.3292 5.85207 34.3736 5.86887 34.4288C5.87367 34.4504 5.87607 34.49 5.87607 34.5476C5.87607 34.61 5.87487 34.6496 5.87247 34.6664C5.84607 34.8032 5.78127 35.0156 5.67807 35.3036C5.63967 35.4068 5.61687 35.4776 5.60967 35.516C5.60247 35.576 5.60967 35.6096 5.63127 35.6168C5.66007 35.6264 5.69367 35.6204 5.73207 35.5988C5.80647 35.5532 5.86887 35.4416 5.91927 35.264C5.93127 35.2256 5.94327 35.2052 5.95527 35.2028C5.96247 35.2004 5.98767 35.1992 6.03087 35.1992C6.08367 35.1992 6.11247 35.2016 6.11727 35.2064C6.13167 35.216 6.13167 35.2412 6.11727 35.282C6.09087 35.3756 6.05127 35.4632 5.99847 35.5448C5.90247 35.6888 5.79327 35.7692 5.67087 35.786C5.62767 35.7956 5.58327 35.7932 5.53767 35.7788C5.46807 35.7644 5.41527 35.732 5.37927 35.6816C5.33367 35.6264 5.31087 35.5616 5.31087 35.4872C5.31087 35.4416 5.32887 35.3672 5.36487 35.264C5.48247 34.9472 5.54847 34.7228 5.56287 34.5908C5.57247 34.5332 5.57127 34.4792 5.55927 34.4288C5.54247 34.3808 5.51847 34.3508 5.48727 34.3388C5.46327 34.3268 5.42607 34.3244 5.37567 34.3316C5.21727 34.3556 5.08047 34.4756 4.96527 34.6916L4.93647 34.742L4.82127 35.1992C4.74447 35.5088 4.70247 35.6696 4.69527 35.6816C4.66407 35.744 4.61247 35.78 4.54047 35.7896C4.52127 35.792 4.50327 35.7908 4.48647 35.786C4.42647 35.7692 4.39407 35.732 4.38927 35.6744C4.38927 35.6528 4.43487 35.4584 4.52607 35.0912C4.61967 34.7288 4.66887 34.5308 4.67367 34.4972C4.68087 34.4348 4.67847 34.3892 4.66647 34.3604C4.65687 34.3436 4.64127 34.3328 4.61967 34.328C4.60527 34.328 4.59327 34.3316 4.58367 34.3388C4.54767 34.3604 4.51407 34.4192 4.48287 34.5152C4.47087 34.5488 4.45167 34.616 4.42527 34.7168C4.41807 34.7312 4.41327 34.7396 4.41087 34.742C4.40607 34.7468 4.37727 34.7492 4.32447 34.7492H4.24527L4.23447 34.7384C4.22727 34.7312 4.22367 34.7216 4.22367 34.7096L4.24527 34.6268C4.30527 34.418 4.38207 34.28 4.47567 34.2128C4.51407 34.1888 4.55007 34.1732 4.58367 34.166Z" fill="#808080"/>
<path d="M4.632 25.85H3.584V26.91H3.296V25.85H2.248V25.578H3.296V24.518H3.584V25.578H4.632V25.85Z" fill="#808080"/>
<line x1="2" y1="41.6" x2="5" y2="41.6" stroke="#808080" stroke-width="0.3"/>
<path d="M42.442 30.782C42.562 30.762 42.686 30.766 42.814 30.794C42.934 30.818 43.04 30.86 43.132 30.92C43.18 30.952 43.236 31.004 43.3 31.076C43.312 31.096 43.32 31.108 43.324 31.112L43.486 30.944C43.598 30.832 43.656 30.776 43.66 30.776C43.66 30.772 43.678 30.77 43.714 30.77C43.758 30.77 43.786 30.782 43.798 30.806C43.802 30.822 43.746 31.062 43.63 31.526C43.51 31.998 43.446 32.238 43.438 32.246L43.42 32.264H43.294C43.19 32.264 43.134 32.254 43.126 32.234C43.122 32.218 43.124 32.184 43.132 32.132C43.196 31.712 43.144 31.418 42.976 31.25C42.884 31.154 42.752 31.1 42.58 31.088C42.384 31.084 42.206 31.162 42.046 31.322C41.962 31.406 41.898 31.492 41.854 31.58C41.782 31.732 41.748 31.878 41.752 32.018C41.756 32.11 41.772 32.182 41.8 32.234C41.84 32.318 41.896 32.378 41.968 32.414C41.976 32.418 42.104 32.458 42.352 32.534C42.628 32.614 42.792 32.67 42.844 32.702C43.1 32.85 43.232 33.108 43.24 33.476C43.244 33.768 43.162 34.06 42.994 34.352C42.866 34.58 42.692 34.768 42.472 34.916C42.32 35.016 42.162 35.082 41.998 35.114C41.958 35.122 41.892 35.126 41.8 35.126C41.664 35.126 41.548 35.114 41.452 35.09C41.256 35.038 41.098 34.95 40.978 34.826L40.93 34.778L40.768 34.946L40.594 35.126L40.534 35.132H40.528C40.496 35.132 40.474 35.126 40.462 35.114C40.45 35.102 40.444 35.092 40.444 35.084C40.444 35.072 40.56 34.602 40.792 33.674C40.82 33.65 40.876 33.638 40.96 33.638H41.086L41.104 33.656C41.12 33.672 41.122 33.712 41.11 33.776C41.11 33.784 41.108 33.794 41.104 33.806C41.056 34.042 41.068 34.24 41.14 34.4C41.224 34.608 41.4 34.734 41.668 34.778C41.784 34.798 41.876 34.802 41.944 34.79C42.156 34.754 42.34 34.612 42.496 34.364C42.556 34.268 42.602 34.166 42.634 34.058C42.658 33.97 42.67 33.872 42.67 33.764C42.67 33.66 42.658 33.58 42.634 33.524C42.594 33.424 42.534 33.356 42.454 33.32C42.426 33.304 42.296 33.262 42.064 33.194C41.824 33.126 41.682 33.082 41.638 33.062C41.558 33.022 41.484 32.968 41.416 32.9C41.24 32.716 41.164 32.476 41.188 32.18C41.212 31.892 41.318 31.618 41.506 31.358C41.606 31.234 41.712 31.13 41.824 31.046C42.024 30.894 42.23 30.806 42.442 30.782Z" fill="#808080"/>
<path d="M27.32 4.92L27.338 4.902H27.428C27.84 4.922 28.35 4.924 28.958 4.908C29.102 4.904 29.182 4.916 29.198 4.944C29.202 4.956 29.196 5.002 29.18 5.082C29.156 5.162 29.14 5.208 29.132 5.22L29.114 5.238H28.874C28.614 5.242 28.466 5.26 28.43 5.292C28.418 5.3 28.274 5.86 27.998 6.972C27.722 8.076 27.584 8.634 27.584 8.646C27.584 8.654 27.596 8.658 27.62 8.658H28.256C28.468 8.634 28.658 8.562 28.826 8.442C28.918 8.378 28.992 8.306 29.048 8.226C29.172 8.062 29.29 7.814 29.402 7.482C29.442 7.378 29.468 7.322 29.48 7.314C29.492 7.306 29.538 7.302 29.618 7.302C29.698 7.302 29.742 7.306 29.75 7.314C29.774 7.322 29.786 7.34 29.786 7.368L29.234 8.97C29.226 8.986 29.168 8.994 29.06 8.994C28.944 8.998 28.514 9 27.77 9H26.348L26.324 8.982C26.312 8.962 26.306 8.946 26.306 8.934C26.306 8.87 26.326 8.792 26.366 8.7C26.414 8.676 26.49 8.664 26.594 8.664C26.774 8.66 26.876 8.652 26.9 8.64C26.92 8.628 26.936 8.604 26.948 8.568C26.976 8.488 27.114 7.948 27.362 6.948C27.638 5.844 27.776 5.288 27.776 5.28C27.776 5.268 27.772 5.262 27.764 5.262C27.74 5.254 27.646 5.246 27.482 5.238C27.342 5.238 27.264 5.224 27.248 5.196C27.244 5.184 27.25 5.138 27.266 5.058C27.286 4.982 27.304 4.936 27.32 4.92Z" fill="#808080"/>
<path d="M69.32 4.92L69.338 4.902H70.406C71.13 4.902 71.506 4.904 71.534 4.908C71.942 4.948 72.248 5.154 72.452 5.526C72.56 5.722 72.624 5.946 72.644 6.198C72.656 6.322 72.654 6.47 72.638 6.642C72.562 7.278 72.296 7.828 71.84 8.292C71.788 8.348 71.734 8.4 71.678 8.448C71.346 8.744 70.984 8.924 70.592 8.988C70.556 8.992 70.172 8.996 69.44 9C68.708 9 68.336 8.994 68.324 8.982C68.32 8.982 68.316 8.974 68.312 8.958C68.304 8.946 68.31 8.9 68.33 8.82C68.35 8.736 68.366 8.69 68.378 8.682L68.396 8.664H68.588C68.772 8.66 68.876 8.652 68.9 8.64C68.92 8.628 68.936 8.604 68.948 8.568C68.976 8.488 69.114 7.948 69.362 6.948C69.638 5.844 69.776 5.288 69.776 5.28C69.776 5.268 69.772 5.262 69.764 5.262C69.74 5.254 69.646 5.246 69.482 5.238C69.342 5.238 69.264 5.224 69.248 5.196C69.244 5.184 69.25 5.138 69.266 5.058C69.286 4.982 69.304 4.936 69.32 4.92ZM71.264 5.244H70.502C70.446 5.248 70.416 5.258 70.412 5.274L69.566 8.64C69.566 8.652 69.582 8.658 69.614 8.658C69.626 8.662 69.768 8.664 70.04 8.664C70.3 8.66 70.454 8.654 70.502 8.646C70.882 8.578 71.192 8.388 71.432 8.076C71.576 7.888 71.698 7.624 71.798 7.284C71.89 6.956 71.95 6.698 71.978 6.51C72.054 6.086 72.012 5.768 71.852 5.556C71.716 5.38 71.52 5.276 71.264 5.244Z" fill="#808080"/>
<path d="M98.276 30.776L98.402 30.77H98.408C98.76 30.77 99.034 30.898 99.23 31.154C99.258 31.198 99.274 31.22 99.278 31.22L99.506 30.998L99.734 30.77H99.782C99.834 30.77 99.864 30.782 99.872 30.806C99.876 30.814 99.81 31.098 99.674 31.658C99.53 32.234 99.458 32.516 99.458 32.504C99.45 32.528 99.394 32.54 99.29 32.54H99.164L99.146 32.522C99.13 32.506 99.126 32.47 99.134 32.414C99.166 32.206 99.172 32.008 99.152 31.82C99.108 31.428 98.954 31.196 98.69 31.124C98.654 31.116 98.598 31.112 98.522 31.112C98.374 31.108 98.218 31.132 98.054 31.184C97.858 31.248 97.682 31.344 97.526 31.472C97.17 31.744 96.906 32.178 96.734 32.774C96.626 33.17 96.572 33.496 96.572 33.752C96.572 33.936 96.596 34.09 96.644 34.214C96.748 34.486 96.944 34.664 97.232 34.748C97.26 34.756 97.288 34.762 97.316 34.766C97.696 34.846 98.042 34.734 98.354 34.43C98.586 34.19 98.754 33.898 98.858 33.554C98.878 33.486 98.898 33.45 98.918 33.446C98.93 33.442 98.97 33.44 99.038 33.44C99.138 33.44 99.194 33.452 99.206 33.476C99.21 33.492 99.206 33.52 99.194 33.56C99.062 34.04 98.8 34.434 98.408 34.742C98.296 34.83 98.178 34.904 98.054 34.964C97.806 35.08 97.558 35.136 97.31 35.132C97.138 35.128 96.97 35.092 96.806 35.024C96.534 34.92 96.322 34.746 96.17 34.502C96.03 34.294 95.944 34.048 95.912 33.764C95.896 33.664 95.894 33.524 95.906 33.344C95.91 33.324 95.912 33.308 95.912 33.296C95.96 32.848 96.116 32.422 96.38 32.018C96.46 31.906 96.53 31.814 96.59 31.742C96.698 31.61 96.832 31.476 96.992 31.34C97.4 31.008 97.828 30.82 98.276 30.776Z" fill="#808080"/>
<path d="M122.257 38.6829L128.257 37.122L122.257 35.561" stroke="#808080" stroke-width="0.5" stroke-linecap="round"/>
<path d="M122.257 29.3171L125.257 28.5366L126.007 28.3415" stroke="#808080" stroke-width="0.5" stroke-linecap="round"/>
<path d="M122.257 38.6829L125.257 39.4634L126.007 39.6585" stroke="#808080" stroke-width="0.5" stroke-linecap="round"/>
<path d="M126.007 39.6585V41.5317V42" stroke="#808080" stroke-width="0.5" stroke-linecap="round"/>
<path d="M126.007 26V27.8732V28.3415" stroke="#808080" stroke-width="0.5" stroke-linecap="round"/>
<path d="M122.257 32.439L128.257 30.878L122.257 29.3171" stroke="#808080" stroke-width="0.5" stroke-linecap="round"/>
<path d="M122.257 35.561L128.257 34L122.257 32.439" stroke="#808080" stroke-width="0.5" stroke-linecap="round"/>
<path d="M126.007 53V41" stroke="#808080" stroke-width="0.5"/>
<path d="M126.007 27V14" stroke="#808080" stroke-width="0.5"/>
<path d="M52.007 14.5L68.007 14.5" stroke="#808080" stroke-width="0.5"/>
<path d="M73.007 14.5L90.9999 14.5" stroke="#808080" stroke-width="0.5"/>
<path d="M89.007 41.2V34.7" stroke="#808080" stroke-width="0.5"/>
<path d="M93.007 34.7H89.007H85.007" stroke="#808080" stroke-width="0.5"/>
<path d="M93.007 31.7H85.007" stroke="#808080" stroke-width="0.5"/>
<path d="M89.007 25.2V31.7" stroke="#808080" stroke-width="0.5"/>
<path d="M89.007 52.2V37.2" stroke="#808080" stroke-width="0.5"/>
<path d="M89.007 29.2V14.2" stroke="#808080" stroke-width="0.5"/>
<rect x="156.29" y="34" width="9.5" height="9.5" transform="rotate(-45 156.29 34)" stroke="#808080" stroke-width="0.5"/>
<path d="M162.83 37.1768C162.927 37.2744 163.086 37.2744 163.183 37.1768L164.774 35.5858C164.872 35.4882 164.872 35.3299 164.774 35.2322C164.677 35.1346 164.518 35.1346 164.421 35.2322L163.007 36.6464L161.592 35.2322C161.495 35.1346 161.336 35.1346 161.239 35.2322C161.141 35.3299 161.141 35.4882 161.239 35.5858L162.83 37.1768ZM162.757 31V37H163.257V31H162.757Z" fill="#808080"/>
<path d="M163.007 25.5V27.5" stroke="#808080" stroke-width="0.5"/>
<path d="M163.007 40.5V42.5" stroke="#808080" stroke-width="0.5"/>
<path d="M163.007 27V15" stroke="#808080" stroke-width="0.5"/>
<path d="M163.007 53V41" stroke="#808080" stroke-width="0.5"/>
<path d="M132.32 31.92L132.338 31.902H133.304L134.276 31.908L134.36 31.92C134.624 31.96 134.836 32.05 134.996 32.19C135.156 32.318 135.254 32.482 135.29 32.682C135.306 32.79 135.302 32.898 135.278 33.006C135.21 33.29 135.016 33.54 134.696 33.756C134.564 33.84 134.426 33.908 134.282 33.96C134.25 33.976 134.232 33.984 134.228 33.984L134.276 34.032C134.36 34.1 134.432 34.19 134.492 34.302C134.536 34.406 134.56 34.51 134.564 34.614C134.564 34.698 134.552 34.84 134.528 35.04C134.508 35.24 134.498 35.396 134.498 35.508C134.498 35.604 134.502 35.666 134.51 35.694C134.534 35.782 134.596 35.834 134.696 35.85C134.748 35.85 134.79 35.836 134.822 35.808C134.882 35.768 134.938 35.658 134.99 35.478C135.006 35.418 135.028 35.384 135.056 35.376C135.072 35.372 135.112 35.37 135.176 35.37C135.26 35.37 135.31 35.38 135.326 35.4C135.342 35.42 135.338 35.464 135.314 35.532C135.214 35.828 135.058 36.018 134.846 36.102C134.818 36.114 134.79 36.122 134.762 36.126C134.734 36.13 134.684 36.132 134.612 36.132C134.2 36.112 133.936 35.982 133.82 35.742C133.788 35.682 133.77 35.604 133.766 35.508C133.766 35.432 133.768 35.384 133.772 35.364C133.792 35.272 133.82 35.148 133.856 34.992C133.924 34.72 133.954 34.548 133.946 34.476C133.93 34.288 133.846 34.166 133.694 34.11L133.652 34.092H133.298H132.95L132.944 34.116C132.944 34.108 132.88 34.364 132.752 34.884C132.628 35.384 132.568 35.634 132.572 35.634C132.592 35.654 132.714 35.664 132.938 35.664H133.058L133.082 35.682C133.094 35.698 133.1 35.714 133.1 35.73C133.1 35.794 133.08 35.872 133.04 35.964C133.028 35.988 132.988 35.998 132.92 35.994C132.904 35.994 132.87 35.994 132.818 35.994C132.218 35.978 131.75 35.98 131.414 36H131.348L131.33 35.982C131.314 35.966 131.306 35.95 131.306 35.934C131.306 35.87 131.326 35.792 131.366 35.7C131.414 35.676 131.49 35.664 131.594 35.664C131.774 35.66 131.876 35.652 131.9 35.64C131.92 35.628 131.936 35.604 131.948 35.568C131.976 35.488 132.114 34.948 132.362 33.948C132.638 32.844 132.776 32.288 132.776 32.28C132.776 32.268 132.772 32.262 132.764 32.262C132.74 32.254 132.646 32.246 132.482 32.238C132.342 32.238 132.264 32.224 132.248 32.196C132.244 32.184 132.25 32.138 132.266 32.058C132.286 31.982 132.304 31.936 132.32 31.92ZM134.186 32.25C134.162 32.246 134.04 32.242 133.82 32.238C133.608 32.238 133.484 32.242 133.448 32.25C133.428 32.258 133.416 32.266 133.412 32.274L133.022 33.81H133.37C133.642 33.806 133.82 33.794 133.904 33.774C134.136 33.722 134.306 33.608 134.414 33.432C134.466 33.344 134.516 33.2 134.564 33C134.6 32.852 134.618 32.738 134.618 32.658C134.618 32.55 134.586 32.464 134.522 32.4C134.482 32.36 134.446 32.334 134.414 32.322C134.362 32.294 134.286 32.27 134.186 32.25Z" fill="#808080"/>
<line x1="20.4" y1="14.75" x2="21.3381" y2="14.75" stroke="#808080" stroke-width="0.5"/>
<path d="M27.0349 11.75C24.8065 11.75 23.9706 17.75 25.6451 17.75" stroke="#808080" stroke-width="0.5"/>
<path d="M24.2046 11.75C26.433 11.75 27.2689 17.75 25.5944 17.75" stroke="#808080" stroke-width="0.5"/>
<path d="M29.8145 11.75C27.5861 11.75 26.7502 17.75 28.4247 17.75" stroke="#808080" stroke-width="0.5"/>
<path d="M26.9842 11.75C29.2126 11.75 30.0485 17.75 28.374 17.75" stroke="#808080" stroke-width="0.5"/>
<path d="M32.5941 11.75C30.3657 11.75 29.5298 17.75 31.2043 17.75" stroke="#808080" stroke-width="0.5"/>
<path d="M29.7637 11.75C31.9922 11.75 32.828 17.75 31.1535 17.75" stroke="#808080" stroke-width="0.5"/>
<path d="M24.2046 11.75C21.9762 11.75 23.2838 14.75 21.3381 14.75" stroke="#808080" stroke-width="0.5"/>
<line y1="-0.25" x2="0.938111" y2="-0.25" transform="matrix(-1 0 0 1 36.4 15)" stroke="#808080" stroke-width="0.5"/>
<path d="M32.5955 11.75C34.8239 11.75 33.5162 14.75 35.4619 14.75" stroke="#808080" stroke-width="0.5"/>
<path d="M5 14.75H21" stroke="#808080" stroke-width="0.5"/>
<path d="M50.4541 14.75C50.4541 15.4864 51.051 16.0833 51.7874 16.0833C52.5238 16.0833 53.1208 15.4864 53.1208 14.75C53.1208 14.0136 52.5238 13.4167 51.7874 13.4167C51.051 13.4167 50.4541 14.0136 50.4541 14.75ZM36.4 15H51.7874V14.5H36.4V15Z" fill="#808080"/>
<rect x="10.15" y="0.15" width="65.7" height="66.7" stroke="#808080" stroke-width="0.3" stroke-dasharray="1 1"/>
<rect x="77.15" y="0.15" width="125.7" height="66.7" stroke="#808080" stroke-width="0.3" stroke-dasharray="1 1"/>
<path d="M51.204 61.144C51.4413 61.144 51.64 61.1667 51.8 61.212C51.9627 61.2573 52.084 61.332 52.164 61.436C52.2467 61.54 52.288 61.6787 52.288 61.852C52.288 61.964 52.2667 62.064 52.224 62.152C52.184 62.2373 52.1227 62.3093 52.04 62.368C51.96 62.424 51.8613 62.4627 51.744 62.484V62.504C51.864 62.5227 51.972 62.5573 52.068 62.608C52.1667 62.6587 52.244 62.7307 52.3 62.824C52.356 62.9173 52.384 63.0387 52.384 63.188C52.384 63.3613 52.344 63.5093 52.264 63.632C52.184 63.752 52.0693 63.844 51.92 63.908C51.7733 63.9693 51.5973 64 51.392 64H50.388V61.144H51.204ZM51.276 62.36C51.5213 62.36 51.6893 62.3213 51.78 62.244C51.8707 62.164 51.916 62.0467 51.916 61.892C51.916 61.7347 51.86 61.6227 51.748 61.556C51.6387 61.4867 51.4627 61.452 51.22 61.452H50.748V62.36H51.276ZM50.748 62.66V63.696H51.324C51.5773 63.696 51.7533 63.6467 51.852 63.548C51.9507 63.4493 52 63.32 52 63.16C52 63.0587 51.9773 62.9707 51.932 62.896C51.8893 62.8213 51.816 62.764 51.712 62.724C51.6107 62.6813 51.472 62.66 51.296 62.66H50.748ZM54.8056 62.924C54.8056 63.1027 54.7816 63.2613 54.7336 63.4C54.6882 63.536 54.6216 63.652 54.5336 63.748C54.4482 63.844 54.3429 63.9173 54.2176 63.968C54.0949 64.016 53.9576 64.04 53.8056 64.04C53.6642 64.04 53.5336 64.016 53.4136 63.968C53.2936 63.9173 53.1896 63.844 53.1016 63.748C53.0136 63.652 52.9442 63.536 52.8936 63.4C52.8456 63.2613 52.8216 63.1027 52.8216 62.924C52.8216 62.6867 52.8616 62.4867 52.9416 62.324C53.0216 62.1587 53.1362 62.0333 53.2856 61.948C53.4349 61.86 53.6122 61.816 53.8176 61.816C54.0122 61.816 54.1829 61.86 54.3296 61.948C54.4789 62.0333 54.5949 62.1587 54.6776 62.324C54.7629 62.4867 54.8056 62.6867 54.8056 62.924ZM53.1856 62.924C53.1856 63.092 53.2069 63.2387 53.2496 63.364C53.2949 63.4867 53.3642 63.5813 53.4576 63.648C53.5509 63.7147 53.6696 63.748 53.8136 63.748C53.9576 63.748 54.0762 63.7147 54.1696 63.648C54.2629 63.5813 54.3309 63.4867 54.3736 63.364C54.4189 63.2387 54.4416 63.092 54.4416 62.924C54.4416 62.7533 54.4189 62.608 54.3736 62.488C54.3282 62.368 54.2589 62.276 54.1656 62.212C54.0749 62.1453 53.9562 62.112 53.8096 62.112C53.5909 62.112 53.4322 62.184 53.3336 62.328C53.2349 62.472 53.1856 62.6707 53.1856 62.924ZM57.2274 62.924C57.2274 63.1027 57.2034 63.2613 57.1554 63.4C57.1101 63.536 57.0434 63.652 56.9554 63.748C56.8701 63.844 56.7648 63.9173 56.6394 63.968C56.5168 64.016 56.3794 64.04 56.2274 64.04C56.0861 64.04 55.9554 64.016 55.8354 63.968C55.7154 63.9173 55.6114 63.844 55.5234 63.748C55.4354 63.652 55.3661 63.536 55.3154 63.4C55.2674 63.2613 55.2434 63.1027 55.2434 62.924C55.2434 62.6867 55.2834 62.4867 55.3634 62.324C55.4434 62.1587 55.5581 62.0333 55.7074 61.948C55.8568 61.86 56.0341 61.816 56.2394 61.816C56.4341 61.816 56.6048 61.86 56.7514 61.948C56.9008 62.0333 57.0168 62.1587 57.0994 62.324C57.1848 62.4867 57.2274 62.6867 57.2274 62.924ZM55.6074 62.924C55.6074 63.092 55.6288 63.2387 55.6714 63.364C55.7168 63.4867 55.7861 63.5813 55.8794 63.648C55.9728 63.7147 56.0914 63.748 56.2354 63.748C56.3794 63.748 56.4981 63.7147 56.5914 63.648C56.6848 63.5813 56.7528 63.4867 56.7954 63.364C56.8408 63.2387 56.8634 63.092 56.8634 62.924C56.8634 62.7533 56.8408 62.608 56.7954 62.488C56.7501 62.368 56.6808 62.276 56.5874 62.212C56.4968 62.1453 56.3781 62.112 56.2314 62.112C56.0128 62.112 55.8541 62.184 55.7554 62.328C55.6568 62.472 55.6074 62.6707 55.6074 62.924ZM59.1813 63.408C59.1813 63.5467 59.1466 63.6627 59.0773 63.756C59.008 63.8493 58.9093 63.92 58.7813 63.968C58.6533 64.016 58.5013 64.04 58.3253 64.04C58.176 64.04 58.0466 64.028 57.9373 64.004C57.8306 63.98 57.736 63.9467 57.6533 63.904V63.584C57.7386 63.6267 57.8413 63.6667 57.9613 63.704C58.084 63.7387 58.208 63.756 58.3333 63.756C58.512 63.756 58.6413 63.728 58.7213 63.672C58.8013 63.6133 58.8413 63.536 58.8413 63.44C58.8413 63.3867 58.8266 63.3387 58.7973 63.296C58.768 63.2533 58.7146 63.2107 58.6373 63.168C58.5626 63.1253 58.4546 63.0773 58.3133 63.024C58.1746 62.9707 58.056 62.9173 57.9573 62.864C57.8586 62.8107 57.7826 62.7467 57.7293 62.672C57.676 62.5973 57.6493 62.5013 57.6493 62.384C57.6493 62.2027 57.7226 62.0627 57.8693 61.964C58.0186 61.8653 58.2133 61.816 58.4533 61.816C58.584 61.816 58.7053 61.8293 58.8173 61.856C58.932 61.88 59.0386 61.9147 59.1373 61.96L59.0173 62.24C58.9586 62.2133 58.896 62.1907 58.8293 62.172C58.7653 62.1507 58.7 62.1347 58.6333 62.124C58.5666 62.1107 58.4986 62.104 58.4293 62.104C58.2853 62.104 58.1746 62.128 58.0973 62.176C58.0226 62.2213 57.9853 62.284 57.9853 62.364C57.9853 62.4227 58.0026 62.4733 58.0373 62.516C58.072 62.556 58.1293 62.596 58.2093 62.636C58.292 62.6733 58.4013 62.7187 58.5373 62.772C58.6733 62.8227 58.7893 62.8747 58.8853 62.928C58.9813 62.9813 59.0546 63.0467 59.1053 63.124C59.156 63.1987 59.1813 63.2933 59.1813 63.408ZM60.4154 63.752C60.4687 63.752 60.5234 63.748 60.5794 63.74C60.6354 63.7293 60.6807 63.7187 60.7154 63.708V63.976C60.678 63.9947 60.6247 64.0093 60.5554 64.02C60.486 64.0333 60.4194 64.04 60.3554 64.04C60.2434 64.04 60.1394 64.0213 60.0434 63.984C59.95 63.944 59.874 63.876 59.8154 63.78C59.7567 63.684 59.7274 63.5493 59.7274 63.376V62.128H59.4234V61.96L59.7314 61.82L59.8714 61.364H60.0794V61.856H60.6994V62.128H60.0794V63.368C60.0794 63.4987 60.11 63.596 60.1714 63.66C60.2354 63.7213 60.3167 63.752 60.4154 63.752ZM63.0478 61.144C63.2851 61.144 63.4838 61.1667 63.6438 61.212C63.8064 61.2573 63.9278 61.332 64.0078 61.436C64.0904 61.54 64.1318 61.6787 64.1318 61.852C64.1318 61.964 64.1104 62.064 64.0678 62.152C64.0278 62.2373 63.9664 62.3093 63.8838 62.368C63.8038 62.424 63.7051 62.4627 63.5878 62.484V62.504C63.7078 62.5227 63.8158 62.5573 63.9118 62.608C64.0104 62.6587 64.0878 62.7307 64.1438 62.824C64.1998 62.9173 64.2278 63.0387 64.2278 63.188C64.2278 63.3613 64.1878 63.5093 64.1078 63.632C64.0278 63.752 63.9131 63.844 63.7638 63.908C63.6171 63.9693 63.4411 64 63.2358 64H62.2318V61.144H63.0478ZM63.1198 62.36C63.3651 62.36 63.5331 62.3213 63.6238 62.244C63.7144 62.164 63.7598 62.0467 63.7598 61.892C63.7598 61.7347 63.7038 61.6227 63.5918 61.556C63.4824 61.4867 63.3064 61.452 63.0638 61.452H62.5918V62.36H63.1198ZM62.5918 62.66V63.696H63.1678C63.4211 63.696 63.5971 63.6467 63.6958 63.548C63.7944 63.4493 63.8438 63.32 63.8438 63.16C63.8438 63.0587 63.8211 62.9707 63.7758 62.896C63.7331 62.8213 63.6598 62.764 63.5558 62.724C63.4544 62.6813 63.3158 62.66 63.1398 62.66H62.5918ZM65.5973 61.82C65.8586 61.82 66.052 61.8773 66.1773 61.992C66.3026 62.1067 66.3653 62.2893 66.3653 62.54V64H66.1093L66.0413 63.696H66.0253C65.964 63.7733 65.9 63.8387 65.8333 63.892C65.7693 63.9427 65.6946 63.98 65.6093 64.004C65.5266 64.028 65.4253 64.04 65.3053 64.04C65.1773 64.04 65.0613 64.0173 64.9573 63.972C64.856 63.9267 64.776 63.8573 64.7173 63.764C64.6586 63.668 64.6293 63.548 64.6293 63.404C64.6293 63.1907 64.7133 63.0267 64.8813 62.912C65.0493 62.7947 65.308 62.7307 65.6573 62.72L66.0213 62.708V62.58C66.0213 62.4013 65.9826 62.2773 65.9053 62.208C65.828 62.1387 65.7186 62.104 65.5773 62.104C65.4653 62.104 65.3586 62.1213 65.2573 62.156C65.156 62.188 65.0613 62.2253 64.9733 62.268L64.8653 62.004C64.9586 61.9533 65.0693 61.9107 65.1973 61.876C65.3253 61.8387 65.4586 61.82 65.5973 61.82ZM65.7013 62.964C65.4346 62.9747 65.2493 63.0173 65.1453 63.092C65.044 63.1667 64.9933 63.272 64.9933 63.408C64.9933 63.528 65.0293 63.616 65.1013 63.672C65.176 63.728 65.2706 63.756 65.3853 63.756C65.5666 63.756 65.7173 63.7067 65.8373 63.608C65.9573 63.5067 66.0173 63.352 66.0173 63.144V62.952L65.7013 62.964ZM66.1613 60.976C66.1373 61.0133 66.1026 61.0587 66.0573 61.112C66.012 61.1653 65.9613 61.2213 65.9053 61.28C65.852 61.336 65.7973 61.3907 65.7413 61.444C65.688 61.4947 65.6373 61.5387 65.5893 61.576H65.3573V61.528C65.3973 61.4773 65.44 61.4173 65.4853 61.348C65.5333 61.2787 65.58 61.208 65.6253 61.136C65.6706 61.0613 65.708 60.9947 65.7373 60.936H66.1613V60.976ZM68.4235 63.408C68.4235 63.5467 68.3888 63.6627 68.3195 63.756C68.2502 63.8493 68.1515 63.92 68.0235 63.968C67.8955 64.016 67.7435 64.04 67.5675 64.04C67.4182 64.04 67.2888 64.028 67.1795 64.004C67.0728 63.98 66.9782 63.9467 66.8955 63.904V63.584C66.9808 63.6267 67.0835 63.6667 67.2035 63.704C67.3262 63.7387 67.4502 63.756 67.5755 63.756C67.7542 63.756 67.8835 63.728 67.9635 63.672C68.0435 63.6133 68.0835 63.536 68.0835 63.44C68.0835 63.3867 68.0688 63.3387 68.0395 63.296C68.0102 63.2533 67.9568 63.2107 67.8795 63.168C67.8048 63.1253 67.6968 63.0773 67.5555 63.024C67.4168 62.9707 67.2982 62.9173 67.1995 62.864C67.1008 62.8107 67.0248 62.7467 66.9715 62.672C66.9182 62.5973 66.8915 62.5013 66.8915 62.384C66.8915 62.2027 66.9648 62.0627 67.1115 61.964C67.2608 61.8653 67.4555 61.816 67.6955 61.816C67.8262 61.816 67.9475 61.8293 68.0595 61.856C68.1742 61.88 68.2808 61.9147 68.3795 61.96L68.2595 62.24C68.2008 62.2133 68.1382 62.1907 68.0715 62.172C68.0075 62.1507 67.9422 62.1347 67.8755 62.124C67.8088 62.1107 67.7408 62.104 67.6715 62.104C67.5275 62.104 67.4168 62.128 67.3395 62.176C67.2648 62.2213 67.2275 62.284 67.2275 62.364C67.2275 62.4227 67.2448 62.4733 67.2795 62.516C67.3142 62.556 67.3715 62.596 67.4515 62.636C67.5342 62.6733 67.6435 62.7187 67.7795 62.772C67.9155 62.8227 68.0315 62.8747 68.1275 62.928C68.2235 62.9813 68.2968 63.0467 68.3475 63.124C68.3982 63.1987 68.4235 63.2933 68.4235 63.408ZM69.2936 61.856V64H68.9416V61.856H69.2936ZM69.1216 61.052C69.1749 61.052 69.2216 61.0707 69.2616 61.108C69.3042 61.1427 69.3256 61.1987 69.3256 61.276C69.3256 61.3507 69.3042 61.4067 69.2616 61.444C69.2216 61.4813 69.1749 61.5 69.1216 61.5C69.0629 61.5 69.0136 61.4813 68.9736 61.444C68.9336 61.4067 68.9136 61.3507 68.9136 61.276C68.9136 61.1987 68.9336 61.1427 68.9736 61.108C69.0136 61.0707 69.0629 61.052 69.1216 61.052ZM70.8328 64.04C70.6435 64.04 70.4741 64.0013 70.3248 63.924C70.1781 63.8467 70.0621 63.7267 69.9768 63.564C69.8941 63.4013 69.8528 63.1933 69.8528 62.94C69.8528 62.676 69.8968 62.4613 69.9848 62.296C70.0728 62.1307 70.1915 62.0093 70.3408 61.932C70.4928 61.8547 70.6648 61.816 70.8568 61.816C70.9661 61.816 71.0715 61.828 71.1728 61.852C71.2741 61.8733 71.3568 61.9 71.4208 61.932L71.3128 62.224C71.2488 62.2 71.1741 62.1773 71.0888 62.156C71.0035 62.1347 70.9235 62.124 70.8488 62.124C70.7048 62.124 70.5861 62.1547 70.4928 62.216C70.3995 62.2773 70.3301 62.368 70.2848 62.488C70.2395 62.608 70.2168 62.7573 70.2168 62.936C70.2168 63.1067 70.2395 63.252 70.2848 63.372C70.3301 63.492 70.3981 63.5827 70.4888 63.644C70.5795 63.7053 70.6928 63.736 70.8288 63.736C70.9461 63.736 71.0488 63.724 71.1368 63.7C71.2275 63.676 71.3101 63.6467 71.3848 63.612V63.924C71.3128 63.9613 71.2328 63.9893 71.1448 64.008C71.0595 64.0293 70.9555 64.04 70.8328 64.04ZM73.7587 62.924C73.7587 63.1027 73.7347 63.2613 73.6867 63.4C73.6414 63.536 73.5747 63.652 73.4867 63.748C73.4014 63.844 73.296 63.9173 73.1707 63.968C73.048 64.016 72.9107 64.04 72.7587 64.04C72.6174 64.04 72.4867 64.016 72.3667 63.968C72.2467 63.9173 72.1427 63.844 72.0547 63.748C71.9667 63.652 71.8974 63.536 71.8467 63.4C71.7987 63.2613 71.7747 63.1027 71.7747 62.924C71.7747 62.6867 71.8147 62.4867 71.8947 62.324C71.9747 62.1587 72.0894 62.0333 72.2387 61.948C72.388 61.86 72.5654 61.816 72.7707 61.816C72.9654 61.816 73.136 61.86 73.2827 61.948C73.432 62.0333 73.548 62.1587 73.6307 62.324C73.716 62.4867 73.7587 62.6867 73.7587 62.924ZM72.1387 62.924C72.1387 63.092 72.16 63.2387 72.2027 63.364C72.248 63.4867 72.3174 63.5813 72.4107 63.648C72.504 63.7147 72.6227 63.748 72.7667 63.748C72.9107 63.748 73.0294 63.7147 73.1227 63.648C73.216 63.5813 73.284 63.4867 73.3267 63.364C73.372 63.2387 73.3947 63.092 73.3947 62.924C73.3947 62.7533 73.372 62.608 73.3267 62.488C73.2814 62.368 73.212 62.276 73.1187 62.212C73.028 62.1453 72.9094 62.112 72.7627 62.112C72.544 62.112 72.3854 62.184 72.2867 62.328C72.188 62.472 72.1387 62.6707 72.1387 62.924Z" fill="#808080"/>
<path d="M139.612 61.42C139.46 61.42 139.323 61.4467 139.2 61.5C139.077 61.5507 138.973 61.6267 138.888 61.728C138.803 61.8267 138.737 61.948 138.692 62.092C138.647 62.2333 138.624 62.3933 138.624 62.572C138.624 62.8067 138.66 63.0107 138.732 63.184C138.807 63.3573 138.916 63.4907 139.06 63.584C139.207 63.6773 139.389 63.724 139.608 63.724C139.733 63.724 139.852 63.7133 139.964 63.692C140.076 63.6707 140.185 63.644 140.292 63.612V63.924C140.185 63.964 140.075 63.9933 139.96 64.012C139.848 64.0307 139.713 64.04 139.556 64.04C139.265 64.04 139.023 63.98 138.828 63.86C138.633 63.74 138.487 63.5693 138.388 63.348C138.292 63.1267 138.244 62.8667 138.244 62.568C138.244 62.352 138.273 62.1547 138.332 61.976C138.393 61.7973 138.481 61.6427 138.596 61.512C138.713 61.3813 138.857 61.2813 139.028 61.212C139.199 61.14 139.395 61.104 139.616 61.104C139.763 61.104 139.904 61.1187 140.04 61.148C140.176 61.1773 140.297 61.2187 140.404 61.272L140.26 61.576C140.172 61.536 140.073 61.5 139.964 61.468C139.857 61.436 139.74 61.42 139.612 61.42ZM141.679 61.82C141.941 61.82 142.134 61.8773 142.259 61.992C142.385 62.1067 142.447 62.2893 142.447 62.54V64H142.191L142.123 63.696H142.107C142.046 63.7733 141.982 63.8387 141.915 63.892C141.851 63.9427 141.777 63.98 141.691 64.004C141.609 64.028 141.507 64.04 141.387 64.04C141.259 64.04 141.143 64.0173 141.039 63.972C140.938 63.9267 140.858 63.8573 140.799 63.764C140.741 63.668 140.711 63.548 140.711 63.404C140.711 63.1907 140.795 63.0267 140.963 62.912C141.131 62.7947 141.39 62.7307 141.739 62.72L142.103 62.708V62.58C142.103 62.4013 142.065 62.2773 141.987 62.208C141.91 62.1387 141.801 62.104 141.659 62.104C141.547 62.104 141.441 62.1213 141.339 62.156C141.238 62.188 141.143 62.2253 141.055 62.268L140.947 62.004C141.041 61.9533 141.151 61.9107 141.279 61.876C141.407 61.8387 141.541 61.82 141.679 61.82ZM141.783 62.964C141.517 62.9747 141.331 63.0173 141.227 63.092C141.126 63.1667 141.075 63.272 141.075 63.408C141.075 63.528 141.111 63.616 141.183 63.672C141.258 63.728 141.353 63.756 141.467 63.756C141.649 63.756 141.799 63.7067 141.919 63.608C142.039 63.5067 142.099 63.352 142.099 63.144V62.952L141.783 62.964ZM144.11 61.816C144.15 61.816 144.192 61.8187 144.238 61.824C144.286 61.8267 144.327 61.832 144.362 61.84L144.318 62.164C144.283 62.156 144.244 62.1493 144.202 62.144C144.162 62.1387 144.123 62.136 144.086 62.136C144.003 62.136 143.924 62.1533 143.85 62.188C143.775 62.2227 143.708 62.272 143.65 62.336C143.591 62.3973 143.544 62.472 143.51 62.56C143.478 62.648 143.462 62.7467 143.462 62.856V64H143.11V61.856H143.398L143.438 62.248H143.454C143.499 62.168 143.554 62.096 143.618 62.032C143.682 61.9653 143.755 61.9133 143.838 61.876C143.92 61.836 144.011 61.816 144.11 61.816ZM145.483 61.816C145.624 61.816 145.751 61.8427 145.863 61.896C145.977 61.9493 146.075 62.0307 146.155 62.14H146.175L146.223 61.856H146.503V64.036C146.503 64.2387 146.468 64.408 146.399 64.544C146.329 64.6827 146.224 64.7867 146.083 64.856C145.941 64.9253 145.761 64.96 145.543 64.96C145.388 64.96 145.245 64.948 145.115 64.924C144.987 64.9027 144.872 64.8693 144.771 64.824V64.5C144.84 64.5347 144.916 64.564 144.999 64.588C145.081 64.6147 145.171 64.6347 145.267 64.648C145.363 64.6613 145.461 64.668 145.563 64.668C145.747 64.668 145.891 64.6133 145.995 64.504C146.101 64.3973 146.155 64.2507 146.155 64.064V63.98C146.155 63.948 146.156 63.9027 146.159 63.844C146.161 63.7827 146.164 63.74 146.167 63.716H146.151C146.076 63.8253 145.983 63.9067 145.871 63.96C145.761 64.0133 145.633 64.04 145.487 64.04C145.209 64.04 144.992 63.9427 144.835 63.748C144.68 63.5533 144.603 63.2813 144.603 62.932C144.603 62.7027 144.637 62.5053 144.707 62.34C144.779 62.172 144.88 62.0427 145.011 61.952C145.141 61.8613 145.299 61.816 145.483 61.816ZM145.531 62.112C145.411 62.112 145.308 62.144 145.223 62.208C145.14 62.272 145.076 62.3653 145.031 62.488C144.988 62.6107 144.967 62.76 144.967 62.936C144.967 63.2 145.015 63.4027 145.111 63.544C145.209 63.6827 145.352 63.752 145.539 63.752C145.648 63.752 145.741 63.7387 145.819 63.712C145.896 63.6827 145.96 63.6387 146.011 63.58C146.061 63.5187 146.099 63.4413 146.123 63.348C146.147 63.2547 146.159 63.144 146.159 63.016V62.932C146.159 62.7373 146.136 62.58 146.091 62.46C146.048 62.34 145.98 62.252 145.887 62.196C145.793 62.14 145.675 62.112 145.531 62.112ZM147.996 61.82C148.257 61.82 148.45 61.8773 148.576 61.992C148.701 62.1067 148.764 62.2893 148.764 62.54V64H148.508L148.44 63.696H148.424C148.362 63.7733 148.298 63.8387 148.232 63.892C148.168 63.9427 148.093 63.98 148.008 64.004C147.925 64.028 147.824 64.04 147.704 64.04C147.576 64.04 147.46 64.0173 147.356 63.972C147.254 63.9267 147.174 63.8573 147.116 63.764C147.057 63.668 147.028 63.548 147.028 63.404C147.028 63.1907 147.112 63.0267 147.28 62.912C147.448 62.7947 147.706 62.7307 148.056 62.72L148.42 62.708V62.58C148.42 62.4013 148.381 62.2773 148.304 62.208C148.226 62.1387 148.117 62.104 147.976 62.104C147.864 62.104 147.757 62.1213 147.656 62.156C147.554 62.188 147.46 62.2253 147.372 62.268L147.264 62.004C147.357 61.9533 147.468 61.9107 147.596 61.876C147.724 61.8387 147.857 61.82 147.996 61.82ZM148.1 62.964C147.833 62.9747 147.648 63.0173 147.544 63.092C147.442 63.1667 147.392 63.272 147.392 63.408C147.392 63.528 147.428 63.616 147.5 63.672C147.574 63.728 147.669 63.756 147.784 63.756C147.965 63.756 148.116 63.7067 148.236 63.608C148.356 63.5067 148.416 63.352 148.416 63.144V62.952L148.1 62.964ZM150.822 63.408C150.822 63.5467 150.787 63.6627 150.718 63.756C150.649 63.8493 150.55 63.92 150.422 63.968C150.294 64.016 150.142 64.04 149.966 64.04C149.817 64.04 149.687 64.028 149.578 64.004C149.471 63.98 149.377 63.9467 149.294 63.904V63.584C149.379 63.6267 149.482 63.6667 149.602 63.704C149.725 63.7387 149.849 63.756 149.974 63.756C150.153 63.756 150.282 63.728 150.362 63.672C150.442 63.6133 150.482 63.536 150.482 63.44C150.482 63.3867 150.467 63.3387 150.438 63.296C150.409 63.2533 150.355 63.2107 150.278 63.168C150.203 63.1253 150.095 63.0773 149.954 63.024C149.815 62.9707 149.697 62.9173 149.598 62.864C149.499 62.8107 149.423 62.7467 149.37 62.672C149.317 62.5973 149.29 62.5013 149.29 62.384C149.29 62.2027 149.363 62.0627 149.51 61.964C149.659 61.8653 149.854 61.816 150.094 61.816C150.225 61.816 150.346 61.8293 150.458 61.856C150.573 61.88 150.679 61.9147 150.778 61.96L150.658 62.24C150.599 62.2133 150.537 62.1907 150.47 62.172C150.406 62.1507 150.341 62.1347 150.274 62.124C150.207 62.1107 150.139 62.104 150.07 62.104C149.926 62.104 149.815 62.128 149.738 62.176C149.663 62.2213 149.626 62.284 149.626 62.364C149.626 62.4227 149.643 62.4733 149.678 62.516C149.713 62.556 149.77 62.596 149.85 62.636C149.933 62.6733 150.042 62.7187 150.178 62.772C150.314 62.8227 150.43 62.8747 150.526 62.928C150.622 62.9813 150.695 63.0467 150.746 63.124C150.797 63.1987 150.822 63.2933 150.822 63.408ZM153.239 64.04C153.05 64.04 152.88 64.0013 152.731 63.924C152.584 63.8467 152.468 63.7267 152.383 63.564C152.3 63.4013 152.259 63.1933 152.259 62.94C152.259 62.676 152.303 62.4613 152.391 62.296C152.479 62.1307 152.598 62.0093 152.747 61.932C152.899 61.8547 153.071 61.816 153.263 61.816C153.372 61.816 153.478 61.828 153.579 61.852C153.68 61.8733 153.763 61.9 153.827 61.932L153.719 62.224C153.655 62.2 153.58 62.1773 153.495 62.156C153.41 62.1347 153.33 62.124 153.255 62.124C153.111 62.124 152.992 62.1547 152.899 62.216C152.806 62.2773 152.736 62.368 152.691 62.488C152.646 62.608 152.623 62.7573 152.623 62.936C152.623 63.1067 152.646 63.252 152.691 63.372C152.736 63.492 152.804 63.5827 152.895 63.644C152.986 63.7053 153.099 63.736 153.235 63.736C153.352 63.736 153.455 63.724 153.543 63.7C153.634 63.676 153.716 63.6467 153.791 63.612V63.924C153.719 63.9613 153.639 63.9893 153.551 64.008C153.466 64.0293 153.362 64.04 153.239 64.04ZM156.165 62.924C156.165 63.1027 156.141 63.2613 156.093 63.4C156.048 63.536 155.981 63.652 155.893 63.748C155.808 63.844 155.702 63.9173 155.577 63.968C155.454 64.016 155.317 64.04 155.165 64.04C155.024 64.04 154.893 64.016 154.773 63.968C154.653 63.9173 154.549 63.844 154.461 63.748C154.373 63.652 154.304 63.536 154.253 63.4C154.205 63.2613 154.181 63.1027 154.181 62.924C154.181 62.6867 154.221 62.4867 154.301 62.324C154.381 62.1587 154.496 62.0333 154.645 61.948C154.794 61.86 154.972 61.816 155.177 61.816C155.372 61.816 155.542 61.86 155.689 61.948C155.838 62.0333 155.954 62.1587 156.037 62.324C156.122 62.4867 156.165 62.6867 156.165 62.924ZM154.545 62.924C154.545 63.092 154.566 63.2387 154.609 63.364C154.654 63.4867 154.724 63.5813 154.817 63.648C154.91 63.7147 155.029 63.748 155.173 63.748C155.317 63.748 155.436 63.7147 155.529 63.648C155.622 63.5813 155.69 63.4867 155.733 63.364C155.778 63.2387 155.801 63.092 155.801 62.924C155.801 62.7533 155.778 62.608 155.733 62.488C155.688 62.368 155.618 62.276 155.525 62.212C155.434 62.1453 155.316 62.112 155.169 62.112C154.95 62.112 154.792 62.184 154.693 62.328C154.594 62.472 154.545 62.6707 154.545 62.924ZM159.075 61.816C159.317 61.816 159.499 61.8787 159.619 62.004C159.739 62.1267 159.799 62.3267 159.799 62.604V64H159.451V62.62C159.451 62.452 159.415 62.3253 159.343 62.24C159.273 62.1547 159.164 62.112 159.015 62.112C158.807 62.112 158.657 62.172 158.567 62.292C158.479 62.412 158.435 62.5867 158.435 62.816V64H158.087V62.62C158.087 62.508 158.071 62.4147 158.039 62.34C158.007 62.2627 157.959 62.2053 157.895 62.168C157.831 62.1307 157.748 62.112 157.647 62.112C157.503 62.112 157.389 62.1427 157.307 62.204C157.224 62.2627 157.164 62.3493 157.127 62.464C157.092 62.5787 157.075 62.72 157.075 62.888V64H156.723V61.856H157.007L157.059 62.148H157.079C157.124 62.0733 157.179 62.012 157.243 61.964C157.309 61.9133 157.383 61.876 157.463 61.852C157.543 61.828 157.625 61.816 157.711 61.816C157.876 61.816 158.013 61.8453 158.123 61.904C158.235 61.9627 158.316 62.0533 158.367 62.176H158.387C158.459 62.0533 158.556 61.9627 158.679 61.904C158.804 61.8453 158.936 61.816 159.075 61.816ZM162.36 64.04C162.171 64.04 162.001 64.0013 161.852 63.924C161.705 63.8467 161.589 63.7267 161.504 63.564C161.421 63.4013 161.38 63.1933 161.38 62.94C161.38 62.676 161.424 62.4613 161.512 62.296C161.6 62.1307 161.719 62.0093 161.868 61.932C162.02 61.8547 162.192 61.816 162.384 61.816C162.493 61.816 162.599 61.828 162.7 61.852C162.801 61.8733 162.884 61.9 162.948 61.932L162.84 62.224C162.776 62.2 162.701 62.1773 162.616 62.156C162.531 62.1347 162.451 62.124 162.376 62.124C162.232 62.124 162.113 62.1547 162.02 62.216C161.927 62.2773 161.857 62.368 161.812 62.488C161.767 62.608 161.744 62.7573 161.744 62.936C161.744 63.1067 161.767 63.252 161.812 63.372C161.857 63.492 161.925 63.5827 162.016 63.644C162.107 63.7053 162.22 63.736 162.356 63.736C162.473 63.736 162.576 63.724 162.664 63.7C162.755 63.676 162.837 63.6467 162.912 63.612V63.924C162.84 63.9613 162.76 63.9893 162.672 64.008C162.587 64.0293 162.483 64.04 162.36 64.04ZM164.234 61.82C164.495 61.82 164.689 61.8773 164.814 61.992C164.939 62.1067 165.002 62.2893 165.002 62.54V64H164.746L164.678 63.696H164.662C164.601 63.7733 164.537 63.8387 164.47 63.892C164.406 63.9427 164.331 63.98 164.246 64.004C164.163 64.028 164.062 64.04 163.942 64.04C163.814 64.04 163.698 64.0173 163.594 63.972C163.493 63.9267 163.413 63.8573 163.354 63.764C163.295 63.668 163.266 63.548 163.266 63.404C163.266 63.1907 163.35 63.0267 163.518 62.912C163.686 62.7947 163.945 62.7307 164.294 62.72L164.658 62.708V62.58C164.658 62.4013 164.619 62.2773 164.542 62.208C164.465 62.1387 164.355 62.104 164.214 62.104C164.102 62.104 163.995 62.1213 163.894 62.156C163.793 62.188 163.698 62.2253 163.61 62.268L163.502 62.004C163.595 61.9533 163.706 61.9107 163.834 61.876C163.962 61.8387 164.095 61.82 164.234 61.82ZM164.338 62.964C164.071 62.9747 163.886 63.0173 163.782 63.092C163.681 63.1667 163.63 63.272 163.63 63.408C163.63 63.528 163.666 63.616 163.738 63.672C163.813 63.728 163.907 63.756 164.022 63.756C164.203 63.756 164.354 63.7067 164.474 63.608C164.594 63.5067 164.654 63.352 164.654 63.144V62.952L164.338 62.964ZM166.684 61.816C166.948 61.816 167.16 61.908 167.32 62.092C167.483 62.276 167.564 62.5533 167.564 62.924C167.564 63.1667 167.527 63.372 167.452 63.54C167.38 63.7053 167.278 63.8307 167.144 63.916C167.014 63.9987 166.859 64.04 166.68 64.04C166.571 64.04 166.474 64.0253 166.388 63.996C166.303 63.9667 166.23 63.9293 166.168 63.884C166.11 63.836 166.059 63.784 166.016 63.728H165.992C165.998 63.7733 166.003 63.8307 166.008 63.9C166.014 63.9693 166.016 64.0293 166.016 64.08V64.96H165.664V61.856H165.952L166 62.148H166.016C166.059 62.0867 166.11 62.0307 166.168 61.98C166.23 61.9293 166.302 61.8893 166.384 61.86C166.47 61.8307 166.57 61.816 166.684 61.816ZM166.62 62.112C166.476 62.112 166.36 62.14 166.272 62.196C166.184 62.2493 166.12 62.3307 166.08 62.44C166.04 62.5493 166.019 62.688 166.016 62.856V62.924C166.016 63.1 166.035 63.2493 166.072 63.372C166.11 63.4947 166.172 63.588 166.26 63.652C166.351 63.716 166.474 63.748 166.628 63.748C166.759 63.748 166.866 63.712 166.948 63.64C167.034 63.568 167.096 63.4707 167.136 63.348C167.179 63.2227 167.2 63.08 167.2 62.92C167.2 62.6747 167.152 62.4787 167.056 62.332C166.963 62.1853 166.818 62.112 166.62 62.112ZM168.937 61.82C169.198 61.82 169.392 61.8773 169.517 61.992C169.642 62.1067 169.705 62.2893 169.705 62.54V64H169.449L169.381 63.696H169.365C169.304 63.7733 169.24 63.8387 169.173 63.892C169.109 63.9427 169.034 63.98 168.949 64.004C168.866 64.028 168.765 64.04 168.645 64.04C168.517 64.04 168.401 64.0173 168.297 63.972C168.196 63.9267 168.116 63.8573 168.057 63.764C167.998 63.668 167.969 63.548 167.969 63.404C167.969 63.1907 168.053 63.0267 168.221 62.912C168.389 62.7947 168.648 62.7307 168.997 62.72L169.361 62.708V62.58C169.361 62.4013 169.322 62.2773 169.245 62.208C169.168 62.1387 169.058 62.104 168.917 62.104C168.805 62.104 168.698 62.1213 168.597 62.156C168.496 62.188 168.401 62.2253 168.313 62.268L168.205 62.004C168.298 61.9533 168.409 61.9107 168.537 61.876C168.665 61.8387 168.798 61.82 168.937 61.82ZM169.041 62.964C168.774 62.9747 168.589 63.0173 168.485 63.092C168.384 63.1667 168.333 63.272 168.333 63.408C168.333 63.528 168.369 63.616 168.441 63.672C168.516 63.728 168.61 63.756 168.725 63.756C168.906 63.756 169.057 63.7067 169.177 63.608C169.297 63.5067 169.357 63.352 169.357 63.144V62.952L169.041 62.964ZM171.227 64.04C171.038 64.04 170.869 64.0013 170.719 63.924C170.573 63.8467 170.457 63.7267 170.371 63.564C170.289 63.4013 170.247 63.1933 170.247 62.94C170.247 62.676 170.291 62.4613 170.379 62.296C170.467 62.1307 170.586 62.0093 170.735 61.932C170.887 61.8547 171.059 61.816 171.251 61.816C171.361 61.816 171.466 61.828 171.567 61.852C171.669 61.8733 171.751 61.9 171.815 61.932L171.707 62.224C171.643 62.2 171.569 62.1773 171.483 62.156C171.398 62.1347 171.318 62.124 171.243 62.124C171.099 62.124 170.981 62.1547 170.887 62.216C170.794 62.2773 170.725 62.368 170.679 62.488C170.634 62.608 170.611 62.7573 170.611 62.936C170.611 63.1067 170.634 63.252 170.679 63.372C170.725 63.492 170.793 63.5827 170.883 63.644C170.974 63.7053 171.087 63.736 171.223 63.736C171.341 63.736 171.443 63.724 171.531 63.7C171.622 63.676 171.705 63.6467 171.779 63.612V63.924C171.707 63.9613 171.627 63.9893 171.539 64.008C171.454 64.0293 171.35 64.04 171.227 64.04ZM172.641 61.856V64H172.289V61.856H172.641ZM172.469 61.052C172.523 61.052 172.569 61.0707 172.609 61.108C172.652 61.1427 172.673 61.1987 172.673 61.276C172.673 61.3507 172.652 61.4067 172.609 61.444C172.569 61.4813 172.523 61.5 172.469 61.5C172.411 61.5 172.361 61.4813 172.321 61.444C172.281 61.4067 172.261 61.3507 172.261 61.276C172.261 61.1987 172.281 61.1427 172.321 61.108C172.361 61.0707 172.411 61.052 172.469 61.052ZM174.036 63.752C174.09 63.752 174.144 63.748 174.2 63.74C174.256 63.7293 174.302 63.7187 174.336 63.708V63.976C174.299 63.9947 174.246 64.0093 174.176 64.02C174.107 64.0333 174.04 64.04 173.976 64.04C173.864 64.04 173.76 64.0213 173.664 63.984C173.571 63.944 173.495 63.876 173.436 63.78C173.378 63.684 173.348 63.5493 173.348 63.376V62.128H173.044V61.96L173.352 61.82L173.492 61.364H173.7V61.856H174.32V62.128H173.7V63.368C173.7 63.4987 173.731 63.596 173.792 63.66C173.856 63.7213 173.938 63.752 174.036 63.752ZM176.63 62.924C176.63 63.1027 176.606 63.2613 176.558 63.4C176.512 63.536 176.446 63.652 176.358 63.748C176.272 63.844 176.167 63.9173 176.042 63.968C175.919 64.016 175.782 64.04 175.63 64.04C175.488 64.04 175.358 64.016 175.238 63.968C175.118 63.9173 175.014 63.844 174.926 63.748C174.838 63.652 174.768 63.536 174.718 63.4C174.67 63.2613 174.646 63.1027 174.646 62.924C174.646 62.6867 174.686 62.4867 174.766 62.324C174.846 62.1587 174.96 62.0333 175.11 61.948C175.259 61.86 175.436 61.816 175.642 61.816C175.836 61.816 176.007 61.86 176.154 61.948C176.303 62.0333 176.419 62.1587 176.502 62.324C176.587 62.4867 176.63 62.6867 176.63 62.924ZM175.01 62.924C175.01 63.092 175.031 63.2387 175.074 63.364C175.119 63.4867 175.188 63.5813 175.282 63.648C175.375 63.7147 175.494 63.748 175.638 63.748C175.782 63.748 175.9 63.7147 175.994 63.648C176.087 63.5813 176.155 63.4867 176.198 63.364C176.243 63.2387 176.266 63.092 176.266 62.924C176.266 62.7533 176.243 62.608 176.198 62.488C176.152 62.368 176.083 62.276 175.99 62.212C175.899 62.1453 175.78 62.112 175.634 62.112C175.415 62.112 175.256 62.184 175.158 62.328C175.059 62.472 175.01 62.6707 175.01 62.924ZM178.188 61.816C178.228 61.816 178.27 61.8187 178.316 61.824C178.364 61.8267 178.405 61.832 178.44 61.84L178.396 62.164C178.361 62.156 178.322 62.1493 178.28 62.144C178.24 62.1387 178.201 62.136 178.164 62.136C178.081 62.136 178.002 62.1533 177.928 62.188C177.853 62.2227 177.786 62.272 177.728 62.336C177.669 62.3973 177.622 62.472 177.588 62.56C177.556 62.648 177.54 62.7467 177.54 62.856V64H177.188V61.856H177.476L177.516 62.248H177.532C177.577 62.168 177.632 62.096 177.696 62.032C177.76 61.9653 177.833 61.9133 177.916 61.876C177.998 61.836 178.089 61.816 178.188 61.816ZM180.707 61.816C180.891 61.816 181.048 61.856 181.179 61.936C181.312 62.016 181.414 62.1293 181.483 62.276C181.555 62.42 181.591 62.5893 181.591 62.784V62.996H180.123C180.128 63.2387 180.19 63.424 180.307 63.552C180.427 63.6773 180.594 63.74 180.807 63.74C180.943 63.74 181.063 63.728 181.167 63.704C181.274 63.6773 181.383 63.64 181.495 63.592V63.9C181.386 63.948 181.278 63.9827 181.171 64.004C181.064 64.028 180.938 64.04 180.791 64.04C180.588 64.04 180.408 63.9987 180.251 63.916C180.096 63.8333 179.975 63.7107 179.887 63.548C179.802 63.3827 179.759 63.1813 179.759 62.944C179.759 62.7093 179.798 62.508 179.875 62.34C179.955 62.172 180.066 62.0427 180.207 61.952C180.351 61.8613 180.518 61.816 180.707 61.816ZM180.703 62.104C180.535 62.104 180.402 62.1587 180.303 62.268C180.207 62.3747 180.15 62.524 180.131 62.716H181.223C181.223 62.5933 181.204 62.4867 181.167 62.396C181.13 62.3053 181.072 62.2347 180.995 62.184C180.92 62.1307 180.823 62.104 180.703 62.104ZM184.489 61.816C184.732 61.816 184.913 61.8787 185.033 62.004C185.153 62.1267 185.213 62.3267 185.213 62.604V64H184.865V62.62C184.865 62.452 184.829 62.3253 184.757 62.24C184.688 62.1547 184.578 62.112 184.429 62.112C184.221 62.112 184.072 62.172 183.981 62.292C183.893 62.412 183.849 62.5867 183.849 62.816V64H183.501V62.62C183.501 62.508 183.485 62.4147 183.453 62.34C183.421 62.2627 183.373 62.2053 183.309 62.168C183.245 62.1307 183.162 62.112 183.061 62.112C182.917 62.112 182.804 62.1427 182.721 62.204C182.638 62.2627 182.578 62.3493 182.541 62.464C182.506 62.5787 182.489 62.72 182.489 62.888V64H182.137V61.856H182.421L182.473 62.148H182.493C182.538 62.0733 182.593 62.012 182.657 61.964C182.724 61.9133 182.797 61.876 182.877 61.852C182.957 61.828 183.04 61.816 183.125 61.816C183.29 61.816 183.428 61.8453 183.537 61.904C183.649 61.9627 183.73 62.0533 183.781 62.176H183.801C183.873 62.0533 183.97 61.9627 184.093 61.904C184.218 61.8453 184.35 61.816 184.489 61.816ZM187.934 61.816C188.198 61.816 188.41 61.908 188.57 62.092C188.733 62.276 188.814 62.5533 188.814 62.924C188.814 63.1667 188.777 63.372 188.702 63.54C188.63 63.7053 188.528 63.8307 188.394 63.916C188.264 63.9987 188.109 64.04 187.93 64.04C187.821 64.04 187.724 64.0253 187.638 63.996C187.553 63.9667 187.48 63.9293 187.418 63.884C187.36 63.836 187.309 63.784 187.266 63.728H187.242C187.248 63.7733 187.253 63.8307 187.258 63.9C187.264 63.9693 187.266 64.0293 187.266 64.08V64.96H186.914V61.856H187.202L187.25 62.148H187.266C187.309 62.0867 187.36 62.0307 187.418 61.98C187.48 61.9293 187.552 61.8893 187.634 61.86C187.72 61.8307 187.82 61.816 187.934 61.816ZM187.87 62.112C187.726 62.112 187.61 62.14 187.522 62.196C187.434 62.2493 187.37 62.3307 187.33 62.44C187.29 62.5493 187.269 62.688 187.266 62.856V62.924C187.266 63.1 187.285 63.2493 187.322 63.372C187.36 63.4947 187.422 63.588 187.51 63.652C187.601 63.716 187.724 63.748 187.878 63.748C188.009 63.748 188.116 63.712 188.198 63.64C188.284 63.568 188.346 63.4707 188.386 63.348C188.429 63.2227 188.45 63.08 188.45 62.92C188.45 62.6747 188.402 62.4787 188.306 62.332C188.213 62.1853 188.068 62.112 187.87 62.112ZM190.187 61.82C190.448 61.82 190.642 61.8773 190.767 61.992C190.892 62.1067 190.955 62.2893 190.955 62.54V64H190.699L190.631 63.696H190.615C190.554 63.7733 190.49 63.8387 190.423 63.892C190.359 63.9427 190.284 63.98 190.199 64.004C190.116 64.028 190.015 64.04 189.895 64.04C189.767 64.04 189.651 64.0173 189.547 63.972C189.446 63.9267 189.366 63.8573 189.307 63.764C189.248 63.668 189.219 63.548 189.219 63.404C189.219 63.1907 189.303 63.0267 189.471 62.912C189.639 62.7947 189.898 62.7307 190.247 62.72L190.611 62.708V62.58C190.611 62.4013 190.572 62.2773 190.495 62.208C190.418 62.1387 190.308 62.104 190.167 62.104C190.055 62.104 189.948 62.1213 189.847 62.156C189.746 62.188 189.651 62.2253 189.563 62.268L189.455 62.004C189.548 61.9533 189.659 61.9107 189.787 61.876C189.915 61.8387 190.048 61.82 190.187 61.82ZM190.291 62.964C190.024 62.9747 189.839 63.0173 189.735 63.092C189.634 63.1667 189.583 63.272 189.583 63.408C189.583 63.528 189.619 63.616 189.691 63.672C189.766 63.728 189.86 63.756 189.975 63.756C190.156 63.756 190.307 63.7067 190.427 63.608C190.547 63.5067 190.607 63.352 190.607 63.144V62.952L190.291 62.964ZM192.617 61.816C192.657 61.816 192.7 61.8187 192.745 61.824C192.793 61.8267 192.835 61.832 192.869 61.84L192.825 62.164C192.791 62.156 192.752 62.1493 192.709 62.144C192.669 62.1387 192.631 62.136 192.593 62.136C192.511 62.136 192.432 62.1533 192.357 62.188C192.283 62.2227 192.216 62.272 192.157 62.336C192.099 62.3973 192.052 62.472 192.017 62.56C191.985 62.648 191.969 62.7467 191.969 62.856V64H191.617V61.856H191.905L191.945 62.248H191.961C192.007 62.168 192.061 62.096 192.125 62.032C192.189 61.9653 192.263 61.9133 192.345 61.876C192.428 61.836 192.519 61.816 192.617 61.816ZM194.004 61.82C194.265 61.82 194.458 61.8773 194.584 61.992C194.709 62.1067 194.772 62.2893 194.772 62.54V64H194.516L194.448 63.696H194.432C194.37 63.7733 194.306 63.8387 194.24 63.892C194.176 63.9427 194.101 63.98 194.016 64.004C193.933 64.028 193.832 64.04 193.712 64.04C193.584 64.04 193.468 64.0173 193.364 63.972C193.262 63.9267 193.182 63.8573 193.124 63.764C193.065 63.668 193.036 63.548 193.036 63.404C193.036 63.1907 193.12 63.0267 193.288 62.912C193.456 62.7947 193.714 62.7307 194.064 62.72L194.428 62.708V62.58C194.428 62.4013 194.389 62.2773 194.312 62.208C194.234 62.1387 194.125 62.104 193.984 62.104C193.872 62.104 193.765 62.1213 193.664 62.156C193.562 62.188 193.468 62.2253 193.38 62.268L193.272 62.004C193.365 61.9533 193.476 61.9107 193.604 61.876C193.732 61.8387 193.865 61.82 194.004 61.82ZM194.108 62.964C193.841 62.9747 193.656 63.0173 193.552 63.092C193.45 63.1667 193.4 63.272 193.4 63.408C193.4 63.528 193.436 63.616 193.508 63.672C193.582 63.728 193.677 63.756 193.792 63.756C193.973 63.756 194.124 63.7067 194.244 63.608C194.364 63.5067 194.424 63.352 194.424 63.144V62.952L194.108 62.964ZM195.786 64H195.434V60.96H195.786V64ZM197.293 61.816C197.477 61.816 197.634 61.856 197.765 61.936C197.898 62.016 198 62.1293 198.069 62.276C198.141 62.42 198.177 62.5893 198.177 62.784V62.996H196.709C196.714 63.2387 196.776 63.424 196.893 63.552C197.013 63.6773 197.18 63.74 197.393 63.74C197.529 63.74 197.649 63.728 197.753 63.704C197.86 63.6773 197.969 63.64 198.081 63.592V63.9C197.972 63.948 197.864 63.9827 197.757 64.004C197.65 64.028 197.524 64.04 197.377 64.04C197.174 64.04 196.994 63.9987 196.837 63.916C196.682 63.8333 196.561 63.7107 196.473 63.548C196.388 63.3827 196.345 63.1813 196.345 62.944C196.345 62.7093 196.384 62.508 196.461 62.34C196.541 62.172 196.652 62.0427 196.793 61.952C196.937 61.8613 197.104 61.816 197.293 61.816ZM197.289 62.104C197.121 62.104 196.988 62.1587 196.889 62.268C196.793 62.3747 196.736 62.524 196.717 62.716H197.809C197.809 62.5933 197.79 62.4867 197.753 62.396C197.716 62.3053 197.658 62.2347 197.581 62.184C197.506 62.1307 197.409 62.104 197.289 62.104ZM199.075 64H198.723V60.96H199.075V64ZM201.618 62.924C201.618 63.1027 201.594 63.2613 201.546 63.4C201.501 63.536 201.434 63.652 201.346 63.748C201.261 63.844 201.155 63.9173 201.03 63.968C200.907 64.016 200.77 64.04 200.618 64.04C200.477 64.04 200.346 64.016 200.226 63.968C200.106 63.9173 200.002 63.844 199.914 63.748C199.826 63.652 199.757 63.536 199.706 63.4C199.658 63.2613 199.634 63.1027 199.634 62.924C199.634 62.6867 199.674 62.4867 199.754 62.324C199.834 62.1587 199.949 62.0333 200.098 61.948C200.247 61.86 200.425 61.816 200.63 61.816C200.825 61.816 200.995 61.86 201.142 61.948C201.291 62.0333 201.407 62.1587 201.49 62.324C201.575 62.4867 201.618 62.6867 201.618 62.924ZM199.998 62.924C199.998 63.092 200.019 63.2387 200.062 63.364C200.107 63.4867 200.177 63.5813 200.27 63.648C200.363 63.7147 200.482 63.748 200.626 63.748C200.77 63.748 200.889 63.7147 200.982 63.648C201.075 63.5813 201.143 63.4867 201.186 63.364C201.231 63.2387 201.254 63.092 201.254 62.924C201.254 62.7533 201.231 62.608 201.186 62.488C201.141 62.368 201.071 62.276 200.978 62.212C200.887 62.1453 200.769 62.112 200.622 62.112C200.403 62.112 200.245 62.184 200.146 62.328C200.047 62.472 199.998 62.6707 199.998 62.924Z" fill="#808080"/>
<path d="M162 14.5H212" stroke="#808080" stroke-width="0.5"/>
<path d="M214.75 14.75C214.75 15.4404 214.19 16 213.5 16C212.81 16 212.25 15.4404 212.25 14.75C212.25 14.0596 212.81 13.5 213.5 13.5C214.19 13.5 214.75 14.0596 214.75 14.75Z" stroke="#808080" stroke-width="0.5"/>
<path d="M162 52.75L212 52.75" stroke="#808080" stroke-width="0.5"/>
<path d="M214.75 52.25C214.75 52.9404 214.19 53.5 213.5 53.5C212.81 53.5 212.25 52.9404 212.25 52.25C212.25 51.5596 212.81 51 213.5 51C214.19 51 214.75 51.5596 214.75 52.25Z" stroke="#808080" stroke-width="0.5"/>
<path d="M212.592 33.348C212.728 33.32 212.83 33.382 212.898 33.534C212.91 33.562 212.92 33.59 212.928 33.618C212.936 33.654 212.94 33.72 212.94 33.816C212.94 33.976 212.904 34.198 212.832 34.482C212.72 34.942 212.576 35.312 212.4 35.592C212.3 35.736 212.198 35.848 212.094 35.928C212.01 35.988 211.926 36.028 211.842 36.048C211.806 36.056 211.748 36.06 211.668 36.06C211.548 36.06 211.438 36.046 211.338 36.018C211.002 35.902 210.846 35.642 210.87 35.238C210.882 35.046 210.98 34.7 211.164 34.2C211.236 33.988 211.276 33.852 211.284 33.792C211.304 33.7 211.294 33.648 211.254 33.636C211.206 33.62 211.15 33.63 211.086 33.666C211.002 33.718 210.936 33.8 210.888 33.912C210.848 33.984 210.804 34.106 210.756 34.278C210.744 34.302 210.736 34.316 210.732 34.32C210.724 34.328 210.676 34.332 210.588 34.332H210.456L210.438 34.314C210.426 34.302 210.42 34.286 210.42 34.266C210.428 34.202 210.462 34.102 210.522 33.966C210.594 33.814 210.684 33.68 210.792 33.564C210.872 33.488 210.952 33.432 211.032 33.396C211.096 33.368 211.174 33.354 211.266 33.354C211.366 33.354 211.452 33.372 211.524 33.408C211.576 33.436 211.616 33.466 211.644 33.498C211.676 33.526 211.706 33.566 211.734 33.618C211.77 33.694 211.786 33.774 211.782 33.858C211.782 33.938 211.756 34.048 211.704 34.188C211.7 34.208 211.692 34.232 211.68 34.26C211.612 34.452 211.57 34.568 211.554 34.608C211.402 35.06 211.36 35.382 211.428 35.574C211.472 35.718 211.574 35.788 211.734 35.784C211.754 35.784 211.774 35.782 211.794 35.778C211.874 35.766 211.952 35.722 212.028 35.646C212.188 35.486 212.334 35.138 212.466 34.602C212.502 34.446 212.516 34.332 212.508 34.26C212.492 34.12 212.438 34.004 212.346 33.912C212.314 33.88 212.292 33.85 212.28 33.822C212.268 33.798 212.262 33.762 212.262 33.714C212.262 33.666 212.266 33.63 212.274 33.606C212.318 33.506 212.384 33.434 212.472 33.39C212.504 33.37 212.544 33.356 212.592 33.348ZM214.005 35.4124C214.01 35.41 214.035 35.4088 214.081 35.4088C214.146 35.4112 214.203 35.4208 214.254 35.4376C214.453 35.5048 214.577 35.65 214.625 35.8732C214.629 35.902 214.632 35.9476 214.632 36.01C214.634 36.0892 214.627 36.1612 214.61 36.226C214.577 36.3604 214.519 36.4852 214.437 36.6004C214.289 36.8092 214.103 36.946 213.879 37.0108C213.819 37.0276 213.761 37.0372 213.703 37.0396C213.497 37.0468 213.338 36.9724 213.228 36.8164C213.213 36.7996 213.201 36.7816 213.192 36.7624C213.077 36.556 213.08 36.3136 213.203 36.0352C213.26 35.9104 213.337 35.8 213.433 35.704C213.524 35.6128 213.619 35.5444 213.717 35.4988C213.813 35.4508 213.909 35.422 214.005 35.4124ZM214.117 35.5852C214.067 35.578 214.026 35.5768 213.995 35.5816C213.877 35.6032 213.78 35.6608 213.703 35.7544C213.633 35.8384 213.573 35.9788 213.523 36.1756C213.518 36.1924 213.513 36.2092 213.509 36.226C213.47 36.3844 213.451 36.502 213.451 36.5788C213.451 36.6292 213.453 36.6628 213.458 36.6796C213.487 36.7924 213.557 36.8548 213.667 36.8668C213.715 36.8716 213.765 36.8656 213.818 36.8488C213.945 36.808 214.046 36.7156 214.121 36.5716C214.161 36.4972 214.202 36.3748 214.243 36.2044C214.296 35.9956 214.31 35.8468 214.286 35.758C214.262 35.6692 214.206 35.6116 214.117 35.5852ZM215.398 35.416C215.414 35.4112 215.441 35.4088 215.477 35.4088C215.532 35.4112 215.58 35.4232 215.621 35.4448C215.652 35.4616 215.676 35.4796 215.693 35.4988C215.712 35.5156 215.73 35.5396 215.747 35.5708C215.768 35.6164 215.778 35.6644 215.776 35.7148C215.776 35.7628 215.76 35.8288 215.729 35.9128C215.726 35.9248 215.722 35.9392 215.714 35.956C215.597 36.2824 215.538 36.5056 215.538 36.6256C215.538 36.6352 215.538 36.6436 215.538 36.6508C215.54 36.7324 215.56 36.7924 215.596 36.8308C215.622 36.8548 215.658 36.8668 215.704 36.8668C215.752 36.8668 215.794 36.8572 215.83 36.838C215.892 36.8068 215.946 36.7564 215.992 36.6868L216.013 36.6508L216.146 36.118C216.24 35.746 216.294 35.5492 216.308 35.5276C216.311 35.5228 216.317 35.5156 216.326 35.506C216.379 35.4532 216.439 35.4352 216.506 35.452C216.564 35.4712 216.595 35.5084 216.6 35.5636C216.6 35.5828 216.557 35.7676 216.47 36.118C216.386 36.4468 216.34 36.6364 216.33 36.6868C216.32 36.754 216.319 36.8008 216.326 36.8272C216.331 36.8368 216.337 36.8464 216.344 36.856C216.352 36.8608 216.364 36.8656 216.38 36.8704C216.395 36.8704 216.407 36.8668 216.416 36.8596C216.467 36.8284 216.515 36.718 216.56 36.5284C216.575 36.4804 216.587 36.4552 216.596 36.4528C216.604 36.4504 216.63 36.4492 216.676 36.4492C216.728 36.4492 216.758 36.4516 216.766 36.4564C216.77 36.4612 216.773 36.4708 216.773 36.4852C216.773 36.5188 216.754 36.5872 216.715 36.6904C216.686 36.7696 216.656 36.8308 216.625 36.874C216.558 36.9772 216.474 37.0324 216.373 37.0396C216.251 37.0444 216.154 37.0024 216.082 36.9136L216.056 36.8812C216.052 36.874 216.049 36.8692 216.049 36.8668L216.024 36.892C215.935 36.9736 215.838 37.0216 215.732 37.036C215.629 37.048 215.536 37.0348 215.452 36.9964C215.334 36.946 215.261 36.8512 215.232 36.712C215.222 36.6496 215.222 36.5752 215.232 36.4888C215.234 36.4816 215.236 36.4756 215.236 36.4708C215.255 36.3508 215.311 36.1672 215.405 35.92C215.448 35.7928 215.472 35.7112 215.477 35.6752C215.489 35.62 215.483 35.5888 215.459 35.5816C215.43 35.572 215.396 35.578 215.358 35.5996C215.308 35.6308 215.268 35.68 215.239 35.7472C215.215 35.7904 215.189 35.8636 215.16 35.9668C215.153 35.9812 215.148 35.9896 215.146 35.992C215.141 35.9968 215.112 35.9992 215.059 35.9992H214.98L214.969 35.9884C214.962 35.9812 214.958 35.9716 214.958 35.9596C214.963 35.9212 214.984 35.8612 215.02 35.7796C215.048 35.7172 215.078 35.6656 215.11 35.6248C215.141 35.5816 215.18 35.5384 215.228 35.4952C215.281 35.4544 215.338 35.428 215.398 35.416ZM217.713 34.7536C217.746 34.7416 217.781 34.7428 217.817 34.7572C217.848 34.7692 217.871 34.7896 217.886 34.8184C217.898 34.8448 217.894 34.8952 217.875 34.9696C217.868 35.0008 217.852 35.0668 217.828 35.1676C217.778 35.3524 217.754 35.4436 217.756 35.4412C217.756 35.446 217.808 35.4484 217.911 35.4484H218.066L218.076 35.4592C218.091 35.4688 218.091 35.5 218.076 35.5528C218.069 35.5888 218.062 35.614 218.055 35.6284C218.048 35.6404 218.025 35.6476 217.986 35.65C217.97 35.65 217.93 35.65 217.868 35.65H217.706L217.702 35.6644C217.541 36.2908 217.457 36.6316 217.45 36.6868C217.445 36.7156 217.443 36.742 217.443 36.766C217.443 36.8332 217.462 36.868 217.5 36.8704C217.515 36.8704 217.532 36.868 217.551 36.8632C217.584 36.8608 217.62 36.844 217.659 36.8128C217.743 36.748 217.812 36.6436 217.868 36.4996C217.88 36.4708 217.893 36.4552 217.907 36.4528C217.914 36.4504 217.938 36.4492 217.979 36.4492C218.032 36.4492 218.061 36.4516 218.066 36.4564C218.08 36.4684 218.08 36.4924 218.066 36.5284C218.02 36.6388 217.966 36.73 217.904 36.802C217.808 36.9244 217.697 37 217.572 37.0288C217.553 37.0336 217.522 37.036 217.479 37.036C217.436 37.036 217.406 37.0336 217.389 37.0288C217.322 37.0096 217.268 36.9808 217.227 36.9424C217.188 36.904 217.161 36.8572 217.144 36.802C217.139 36.7828 217.137 36.7504 217.137 36.7048V36.6364L217.259 36.1468C217.341 35.8252 217.382 35.6608 217.382 35.6536C217.382 35.6512 217.331 35.65 217.23 35.65C217.125 35.65 217.067 35.6416 217.058 35.6248C217.053 35.6176 217.055 35.5912 217.065 35.5456C217.079 35.4976 217.088 35.4724 217.09 35.47C217.097 35.4556 217.122 35.4484 217.166 35.4484C217.182 35.4484 217.218 35.4484 217.274 35.4484H217.436L217.504 35.1676C217.55 34.9828 217.578 34.8784 217.59 34.8544C217.612 34.8064 217.653 34.7728 217.713 34.7536Z" fill="#808080"/>
<path d="M214.632 27.1H213.584V28.16H213.296V27.1H212.248V26.828H213.296V25.768H213.584V26.828H214.632V27.1Z" fill="#808080"/>
<line x1="212" y1="42.85" x2="215" y2="42.85" stroke="#808080" stroke-width="0.3"/>
<path d="M186 36H197" stroke="#808080" stroke-width="0.3"/>
<path d="M173.668 31.076C173.812 31.04 173.916 31.076 173.98 31.184C174 31.22 174.012 31.26 174.016 31.304C174.016 31.364 174.002 31.422 173.974 31.478C173.882 31.606 173.766 31.68 173.626 31.7C173.582 31.7 173.536 31.688 173.488 31.664C173.448 31.644 173.416 31.608 173.392 31.556C173.38 31.54 173.372 31.508 173.368 31.46C173.368 31.396 173.38 31.34 173.404 31.292C173.46 31.18 173.548 31.108 173.668 31.076ZM173.152 32.36C173.18 32.352 173.224 32.348 173.284 32.348C173.376 32.352 173.456 32.372 173.524 32.408C173.576 32.436 173.616 32.466 173.644 32.498C173.676 32.526 173.706 32.566 173.734 32.618C173.77 32.694 173.786 32.774 173.782 32.858C173.782 32.926 173.778 32.974 173.77 33.002C173.766 33.01 173.676 33.26 173.5 33.752C173.332 34.2 173.242 34.448 173.23 34.496C173.19 34.628 173.184 34.716 173.212 34.76C173.232 34.784 173.274 34.788 173.338 34.772C173.494 34.736 173.62 34.542 173.716 34.19C173.736 34.126 173.756 34.092 173.776 34.088C173.788 34.084 173.83 34.082 173.902 34.082C173.99 34.082 174.038 34.086 174.046 34.094C174.07 34.11 174.07 34.152 174.046 34.22C174.002 34.376 173.936 34.522 173.848 34.658C173.688 34.898 173.506 35.032 173.302 35.06C173.23 35.076 173.156 35.072 173.08 35.048C173 35.024 172.934 34.994 172.882 34.958C172.794 34.886 172.736 34.784 172.708 34.652C172.692 34.576 172.696 34.496 172.72 34.412C172.728 34.38 172.816 34.134 172.984 33.674C173.128 33.29 173.22 33.038 173.26 32.918C173.3 32.794 173.306 32.708 173.278 32.66C173.266 32.628 173.224 32.622 173.152 32.642C173.032 32.67 172.926 32.796 172.834 33.02C172.782 33.2 172.756 33.286 172.756 33.278C172.744 33.302 172.736 33.316 172.732 33.32C172.724 33.328 172.676 33.332 172.588 33.332H172.456L172.438 33.314C172.426 33.302 172.42 33.286 172.42 33.266C172.428 33.202 172.462 33.102 172.522 32.966C172.57 32.862 172.62 32.776 172.672 32.708C172.724 32.636 172.79 32.564 172.87 32.492C172.958 32.424 173.052 32.38 173.152 32.36ZM174.657 34.3908C174.71 34.386 174.785 34.3872 174.884 34.3944C175.045 34.416 175.161 34.4688 175.233 34.5528C175.257 34.5816 175.274 34.6152 175.283 34.6536C175.293 34.6872 175.295 34.728 175.291 34.776C175.271 34.86 175.217 34.9116 175.129 34.9308C175.037 34.95 174.965 34.9236 174.913 34.8516C174.896 34.83 174.884 34.8048 174.877 34.776C174.865 34.704 174.877 34.6452 174.913 34.5996C174.92 34.5924 174.923 34.5864 174.923 34.5816C174.923 34.5744 174.871 34.5708 174.765 34.5708C174.71 34.5708 174.676 34.572 174.664 34.5744C174.602 34.5912 174.547 34.6236 174.499 34.6716C174.419 34.7508 174.371 34.872 174.355 35.0352C174.345 35.1192 174.344 35.2224 174.351 35.3448C174.353 35.3568 174.355 35.3664 174.355 35.3736C174.371 35.4888 174.403 35.5812 174.448 35.6508C174.532 35.778 174.653 35.8476 174.812 35.8596C174.915 35.862 174.999 35.8248 175.064 35.748C175.105 35.6952 175.133 35.6388 175.15 35.5788C175.157 35.5548 175.167 35.5416 175.179 35.5392C175.189 35.5368 175.21 35.5356 175.244 35.5356H175.312L175.323 35.5464C175.335 35.5584 175.334 35.5824 175.319 35.6184C175.307 35.6616 175.282 35.7156 175.244 35.7804C175.119 35.9604 174.941 36.0468 174.711 36.0396C174.596 36.0324 174.49 36.0048 174.394 35.9568C174.157 35.8344 174.014 35.6304 173.966 35.3448C173.956 35.2872 173.955 35.2152 173.962 35.1288C173.965 35.1216 173.966 35.1156 173.966 35.1108C173.995 34.8852 174.093 34.7016 174.261 34.56C174.379 34.4664 174.511 34.41 174.657 34.3908ZM175.9 34.4304C176.107 34.416 176.205 34.4088 176.195 34.4088H176.21V34.4916V34.5744L176.242 34.5528C176.295 34.5192 176.355 34.4904 176.422 34.4664C176.485 34.4472 176.551 34.4316 176.62 34.4196C176.704 34.4076 176.786 34.4064 176.865 34.416C177.045 34.452 177.189 34.5588 177.297 34.7364C177.383 34.8852 177.427 35.0472 177.427 35.2224C177.427 35.4672 177.344 35.6724 177.178 35.838C177.166 35.85 177.153 35.862 177.139 35.874C177.047 35.946 176.954 35.994 176.858 36.018C176.687 36.0588 176.523 36.0408 176.365 35.964C176.305 35.9352 176.26 35.9076 176.231 35.8812L176.221 35.874V36.1692C176.221 36.3684 176.222 36.4692 176.224 36.4716C176.234 36.4884 176.301 36.4968 176.426 36.4968H176.501V36.5976V36.6984H176.473L176.246 36.6912C176.116 36.6888 175.987 36.6888 175.857 36.6912L175.63 36.6984H175.601V36.5976V36.4968H175.677C175.802 36.4968 175.869 36.4884 175.879 36.4716V34.7724C175.869 34.7148 175.839 34.6788 175.789 34.6644C175.762 34.6572 175.721 34.6524 175.666 34.65H175.601V34.5492V34.4484H175.609L175.9 34.4304ZM176.696 34.596C176.667 34.5888 176.633 34.5876 176.595 34.5924C176.533 34.5996 176.47 34.6152 176.408 34.6392C176.341 34.6704 176.287 34.71 176.246 34.758L176.221 34.7832V35.2116V35.6364L176.242 35.6688C176.293 35.7432 176.359 35.7984 176.44 35.8344C176.565 35.892 176.678 35.886 176.779 35.8164C176.911 35.7252 176.993 35.5752 177.027 35.3664C177.039 35.2944 177.04 35.2068 177.031 35.1036C177.007 34.8972 176.935 34.7472 176.815 34.6536C176.807 34.6464 176.799 34.6404 176.789 34.6356C176.761 34.6164 176.729 34.6032 176.696 34.596ZM178.03 33.5232C178.237 33.5088 178.335 33.5016 178.325 33.5016H178.34V34.6356C178.34 35.3916 178.341 35.7708 178.343 35.7732C178.353 35.79 178.42 35.7984 178.545 35.7984H178.621V35.8992V36H178.588L178.365 35.9928C178.238 35.9904 178.111 35.9904 177.983 35.9928L177.764 36H177.731V35.8992V35.7984H177.807C177.932 35.7984 177.999 35.79 178.009 35.7732V33.8652C177.999 33.8076 177.969 33.7716 177.919 33.7572C177.892 33.75 177.851 33.7452 177.796 33.7428H177.731V33.642V33.5412H177.739L178.03 33.5232Z" fill="#808080"/>
<path d="M187.132 29.07V28.902H188.314C189.102 28.906 189.522 28.912 189.574 28.92C189.646 28.932 189.724 28.948 189.808 28.968C190.188 29.08 190.46 29.292 190.624 29.604C190.7 29.748 190.742 29.898 190.75 30.054C190.754 30.218 190.72 30.374 190.648 30.522C190.5 30.83 190.24 31.046 189.868 31.17C189.82 31.186 189.774 31.2 189.73 31.212C189.63 31.236 189.464 31.25 189.232 31.254C189.092 31.254 189.008 31.254 188.98 31.254H188.434V31.932C188.434 32.388 188.436 32.618 188.44 32.622C188.456 32.65 188.604 32.664 188.884 32.664H189.052V32.832V33H188.986L188.506 32.988C188.23 32.984 187.954 32.984 187.678 32.988L187.198 33H187.132V32.832V32.664H187.3C187.58 32.664 187.728 32.65 187.744 32.622V29.28C187.728 29.252 187.58 29.238 187.3 29.238H187.132V29.07ZM189.394 29.25C189.366 29.246 189.214 29.242 188.938 29.238C188.634 29.238 188.47 29.244 188.446 29.256C188.43 29.264 188.42 29.314 188.416 29.406C188.416 29.482 188.416 29.72 188.416 30.12V30.948H188.872C189.204 30.944 189.412 30.932 189.496 30.912C189.736 30.86 189.884 30.736 189.94 30.54C189.964 30.468 189.976 30.32 189.976 30.096C189.98 29.9 189.972 29.758 189.952 29.67C189.924 29.562 189.872 29.476 189.796 29.412C189.7 29.332 189.566 29.278 189.394 29.25ZM191.901 32.3908C191.954 32.386 192.03 32.3872 192.128 32.3944C192.289 32.416 192.405 32.4688 192.477 32.5528C192.501 32.5816 192.518 32.6152 192.528 32.6536C192.537 32.6872 192.54 32.728 192.535 32.776C192.516 32.86 192.462 32.9116 192.373 32.9308C192.282 32.95 192.21 32.9236 192.157 32.8516C192.14 32.83 192.128 32.8048 192.121 32.776C192.109 32.704 192.121 32.6452 192.157 32.5996C192.164 32.5924 192.168 32.5864 192.168 32.5816C192.168 32.5744 192.115 32.5708 192.009 32.5708C191.954 32.5708 191.92 32.572 191.908 32.5744C191.846 32.5912 191.791 32.6236 191.743 32.6716C191.664 32.7508 191.616 32.872 191.599 33.0352C191.589 33.1192 191.588 33.2224 191.595 33.3448C191.598 33.3568 191.599 33.3664 191.599 33.3736C191.616 33.4888 191.647 33.5812 191.692 33.6508C191.776 33.778 191.898 33.8476 192.056 33.8596C192.159 33.862 192.243 33.8248 192.308 33.748C192.349 33.6952 192.378 33.6388 192.394 33.5788C192.402 33.5548 192.411 33.5416 192.423 33.5392C192.433 33.5368 192.454 33.5356 192.488 33.5356H192.556L192.567 33.5464C192.579 33.5584 192.578 33.5824 192.564 33.6184C192.552 33.6616 192.526 33.7156 192.488 33.7804C192.363 33.9604 192.186 34.0468 191.955 34.0396C191.84 34.0324 191.734 34.0048 191.638 33.9568C191.401 33.8344 191.258 33.6304 191.21 33.3448C191.2 33.2872 191.199 33.2152 191.206 33.1288C191.209 33.1216 191.21 33.1156 191.21 33.1108C191.239 32.8852 191.337 32.7016 191.505 32.56C191.623 32.4664 191.755 32.41 191.901 32.3908ZM193.144 32.4304C193.351 32.416 193.449 32.4088 193.44 32.4088H193.454V32.4916V32.5744L193.486 32.5528C193.539 32.5192 193.599 32.4904 193.666 32.4664C193.729 32.4472 193.795 32.4316 193.864 32.4196C193.948 32.4076 194.03 32.4064 194.109 32.416C194.289 32.452 194.433 32.5588 194.541 32.7364C194.628 32.8852 194.671 33.0472 194.671 33.2224C194.671 33.4672 194.588 33.6724 194.422 33.838C194.41 33.85 194.397 33.862 194.383 33.874C194.292 33.946 194.198 33.994 194.102 34.018C193.932 34.0588 193.767 34.0408 193.609 33.964C193.549 33.9352 193.504 33.9076 193.476 33.8812L193.465 33.874V34.1692C193.465 34.3684 193.466 34.4692 193.468 34.4716C193.478 34.4884 193.545 34.4968 193.67 34.4968H193.746V34.5976V34.6984H193.717L193.49 34.6912C193.36 34.6888 193.231 34.6888 193.101 34.6912L192.874 34.6984H192.846V34.5976V34.4968H192.921C193.046 34.4968 193.113 34.4884 193.123 34.4716V32.7724C193.113 32.7148 193.083 32.6788 193.033 32.6644C193.006 32.6572 192.966 32.6524 192.91 32.65H192.846V32.5492V32.4484H192.853L193.144 32.4304ZM193.94 32.596C193.911 32.5888 193.878 32.5876 193.839 32.5924C193.777 32.5996 193.714 32.6152 193.652 32.6392C193.585 32.6704 193.531 32.71 193.49 32.758L193.465 32.7832V33.2116V33.6364L193.486 33.6688C193.537 33.7432 193.603 33.7984 193.684 33.8344C193.809 33.892 193.922 33.886 194.023 33.8164C194.155 33.7252 194.238 33.5752 194.271 33.3664C194.283 33.2944 194.284 33.2068 194.275 33.1036C194.251 32.8972 194.179 32.7472 194.059 32.6536C194.052 32.6464 194.043 32.6404 194.034 32.6356C194.005 32.6164 193.974 32.6032 193.94 32.596ZM195.274 31.5232C195.481 31.5088 195.579 31.5016 195.57 31.5016H195.584V32.6356C195.584 33.3916 195.585 33.7708 195.588 33.7732C195.597 33.79 195.664 33.7984 195.789 33.7984H195.865V33.8992V34H195.832L195.609 33.9928C195.482 33.9904 195.355 33.9904 195.228 33.9928L195.008 34H194.976V33.8992V33.7984H195.051C195.176 33.7984 195.243 33.79 195.253 33.7732V31.8652C195.243 31.8076 195.213 31.7716 195.163 31.7572C195.136 31.75 195.096 31.7452 195.04 31.7428H194.976V31.642V31.5412H194.983L195.274 31.5232Z" fill="#808080"/>
<path d="M191.592 37.348C191.728 37.32 191.83 37.382 191.898 37.534C191.91 37.562 191.92 37.59 191.928 37.618C191.936 37.654 191.94 37.72 191.94 37.816C191.94 37.976 191.904 38.198 191.832 38.482C191.72 38.942 191.576 39.312 191.4 39.592C191.3 39.736 191.198 39.848 191.094 39.928C191.01 39.988 190.926 40.028 190.842 40.048C190.806 40.056 190.748 40.06 190.668 40.06C190.548 40.06 190.438 40.046 190.338 40.018C190.002 39.902 189.846 39.642 189.87 39.238C189.882 39.046 189.98 38.7 190.164 38.2C190.236 37.988 190.276 37.852 190.284 37.792C190.304 37.7 190.294 37.648 190.254 37.636C190.206 37.62 190.15 37.63 190.086 37.666C190.002 37.718 189.936 37.8 189.888 37.912C189.848 37.984 189.804 38.106 189.756 38.278C189.744 38.302 189.736 38.316 189.732 38.32C189.724 38.328 189.676 38.332 189.588 38.332H189.456L189.438 38.314C189.426 38.302 189.42 38.286 189.42 38.266C189.428 38.202 189.462 38.102 189.522 37.966C189.594 37.814 189.684 37.68 189.792 37.564C189.872 37.488 189.952 37.432 190.032 37.396C190.096 37.368 190.174 37.354 190.266 37.354C190.366 37.354 190.452 37.372 190.524 37.408C190.576 37.436 190.616 37.466 190.644 37.498C190.676 37.526 190.706 37.566 190.734 37.618C190.77 37.694 190.786 37.774 190.782 37.858C190.782 37.938 190.756 38.048 190.704 38.188C190.7 38.208 190.692 38.232 190.68 38.26C190.612 38.452 190.57 38.568 190.554 38.608C190.402 39.06 190.36 39.382 190.428 39.574C190.472 39.718 190.574 39.788 190.734 39.784C190.754 39.784 190.774 39.782 190.794 39.778C190.874 39.766 190.952 39.722 191.028 39.646C191.188 39.486 191.334 39.138 191.466 38.602C191.502 38.446 191.516 38.332 191.508 38.26C191.492 38.12 191.438 38.004 191.346 37.912C191.314 37.88 191.292 37.85 191.28 37.822C191.268 37.798 191.262 37.762 191.262 37.714C191.262 37.666 191.266 37.63 191.274 37.606C191.318 37.506 191.384 37.434 191.472 37.39C191.504 37.37 191.544 37.356 191.592 37.348ZM193.113 38.4656C193.176 38.4608 193.237 38.4608 193.297 38.4656C193.496 38.4848 193.665 38.5664 193.805 38.7104C193.824 38.7272 193.835 38.7368 193.837 38.7392L193.949 38.6024C194.016 38.5232 194.055 38.4776 194.067 38.4656C194.07 38.4632 194.083 38.462 194.107 38.462C194.126 38.462 194.139 38.4656 194.147 38.4728L194.157 38.4836V38.9948V39.5024L194.147 39.5132L194.136 39.524H194.057C193.999 39.524 193.968 39.5192 193.963 39.5096C193.961 39.5048 193.956 39.4832 193.949 39.4448C193.908 39.1256 193.797 38.8988 193.617 38.7644C193.553 38.7188 193.484 38.6888 193.412 38.6744C193.374 38.6648 193.316 38.6624 193.239 38.6672C192.949 38.6936 192.732 38.816 192.588 39.0344C192.501 39.1616 192.447 39.3416 192.426 39.5744C192.416 39.6512 192.415 39.7676 192.422 39.9236C192.425 39.9428 192.426 39.9572 192.426 39.9668C192.443 40.1612 192.482 40.3172 192.545 40.4348C192.655 40.6508 192.836 40.7888 193.088 40.8488C193.105 40.8536 193.122 40.8572 193.139 40.8596C193.362 40.9004 193.55 40.8584 193.704 40.7336C193.867 40.5944 193.958 40.4036 193.977 40.1612C193.977 40.154 193.977 40.1456 193.977 40.136C193.977 40.1 193.981 40.0796 193.988 40.0748L193.999 40.064H194.067H194.136L194.147 40.0748C194.154 40.082 194.157 40.0952 194.157 40.1144C194.157 40.2272 194.136 40.34 194.093 40.4528C194.071 40.5152 194.037 40.5824 193.992 40.6544C193.908 40.7816 193.807 40.8788 193.689 40.946C193.517 41.0516 193.327 41.0948 193.121 41.0756C192.818 41.0492 192.56 40.9292 192.347 40.7156C192.248 40.6172 192.168 40.5068 192.105 40.3844C191.937 40.0532 191.909 39.7124 192.019 39.362C192.043 39.2924 192.072 39.224 192.105 39.1568C192.247 38.876 192.461 38.6756 192.746 38.5556C192.801 38.5316 192.859 38.5124 192.919 38.498C192.989 38.4812 193.053 38.4704 193.113 38.4656Z" fill="#808080"/>
<path d="M181.056 34.81C181.068 34.802 181.656 34.798 182.82 34.798H184.566L184.596 34.816C184.66 34.848 184.678 34.896 184.65 34.96C184.642 34.988 184.624 35.008 184.596 35.02L184.566 35.038H182.82C181.66 35.038 181.072 35.034 181.056 35.026C180.988 35.002 180.966 34.954 180.99 34.882C181.002 34.85 181.024 34.826 181.056 34.81ZM180.756 35.98L180.786 35.962H182.532C183.696 35.962 184.286 35.966 184.302 35.974C184.362 36.002 184.382 36.05 184.362 36.118C184.354 36.15 184.334 36.174 184.302 36.19C184.286 36.198 183.696 36.202 182.532 36.202H180.786L180.756 36.184C180.692 36.152 180.674 36.104 180.702 36.04C180.71 36.012 180.728 35.992 180.756 35.98Z" fill="#808080"/>
<path d="M26.668 23.076C26.812 23.04 26.916 23.076 26.98 23.184C27 23.22 27.012 23.26 27.016 23.304C27.016 23.364 27.002 23.422 26.974 23.478C26.882 23.606 26.766 23.68 26.626 23.7C26.582 23.7 26.536 23.688 26.488 23.664C26.448 23.644 26.416 23.608 26.392 23.556C26.38 23.54 26.372 23.508 26.368 23.46C26.368 23.396 26.38 23.34 26.404 23.292C26.46 23.18 26.548 23.108 26.668 23.076ZM26.152 24.36C26.18 24.352 26.224 24.348 26.284 24.348C26.376 24.352 26.456 24.372 26.524 24.408C26.576 24.436 26.616 24.466 26.644 24.498C26.676 24.526 26.706 24.566 26.734 24.618C26.77 24.694 26.786 24.774 26.782 24.858C26.782 24.926 26.778 24.974 26.77 25.002C26.766 25.01 26.676 25.26 26.5 25.752C26.332 26.2 26.242 26.448 26.23 26.496C26.19 26.628 26.184 26.716 26.212 26.76C26.232 26.784 26.274 26.788 26.338 26.772C26.494 26.736 26.62 26.542 26.716 26.19C26.736 26.126 26.756 26.092 26.776 26.088C26.788 26.084 26.83 26.082 26.902 26.082C26.99 26.082 27.038 26.086 27.046 26.094C27.07 26.11 27.07 26.152 27.046 26.22C27.002 26.376 26.936 26.522 26.848 26.658C26.688 26.898 26.506 27.032 26.302 27.06C26.23 27.076 26.156 27.072 26.08 27.048C26 27.024 25.934 26.994 25.882 26.958C25.794 26.886 25.736 26.784 25.708 26.652C25.692 26.576 25.696 26.496 25.72 26.412C25.728 26.38 25.816 26.134 25.984 25.674C26.128 25.29 26.22 25.038 26.26 24.918C26.3 24.794 26.306 24.708 26.278 24.66C26.266 24.628 26.224 24.622 26.152 24.642C26.032 24.67 25.926 24.796 25.834 25.02C25.782 25.2 25.756 25.286 25.756 25.278C25.744 25.302 25.736 25.316 25.732 25.32C25.724 25.328 25.676 25.332 25.588 25.332H25.456L25.438 25.314C25.426 25.302 25.42 25.286 25.42 25.266C25.428 25.202 25.462 25.102 25.522 24.966C25.57 24.862 25.62 24.776 25.672 24.708C25.724 24.636 25.79 24.564 25.87 24.492C25.958 24.424 26.052 24.38 26.152 24.36ZM27.6318 25.552L27.6426 25.5412H27.6966C27.9438 25.5532 28.2498 25.5544 28.6146 25.5448C28.701 25.5424 28.749 25.5496 28.7586 25.5664C28.761 25.5736 28.7574 25.6012 28.7478 25.6492C28.7334 25.6972 28.7238 25.7248 28.719 25.732L28.7082 25.7428H28.5642C28.4082 25.7452 28.3194 25.756 28.2978 25.7752C28.2906 25.78 28.2042 26.116 28.0386 26.7832C27.873 27.4456 27.7902 27.7804 27.7902 27.7876C27.7902 27.7924 27.7974 27.7948 27.8118 27.7948H28.1934C28.3206 27.7804 28.4346 27.7372 28.5354 27.6652C28.5906 27.6268 28.635 27.5836 28.6686 27.5356C28.743 27.4372 28.8138 27.2884 28.881 27.0892C28.905 27.0268 28.9206 26.9932 28.9278 26.9884C28.935 26.9836 28.9626 26.9812 29.0106 26.9812C29.0586 26.9812 29.085 26.9836 29.0898 26.9884C29.1042 26.9932 29.1114 27.004 29.1114 27.0208L28.7802 27.982C28.7754 27.9916 28.7406 27.9964 28.6758 27.9964C28.6062 27.9988 28.3482 28 27.9018 28H27.0486L27.0342 27.9892C27.027 27.9772 27.0234 27.9676 27.0234 27.9604C27.0234 27.922 27.0354 27.8752 27.0594 27.82C27.0882 27.8056 27.1338 27.7984 27.1962 27.7984C27.3042 27.796 27.3654 27.7912 27.3798 27.784C27.3918 27.7768 27.4014 27.7624 27.4086 27.7408C27.4254 27.6928 27.5082 27.3688 27.657 26.7688C27.8226 26.1064 27.9054 25.7728 27.9054 25.768C27.9054 25.7608 27.903 25.7572 27.8982 25.7572C27.8838 25.7524 27.8274 25.7476 27.729 25.7428C27.645 25.7428 27.5982 25.7344 27.5886 25.7176C27.5862 25.7104 27.5898 25.6828 27.5994 25.6348C27.6114 25.5892 27.6222 25.5616 27.6318 25.552Z" fill="#808080"/>
<path d="M35 21L32.5 19.5566V22.4434L35 21ZM20 21.25H32.75V20.75H20V21.25Z" fill="#808080"/>
<path d="M80.592 31.348C80.728 31.32 80.83 31.382 80.898 31.534C80.91 31.562 80.92 31.59 80.928 31.618C80.936 31.654 80.94 31.72 80.94 31.816C80.94 31.976 80.904 32.198 80.832 32.482C80.72 32.942 80.576 33.312 80.4 33.592C80.3 33.736 80.198 33.848 80.094 33.928C80.01 33.988 79.926 34.028 79.842 34.048C79.806 34.056 79.748 34.06 79.668 34.06C79.548 34.06 79.438 34.046 79.338 34.018C79.002 33.902 78.846 33.642 78.87 33.238C78.882 33.046 78.98 32.7 79.164 32.2C79.236 31.988 79.276 31.852 79.284 31.792C79.304 31.7 79.294 31.648 79.254 31.636C79.206 31.62 79.15 31.63 79.086 31.666C79.002 31.718 78.936 31.8 78.888 31.912C78.848 31.984 78.804 32.106 78.756 32.278C78.744 32.302 78.736 32.316 78.732 32.32C78.724 32.328 78.676 32.332 78.588 32.332H78.456L78.438 32.314C78.426 32.302 78.42 32.286 78.42 32.266C78.428 32.202 78.462 32.102 78.522 31.966C78.594 31.814 78.684 31.68 78.792 31.564C78.872 31.488 78.952 31.432 79.032 31.396C79.096 31.368 79.174 31.354 79.266 31.354C79.366 31.354 79.452 31.372 79.524 31.408C79.576 31.436 79.616 31.466 79.644 31.498C79.676 31.526 79.706 31.566 79.734 31.618C79.77 31.694 79.786 31.774 79.782 31.858C79.782 31.938 79.756 32.048 79.704 32.188C79.7 32.208 79.692 32.232 79.68 32.26C79.612 32.452 79.57 32.568 79.554 32.608C79.402 33.06 79.36 33.382 79.428 33.574C79.472 33.718 79.574 33.788 79.734 33.784C79.754 33.784 79.774 33.782 79.794 33.778C79.874 33.766 79.952 33.722 80.028 33.646C80.188 33.486 80.334 33.138 80.466 32.602C80.502 32.446 80.516 32.332 80.508 32.26C80.492 32.12 80.438 32.004 80.346 31.912C80.314 31.88 80.292 31.85 80.28 31.822C80.268 31.798 80.262 31.762 80.262 31.714C80.262 31.666 80.266 31.63 80.274 31.606C80.318 31.506 80.384 31.434 80.472 31.39C80.504 31.37 80.544 31.356 80.592 31.348ZM82.7254 32.4656L82.801 32.462H82.8046C83.0158 32.462 83.1802 32.5388 83.2978 32.6924C83.3146 32.7188 83.3242 32.732 83.3266 32.732L83.4634 32.5988L83.6002 32.462H83.629C83.6602 32.462 83.6782 32.4692 83.683 32.4836C83.6854 32.4884 83.6458 32.6588 83.5642 32.9948C83.4778 33.3404 83.4346 33.5096 83.4346 33.5024C83.4298 33.5168 83.3962 33.524 83.3338 33.524H83.2582L83.2474 33.5132C83.2378 33.5036 83.2354 33.482 83.2402 33.4484C83.2594 33.3236 83.263 33.2048 83.251 33.092C83.2246 32.8568 83.1322 32.7176 82.9738 32.6744C82.9522 32.6696 82.9186 32.6672 82.873 32.6672C82.7842 32.6648 82.6906 32.6792 82.5922 32.7104C82.4746 32.7488 82.369 32.8064 82.2754 32.8832C82.0618 33.0464 81.9034 33.3068 81.8002 33.6644C81.7354 33.902 81.703 34.0976 81.703 34.2512C81.703 34.3616 81.7174 34.454 81.7462 34.5284C81.8086 34.6916 81.9262 34.7984 82.099 34.8488C82.1158 34.8536 82.1326 34.8572 82.1494 34.8596C82.3774 34.9076 82.585 34.8404 82.7722 34.658C82.9114 34.514 83.0122 34.3388 83.0746 34.1324C83.0866 34.0916 83.0986 34.07 83.1106 34.0676C83.1178 34.0652 83.1418 34.064 83.1826 34.064C83.2426 34.064 83.2762 34.0712 83.2834 34.0856C83.2858 34.0952 83.2834 34.112 83.2762 34.136C83.197 34.424 83.0398 34.6604 82.8046 34.8452C82.7374 34.898 82.6666 34.9424 82.5922 34.9784C82.4434 35.048 82.2946 35.0816 82.1458 35.0792C82.0426 35.0768 81.9418 35.0552 81.8434 35.0144C81.6802 34.952 81.553 34.8476 81.4618 34.7012C81.3778 34.5764 81.3262 34.4288 81.307 34.2584C81.2974 34.1984 81.2962 34.1144 81.3034 34.0064C81.3058 33.9944 81.307 33.9848 81.307 33.9776C81.3358 33.7088 81.4294 33.4532 81.5878 33.2108C81.6358 33.1436 81.6778 33.0884 81.7138 33.0452C81.7786 32.966 81.859 32.8856 81.955 32.804C82.1998 32.6048 82.4566 32.492 82.7254 32.4656Z" fill="#808080"/>
<path d="M82.632 25.1H81.584V26.16H81.296V25.1H80.248V24.828H81.296V23.768H81.584V24.828H82.632V25.1Z" fill="#808080"/>
<line x1="80" y1="40.85" x2="83" y2="40.85" stroke="#808080" stroke-width="0.3"/>
</g>
<defs>
<clipPath id="clip0_141_1384">
<rect width="218" height="67" fill="white"/>
</clipPath>
</defs>
</svg>
