<?xml version="1.0" encoding="utf-8" standalone="no"?>
<!DOCTYPE svg PUBLIC "-//W3C//DTD SVG 1.1//EN"
  "http://www.w3.org/Graphics/SVG/1.1/DTD/svg11.dtd">
<svg xmlns:xlink="http://www.w3.org/1999/xlink" width="576pt" height="288pt" viewBox="0 0 576 288" xmlns="http://www.w3.org/2000/svg" version="1.1">
 <metadata>
  <rdf:RDF xmlns:dc="http://purl.org/dc/elements/1.1/" xmlns:cc="http://creativecommons.org/ns#" xmlns:rdf="http://www.w3.org/1999/02/22-rdf-syntax-ns#">
   <cc:Work>
    <dc:type rdf:resource="http://purl.org/dc/dcmitype/StillImage"/>
    <dc:date>2024-03-04T16:42:29.472458</dc:date>
    <dc:format>image/svg+xml</dc:format>
    <dc:creator>
     <cc:Agent>
      <dc:title>Matplotlib v3.8.2, https://matplotlib.org/</dc:title>
     </cc:Agent>
    </dc:creator>
   </cc:Work>
  </rdf:RDF>
 </metadata>
 <defs>
  <style type="text/css">*{stroke-linejoin: round; stroke-linecap: butt}</style>
 </defs>
 <g id="figure_1">
  <g id="patch_1">
   <path d="M 0 288 
L 576 288 
L 576 0 
L 0 0 
z
" style="fill: #ffffff"/>
  </g>
  <g id="axes_1">
   <g id="patch_2">
    <path d="M 72 256.32 
L 518.4 256.32 
L 518.4 34.56 
L 72 34.56 
z
" style="fill: #ffffff"/>
   </g>
   <g id="matplotlib.axis_1">
    <g id="xtick_1">
     <g id="line2d_1">
      <path d="M 92.290909 256.32 
L 92.290909 34.56 
" clip-path="url(#p56f580d792)" style="fill: none; stroke-dasharray: 2.96,1.28; stroke-dashoffset: 0; stroke: #b0b0b0; stroke-width: 0.8"/>
     </g>
     <g id="line2d_2">
      <defs>
       <path id="m9d78f7c2a5" d="M 0 0 
L 0 3.5 
" style="stroke: #000000; stroke-width: 0.8"/>
      </defs>
      <g>
       <use xlink:href="#m9d78f7c2a5" x="92.290909" y="256.32" style="stroke: #000000; stroke-width: 0.8"/>
      </g>
     </g>
     <g id="text_1">
      <!-- 0 -->
      <g transform="translate(89.109659 270.918437) scale(0.1 -0.1)">
       <defs>
        <path id="DejaVuSans-30" d="M 2034 4250 
Q 1547 4250 1301 3770 
Q 1056 3291 1056 2328 
Q 1056 1369 1301 889 
Q 1547 409 2034 409 
Q 2525 409 2770 889 
Q 3016 1369 3016 2328 
Q 3016 3291 2770 3770 
Q 2525 4250 2034 4250 
z
M 2034 4750 
Q 2819 4750 3233 4129 
Q 3647 3509 3647 2328 
Q 3647 1150 3233 529 
Q 2819 -91 2034 -91 
Q 1250 -91 836 529 
Q 422 1150 422 2328 
Q 422 3509 836 4129 
Q 1250 4750 2034 4750 
z
" transform="scale(0.015625)"/>
       </defs>
       <use xlink:href="#DejaVuSans-30"/>
      </g>
     </g>
    </g>
    <g id="xtick_2">
     <g id="line2d_3">
      <path d="M 160.110657 256.32 
L 160.110657 34.56 
" clip-path="url(#p56f580d792)" style="fill: none; stroke-dasharray: 2.96,1.28; stroke-dashoffset: 0; stroke: #b0b0b0; stroke-width: 0.8"/>
     </g>
     <g id="line2d_4">
      <g>
       <use xlink:href="#m9d78f7c2a5" x="160.110657" y="256.32" style="stroke: #000000; stroke-width: 0.8"/>
      </g>
     </g>
     <g id="text_2">
      <!-- 5 -->
      <g transform="translate(156.929407 270.918437) scale(0.1 -0.1)">
       <defs>
        <path id="DejaVuSans-35" d="M 691 4666 
L 3169 4666 
L 3169 4134 
L 1269 4134 
L 1269 2991 
Q 1406 3038 1543 3061 
Q 1681 3084 1819 3084 
Q 2600 3084 3056 2656 
Q 3513 2228 3513 1497 
Q 3513 744 3044 326 
Q 2575 -91 1722 -91 
Q 1428 -91 1123 -41 
Q 819 9 494 109 
L 494 744 
Q 775 591 1075 516 
Q 1375 441 1709 441 
Q 2250 441 2565 725 
Q 2881 1009 2881 1497 
Q 2881 1984 2565 2268 
Q 2250 2553 1709 2553 
Q 1456 2553 1204 2497 
Q 953 2441 691 2322 
L 691 4666 
z
" transform="scale(0.015625)"/>
       </defs>
       <use xlink:href="#DejaVuSans-35"/>
      </g>
     </g>
    </g>
    <g id="xtick_3">
     <g id="line2d_5">
      <path d="M 227.930406 256.32 
L 227.930406 34.56 
" clip-path="url(#p56f580d792)" style="fill: none; stroke-dasharray: 2.96,1.28; stroke-dashoffset: 0; stroke: #b0b0b0; stroke-width: 0.8"/>
     </g>
     <g id="line2d_6">
      <g>
       <use xlink:href="#m9d78f7c2a5" x="227.930406" y="256.32" style="stroke: #000000; stroke-width: 0.8"/>
      </g>
     </g>
     <g id="text_3">
      <!-- 10 -->
      <g transform="translate(221.567906 270.918437) scale(0.1 -0.1)">
       <defs>
        <path id="DejaVuSans-31" d="M 794 531 
L 1825 531 
L 1825 4091 
L 703 3866 
L 703 4441 
L 1819 4666 
L 2450 4666 
L 2450 531 
L 3481 531 
L 3481 0 
L 794 0 
L 794 531 
z
" transform="scale(0.015625)"/>
       </defs>
       <use xlink:href="#DejaVuSans-31"/>
       <use xlink:href="#DejaVuSans-30" x="63.623047"/>
      </g>
     </g>
    </g>
    <g id="xtick_4">
     <g id="line2d_7">
      <path d="M 295.750154 256.32 
L 295.750154 34.56 
" clip-path="url(#p56f580d792)" style="fill: none; stroke-dasharray: 2.96,1.28; stroke-dashoffset: 0; stroke: #b0b0b0; stroke-width: 0.8"/>
     </g>
     <g id="line2d_8">
      <g>
       <use xlink:href="#m9d78f7c2a5" x="295.750154" y="256.32" style="stroke: #000000; stroke-width: 0.8"/>
      </g>
     </g>
     <g id="text_4">
      <!-- 15 -->
      <g transform="translate(289.387654 270.918437) scale(0.1 -0.1)">
       <use xlink:href="#DejaVuSans-31"/>
       <use xlink:href="#DejaVuSans-35" x="63.623047"/>
      </g>
     </g>
    </g>
    <g id="xtick_5">
     <g id="line2d_9">
      <path d="M 363.569902 256.32 
L 363.569902 34.56 
" clip-path="url(#p56f580d792)" style="fill: none; stroke-dasharray: 2.96,1.28; stroke-dashoffset: 0; stroke: #b0b0b0; stroke-width: 0.8"/>
     </g>
     <g id="line2d_10">
      <g>
       <use xlink:href="#m9d78f7c2a5" x="363.569902" y="256.32" style="stroke: #000000; stroke-width: 0.8"/>
      </g>
     </g>
     <g id="text_5">
      <!-- 20 -->
      <g transform="translate(357.207402 270.918437) scale(0.1 -0.1)">
       <defs>
        <path id="DejaVuSans-32" d="M 1228 531 
L 3431 531 
L 3431 0 
L 469 0 
L 469 531 
Q 828 903 1448 1529 
Q 2069 2156 2228 2338 
Q 2531 2678 2651 2914 
Q 2772 3150 2772 3378 
Q 2772 3750 2511 3984 
Q 2250 4219 1831 4219 
Q 1534 4219 1204 4116 
Q 875 4013 500 3803 
L 500 4441 
Q 881 4594 1212 4672 
Q 1544 4750 1819 4750 
Q 2544 4750 2975 4387 
Q 3406 4025 3406 3419 
Q 3406 3131 3298 2873 
Q 3191 2616 2906 2266 
Q 2828 2175 2409 1742 
Q 1991 1309 1228 531 
z
" transform="scale(0.015625)"/>
       </defs>
       <use xlink:href="#DejaVuSans-32"/>
       <use xlink:href="#DejaVuSans-30" x="63.623047"/>
      </g>
     </g>
    </g>
    <g id="xtick_6">
     <g id="line2d_11">
      <path d="M 431.38965 256.32 
L 431.38965 34.56 
" clip-path="url(#p56f580d792)" style="fill: none; stroke-dasharray: 2.96,1.28; stroke-dashoffset: 0; stroke: #b0b0b0; stroke-width: 0.8"/>
     </g>
     <g id="line2d_12">
      <g>
       <use xlink:href="#m9d78f7c2a5" x="431.38965" y="256.32" style="stroke: #000000; stroke-width: 0.8"/>
      </g>
     </g>
     <g id="text_6">
      <!-- 25 -->
      <g transform="translate(425.02715 270.918437) scale(0.1 -0.1)">
       <use xlink:href="#DejaVuSans-32"/>
       <use xlink:href="#DejaVuSans-35" x="63.623047"/>
      </g>
     </g>
    </g>
    <g id="xtick_7">
     <g id="line2d_13">
      <path d="M 499.209399 256.32 
L 499.209399 34.56 
" clip-path="url(#p56f580d792)" style="fill: none; stroke-dasharray: 2.96,1.28; stroke-dashoffset: 0; stroke: #b0b0b0; stroke-width: 0.8"/>
     </g>
     <g id="line2d_14">
      <g>
       <use xlink:href="#m9d78f7c2a5" x="499.209399" y="256.32" style="stroke: #000000; stroke-width: 0.8"/>
      </g>
     </g>
     <g id="text_7">
      <!-- 30 -->
      <g transform="translate(492.846899 270.918437) scale(0.1 -0.1)">
       <defs>
        <path id="DejaVuSans-33" d="M 2597 2516 
Q 3050 2419 3304 2112 
Q 3559 1806 3559 1356 
Q 3559 666 3084 287 
Q 2609 -91 1734 -91 
Q 1441 -91 1130 -33 
Q 819 25 488 141 
L 488 750 
Q 750 597 1062 519 
Q 1375 441 1716 441 
Q 2309 441 2620 675 
Q 2931 909 2931 1356 
Q 2931 1769 2642 2001 
Q 2353 2234 1838 2234 
L 1294 2234 
L 1294 2753 
L 1863 2753 
Q 2328 2753 2575 2939 
Q 2822 3125 2822 3475 
Q 2822 3834 2567 4026 
Q 2313 4219 1838 4219 
Q 1578 4219 1281 4162 
Q 984 4106 628 3988 
L 628 4550 
Q 988 4650 1302 4700 
Q 1616 4750 1894 4750 
Q 2613 4750 3031 4423 
Q 3450 4097 3450 3541 
Q 3450 3153 3228 2886 
Q 3006 2619 2597 2516 
z
" transform="scale(0.015625)"/>
       </defs>
       <use xlink:href="#DejaVuSans-33"/>
       <use xlink:href="#DejaVuSans-30" x="63.623047"/>
      </g>
     </g>
    </g>
    <g id="text_8">
     <!-- $t\,(s)$ -->
     <g transform="translate(285.9 284.596563) scale(0.1 -0.1)">
      <defs>
       <path id="DejaVuSans-Oblique-74" d="M 2706 3500 
L 2619 3053 
L 1472 3053 
L 1100 1153 
Q 1081 1047 1072 975 
Q 1063 903 1063 863 
Q 1063 663 1183 572 
Q 1303 481 1569 481 
L 2150 481 
L 2053 0 
L 1503 0 
Q 991 0 739 200 
Q 488 400 488 806 
Q 488 878 497 964 
Q 506 1050 525 1153 
L 897 3053 
L 409 3053 
L 500 3500 
L 978 3500 
L 1172 4494 
L 1747 4494 
L 1556 3500 
L 2706 3500 
z
" transform="scale(0.015625)"/>
       <path id="DejaVuSans-28" d="M 1984 4856 
Q 1566 4138 1362 3434 
Q 1159 2731 1159 2009 
Q 1159 1288 1364 580 
Q 1569 -128 1984 -844 
L 1484 -844 
Q 1016 -109 783 600 
Q 550 1309 550 2009 
Q 550 2706 781 3412 
Q 1013 4119 1484 4856 
L 1984 4856 
z
" transform="scale(0.015625)"/>
       <path id="DejaVuSans-Oblique-73" d="M 3200 3397 
L 3091 2853 
Q 2863 2978 2609 3040 
Q 2356 3103 2088 3103 
Q 1634 3103 1373 2948 
Q 1113 2794 1113 2528 
Q 1113 2219 1719 2053 
Q 1766 2041 1788 2034 
L 1972 1978 
Q 2547 1819 2739 1644 
Q 2931 1469 2931 1166 
Q 2931 609 2489 259 
Q 2047 -91 1331 -91 
Q 1053 -91 747 -37 
Q 441 16 72 128 
L 184 722 
Q 500 559 806 475 
Q 1113 391 1394 391 
Q 1816 391 2080 572 
Q 2344 753 2344 1031 
Q 2344 1331 1650 1516 
L 1591 1531 
L 1394 1581 
Q 956 1697 753 1886 
Q 550 2075 550 2369 
Q 550 2928 970 3256 
Q 1391 3584 2113 3584 
Q 2397 3584 2667 3537 
Q 2938 3491 3200 3397 
z
" transform="scale(0.015625)"/>
       <path id="DejaVuSans-29" d="M 513 4856 
L 1013 4856 
Q 1481 4119 1714 3412 
Q 1947 2706 1947 2009 
Q 1947 1309 1714 600 
Q 1481 -109 1013 -844 
L 513 -844 
Q 928 -128 1133 580 
Q 1338 1288 1338 2009 
Q 1338 2731 1133 3434 
Q 928 4138 513 4856 
z
" transform="scale(0.015625)"/>
      </defs>
      <use xlink:href="#DejaVuSans-Oblique-74" transform="translate(0 0.125)"/>
      <use xlink:href="#DejaVuSans-28" transform="translate(55.444661 0.125)"/>
      <use xlink:href="#DejaVuSans-Oblique-73" transform="translate(94.458333 0.125)"/>
      <use xlink:href="#DejaVuSans-29" transform="translate(146.557942 0.125)"/>
     </g>
    </g>
   </g>
   <g id="matplotlib.axis_2">
    <g id="ytick_1">
     <g id="line2d_15">
      <path d="M 72 246.24 
L 518.4 246.24 
" clip-path="url(#p56f580d792)" style="fill: none; stroke-dasharray: 2.96,1.28; stroke-dashoffset: 0; stroke: #b0b0b0; stroke-width: 0.8"/>
     </g>
     <g id="line2d_16">
      <defs>
       <path id="me1f37882ed" d="M 0 0 
L -3.5 0 
" style="stroke: #000000; stroke-width: 0.8"/>
      </defs>
      <g>
       <use xlink:href="#me1f37882ed" x="72" y="246.24" style="stroke: #000000; stroke-width: 0.8"/>
      </g>
     </g>
     <g id="text_9">
      <!-- 0.0 -->
      <g transform="translate(49.096875 250.039219) scale(0.1 -0.1)">
       <defs>
        <path id="DejaVuSans-2e" d="M 684 794 
L 1344 794 
L 1344 0 
L 684 0 
L 684 794 
z
" transform="scale(0.015625)"/>
       </defs>
       <use xlink:href="#DejaVuSans-30"/>
       <use xlink:href="#DejaVuSans-2e" x="63.623047"/>
       <use xlink:href="#DejaVuSans-30" x="95.410156"/>
      </g>
     </g>
    </g>
    <g id="ytick_2">
     <g id="line2d_17">
      <path d="M 72 205.579263 
L 518.4 205.579263 
" clip-path="url(#p56f580d792)" style="fill: none; stroke-dasharray: 2.96,1.28; stroke-dashoffset: 0; stroke: #b0b0b0; stroke-width: 0.8"/>
     </g>
     <g id="line2d_18">
      <g>
       <use xlink:href="#me1f37882ed" x="72" y="205.579263" style="stroke: #000000; stroke-width: 0.8"/>
      </g>
     </g>
     <g id="text_10">
      <!-- 0.2 -->
      <g transform="translate(49.096875 209.378482) scale(0.1 -0.1)">
       <use xlink:href="#DejaVuSans-30"/>
       <use xlink:href="#DejaVuSans-2e" x="63.623047"/>
       <use xlink:href="#DejaVuSans-32" x="95.410156"/>
      </g>
     </g>
    </g>
    <g id="ytick_3">
     <g id="line2d_19">
      <path d="M 72 164.918526 
L 518.4 164.918526 
" clip-path="url(#p56f580d792)" style="fill: none; stroke-dasharray: 2.96,1.28; stroke-dashoffset: 0; stroke: #b0b0b0; stroke-width: 0.8"/>
     </g>
     <g id="line2d_20">
      <g>
       <use xlink:href="#me1f37882ed" x="72" y="164.918526" style="stroke: #000000; stroke-width: 0.8"/>
      </g>
     </g>
     <g id="text_11">
      <!-- 0.4 -->
      <g transform="translate(49.096875 168.717745) scale(0.1 -0.1)">
       <defs>
        <path id="DejaVuSans-34" d="M 2419 4116 
L 825 1625 
L 2419 1625 
L 2419 4116 
z
M 2253 4666 
L 3047 4666 
L 3047 1625 
L 3713 1625 
L 3713 1100 
L 3047 1100 
L 3047 0 
L 2419 0 
L 2419 1100 
L 313 1100 
L 313 1709 
L 2253 4666 
z
" transform="scale(0.015625)"/>
       </defs>
       <use xlink:href="#DejaVuSans-30"/>
       <use xlink:href="#DejaVuSans-2e" x="63.623047"/>
       <use xlink:href="#DejaVuSans-34" x="95.410156"/>
      </g>
     </g>
    </g>
    <g id="ytick_4">
     <g id="line2d_21">
      <path d="M 72 124.257789 
L 518.4 124.257789 
" clip-path="url(#p56f580d792)" style="fill: none; stroke-dasharray: 2.96,1.28; stroke-dashoffset: 0; stroke: #b0b0b0; stroke-width: 0.8"/>
     </g>
     <g id="line2d_22">
      <g>
       <use xlink:href="#me1f37882ed" x="72" y="124.257789" style="stroke: #000000; stroke-width: 0.8"/>
      </g>
     </g>
     <g id="text_12">
      <!-- 0.6 -->
      <g transform="translate(49.096875 128.057008) scale(0.1 -0.1)">
       <defs>
        <path id="DejaVuSans-36" d="M 2113 2584 
Q 1688 2584 1439 2293 
Q 1191 2003 1191 1497 
Q 1191 994 1439 701 
Q 1688 409 2113 409 
Q 2538 409 2786 701 
Q 3034 994 3034 1497 
Q 3034 2003 2786 2293 
Q 2538 2584 2113 2584 
z
M 3366 4563 
L 3366 3988 
Q 3128 4100 2886 4159 
Q 2644 4219 2406 4219 
Q 1781 4219 1451 3797 
Q 1122 3375 1075 2522 
Q 1259 2794 1537 2939 
Q 1816 3084 2150 3084 
Q 2853 3084 3261 2657 
Q 3669 2231 3669 1497 
Q 3669 778 3244 343 
Q 2819 -91 2113 -91 
Q 1303 -91 875 529 
Q 447 1150 447 2328 
Q 447 3434 972 4092 
Q 1497 4750 2381 4750 
Q 2619 4750 2861 4703 
Q 3103 4656 3366 4563 
z
" transform="scale(0.015625)"/>
       </defs>
       <use xlink:href="#DejaVuSans-30"/>
       <use xlink:href="#DejaVuSans-2e" x="63.623047"/>
       <use xlink:href="#DejaVuSans-36" x="95.410156"/>
      </g>
     </g>
    </g>
    <g id="ytick_5">
     <g id="line2d_23">
      <path d="M 72 83.597052 
L 518.4 83.597052 
" clip-path="url(#p56f580d792)" style="fill: none; stroke-dasharray: 2.96,1.28; stroke-dashoffset: 0; stroke: #b0b0b0; stroke-width: 0.8"/>
     </g>
     <g id="line2d_24">
      <g>
       <use xlink:href="#me1f37882ed" x="72" y="83.597052" style="stroke: #000000; stroke-width: 0.8"/>
      </g>
     </g>
     <g id="text_13">
      <!-- 0.8 -->
      <g transform="translate(49.096875 87.396271) scale(0.1 -0.1)">
       <defs>
        <path id="DejaVuSans-38" d="M 2034 2216 
Q 1584 2216 1326 1975 
Q 1069 1734 1069 1313 
Q 1069 891 1326 650 
Q 1584 409 2034 409 
Q 2484 409 2743 651 
Q 3003 894 3003 1313 
Q 3003 1734 2745 1975 
Q 2488 2216 2034 2216 
z
M 1403 2484 
Q 997 2584 770 2862 
Q 544 3141 544 3541 
Q 544 4100 942 4425 
Q 1341 4750 2034 4750 
Q 2731 4750 3128 4425 
Q 3525 4100 3525 3541 
Q 3525 3141 3298 2862 
Q 3072 2584 2669 2484 
Q 3125 2378 3379 2068 
Q 3634 1759 3634 1313 
Q 3634 634 3220 271 
Q 2806 -91 2034 -91 
Q 1263 -91 848 271 
Q 434 634 434 1313 
Q 434 1759 690 2068 
Q 947 2378 1403 2484 
z
M 1172 3481 
Q 1172 3119 1398 2916 
Q 1625 2713 2034 2713 
Q 2441 2713 2670 2916 
Q 2900 3119 2900 3481 
Q 2900 3844 2670 4047 
Q 2441 4250 2034 4250 
Q 1625 4250 1398 4047 
Q 1172 3844 1172 3481 
z
" transform="scale(0.015625)"/>
       </defs>
       <use xlink:href="#DejaVuSans-30"/>
       <use xlink:href="#DejaVuSans-2e" x="63.623047"/>
       <use xlink:href="#DejaVuSans-38" x="95.410156"/>
      </g>
     </g>
    </g>
    <g id="ytick_6">
     <g id="line2d_25">
      <path d="M 72 42.936315 
L 518.4 42.936315 
" clip-path="url(#p56f580d792)" style="fill: none; stroke-dasharray: 2.96,1.28; stroke-dashoffset: 0; stroke: #b0b0b0; stroke-width: 0.8"/>
     </g>
     <g id="line2d_26">
      <g>
       <use xlink:href="#me1f37882ed" x="72" y="42.936315" style="stroke: #000000; stroke-width: 0.8"/>
      </g>
     </g>
     <g id="text_14">
      <!-- 1.0 -->
      <g transform="translate(49.096875 46.735534) scale(0.1 -0.1)">
       <use xlink:href="#DejaVuSans-31"/>
       <use xlink:href="#DejaVuSans-2e" x="63.623047"/>
       <use xlink:href="#DejaVuSans-30" x="95.410156"/>
      </g>
     </g>
    </g>
    <g id="text_15">
     <!-- inter-event times -->
     <g transform="translate(43.017187 188.306406) rotate(-90) scale(0.1 -0.1)">
      <defs>
       <path id="DejaVuSans-69" d="M 603 3500 
L 1178 3500 
L 1178 0 
L 603 0 
L 603 3500 
z
M 603 4863 
L 1178 4863 
L 1178 4134 
L 603 4134 
L 603 4863 
z
" transform="scale(0.015625)"/>
       <path id="DejaVuSans-6e" d="M 3513 2113 
L 3513 0 
L 2938 0 
L 2938 2094 
Q 2938 2591 2744 2837 
Q 2550 3084 2163 3084 
Q 1697 3084 1428 2787 
Q 1159 2491 1159 1978 
L 1159 0 
L 581 0 
L 581 3500 
L 1159 3500 
L 1159 2956 
Q 1366 3272 1645 3428 
Q 1925 3584 2291 3584 
Q 2894 3584 3203 3211 
Q 3513 2838 3513 2113 
z
" transform="scale(0.015625)"/>
       <path id="DejaVuSans-74" d="M 1172 4494 
L 1172 3500 
L 2356 3500 
L 2356 3053 
L 1172 3053 
L 1172 1153 
Q 1172 725 1289 603 
Q 1406 481 1766 481 
L 2356 481 
L 2356 0 
L 1766 0 
Q 1100 0 847 248 
Q 594 497 594 1153 
L 594 3053 
L 172 3053 
L 172 3500 
L 594 3500 
L 594 4494 
L 1172 4494 
z
" transform="scale(0.015625)"/>
       <path id="DejaVuSans-65" d="M 3597 1894 
L 3597 1613 
L 953 1613 
Q 991 1019 1311 708 
Q 1631 397 2203 397 
Q 2534 397 2845 478 
Q 3156 559 3463 722 
L 3463 178 
Q 3153 47 2828 -22 
Q 2503 -91 2169 -91 
Q 1331 -91 842 396 
Q 353 884 353 1716 
Q 353 2575 817 3079 
Q 1281 3584 2069 3584 
Q 2775 3584 3186 3129 
Q 3597 2675 3597 1894 
z
M 3022 2063 
Q 3016 2534 2758 2815 
Q 2500 3097 2075 3097 
Q 1594 3097 1305 2825 
Q 1016 2553 972 2059 
L 3022 2063 
z
" transform="scale(0.015625)"/>
       <path id="DejaVuSans-72" d="M 2631 2963 
Q 2534 3019 2420 3045 
Q 2306 3072 2169 3072 
Q 1681 3072 1420 2755 
Q 1159 2438 1159 1844 
L 1159 0 
L 581 0 
L 581 3500 
L 1159 3500 
L 1159 2956 
Q 1341 3275 1631 3429 
Q 1922 3584 2338 3584 
Q 2397 3584 2469 3576 
Q 2541 3569 2628 3553 
L 2631 2963 
z
" transform="scale(0.015625)"/>
       <path id="DejaVuSans-2d" d="M 313 2009 
L 1997 2009 
L 1997 1497 
L 313 1497 
L 313 2009 
z
" transform="scale(0.015625)"/>
       <path id="DejaVuSans-76" d="M 191 3500 
L 800 3500 
L 1894 563 
L 2988 3500 
L 3597 3500 
L 2284 0 
L 1503 0 
L 191 3500 
z
" transform="scale(0.015625)"/>
       <path id="DejaVuSans-20" transform="scale(0.015625)"/>
       <path id="DejaVuSans-6d" d="M 3328 2828 
Q 3544 3216 3844 3400 
Q 4144 3584 4550 3584 
Q 5097 3584 5394 3201 
Q 5691 2819 5691 2113 
L 5691 0 
L 5113 0 
L 5113 2094 
Q 5113 2597 4934 2840 
Q 4756 3084 4391 3084 
Q 3944 3084 3684 2787 
Q 3425 2491 3425 1978 
L 3425 0 
L 2847 0 
L 2847 2094 
Q 2847 2600 2669 2842 
Q 2491 3084 2119 3084 
Q 1678 3084 1418 2786 
Q 1159 2488 1159 1978 
L 1159 0 
L 581 0 
L 581 3500 
L 1159 3500 
L 1159 2956 
Q 1356 3278 1631 3431 
Q 1906 3584 2284 3584 
Q 2666 3584 2933 3390 
Q 3200 3197 3328 2828 
z
" transform="scale(0.015625)"/>
       <path id="DejaVuSans-73" d="M 2834 3397 
L 2834 2853 
Q 2591 2978 2328 3040 
Q 2066 3103 1784 3103 
Q 1356 3103 1142 2972 
Q 928 2841 928 2578 
Q 928 2378 1081 2264 
Q 1234 2150 1697 2047 
L 1894 2003 
Q 2506 1872 2764 1633 
Q 3022 1394 3022 966 
Q 3022 478 2636 193 
Q 2250 -91 1575 -91 
Q 1294 -91 989 -36 
Q 684 19 347 128 
L 347 722 
Q 666 556 975 473 
Q 1284 391 1588 391 
Q 1994 391 2212 530 
Q 2431 669 2431 922 
Q 2431 1156 2273 1281 
Q 2116 1406 1581 1522 
L 1381 1569 
Q 847 1681 609 1914 
Q 372 2147 372 2553 
Q 372 3047 722 3315 
Q 1072 3584 1716 3584 
Q 2034 3584 2315 3537 
Q 2597 3491 2834 3397 
z
" transform="scale(0.015625)"/>
      </defs>
      <use xlink:href="#DejaVuSans-69"/>
      <use xlink:href="#DejaVuSans-6e" x="27.783203"/>
      <use xlink:href="#DejaVuSans-74" x="91.162109"/>
      <use xlink:href="#DejaVuSans-65" x="130.371094"/>
      <use xlink:href="#DejaVuSans-72" x="191.894531"/>
      <use xlink:href="#DejaVuSans-2d" x="226.632812"/>
      <use xlink:href="#DejaVuSans-65" x="262.716797"/>
      <use xlink:href="#DejaVuSans-76" x="324.240234"/>
      <use xlink:href="#DejaVuSans-65" x="383.419922"/>
      <use xlink:href="#DejaVuSans-6e" x="444.943359"/>
      <use xlink:href="#DejaVuSans-74" x="508.322266"/>
      <use xlink:href="#DejaVuSans-20" x="547.53125"/>
      <use xlink:href="#DejaVuSans-74" x="579.318359"/>
      <use xlink:href="#DejaVuSans-69" x="618.527344"/>
      <use xlink:href="#DejaVuSans-6d" x="646.310547"/>
      <use xlink:href="#DejaVuSans-65" x="743.722656"/>
      <use xlink:href="#DejaVuSans-73" x="805.246094"/>
     </g>
    </g>
   </g>
   <g id="LineCollection_1">
    <path d="M 92.290909 246.24 
L 92.290909 246.24 
" clip-path="url(#p56f580d792)" style="fill: none; stroke: #000000; stroke-width: 1.5"/>
    <path d="M 93.001389 246.24 
L 93.001389 235.590953 
" clip-path="url(#p56f580d792)" style="fill: none; stroke: #000000; stroke-width: 1.5"/>
    <path d="M 93.001389 246.24 
L 93.001389 246.24 
" clip-path="url(#p56f580d792)" style="fill: none; stroke: #000000; stroke-width: 1.5"/>
    <path d="M 97.367624 246.24 
L 97.367624 180.796544 
" clip-path="url(#p56f580d792)" style="fill: none; stroke: #000000; stroke-width: 1.5"/>
    <path d="M 97.367624 246.24 
L 97.367624 246.24 
" clip-path="url(#p56f580d792)" style="fill: none; stroke: #000000; stroke-width: 1.5"/>
    <path d="M 104.926813 246.24 
L 104.926813 132.938856 
" clip-path="url(#p56f580d792)" style="fill: none; stroke: #000000; stroke-width: 1.5"/>
    <path d="M 104.926813 246.24 
L 104.926813 246.24 
" clip-path="url(#p56f580d792)" style="fill: none; stroke: #000000; stroke-width: 1.5"/>
    <path d="M 113.470745 246.24 
L 113.470745 118.179009 
" clip-path="url(#p56f580d792)" style="fill: none; stroke: #000000; stroke-width: 1.5"/>
    <path d="M 113.470745 246.24 
L 113.470745 246.24 
" clip-path="url(#p56f580d792)" style="fill: none; stroke: #000000; stroke-width: 1.5"/>
    <path d="M 123.305965 246.24 
L 123.305965 98.824498 
" clip-path="url(#p56f580d792)" style="fill: none; stroke: #000000; stroke-width: 1.5"/>
    <path d="M 123.305965 246.24 
L 123.305965 246.24 
" clip-path="url(#p56f580d792)" style="fill: none; stroke: #000000; stroke-width: 1.5"/>
    <path d="M 134.728288 246.24 
L 134.728288 75.03616 
" clip-path="url(#p56f580d792)" style="fill: none; stroke: #000000; stroke-width: 1.5"/>
    <path d="M 134.728288 246.24 
L 134.728288 246.24 
" clip-path="url(#p56f580d792)" style="fill: none; stroke: #000000; stroke-width: 1.5"/>
    <path d="M 147.053728 246.24 
L 147.053728 61.499749 
" clip-path="url(#p56f580d792)" style="fill: none; stroke: #000000; stroke-width: 1.5"/>
    <path d="M 147.053728 246.24 
L 147.053728 246.24 
" clip-path="url(#p56f580d792)" style="fill: none; stroke: #000000; stroke-width: 1.5"/>
    <path d="M 157.340628 246.24 
L 157.340628 92.054485 
" clip-path="url(#p56f580d792)" style="fill: none; stroke: #000000; stroke-width: 1.5"/>
    <path d="M 157.340628 246.24 
L 157.340628 246.24 
" clip-path="url(#p56f580d792)" style="fill: none; stroke: #000000; stroke-width: 1.5"/>
    <path d="M 170.790911 246.24 
L 170.790911 44.64 
" clip-path="url(#p56f580d792)" style="fill: none; stroke: #000000; stroke-width: 1.5"/>
    <path d="M 170.790911 246.24 
L 170.790911 246.24 
" clip-path="url(#p56f580d792)" style="fill: none; stroke: #000000; stroke-width: 1.5"/>
    <path d="M 170.790911 246.24 
L 170.790911 246.24 
" clip-path="url(#p56f580d792)" style="fill: none; stroke: #000000; stroke-width: 1.5"/>
    <path d="M 170.790911 246.24 
L 170.790911 246.24 
" clip-path="url(#p56f580d792)" style="fill: none; stroke: #000000; stroke-width: 1.5"/>
    <path d="M 177.031956 246.24 
L 177.031956 152.695909 
" clip-path="url(#p56f580d792)" style="fill: none; stroke: #000000; stroke-width: 1.5"/>
    <path d="M 177.031956 246.24 
L 177.031956 246.24 
" clip-path="url(#p56f580d792)" style="fill: none; stroke: #000000; stroke-width: 1.5"/>
    <path d="M 187.440388 246.24 
L 187.440388 90.232884 
" clip-path="url(#p56f580d792)" style="fill: none; stroke: #000000; stroke-width: 1.5"/>
    <path d="M 187.440388 246.24 
L 187.440388 246.24 
" clip-path="url(#p56f580d792)" style="fill: none; stroke: #000000; stroke-width: 1.5"/>
    <path d="M 198.632681 246.24 
L 198.632681 78.483964 
" clip-path="url(#p56f580d792)" style="fill: none; stroke: #000000; stroke-width: 1.5"/>
    <path d="M 198.632681 246.24 
L 198.632681 246.24 
" clip-path="url(#p56f580d792)" style="fill: none; stroke: #000000; stroke-width: 1.5"/>
    <path d="M 208.71273 246.24 
L 208.71273 95.154867 
" clip-path="url(#p56f580d792)" style="fill: none; stroke: #000000; stroke-width: 1.5"/>
    <path d="M 208.71273 246.24 
L 208.71273 246.24 
" clip-path="url(#p56f580d792)" style="fill: none; stroke: #000000; stroke-width: 1.5"/>
    <path d="M 220.156755 246.24 
L 220.156755 74.710874 
" clip-path="url(#p56f580d792)" style="fill: none; stroke: #000000; stroke-width: 1.5"/>
    <path d="M 220.156755 246.24 
L 220.156755 246.24 
" clip-path="url(#p56f580d792)" style="fill: none; stroke: #000000; stroke-width: 1.5"/>
    <path d="M 229.817151 246.24 
L 229.817151 101.444857 
" clip-path="url(#p56f580d792)" style="fill: none; stroke: #000000; stroke-width: 1.5"/>
    <path d="M 229.817151 246.24 
L 229.817151 246.24 
" clip-path="url(#p56f580d792)" style="fill: none; stroke: #000000; stroke-width: 1.5"/>
    <path d="M 229.817151 246.24 
L 229.817151 246.24 
" clip-path="url(#p56f580d792)" style="fill: none; stroke: #000000; stroke-width: 1.5"/>
    <path d="M 229.817151 246.24 
L 229.817151 246.24 
" clip-path="url(#p56f580d792)" style="fill: none; stroke: #000000; stroke-width: 1.5"/>
    <path d="M 241.589574 246.24 
L 241.589574 69.788666 
" clip-path="url(#p56f580d792)" style="fill: none; stroke: #000000; stroke-width: 1.5"/>
    <path d="M 241.589574 246.24 
L 241.589574 246.24 
" clip-path="url(#p56f580d792)" style="fill: none; stroke: #000000; stroke-width: 1.5"/>
    <path d="M 250.69858 246.24 
L 250.69858 109.709377 
" clip-path="url(#p56f580d792)" style="fill: none; stroke: #000000; stroke-width: 1.5"/>
    <path d="M 250.69858 246.24 
L 250.69858 246.24 
" clip-path="url(#p56f580d792)" style="fill: none; stroke: #000000; stroke-width: 1.5"/>
    <path d="M 262.747979 246.24 
L 262.747979 65.637205 
" clip-path="url(#p56f580d792)" style="fill: none; stroke: #000000; stroke-width: 1.5"/>
    <path d="M 262.747979 246.24 
L 262.747979 246.24 
" clip-path="url(#p56f580d792)" style="fill: none; stroke: #000000; stroke-width: 1.5"/>
    <path d="M 271.378449 246.24 
L 271.378449 116.881931 
" clip-path="url(#p56f580d792)" style="fill: none; stroke: #000000; stroke-width: 1.5"/>
    <path d="M 271.378449 246.24 
L 271.378449 246.24 
" clip-path="url(#p56f580d792)" style="fill: none; stroke: #000000; stroke-width: 1.5"/>
    <path d="M 271.378449 246.24 
L 271.378449 246.24 
" clip-path="url(#p56f580d792)" style="fill: none; stroke: #000000; stroke-width: 1.5"/>
    <path d="M 271.378449 246.24 
L 271.378449 246.24 
" clip-path="url(#p56f580d792)" style="fill: none; stroke: #000000; stroke-width: 1.5"/>
    <path d="M 283.510046 246.24 
L 283.510046 64.405184 
" clip-path="url(#p56f580d792)" style="fill: none; stroke: #000000; stroke-width: 1.5"/>
    <path d="M 283.510046 246.24 
L 283.510046 246.24 
" clip-path="url(#p56f580d792)" style="fill: none; stroke: #000000; stroke-width: 1.5"/>
    <path d="M 283.510046 246.24 
L 283.510046 246.24 
" clip-path="url(#p56f580d792)" style="fill: none; stroke: #000000; stroke-width: 1.5"/>
    <path d="M 283.510046 246.24 
L 283.510046 246.24 
" clip-path="url(#p56f580d792)" style="fill: none; stroke: #000000; stroke-width: 1.5"/>
    <path d="M 291.990076 246.24 
L 291.990076 119.136795 
" clip-path="url(#p56f580d792)" style="fill: none; stroke: #000000; stroke-width: 1.5"/>
    <path d="M 291.990076 246.24 
L 291.990076 246.24 
" clip-path="url(#p56f580d792)" style="fill: none; stroke: #000000; stroke-width: 1.5"/>
    <path d="M 304.118839 246.24 
L 304.118839 64.447652 
" clip-path="url(#p56f580d792)" style="fill: none; stroke: #000000; stroke-width: 1.5"/>
    <path d="M 304.118839 246.24 
L 304.118839 246.24 
" clip-path="url(#p56f580d792)" style="fill: none; stroke: #000000; stroke-width: 1.5"/>
    <path d="M 312.603633 246.24 
L 312.603633 119.065413 
" clip-path="url(#p56f580d792)" style="fill: none; stroke: #000000; stroke-width: 1.5"/>
    <path d="M 312.603633 246.24 
L 312.603633 246.24 
" clip-path="url(#p56f580d792)" style="fill: none; stroke: #000000; stroke-width: 1.5"/>
    <path d="M 324.735365 246.24 
L 324.735365 64.403151 
" clip-path="url(#p56f580d792)" style="fill: none; stroke: #000000; stroke-width: 1.5"/>
    <path d="M 324.735365 246.24 
L 324.735365 246.24 
" clip-path="url(#p56f580d792)" style="fill: none; stroke: #000000; stroke-width: 1.5"/>
    <path d="M 333.212698 246.24 
L 333.212698 119.17723 
" clip-path="url(#p56f580d792)" style="fill: none; stroke: #000000; stroke-width: 1.5"/>
    <path d="M 333.212698 246.24 
L 333.212698 246.24 
" clip-path="url(#p56f580d792)" style="fill: none; stroke: #000000; stroke-width: 1.5"/>
    <path d="M 345.343073 246.24 
L 345.343073 64.423482 
" clip-path="url(#p56f580d792)" style="fill: none; stroke: #000000; stroke-width: 1.5"/>
    <path d="M 345.343073 246.24 
L 345.343073 246.24 
" clip-path="url(#p56f580d792)" style="fill: none; stroke: #000000; stroke-width: 1.5"/>
    <path d="M 353.822848 246.24 
L 353.822848 119.140635 
" clip-path="url(#p56f580d792)" style="fill: none; stroke: #000000; stroke-width: 1.5"/>
    <path d="M 353.822848 246.24 
L 353.822848 246.24 
" clip-path="url(#p56f580d792)" style="fill: none; stroke: #000000; stroke-width: 1.5"/>
    <path d="M 353.822848 246.24 
L 353.822848 246.24 
" clip-path="url(#p56f580d792)" style="fill: none; stroke: #000000; stroke-width: 1.5"/>
    <path d="M 353.822848 246.24 
L 353.822848 246.24 
" clip-path="url(#p56f580d792)" style="fill: none; stroke: #000000; stroke-width: 1.5"/>
    <path d="M 365.952817 246.24 
L 365.952817 64.429581 
" clip-path="url(#p56f580d792)" style="fill: none; stroke: #000000; stroke-width: 1.5"/>
    <path d="M 365.952817 246.24 
L 365.952817 246.24 
" clip-path="url(#p56f580d792)" style="fill: none; stroke: #000000; stroke-width: 1.5"/>
    <path d="M 374.435831 246.24 
L 374.435831 119.092068 
" clip-path="url(#p56f580d792)" style="fill: none; stroke: #000000; stroke-width: 1.5"/>
    <path d="M 374.435831 246.24 
L 374.435831 246.24 
" clip-path="url(#p56f580d792)" style="fill: none; stroke: #000000; stroke-width: 1.5"/>
    <path d="M 386.567428 246.24 
L 386.567428 64.405184 
" clip-path="url(#p56f580d792)" style="fill: none; stroke: #000000; stroke-width: 1.5"/>
    <path d="M 386.567428 246.24 
L 386.567428 246.24 
" clip-path="url(#p56f580d792)" style="fill: none; stroke: #000000; stroke-width: 1.5"/>
    <path d="M 395.046675 246.24 
L 395.046675 119.148542 
" clip-path="url(#p56f580d792)" style="fill: none; stroke: #000000; stroke-width: 1.5"/>
    <path d="M 395.046675 246.24 
L 395.046675 246.24 
" clip-path="url(#p56f580d792)" style="fill: none; stroke: #000000; stroke-width: 1.5"/>
    <path d="M 407.175016 246.24 
L 407.175016 64.453977 
" clip-path="url(#p56f580d792)" style="fill: none; stroke: #000000; stroke-width: 1.5"/>
    <path d="M 407.175016 246.24 
L 407.175016 246.24 
" clip-path="url(#p56f580d792)" style="fill: none; stroke: #000000; stroke-width: 1.5"/>
    <path d="M 415.659809 246.24 
L 415.659809 119.065413 
" clip-path="url(#p56f580d792)" style="fill: none; stroke: #000000; stroke-width: 1.5"/>
    <path d="M 415.659809 246.24 
L 415.659809 246.24 
" clip-path="url(#p56f580d792)" style="fill: none; stroke: #000000; stroke-width: 1.5"/>
    <path d="M 427.79222 246.24 
L 427.79222 64.392986 
" clip-path="url(#p56f580d792)" style="fill: none; stroke: #000000; stroke-width: 1.5"/>
    <path d="M 427.79222 246.24 
L 427.79222 246.24 
" clip-path="url(#p56f580d792)" style="fill: none; stroke: #000000; stroke-width: 1.5"/>
    <path d="M 436.268332 246.24 
L 436.268332 119.195527 
" clip-path="url(#p56f580d792)" style="fill: none; stroke: #000000; stroke-width: 1.5"/>
    <path d="M 436.268332 246.24 
L 436.268332 246.24 
" clip-path="url(#p56f580d792)" style="fill: none; stroke: #000000; stroke-width: 1.5"/>
    <path d="M 448.399928 246.24 
L 448.399928 64.405184 
" clip-path="url(#p56f580d792)" style="fill: none; stroke: #000000; stroke-width: 1.5"/>
    <path d="M 448.399928 246.24 
L 448.399928 246.24 
" clip-path="url(#p56f580d792)" style="fill: none; stroke: #000000; stroke-width: 1.5"/>
    <path d="M 456.883365 246.24 
L 456.883365 119.085743 
" clip-path="url(#p56f580d792)" style="fill: none; stroke: #000000; stroke-width: 1.5"/>
    <path d="M 456.883365 246.24 
L 456.883365 246.24 
" clip-path="url(#p56f580d792)" style="fill: none; stroke: #000000; stroke-width: 1.5"/>
    <path d="M 469.015775 246.24 
L 469.015775 64.392986 
" clip-path="url(#p56f580d792)" style="fill: none; stroke: #000000; stroke-width: 1.5"/>
    <path d="M 469.015775 246.24 
L 469.015775 246.24 
" clip-path="url(#p56f580d792)" style="fill: none; stroke: #000000; stroke-width: 1.5"/>
    <path d="M 477.493244 246.24 
L 477.493244 119.175197 
" clip-path="url(#p56f580d792)" style="fill: none; stroke: #000000; stroke-width: 1.5"/>
    <path d="M 477.493244 246.24 
L 477.493244 246.24 
" clip-path="url(#p56f580d792)" style="fill: none; stroke: #000000; stroke-width: 1.5"/>
    <path d="M 489.625383 246.24 
L 489.625383 64.397052 
" clip-path="url(#p56f580d792)" style="fill: none; stroke: #000000; stroke-width: 1.5"/>
    <path d="M 489.625383 246.24 
L 489.625383 246.24 
" clip-path="url(#p56f580d792)" style="fill: none; stroke: #000000; stroke-width: 1.5"/>
    <path d="M 498.109091 246.24 
L 498.109091 119.081677 
" clip-path="url(#p56f580d792)" style="fill: none; stroke: #000000; stroke-width: 1.5"/>
    <path d="M 498.109091 246.24 
L 498.109091 246.24 
" clip-path="url(#p56f580d792)" style="fill: none; stroke: #000000; stroke-width: 1.5"/>
   </g>
   <g id="line2d_27">
    <defs>
     <path id="m0c40bfc9e5" d="M 0 3 
C 0.795609 3 1.55874 2.683901 2.12132 2.12132 
C 2.683901 1.55874 3 0.795609 3 0 
C 3 -0.795609 2.683901 -1.55874 2.12132 -2.12132 
C 1.55874 -2.683901 0.795609 -3 0 -3 
C -0.795609 -3 -1.55874 -2.683901 -2.12132 -2.12132 
C -2.683901 -1.55874 -3 -0.795609 -3 0 
C -3 0.795609 -2.683901 1.55874 -2.12132 2.12132 
C -1.55874 2.683901 -0.795609 3 0 3 
z
" style="stroke: #000000"/>
    </defs>
    <g clip-path="url(#p56f580d792)">
     <use xlink:href="#m0c40bfc9e5" x="92.290909" y="246.24" style="stroke: #000000"/>
     <use xlink:href="#m0c40bfc9e5" x="93.001389" y="235.590953" style="stroke: #000000"/>
     <use xlink:href="#m0c40bfc9e5" x="93.001389" y="246.24" style="stroke: #000000"/>
     <use xlink:href="#m0c40bfc9e5" x="97.367624" y="180.796544" style="stroke: #000000"/>
     <use xlink:href="#m0c40bfc9e5" x="97.367624" y="246.24" style="stroke: #000000"/>
     <use xlink:href="#m0c40bfc9e5" x="104.926813" y="132.938856" style="stroke: #000000"/>
     <use xlink:href="#m0c40bfc9e5" x="104.926813" y="246.24" style="stroke: #000000"/>
     <use xlink:href="#m0c40bfc9e5" x="113.470745" y="118.179009" style="stroke: #000000"/>
     <use xlink:href="#m0c40bfc9e5" x="113.470745" y="246.24" style="stroke: #000000"/>
     <use xlink:href="#m0c40bfc9e5" x="123.305965" y="98.824498" style="stroke: #000000"/>
     <use xlink:href="#m0c40bfc9e5" x="123.305965" y="246.24" style="stroke: #000000"/>
     <use xlink:href="#m0c40bfc9e5" x="134.728288" y="75.03616" style="stroke: #000000"/>
     <use xlink:href="#m0c40bfc9e5" x="134.728288" y="246.24" style="stroke: #000000"/>
     <use xlink:href="#m0c40bfc9e5" x="147.053728" y="61.499749" style="stroke: #000000"/>
     <use xlink:href="#m0c40bfc9e5" x="147.053728" y="246.24" style="stroke: #000000"/>
     <use xlink:href="#m0c40bfc9e5" x="157.340628" y="92.054485" style="stroke: #000000"/>
     <use xlink:href="#m0c40bfc9e5" x="157.340628" y="246.24" style="stroke: #000000"/>
     <use xlink:href="#m0c40bfc9e5" x="170.790911" y="44.64" style="stroke: #000000"/>
     <use xlink:href="#m0c40bfc9e5" x="170.790911" y="246.24" style="stroke: #000000"/>
     <use xlink:href="#m0c40bfc9e5" x="170.790911" y="246.24" style="stroke: #000000"/>
     <use xlink:href="#m0c40bfc9e5" x="170.790911" y="246.24" style="stroke: #000000"/>
     <use xlink:href="#m0c40bfc9e5" x="177.031956" y="152.695909" style="stroke: #000000"/>
     <use xlink:href="#m0c40bfc9e5" x="177.031956" y="246.24" style="stroke: #000000"/>
     <use xlink:href="#m0c40bfc9e5" x="187.440388" y="90.232884" style="stroke: #000000"/>
     <use xlink:href="#m0c40bfc9e5" x="187.440388" y="246.24" style="stroke: #000000"/>
     <use xlink:href="#m0c40bfc9e5" x="198.632681" y="78.483964" style="stroke: #000000"/>
     <use xlink:href="#m0c40bfc9e5" x="198.632681" y="246.24" style="stroke: #000000"/>
     <use xlink:href="#m0c40bfc9e5" x="208.71273" y="95.154867" style="stroke: #000000"/>
     <use xlink:href="#m0c40bfc9e5" x="208.71273" y="246.24" style="stroke: #000000"/>
     <use xlink:href="#m0c40bfc9e5" x="220.156755" y="74.710874" style="stroke: #000000"/>
     <use xlink:href="#m0c40bfc9e5" x="220.156755" y="246.24" style="stroke: #000000"/>
     <use xlink:href="#m0c40bfc9e5" x="229.817151" y="101.444857" style="stroke: #000000"/>
     <use xlink:href="#m0c40bfc9e5" x="229.817151" y="246.24" style="stroke: #000000"/>
     <use xlink:href="#m0c40bfc9e5" x="229.817151" y="246.24" style="stroke: #000000"/>
     <use xlink:href="#m0c40bfc9e5" x="229.817151" y="246.24" style="stroke: #000000"/>
     <use xlink:href="#m0c40bfc9e5" x="241.589574" y="69.788666" style="stroke: #000000"/>
     <use xlink:href="#m0c40bfc9e5" x="241.589574" y="246.24" style="stroke: #000000"/>
     <use xlink:href="#m0c40bfc9e5" x="250.69858" y="109.709377" style="stroke: #000000"/>
     <use xlink:href="#m0c40bfc9e5" x="250.69858" y="246.24" style="stroke: #000000"/>
     <use xlink:href="#m0c40bfc9e5" x="262.747979" y="65.637205" style="stroke: #000000"/>
     <use xlink:href="#m0c40bfc9e5" x="262.747979" y="246.24" style="stroke: #000000"/>
     <use xlink:href="#m0c40bfc9e5" x="271.378449" y="116.881931" style="stroke: #000000"/>
     <use xlink:href="#m0c40bfc9e5" x="271.378449" y="246.24" style="stroke: #000000"/>
     <use xlink:href="#m0c40bfc9e5" x="271.378449" y="246.24" style="stroke: #000000"/>
     <use xlink:href="#m0c40bfc9e5" x="271.378449" y="246.24" style="stroke: #000000"/>
     <use xlink:href="#m0c40bfc9e5" x="283.510046" y="64.405184" style="stroke: #000000"/>
     <use xlink:href="#m0c40bfc9e5" x="283.510046" y="246.24" style="stroke: #000000"/>
     <use xlink:href="#m0c40bfc9e5" x="283.510046" y="246.24" style="stroke: #000000"/>
     <use xlink:href="#m0c40bfc9e5" x="283.510046" y="246.24" style="stroke: #000000"/>
     <use xlink:href="#m0c40bfc9e5" x="291.990076" y="119.136795" style="stroke: #000000"/>
     <use xlink:href="#m0c40bfc9e5" x="291.990076" y="246.24" style="stroke: #000000"/>
     <use xlink:href="#m0c40bfc9e5" x="304.118839" y="64.447652" style="stroke: #000000"/>
     <use xlink:href="#m0c40bfc9e5" x="304.118839" y="246.24" style="stroke: #000000"/>
     <use xlink:href="#m0c40bfc9e5" x="312.603633" y="119.065413" style="stroke: #000000"/>
     <use xlink:href="#m0c40bfc9e5" x="312.603633" y="246.24" style="stroke: #000000"/>
     <use xlink:href="#m0c40bfc9e5" x="324.735365" y="64.403151" style="stroke: #000000"/>
     <use xlink:href="#m0c40bfc9e5" x="324.735365" y="246.24" style="stroke: #000000"/>
     <use xlink:href="#m0c40bfc9e5" x="333.212698" y="119.17723" style="stroke: #000000"/>
     <use xlink:href="#m0c40bfc9e5" x="333.212698" y="246.24" style="stroke: #000000"/>
     <use xlink:href="#m0c40bfc9e5" x="345.343073" y="64.423482" style="stroke: #000000"/>
     <use xlink:href="#m0c40bfc9e5" x="345.343073" y="246.24" style="stroke: #000000"/>
     <use xlink:href="#m0c40bfc9e5" x="353.822848" y="119.140635" style="stroke: #000000"/>
     <use xlink:href="#m0c40bfc9e5" x="353.822848" y="246.24" style="stroke: #000000"/>
     <use xlink:href="#m0c40bfc9e5" x="353.822848" y="246.24" style="stroke: #000000"/>
     <use xlink:href="#m0c40bfc9e5" x="353.822848" y="246.24" style="stroke: #000000"/>
     <use xlink:href="#m0c40bfc9e5" x="365.952817" y="64.429581" style="stroke: #000000"/>
     <use xlink:href="#m0c40bfc9e5" x="365.952817" y="246.24" style="stroke: #000000"/>
     <use xlink:href="#m0c40bfc9e5" x="374.435831" y="119.092068" style="stroke: #000000"/>
     <use xlink:href="#m0c40bfc9e5" x="374.435831" y="246.24" style="stroke: #000000"/>
     <use xlink:href="#m0c40bfc9e5" x="386.567428" y="64.405184" style="stroke: #000000"/>
     <use xlink:href="#m0c40bfc9e5" x="386.567428" y="246.24" style="stroke: #000000"/>
     <use xlink:href="#m0c40bfc9e5" x="395.046675" y="119.148542" style="stroke: #000000"/>
     <use xlink:href="#m0c40bfc9e5" x="395.046675" y="246.24" style="stroke: #000000"/>
     <use xlink:href="#m0c40bfc9e5" x="407.175016" y="64.453977" style="stroke: #000000"/>
     <use xlink:href="#m0c40bfc9e5" x="407.175016" y="246.24" style="stroke: #000000"/>
     <use xlink:href="#m0c40bfc9e5" x="415.659809" y="119.065413" style="stroke: #000000"/>
     <use xlink:href="#m0c40bfc9e5" x="415.659809" y="246.24" style="stroke: #000000"/>
     <use xlink:href="#m0c40bfc9e5" x="427.79222" y="64.392986" style="stroke: #000000"/>
     <use xlink:href="#m0c40bfc9e5" x="427.79222" y="246.24" style="stroke: #000000"/>
     <use xlink:href="#m0c40bfc9e5" x="436.268332" y="119.195527" style="stroke: #000000"/>
     <use xlink:href="#m0c40bfc9e5" x="436.268332" y="246.24" style="stroke: #000000"/>
     <use xlink:href="#m0c40bfc9e5" x="448.399928" y="64.405184" style="stroke: #000000"/>
     <use xlink:href="#m0c40bfc9e5" x="448.399928" y="246.24" style="stroke: #000000"/>
     <use xlink:href="#m0c40bfc9e5" x="456.883365" y="119.085743" style="stroke: #000000"/>
     <use xlink:href="#m0c40bfc9e5" x="456.883365" y="246.24" style="stroke: #000000"/>
     <use xlink:href="#m0c40bfc9e5" x="469.015775" y="64.392986" style="stroke: #000000"/>
     <use xlink:href="#m0c40bfc9e5" x="469.015775" y="246.24" style="stroke: #000000"/>
     <use xlink:href="#m0c40bfc9e5" x="477.493244" y="119.175197" style="stroke: #000000"/>
     <use xlink:href="#m0c40bfc9e5" x="477.493244" y="246.24" style="stroke: #000000"/>
     <use xlink:href="#m0c40bfc9e5" x="489.625383" y="64.397052" style="stroke: #000000"/>
     <use xlink:href="#m0c40bfc9e5" x="489.625383" y="246.24" style="stroke: #000000"/>
     <use xlink:href="#m0c40bfc9e5" x="498.109091" y="119.081677" style="stroke: #000000"/>
     <use xlink:href="#m0c40bfc9e5" x="498.109091" y="246.24" style="stroke: #000000"/>
    </g>
   </g>
   <g id="line2d_28"/>
   <g id="patch_3">
    <path d="M 72 256.32 
L 72 34.56 
" style="fill: none; stroke: #000000; stroke-width: 0.8; stroke-linejoin: miter; stroke-linecap: square"/>
   </g>
   <g id="patch_4">
    <path d="M 518.4 256.32 
L 518.4 34.56 
" style="fill: none; stroke: #000000; stroke-width: 0.8; stroke-linejoin: miter; stroke-linecap: square"/>
   </g>
   <g id="patch_5">
    <path d="M 72 256.32 
L 518.4 256.32 
" style="fill: none; stroke: #000000; stroke-width: 0.8; stroke-linejoin: miter; stroke-linecap: square"/>
   </g>
   <g id="patch_6">
    <path d="M 72 34.56 
L 518.4 34.56 
" style="fill: none; stroke: #000000; stroke-width: 0.8; stroke-linejoin: miter; stroke-linecap: square"/>
   </g>
   <g id="text_16">
    <!-- Inter-event times -->
    <g transform="translate(243.657187 28.56) scale(0.12 -0.12)">
     <defs>
      <path id="DejaVuSans-49" d="M 628 4666 
L 1259 4666 
L 1259 0 
L 628 0 
L 628 4666 
z
" transform="scale(0.015625)"/>
     </defs>
     <use xlink:href="#DejaVuSans-49"/>
     <use xlink:href="#DejaVuSans-6e" x="29.492188"/>
     <use xlink:href="#DejaVuSans-74" x="92.871094"/>
     <use xlink:href="#DejaVuSans-65" x="132.080078"/>
     <use xlink:href="#DejaVuSans-72" x="193.603516"/>
     <use xlink:href="#DejaVuSans-2d" x="228.341797"/>
     <use xlink:href="#DejaVuSans-65" x="264.425781"/>
     <use xlink:href="#DejaVuSans-76" x="325.949219"/>
     <use xlink:href="#DejaVuSans-65" x="385.128906"/>
     <use xlink:href="#DejaVuSans-6e" x="446.652344"/>
     <use xlink:href="#DejaVuSans-74" x="510.03125"/>
     <use xlink:href="#DejaVuSans-20" x="549.240234"/>
     <use xlink:href="#DejaVuSans-74" x="581.027344"/>
     <use xlink:href="#DejaVuSans-69" x="620.236328"/>
     <use xlink:href="#DejaVuSans-6d" x="648.019531"/>
     <use xlink:href="#DejaVuSans-65" x="745.431641"/>
     <use xlink:href="#DejaVuSans-73" x="806.955078"/>
    </g>
   </g>
  </g>
 </g>
 <defs>
  <clipPath id="p56f580d792">
   <rect x="72" y="34.56" width="446.4" height="221.76"/>
  </clipPath>
 </defs>
</svg>
